<svg width="16" height="16" viewBox="0 0 16 16" fill="none" xmlns="http://www.w3.org/2000/svg">
<path fill-rule="evenodd" clip-rule="evenodd" d="M9.72656 6.37891C9.9933 6.45038 10.1515 6.72546 10.0801 6.99219L9.94434 7.5H10.2344C10.5103 7.50026 10.7344 7.72402 10.7344 8C10.7344 8.27598 10.5103 8.49974 10.2344 8.5H9.67578L9.39746 9.53809H10.2344C10.5103 9.53835 10.7344 9.76211 10.7344 10.0381C10.7341 10.3138 10.5101 10.5378 10.2344 10.5381H9.12988L8.92383 11.3076C8.85226 11.5741 8.57809 11.7324 8.31152 11.6611C8.04488 11.5897 7.88672 11.3155 7.95801 11.0488L8.09473 10.5381H7.0918L6.88574 11.3076C6.81411 11.5741 6.54004 11.7326 6.27344 11.6611C6.00697 11.5896 5.84874 11.3154 5.91992 11.0488L6.05664 10.5381H5.7666C5.49062 10.5381 5.26686 10.314 5.2666 10.0381C5.2666 9.76194 5.49046 9.53809 5.7666 9.53809H6.32422L6.60254 8.5H5.7666C5.49046 8.5 5.2666 8.27614 5.2666 8C5.2666 7.72386 5.49046 7.5 5.7666 7.5H6.87109L7.07617 6.7334C7.1476 6.46684 7.42191 6.30778 7.68848 6.37891C7.95521 6.45038 8.11346 6.72546 8.04199 6.99219L7.90625 7.5H8.90918L9.11426 6.7334C9.18572 6.46669 9.45985 6.30748 9.72656 6.37891ZM7.35938 9.53809H8.3623L8.64062 8.5H7.6377L7.35938 9.53809Z" fill="white"/>
<path fill-rule="evenodd" clip-rule="evenodd" d="M10.9863 2.02344C11.0517 2.02332 11.1163 2.03661 11.1768 2.06152C11.2373 2.08648 11.2925 2.12273 11.3389 2.16895L13.3311 4.16113C13.3773 4.20747 13.4135 4.26274 13.4385 4.32324C13.4634 4.38371 13.4767 4.44827 13.4766 4.51367V13.4785C13.4766 13.6106 13.4245 13.7377 13.3311 13.8311C13.2377 13.9245 13.1106 13.9766 12.9785 13.9766H3.02148C2.88939 13.9766 2.76235 13.9245 2.66895 13.8311C2.57554 13.7377 2.52344 13.6106 2.52344 13.4785V2.52149C2.52344 2.3894 2.57554 2.26235 2.66895 2.16895C2.76235 2.07555 2.88939 2.02344 3.02148 2.02344H10.9863ZM3.51953 12.9805H12.4805V5.75H10.9902C10.4726 5.7499 10.0464 5.35661 9.99512 4.85254L9.99023 4.75V3.01953H3.51953V12.9805ZM10.9902 4.75H12.4805V4.71973L10.9902 3.22949V4.75Z" fill="white"/>
</svg>
