<svg width="16" height="16" viewBox="0 0 16 16" fill="none" xmlns="http://www.w3.org/2000/svg">
<path d="M6.85464 14H3.45034C3.21584 13.9998 3.00022 13.8605 2.92788 13.6396C2.75265 13.1008 2.74846 12.6768 2.93179 12.0859C3.00191 11.8599 3.22124 11.7139 3.46109 11.7139H4.56851L6.85464 14Z" fill="white"/>
<path d="M12.5197 11.7139C12.7509 11.7139 12.9639 11.8501 13.0402 12.0654C13.2772 12.7338 13.2398 13.1513 13.046 13.6592C12.9656 13.8693 12.7543 14 12.5265 14H6.85464L9.22183 11.7139H12.5197Z" fill="white"/>
<path d="M2.57827 12.2852C2.48459 12.692 2.48216 13.0453 2.56948 13.4287H2.33706C2.26031 13.4287 2.18419 13.3999 2.14077 13.3379C1.9534 13.067 1.9534 12.6468 2.14077 12.376C2.18418 12.3139 2.26028 12.2852 2.33706 12.2852H2.57827Z" fill="white"/>
<path d="M13.6632 12.2852C13.7401 12.2852 13.8161 12.3138 13.8595 12.376C14.0469 12.6468 14.0469 13.067 13.8595 13.3379C13.8161 13.4 13.74 13.4287 13.6632 13.4287H13.423C13.4652 13.2665 13.4914 13.1015 13.4943 12.9268C13.4972 12.7228 13.4693 12.5132 13.4103 12.2852H13.6632Z" fill="white"/>
<path d="M8.25015 4.33789L5.7687 6.81934H13.5451V8.72754H5.7687L8.25015 11.208L6.86636 12.5439L2.09585 7.77344L6.86636 3.00195L8.25015 4.33789Z" fill="white"/>
<path d="M4.28237 11.4277H3.9523V11.0977L4.28237 11.4277Z" fill="white"/>
<path d="M12.048 11.4277H9.51773L9.67691 11.2744L8.18374 9.78125H12.048V11.4277Z" fill="white"/>
<path d="M12.048 5.5957C12.048 5.67155 12.0176 5.74379 11.964 5.79688L11.8869 5.87305H8.18277L9.48452 4.57129H12.048V5.5957Z" fill="white"/>
<path d="M4.2228 4.28613H3.45034C3.21573 4.28594 3.00012 4.14579 2.92788 3.9248C2.7527 3.38603 2.74848 2.96286 2.93179 2.37207C3.00177 2.14579 3.22109 2 3.46109 2H6.50894L4.2228 4.28613Z" fill="white"/>
<path d="M12.5197 2C12.7509 2.00007 12.9638 2.13533 13.0402 2.35059C13.2773 3.01902 13.2397 3.43647 13.046 3.94434C12.9657 4.1546 12.7544 4.28611 12.5265 4.28613H9.58023L7.21304 2H12.5197Z" fill="white"/>
<path d="M2.57827 2.57129C2.48464 2.97801 2.4822 3.33056 2.56948 3.71387H2.33706C2.26017 3.71386 2.18415 3.68529 2.14077 3.62305C1.9534 3.3522 1.95341 2.93296 2.14077 2.66211C2.18415 2.59983 2.26015 2.57129 2.33706 2.57129H2.57827Z" fill="white"/>
<path d="M13.6632 2.57129C13.7401 2.57129 13.8161 2.59983 13.8595 2.66211C14.0468 2.93295 14.0469 3.35223 13.8595 3.62305C13.8161 3.68533 13.7401 3.71387 13.6632 3.71387H13.423C13.4652 3.55159 13.4914 3.38677 13.4943 3.21191C13.4971 3.00804 13.4692 2.79914 13.4103 2.57129H13.6632Z" fill="white"/>
</svg>
