<svg width="24" height="24" viewBox="0 0 24 24" fill="none" xmlns="http://www.w3.org/2000/svg">
<path d="M16.0703 1.66406C16.4013 1.57585 16.7534 1.60313 17.0664 1.74219L21.582 3.74902C22.1235 3.98976 22.4725 4.52758 22.4727 5.12012V20.1631C22.4726 21.2485 21.3552 21.9749 20.3633 21.5342L17.0654 20.0684C16.7524 19.9293 16.4004 19.901 16.0693 19.9893L7.3125 22.3242C6.95901 22.4184 6.58311 22.3803 6.25586 22.2168L2.35645 20.2676C1.84838 20.0135 1.52738 19.4939 1.52734 18.9258V3.9541C1.52765 2.83942 2.70107 2.11402 3.69824 2.6123L6.25586 3.89062C6.58323 4.05425 6.95886 4.09229 7.3125 3.99805L16.0703 1.66406ZM16.834 3.21387C16.7011 3.15839 16.5532 3.14846 16.4141 3.18555L6.83496 5.74023L3.78418 4.21484C3.68449 4.16487 3.57332 4.14059 3.46191 4.14551C3.35056 4.15045 3.24232 4.18463 3.14746 4.24316C3.05277 4.30165 2.97422 4.38333 2.91992 4.48047C2.86567 4.57781 2.83692 4.68837 2.83691 4.7998V18.5439C2.83691 18.7913 2.97717 19.0188 3.19824 19.1299L6.47168 20.7666C6.61448 20.8379 6.77847 20.854 6.93262 20.8125L16.5361 18.252L20.2578 19.8037C20.3572 19.8448 20.4652 19.8601 20.5723 19.8496C20.6793 19.8391 20.7826 19.8028 20.8721 19.7432C20.9614 19.6835 21.0351 19.6024 21.0859 19.5078C21.1366 19.4131 21.1638 19.3066 21.1641 19.1992V5.4541C21.1643 5.32504 21.1262 5.19824 21.0547 5.09082C20.983 4.98339 20.88 4.89907 20.7607 4.84961L16.834 3.21387ZM10.0381 18.6309L6.83594 19.4844L4.14648 18.1396V14.1006L6.70117 14.6113C6.74135 14.6199 6.78297 14.6204 6.82324 14.6123L10.0381 14.0273V18.6309ZM19.8555 5.88965V11.082L17.7383 9.75781C17.6889 9.72674 17.6315 9.70968 17.5732 9.70801C17.5149 9.70637 17.4564 9.72073 17.4053 9.74902C17.3545 9.77732 17.3117 9.81899 17.2822 9.86914C17.2529 9.91936 17.2372 9.97699 17.2373 10.0352V12.0283L16.7588 11.7227C16.7012 11.6866 16.6333 11.6692 16.5654 11.6729C16.4974 11.6766 16.4313 11.7019 16.3779 11.7441L14.7412 13.0527C14.7035 13.0834 14.6724 13.1222 14.6514 13.166C14.6303 13.21 14.6194 13.2589 14.6191 13.3076V17.4082L10.6924 18.4561V13.6357C10.6922 13.588 10.6814 13.5403 10.6611 13.4971C10.6408 13.4538 10.6109 13.4144 10.5742 13.3838C10.5375 13.3533 10.4944 13.3306 10.4482 13.3184C10.4021 13.3061 10.3536 13.3042 10.3066 13.3125L6.76855 13.957L4.14648 13.4316V8.85352L6.66113 9.69141C6.69433 9.70318 6.72943 9.70838 6.76465 9.70801H9.38281C9.46961 9.70776 9.55267 9.67346 9.61426 9.6123L10.9238 8.30371C10.9848 8.24224 11.0192 8.15882 11.0195 8.07227V5.97949L16.5361 4.50684L19.8555 5.88965ZM19.8555 14.4697V18.2168L16.835 16.959C16.702 16.904 16.5542 16.8932 16.415 16.9297L15.2744 17.2344V13.4648L16.6045 12.4004L19.8555 14.4697ZM6.21094 17.917H8.25293L7.23242 16.1484L6.21094 17.917ZM18.5996 14.3848C18.4531 14.2388 18.2156 14.2395 18.0693 14.3857L17.5859 14.8691L17.1016 14.3848C16.9551 14.2388 16.7176 14.2396 16.5713 14.3857C16.4253 14.5322 16.425 14.7697 16.5713 14.916L17.0547 15.3994L16.5713 15.8838C16.4253 16.0303 16.426 16.2678 16.5723 16.4141C16.7188 16.5601 16.9562 16.5604 17.1025 16.4141L17.5859 15.9287L18.0703 16.4131C18.2168 16.5594 18.4542 16.5595 18.6006 16.4131C18.7465 16.2666 18.7459 16.0291 18.5996 15.8828L18.1152 15.3984L18.5996 14.915C18.7458 14.7686 18.746 14.5311 18.5996 14.3848ZM19.8555 11.8535V13.6943L17.8926 12.4443V10.626L19.8555 11.8535ZM6.47168 7.02148C6.61485 7.09259 6.77922 7.10958 6.93359 7.06836L10.3643 6.15332V7.93652L9.24707 9.05371H6.81738L4.14746 8.16309V5.8584L6.47168 7.02148ZM13.3955 8.41797H15.4375L14.417 6.64844L13.3955 8.41797Z" fill="white"/>
</svg>
