<svg width="16" height="16" viewBox="0 0 16 16" fill="none" xmlns="http://www.w3.org/2000/svg">
<path d="M1 12.5C1.27614 12.5 1.5 12.7239 1.5 13V14C1.5 14.2761 1.72386 14.5 2 14.5H3C3.27614 14.5 3.5 14.7239 3.5 15C3.5 15.2761 3.27614 15.5 3 15.5H2C1.17157 15.5 0.5 14.8284 0.5 14V13C0.5 12.7239 0.723858 12.5 1 12.5Z" fill="white"/>
<path d="M7 14.5C7.27614 14.5 7.5 14.7239 7.5 15C7.5 15.2761 7.27614 15.5 7 15.5H5C4.72386 15.5 4.5 15.2761 4.5 15C4.5 14.7239 4.72386 14.5 5 14.5H7Z" fill="white"/>
<path d="M11 14.5C11.2761 14.5 11.5 14.7239 11.5 15C11.5 15.2761 11.2761 15.5 11 15.5H9C8.72386 15.5 8.5 15.2761 8.5 15C8.5 14.7239 8.72386 14.5 9 14.5H11Z" fill="white"/>
<path d="M15 12.5C15.2761 12.5 15.5 12.7239 15.5 13V14C15.5 14.8284 14.8284 15.5 14 15.5H13C12.7239 15.5 12.5 15.2761 12.5 15C12.5 14.7239 12.7239 14.5 13 14.5H14C14.2761 14.5 14.5 14.2761 14.5 14V13C14.5 12.7239 14.7239 12.5 15 12.5Z" fill="white"/>
<path d="M8.0625 4.10645C8.62495 4.10645 9.08105 4.56255 9.08105 5.125V6.85059H10.8066C11.3691 6.85059 11.8252 7.30669 11.8252 7.86914C11.8252 8.43157 11.3691 8.8877 10.8066 8.8877H9.08105V10.6133C9.081 11.1757 8.62492 11.6318 8.0625 11.6318C7.50008 11.6318 7.044 11.1757 7.04395 10.6133V8.8877H5.31836C4.75592 8.8877 4.29983 8.43157 4.2998 7.86914C4.2998 7.30669 4.75591 6.85059 5.31836 6.85059H7.04395V5.125C7.04395 4.56255 7.50005 4.10645 8.0625 4.10645Z" fill="white"/>
<path d="M1 8.5C1.27614 8.5 1.5 8.72386 1.5 9V11C1.5 11.2761 1.27614 11.5 1 11.5C0.723858 11.5 0.5 11.2761 0.5 11V9C0.5 8.72386 0.723858 8.5 1 8.5Z" fill="white"/>
<path d="M15 8.5C15.2761 8.5 15.5 8.72386 15.5 9V11C15.5 11.2761 15.2761 11.5 15 11.5C14.7239 11.5 14.5 11.2761 14.5 11V9C14.5 8.72386 14.7239 8.5 15 8.5Z" fill="white"/>
<path d="M1 4.5C1.27614 4.5 1.5 4.72386 1.5 5V7C1.5 7.27614 1.27614 7.5 1 7.5C0.723858 7.5 0.5 7.27614 0.5 7V5C0.5 4.72386 0.723858 4.5 1 4.5Z" fill="white"/>
<path d="M15 4.5C15.2761 4.5 15.5 4.72386 15.5 5V7C15.5 7.27614 15.2761 7.5 15 7.5C14.7239 7.5 14.5 7.27614 14.5 7V5C14.5 4.72386 14.7239 4.5 15 4.5Z" fill="white"/>
<path d="M3 0.5C3.27614 0.5 3.5 0.723858 3.5 1C3.5 1.27614 3.27614 1.5 3 1.5H2C1.72386 1.5 1.5 1.72386 1.5 2V3C1.5 3.27614 1.27614 3.5 1 3.5C0.723858 3.5 0.5 3.27614 0.5 3V2C0.5 1.17157 1.17157 0.5 2 0.5H3Z" fill="white"/>
<path d="M14 0.5C14.8284 0.5 15.5 1.17157 15.5 2V3C15.5 3.27614 15.2761 3.5 15 3.5C14.7239 3.5 14.5 3.27614 14.5 3V2C14.5 1.72386 14.2761 1.5 14 1.5H13C12.7239 1.5 12.5 1.27614 12.5 1C12.5 0.723858 12.7239 0.5 13 0.5H14Z" fill="white"/>
<path d="M7 0.5C7.27614 0.5 7.5 0.723858 7.5 1C7.5 1.27614 7.27614 1.5 7 1.5H5C4.72386 1.5 4.5 1.27614 4.5 1C4.5 0.723858 4.72386 0.5 5 0.5H7Z" fill="white"/>
<path d="M11 0.5C11.2761 0.5 11.5 0.723858 11.5 1C11.5 1.27614 11.2761 1.5 11 1.5H9C8.72386 1.5 8.5 1.27614 8.5 1C8.5 0.723858 8.72386 0.5 9 0.5H11Z" fill="white"/>
<path d="M1 12.5C1.27614 12.5 1.5 12.7239 1.5 13V14C1.5 14.2761 1.72386 14.5 2 14.5H3C3.27614 14.5 3.5 14.7239 3.5 15C3.5 15.2761 3.27614 15.5 3 15.5H2C1.17157 15.5 0.5 14.8284 0.5 14V13C0.5 12.7239 0.723858 12.5 1 12.5Z" stroke="black" stroke-opacity="0.2"/>
<path d="M7 14.5C7.27614 14.5 7.5 14.7239 7.5 15C7.5 15.2761 7.27614 15.5 7 15.5H5C4.72386 15.5 4.5 15.2761 4.5 15C4.5 14.7239 4.72386 14.5 5 14.5H7Z" stroke="black" stroke-opacity="0.2"/>
<path d="M11 14.5C11.2761 14.5 11.5 14.7239 11.5 15C11.5 15.2761 11.2761 15.5 11 15.5H9C8.72386 15.5 8.5 15.2761 8.5 15C8.5 14.7239 8.72386 14.5 9 14.5H11Z" stroke="black" stroke-opacity="0.2"/>
<path d="M15 12.5C15.2761 12.5 15.5 12.7239 15.5 13V14C15.5 14.8284 14.8284 15.5 14 15.5H13C12.7239 15.5 12.5 15.2761 12.5 15C12.5 14.7239 12.7239 14.5 13 14.5H14C14.2761 14.5 14.5 14.2761 14.5 14V13C14.5 12.7239 14.7239 12.5 15 12.5Z" stroke="black" stroke-opacity="0.2"/>
<path d="M8.0625 4.10645C8.62495 4.10645 9.08105 4.56255 9.08105 5.125V6.85059H10.8066C11.3691 6.85059 11.8252 7.30669 11.8252 7.86914C11.8252 8.43157 11.3691 8.8877 10.8066 8.8877H9.08105V10.6133C9.081 11.1757 8.62492 11.6318 8.0625 11.6318C7.50008 11.6318 7.044 11.1757 7.04395 10.6133V8.8877H5.31836C4.75592 8.8877 4.29983 8.43157 4.2998 7.86914C4.2998 7.30669 4.75591 6.85059 5.31836 6.85059H7.04395V5.125C7.04395 4.56255 7.50005 4.10645 8.0625 4.10645Z" stroke="black" stroke-opacity="0.2"/>
<path d="M1 8.5C1.27614 8.5 1.5 8.72386 1.5 9V11C1.5 11.2761 1.27614 11.5 1 11.5C0.723858 11.5 0.5 11.2761 0.5 11V9C0.5 8.72386 0.723858 8.5 1 8.5Z" stroke="black" stroke-opacity="0.2"/>
<path d="M15 8.5C15.2761 8.5 15.5 8.72386 15.5 9V11C15.5 11.2761 15.2761 11.5 15 11.5C14.7239 11.5 14.5 11.2761 14.5 11V9C14.5 8.72386 14.7239 8.5 15 8.5Z" stroke="black" stroke-opacity="0.2"/>
<path d="M1 4.5C1.27614 4.5 1.5 4.72386 1.5 5V7C1.5 7.27614 1.27614 7.5 1 7.5C0.723858 7.5 0.5 7.27614 0.5 7V5C0.5 4.72386 0.723858 4.5 1 4.5Z" stroke="black" stroke-opacity="0.2"/>
<path d="M15 4.5C15.2761 4.5 15.5 4.72386 15.5 5V7C15.5 7.27614 15.2761 7.5 15 7.5C14.7239 7.5 14.5 7.27614 14.5 7V5C14.5 4.72386 14.7239 4.5 15 4.5Z" stroke="black" stroke-opacity="0.2"/>
<path d="M3 0.5C3.27614 0.5 3.5 0.723858 3.5 1C3.5 1.27614 3.27614 1.5 3 1.5H2C1.72386 1.5 1.5 1.72386 1.5 2V3C1.5 3.27614 1.27614 3.5 1 3.5C0.723858 3.5 0.5 3.27614 0.5 3V2C0.5 1.17157 1.17157 0.5 2 0.5H3Z" stroke="black" stroke-opacity="0.2"/>
<path d="M14 0.5C14.8284 0.5 15.5 1.17157 15.5 2V3C15.5 3.27614 15.2761 3.5 15 3.5C14.7239 3.5 14.5 3.27614 14.5 3V2C14.5 1.72386 14.2761 1.5 14 1.5H13C12.7239 1.5 12.5 1.27614 12.5 1C12.5 0.723858 12.7239 0.5 13 0.5H14Z" stroke="black" stroke-opacity="0.2"/>
<path d="M7 0.5C7.27614 0.5 7.5 0.723858 7.5 1C7.5 1.27614 7.27614 1.5 7 1.5H5C4.72386 1.5 4.5 1.27614 4.5 1C4.5 0.723858 4.72386 0.5 5 0.5H7Z" stroke="black" stroke-opacity="0.2"/>
<path d="M11 0.5C11.2761 0.5 11.5 0.723858 11.5 1C11.5 1.27614 11.2761 1.5 11 1.5H9C8.72386 1.5 8.5 1.27614 8.5 1C8.5 0.723858 8.72386 0.5 9 0.5H11Z" stroke="black" stroke-opacity="0.2"/>
</svg>
