<svg width="24" height="24" viewBox="0 0 24 24" fill="none" xmlns="http://www.w3.org/2000/svg">
<path d="M20.3634 21.5342C21.3553 21.975 22.4726 21.2489 22.4726 20.1635V5.12022C22.4726 4.5274 22.1234 3.99019 21.5817 3.74946L17.066 1.74285C16.7529 1.60371 16.4015 1.57597 16.0705 1.66423L7.31276 3.99899C6.95907 4.09328 6.58311 4.05499 6.2557 3.89133L3.69801 2.61285C2.70067 2.11433 1.52734 2.83957 1.52734 3.95457V18.9262C1.52734 19.4944 1.84842 20.0138 2.35668 20.2679L6.25568 22.2168C6.58311 22.3805 6.95908 22.4188 7.31278 22.3245L16.0697 19.9898C16.4008 19.9015 16.7521 19.9292 17.0653 20.0684L20.3634 21.5342Z" fill="white"/>
<path d="M20.7604 4.85036L16.8342 3.21461C16.7012 3.15897 16.5535 3.14895 16.4142 3.18611L6.83517 5.74061L3.78416 4.21511C3.68442 4.16508 3.57354 4.14139 3.46206 4.14632C3.35058 4.15124 3.24221 4.18461 3.14727 4.24324C3.05233 4.30187 2.97397 4.38383 2.91964 4.4813C2.86532 4.57877 2.83684 4.68852 2.83691 4.80011V18.5446C2.83691 18.7921 2.97716 19.0194 3.19841 19.1304L6.47141 20.7669C6.61429 20.8383 6.77841 20.8548 6.93266 20.8134L16.5357 18.2529L20.2579 19.8039C20.3574 19.845 20.4655 19.861 20.5726 19.8505C20.6798 19.8399 20.7827 19.8031 20.8722 19.7434C20.9618 19.6836 21.0352 19.6027 21.0861 19.5079C21.137 19.413 21.1637 19.307 21.1639 19.1994V5.45486C21.1642 5.32553 21.1261 5.19902 21.0544 5.09139C20.9827 4.98376 20.8799 4.89986 20.7604 4.85036ZM19.8559 13.6944L17.8924 12.4449V10.6269L19.8559 11.8539V13.6944ZM16.5364 4.50761L19.8559 5.89061V11.0821L17.7379 9.75836C17.6884 9.72717 17.6315 9.70985 17.5731 9.70821C17.5146 9.70657 17.4568 9.72068 17.4057 9.74904C17.3545 9.77741 17.3119 9.81899 17.2824 9.86945C17.2528 9.91991 17.2374 9.97739 17.2377 10.0359V12.0286L16.7584 11.7234C16.7006 11.6871 16.633 11.6697 16.565 11.6735C16.4969 11.6772 16.4316 11.702 16.3782 11.7444L14.7417 13.0531C14.7037 13.0839 14.673 13.1228 14.6518 13.1669C14.6307 13.211 14.6196 13.2592 14.6194 13.3081V17.4091L10.6924 18.4569V13.6359C10.6923 13.5879 10.6817 13.5406 10.6613 13.4972C10.6409 13.4537 10.6113 13.4153 10.5745 13.3846C10.5376 13.3538 10.4946 13.3315 10.4482 13.3192C10.4019 13.3069 10.3534 13.3049 10.3062 13.3134L6.76841 13.9576L4.14641 13.4326V8.85386L6.66116 9.69161C6.69438 9.7034 6.72942 9.70924 6.76466 9.70886H9.38291C9.46979 9.70861 9.55306 9.67412 9.61466 9.61286L10.9234 8.30411C10.9847 8.24251 11.0192 8.15924 11.0194 8.07236V5.97986L16.5364 4.50761ZM6.47141 7.02161C6.61466 7.09286 6.77891 7.11011 6.93341 7.06886L10.3647 6.15386V7.93661L9.24716 9.05411H6.81716L4.14716 8.16386V5.85911L6.47141 7.02161ZM6.83591 19.4851L4.14641 18.1404V14.1009L6.70091 14.6116C6.74118 14.6202 6.78279 14.6205 6.82316 14.6124L10.0377 14.0281V18.6309L6.83591 19.4851ZM16.8349 16.9591C16.7018 16.904 16.5543 16.894 16.4149 16.9306L15.2742 17.2351V13.4656L16.6047 12.4006L19.8559 14.4706V18.2176L16.8349 16.9591Z" fill="#444444"/>
<path d="M14.4165 6.64893L15.4377 8.41772H13.3953L14.4165 6.64893Z" fill="#444444"/>
<path d="M7.23193 16.1484L8.25315 17.9172H6.21072L7.23193 16.1484Z" fill="#444444"/>
<path d="M16.8369 16.1486L18.3347 14.6504" stroke="#444444" stroke-width="0.75" stroke-linecap="round"/>
<path d="M16.8366 14.6504L18.3347 16.1482" stroke="#444444" stroke-width="0.75" stroke-linecap="round"/>
</svg>
