<svg width="140" height="139" viewBox="0 0 140 139" fill="none" xmlns="http://www.w3.org/2000/svg">
<rect x="4.66992" y="4.62354" width="129.742" height="129.742" stroke="white"/>
<path d="M73.3955 4.12305C73.3955 6.12408 71.7734 7.74689 69.7725 7.74707C67.7713 7.74707 66.1484 6.12419 66.1484 4.12305C66.1486 2.12207 67.7714 0.5 69.7725 0.5C71.7733 0.500182 73.3953 2.12218 73.3955 4.12305Z" fill="#616161" stroke="white"/>
<path d="M8.25537 69.4944C8.25537 71.4954 6.6333 73.1182 4.63232 73.1184C2.63119 73.1184 1.0083 71.4955 1.0083 69.4944C1.0085 67.4934 2.63131 65.8713 4.63232 65.8713C6.63318 65.8715 8.25517 67.4935 8.25537 69.4944Z" fill="#616161" stroke="white"/>
<path d="M138.536 69.4944C138.536 71.4954 136.914 73.1182 134.913 73.1184C132.911 73.1184 131.289 71.4955 131.289 69.4944C131.289 67.4934 132.912 65.8713 134.913 65.8713C136.913 65.8715 138.535 67.4935 138.536 69.4944Z" fill="#616161" stroke="white"/>
<path d="M73.3955 134.796C73.3955 136.797 71.7734 138.42 69.7725 138.42C67.7713 138.42 66.1484 136.797 66.1484 134.796C66.1486 132.795 67.7714 131.173 69.7725 131.173C71.7733 131.173 73.3953 132.795 73.3955 134.796Z" fill="#616161" stroke="white"/>
<path d="M18.1519 0.569824V7.81592H8.25537V17.7124H1.0083V0.569824H18.1519Z" fill="#A3A0FB" stroke="white"/>
<path d="M138.536 17.7129L131.29 17.7129L131.29 7.81641L121.393 7.81641L121.393 0.569335L138.536 0.569336L138.536 17.7129Z" fill="#A3A0FB" stroke="white"/>
<path d="M121.392 138.419V131.173H131.289V121.277H138.536V138.419H121.392Z" fill="#A3A0FB" stroke="white"/>
<path d="M1.0083 121.276L8.2544 121.276L8.25439 131.173L18.1509 131.173L18.1509 138.42L1.0083 138.42L1.0083 121.276Z" fill="#A3A0FB" stroke="white"/>
</svg>
