<svg width="148" height="148" viewBox="0 0 148 148" fill="none" xmlns="http://www.w3.org/2000/svg">
<rect x="9.39111" y="8.93604" width="129.742" height="129.742" stroke="white"/>
<path d="M22.8735 4.88232V12.1284H12.9771V22.0249H5.72998V4.88232H22.8735Z" fill="#A3A0FB" stroke="white"/>
<path d="M143.257 22.0254L136.011 22.0254L136.011 12.1289L126.115 12.1289L126.115 4.88184L143.257 4.88184L143.257 22.0254Z" fill="#A3A0FB" stroke="white"/>
<path d="M126.114 142.732V135.486H136.01V125.589H143.257V142.732H126.114Z" fill="#A3A0FB" stroke="white"/>
<path d="M5.72998 125.589L12.9761 125.589L12.9761 135.485L22.8726 135.485L22.8726 142.732L5.72998 142.732L5.72998 125.589Z" fill="#A3A0FB" stroke="white"/>
<path d="M134.86 64.7358L143.106 64.7358L147.65 73.8073L143.106 82.8787L134.86 82.8787L134.86 64.7358Z" fill="#A3A0FB"/>
<path d="M142.798 82.3784L135.36 82.3784L135.36 65.2358L142.798 65.2358L147.091 73.8071L142.798 82.3784Z" stroke="white"/>
<path d="M12.826 64.7358L4.57925 64.7358L0.0356449 73.8073L4.57925 82.8787L12.826 82.8787L12.826 64.7358Z" fill="#A3A0FB"/>
<path d="M4.88721 82.3784L12.3257 82.3784L12.3257 65.2358L4.88721 65.2358L0.594239 73.8071L4.88721 82.3784Z" stroke="white"/>
<path d="M82.9141 134.824L82.9141 143.071L73.8426 147.614L64.7712 143.071L64.7712 134.824L82.9141 134.824Z" fill="#A3A0FB"/>
<path d="M65.2715 142.763L65.2715 135.324L82.4141 135.324L82.4141 142.763L73.8428 147.056L65.2715 142.763Z" stroke="white"/>
<path d="M82.9141 12.7904L82.9141 4.5436L73.8426 0L64.7712 4.5436L64.7712 12.7904L82.9141 12.7904Z" fill="#A3A0FB"/>
<path d="M65.2715 4.85156L65.2715 12.29L82.4141 12.29V4.85156L73.8428 0.558594L65.2715 4.85156Z" stroke="white"/>
</svg>
