<svg width="16" height="16" viewBox="0 0 16 16" fill="none" xmlns="http://www.w3.org/2000/svg">
<g clip-path="url(#clip0_3705_53063)">
<path d="M11.8857 1.07129C13.5696 1.07169 14.9346 2.43719 14.9346 4.12109V9.72754C14.9343 10.5264 14.6156 11.2925 14.0488 11.8555L11.8379 14.0518C11.276 14.6098 10.5155 14.9237 9.72363 14.9238H4.12207C2.43807 14.9238 1.07252 13.558 1.07227 11.874V10.4111C1.70331 10.7007 2.42624 10.725 3.07227 10.4814V11.874C3.07253 12.4534 3.54265 12.9238 4.12207 12.9238H9.72363C9.98738 12.9237 10.2406 12.8186 10.4277 12.6328L12.6396 10.4365C12.8284 10.249 12.9343 9.99359 12.9346 9.72754V4.12109C12.9346 3.54176 12.465 3.07169 11.8857 3.07129H10.6592C10.9301 2.43237 10.9242 1.7074 10.6445 1.07129H11.8857Z" fill="#D9D9D9"/>
<path d="M9.57715 10.1318C9.52333 10.2546 9.49414 10.3906 9.49414 10.5332V11.959H7.49414V10.5332C7.49414 10.4729 7.49551 10.413 7.49902 10.3535C8.18445 10.5714 8.94161 10.4966 9.57715 10.1318Z" fill="#D9D9D9"/>
<path d="M12.0166 9.5332H10.4941C10.4154 9.5332 10.3391 9.54335 10.2656 9.56055C10.7536 8.98146 10.9386 8.23877 10.8252 7.5332H12.0166V9.5332Z" fill="#D9D9D9"/>
<path d="M1.6543 5.00977L1.07227 5.58203V4.43848L1.6543 5.00977Z" fill="#D9D9D9"/>
<path d="M5.30664 1.42578L4.94531 1.07129H5.66797L5.30664 1.42578Z" fill="#D9D9D9"/>
<path d="M11.8857 0.821289L12.0557 0.825195C13.7986 0.914012 15.1846 2.35613 15.1846 4.12109V9.72754L15.1807 9.88965C15.1402 10.696 14.8003 11.4614 14.2246 12.0332L12.0137 14.2295C11.443 14.796 10.6834 15.1303 9.88379 15.1699L9.72363 15.1738H4.12207C2.29997 15.1738 0.822545 13.696 0.822266 11.874V10.0215L1.17676 10.1836C1.74706 10.4453 2.40081 10.4671 2.98438 10.2471L3.32227 10.1201V11.874L3.32617 11.9561C3.3675 12.359 3.70854 12.6738 4.12207 12.6738H9.72363L9.86914 12.6592C10.0126 12.6305 10.1464 12.5599 10.252 12.4551L12.4639 10.2588C12.6049 10.1184 12.6843 9.92711 12.6846 9.72754V4.12109C12.6846 3.70712 12.3699 3.36619 11.9668 3.3252L11.8857 3.32129H10.2812L10.4287 2.97363C10.6726 2.3985 10.6681 1.74521 10.416 1.17188L10.2617 0.821289H11.8857ZM12.2666 7.2832V9.7832H10.4941C10.437 9.7832 10.3796 9.7903 10.3223 9.80371L9.95508 9.88867L9.80566 10.2324C9.76591 10.3232 9.74414 10.425 9.74414 10.5332V12.209H7.24414V10.5332C7.24414 10.4692 7.24516 10.4042 7.24902 10.3389L7.26855 10.0176L7.5752 10.1152C8.19458 10.312 8.87923 10.2444 9.45312 9.91504L9.81445 9.70605L10.0742 9.39941C10.5134 8.87825 10.6803 8.20976 10.5781 7.57324L10.5322 7.2832H12.2666ZM1.24707 4.25977L1.8291 4.83105L2.01074 5.00977L1.8291 5.18848L1.24707 5.76074L0.822266 6.17871V3.84277L1.24707 4.25977ZM6.2793 0.821289L5.84277 1.25L5.48145 1.60449L5.30664 1.77637L5.13184 1.60449L4.77051 1.25L4.33398 0.821289H6.2793Z" stroke="black" stroke-opacity="0.3" stroke-width="0.5"/>
<path d="M1.0602 0.83692C1.67419 0.233896 2.6705 0.234199 3.28481 0.83692L5.32582 2.83985L7.19399 1.00684C7.8081 0.404001 8.80444 0.404066 9.41859 1.00684C10.0327 1.60969 10.0327 2.58756 9.41859 3.19044L7.55141 5.02247L9.41859 6.8545C10.0327 7.45723 10.0325 8.43513 9.41859 9.03809C8.80459 9.64089 7.80919 9.64071 7.19496 9.03809L5.3268 7.20508L3.28481 9.21094C2.67066 9.81382 1.67532 9.81382 1.06117 9.21094C0.447061 8.60807 0.447037 7.63119 1.06117 7.02833L3.10219 5.02344L1.06117 3.02051C0.446887 2.41781 0.446251 1.43995 1.0602 0.83692Z" fill="#FE7669"/>
<path d="M0.885254 0.658203C1.59649 -0.0400115 2.74809 -0.039401 3.45947 0.658203L5.32568 2.48926L7.01904 0.828125C7.73031 0.130182 8.88194 0.130377 9.59326 0.828125C10.3072 1.52898 10.3071 2.66828 9.59326 3.36914L7.90771 5.02246L9.59326 6.67578C10.3073 7.37654 10.3078 8.5159 9.59424 9.2168H9.59326C8.882 9.91466 7.73131 9.91444 7.02002 9.2168L5.32666 7.55566L3.46045 9.38965H3.45947C2.74813 10.0875 1.59751 10.0876 0.88623 9.38965C0.172307 8.68879 0.172264 7.55047 0.88623 6.84961L2.74463 5.02344L0.88623 3.19922C0.172179 2.49863 0.171435 1.35933 0.885254 0.658203Z" stroke="black" stroke-opacity="0.3" stroke-width="0.5" stroke-linecap="round" stroke-linejoin="bevel"/>
</g>
<defs>
<clipPath id="clip0_3705_53063">
<rect width="16" height="16" fill="white"/>
</clipPath>
</defs>
</svg>
