<svg width="16" height="16" viewBox="0 0 16 16" fill="none" xmlns="http://www.w3.org/2000/svg">
<g clip-path="url(#clip0_3685_18735)">
<mask id="path-1-outside-1_3685_18735" maskUnits="userSpaceOnUse" x="0.0722656" y="0.0703125" width="16" height="16" fill="black">
<rect fill="white" x="0.0722656" y="0.0703125" width="16" height="16"/>
<path d="M11.8857 1.07129C13.5696 1.07169 14.9346 2.43719 14.9346 4.12109V9.72754C14.9343 10.5264 14.6156 11.2925 14.0488 11.8555L11.8379 14.0518C11.276 14.6098 10.5155 14.9237 9.72363 14.9238H4.12207C2.43807 14.9238 1.07252 13.558 1.07227 11.874V4.12109C1.07227 2.43694 2.43792 1.07129 4.12207 1.07129H11.8857ZM4.12207 3.07129C3.54249 3.07129 3.07227 3.54151 3.07227 4.12109V11.874C3.07253 12.4534 3.54265 12.9238 4.12207 12.9238H9.72363C9.98738 12.9237 10.2406 12.8186 10.4277 12.6328L12.6396 10.4365C12.8284 10.249 12.9343 9.99359 12.9346 9.72754V4.12109C12.9346 3.54176 12.465 3.07169 11.8857 3.07129H4.12207ZM12.0166 9.5332H10.4941C9.94186 9.5332 9.49414 9.98092 9.49414 10.5332V11.959H7.49414V10.5332C7.49414 8.87635 8.83729 7.5332 10.4941 7.5332H12.0166V9.5332Z"/>
</mask>
<path d="M11.8857 1.07129C13.5696 1.07169 14.9346 2.43719 14.9346 4.12109V9.72754C14.9343 10.5264 14.6156 11.2925 14.0488 11.8555L11.8379 14.0518C11.276 14.6098 10.5155 14.9237 9.72363 14.9238H4.12207C2.43807 14.9238 1.07252 13.558 1.07227 11.874V4.12109C1.07227 2.43694 2.43792 1.07129 4.12207 1.07129H11.8857ZM4.12207 3.07129C3.54249 3.07129 3.07227 3.54151 3.07227 4.12109V11.874C3.07253 12.4534 3.54265 12.9238 4.12207 12.9238H9.72363C9.98738 12.9237 10.2406 12.8186 10.4277 12.6328L12.6396 10.4365C12.8284 10.249 12.9343 9.99359 12.9346 9.72754V4.12109C12.9346 3.54176 12.465 3.07169 11.8857 3.07129H4.12207ZM12.0166 9.5332H10.4941C9.94186 9.5332 9.49414 9.98092 9.49414 10.5332V11.959H7.49414V10.5332C7.49414 8.87635 8.83729 7.5332 10.4941 7.5332H12.0166V9.5332Z" fill="white"/>
<path d="M11.8857 1.07129L11.8859 0.571289H11.8857V1.07129ZM14.9346 4.12109H15.4346V4.12109L14.9346 4.12109ZM14.9346 9.72754L15.4346 9.72768V9.72754H14.9346ZM14.0488 11.8555L13.6965 11.5007L13.6965 11.5007L14.0488 11.8555ZM11.8379 14.0518L12.1902 14.4065L12.1903 14.4065L11.8379 14.0518ZM9.72363 14.9238V15.4238H9.72374L9.72363 14.9238ZM1.07227 11.874H0.572266V11.8741L1.07227 11.874ZM1.07227 4.12109L0.572266 4.12109V4.12109H1.07227ZM3.07227 4.12109L2.57227 4.12109V4.12109H3.07227ZM3.07227 11.874H2.57227V11.8742L3.07227 11.874ZM9.72363 12.9238V13.4238H9.72395L9.72363 12.9238ZM10.4277 12.6328L10.78 12.9876L10.78 12.9876L10.4277 12.6328ZM12.6396 10.4365L12.9919 10.7913L12.992 10.7912L12.6396 10.4365ZM12.9346 9.72754L13.4346 9.72796V9.72754H12.9346ZM12.9346 4.12109H13.4346V4.12109L12.9346 4.12109ZM11.8857 3.07129L11.8861 2.57129H11.8857V3.07129ZM12.0166 9.5332V10.0332H12.5166V9.5332H12.0166ZM10.4941 9.5332V9.0332V9.5332ZM9.49414 11.959V12.459H9.99414V11.959H9.49414ZM7.49414 11.959H6.99414V12.459H7.49414V11.959ZM10.4941 7.5332V7.0332V7.5332ZM12.0166 7.5332H12.5166V7.0332H12.0166V7.5332ZM11.8857 1.07129L11.8856 1.57129C13.2933 1.57162 14.4346 2.71324 14.4346 4.12109L14.9346 4.12109L15.4346 4.12109C15.4346 2.16114 13.8458 0.571753 11.8859 0.571289L11.8857 1.07129ZM14.9346 4.12109H14.4346V9.72754H14.9346H15.4346V4.12109H14.9346ZM14.9346 9.72754L14.4346 9.7274C14.4344 10.3932 14.1687 11.0316 13.6965 11.5007L14.0488 11.8555L14.4012 12.2102C15.0625 11.5533 15.4343 10.6596 15.4346 9.72768L14.9346 9.72754ZM14.0488 11.8555L13.6965 11.5007L11.4855 13.697L11.8379 14.0518L12.1903 14.4065L14.4012 12.2102L14.0488 11.8555ZM11.8379 14.0518L11.4856 13.697C11.0172 14.1621 10.3833 14.4237 9.72353 14.4238L9.72363 14.9238L9.72374 15.4238C10.6477 15.4236 11.5348 15.0574 12.1902 14.4065L11.8379 14.0518ZM9.72363 14.9238V14.4238H4.12207V14.9238V15.4238H9.72363V14.9238ZM4.12207 14.9238V14.4238C2.71429 14.4238 1.57248 13.2819 1.57227 11.8739L1.07227 11.874L0.572266 11.8741C0.572567 13.834 2.16186 15.4238 4.12207 15.4238V14.9238ZM1.07227 11.874H1.57227V4.12109H1.07227H0.572266V11.874H1.07227ZM1.07227 4.12109L1.57227 4.1211C1.57227 2.71308 2.71406 1.57129 4.12207 1.57129V1.07129V0.571289C2.16178 0.571289 0.572272 2.1608 0.572266 4.12109L1.07227 4.12109ZM4.12207 1.07129V1.57129H11.8857V1.07129V0.571289H4.12207V1.07129ZM4.12207 3.07129V2.57129C3.26634 2.57129 2.57227 3.26537 2.57227 4.12109L3.07227 4.12109L3.57227 4.1211C3.57227 3.81765 3.81863 3.57129 4.12207 3.57129V3.07129ZM3.07227 4.12109H2.57227V11.874H3.07227H3.57227V4.12109H3.07227ZM3.07227 11.874L2.57227 11.8742C2.57265 12.7294 3.26628 13.4238 4.12207 13.4238V12.9238V12.4238C3.81901 12.4238 3.5724 12.1774 3.57227 11.8738L3.07227 11.874ZM4.12207 12.9238V13.4238H9.72363V12.9238V12.4238H4.12207V12.9238ZM9.72363 12.9238L9.72395 13.4238C10.1203 13.4236 10.4998 13.2658 10.78 12.9876L10.4277 12.6328L10.0755 12.278C9.98133 12.3714 9.85443 12.4237 9.72332 12.4238L9.72363 12.9238ZM10.4277 12.6328L10.78 12.9876L12.9919 10.7913L12.6396 10.4365L12.2874 10.0817L10.0754 12.278L10.4277 12.6328ZM12.6396 10.4365L12.992 10.7912C13.2756 10.5095 13.4342 10.1264 13.4346 9.72796L12.9346 9.72754L12.4346 9.72712C12.4345 9.86073 12.3812 9.98847 12.2873 10.0818L12.6396 10.4365ZM12.9346 9.72754H13.4346V4.12109H12.9346H12.4346V9.72754H12.9346ZM12.9346 4.12109L13.4346 4.12109C13.4346 3.26588 12.7415 2.57188 11.8861 2.57129L11.8857 3.07129L11.8854 3.57129C12.1885 3.5715 12.4346 3.81763 12.4346 4.12109L12.9346 4.12109ZM11.8857 3.07129V2.57129H4.12207V3.07129V3.57129H11.8857V3.07129ZM12.0166 9.5332V9.0332H10.4941V9.5332V10.0332H12.0166V9.5332ZM10.4941 9.5332V9.0332C9.66571 9.0332 8.99414 9.70478 8.99414 10.5332H9.49414H9.99414C9.99414 10.2571 10.218 10.0332 10.4941 10.0332V9.5332ZM9.49414 10.5332H8.99414V11.959H9.49414H9.99414V10.5332H9.49414ZM9.49414 11.959V11.459H7.49414V11.959V12.459H9.49414V11.959ZM7.49414 11.959H7.99414V10.5332H7.49414H6.99414V11.959H7.49414ZM7.49414 10.5332H7.99414C7.99414 9.15249 9.11343 8.0332 10.4941 8.0332V7.5332V7.0332C8.56114 7.0332 6.99414 8.60021 6.99414 10.5332H7.49414ZM10.4941 7.5332V8.0332H12.0166V7.5332V7.0332H10.4941V7.5332ZM12.0166 7.5332H11.5166V9.5332H12.0166H12.5166V7.5332H12.0166Z" fill="black" fill-opacity="0.3" mask="url(#path-1-outside-1_3685_18735)"/>
</g>
<defs>
<clipPath id="clip0_3685_18735">
<rect width="16" height="16" fill="white"/>
</clipPath>
</defs>
</svg>
