<svg width="14" height="14" viewBox="0 0 14 14" fill="none" xmlns="http://www.w3.org/2000/svg">
<circle cx="6.94748" cy="6.94748" r="5.94748" fill="#FFB000"/>
<circle cx="6.94748" cy="6.94748" r="6.44748" stroke="black" stroke-opacity="0.33"/>
<path d="M3.2468 5.21606L10.6243 5.21606C10.847 5.21606 10.9649 5.47954 10.8165 5.64561L7.00872 9.90507C6.90404 10.0222 6.71988 10.0192 6.619 9.89885L3.04925 5.63938C2.90866 5.47163 3.02793 5.21606 3.2468 5.21606Z" fill="white"/>
<path d="M10.6243 4.96606C11.0629 4.96606 11.295 5.48461 11.0032 5.81177L7.19556 10.0715C6.98937 10.3022 6.62573 10.2969 6.427 10.0598L2.85767 5.80005C2.58082 5.46971 2.81547 4.96642 3.24634 4.96606L10.6243 4.96606Z" stroke="black" stroke-opacity="0.3" stroke-width="0.5"/>
</svg>
