<svg width="14" height="14" viewBox="0 0 14 14" fill="none" xmlns="http://www.w3.org/2000/svg">
<circle cx="6.94748" cy="6.94748" r="5.94748" fill="#FFB000"/>
<circle cx="6.94748" cy="6.94748" r="6.44748" stroke="black" stroke-opacity="0.33"/>
<path d="M10.6482 8.56073L3.27074 8.56073C3.04799 8.56073 2.93011 8.29725 3.07857 8.13119L6.8863 3.87172C6.99098 3.75463 7.17514 3.75757 7.27602 3.87795L10.8458 8.13741C10.9864 8.30516 10.8671 8.56073 10.6482 8.56073Z" fill="white"/>
<path d="M3.27075 8.81073C2.83215 8.81073 2.59998 8.29219 2.89185 7.96503L6.69946 3.70526C6.90565 3.47462 7.26929 3.47989 7.46802 3.71698L11.0374 7.97675C11.3142 8.30708 11.0795 8.81037 10.6487 8.81073L3.27075 8.81073Z" stroke="black" stroke-opacity="0.3" stroke-width="0.5"/>
</svg>
