<svg width="14" height="14" viewBox="0 0 14 14" fill="none" xmlns="http://www.w3.org/2000/svg">
<circle cx="6.94748" cy="6.94748" r="5.94748" fill="#ED546B"/>
<circle cx="6.94748" cy="6.94748" r="6.44748" stroke="black" stroke-opacity="0.33"/>
<mask id="path-3-outside-1_3677_15603" maskUnits="userSpaceOnUse" x="2.53052" y="2.64374" width="9" height="9" fill="black">
<rect fill="white" x="2.53052" y="2.64374" width="9" height="9"/>
<path fill-rule="evenodd" clip-rule="evenodd" d="M5.49357 3.97419C5.04434 3.53343 4.31617 3.53361 3.86716 3.9746C3.41815 4.41558 3.41833 5.13039 3.86756 5.57115L5.36067 7.03611L3.86736 8.50201C3.41824 8.94288 3.41824 9.65769 3.86736 10.0986C4.31648 10.5394 5.04465 10.5394 5.49378 10.0986L6.9875 8.63227L8.353 9.97203C8.80224 10.4128 9.53041 10.4126 9.97942 9.97163C10.4284 9.53064 10.4282 8.81583 9.97901 8.37507L8.61392 7.03571L9.97921 5.69548C10.4283 5.2546 10.4283 4.5398 9.97921 4.09892C9.53009 3.65804 8.80192 3.65804 8.3528 4.09892L6.98709 5.43955L5.49357 3.97419Z"/>
</mask>
<path fill-rule="evenodd" clip-rule="evenodd" d="M5.49357 3.97419C5.04434 3.53343 4.31617 3.53361 3.86716 3.9746C3.41815 4.41558 3.41833 5.13039 3.86756 5.57115L5.36067 7.03611L3.86736 8.50201C3.41824 8.94288 3.41824 9.65769 3.86736 10.0986C4.31648 10.5394 5.04465 10.5394 5.49378 10.0986L6.9875 8.63227L8.353 9.97203C8.80224 10.4128 9.53041 10.4126 9.97942 9.97163C10.4284 9.53064 10.4282 8.81583 9.97901 8.37507L8.61392 7.03571L9.97921 5.69548C10.4283 5.2546 10.4283 4.5398 9.97921 4.09892C9.53009 3.65804 8.80192 3.65804 8.3528 4.09892L6.98709 5.43955L5.49357 3.97419Z" fill="white"/>
<path d="M3.86716 3.9746L3.5168 3.61787L3.86716 3.9746ZM5.49357 3.97419L5.84375 3.61729L5.49357 3.97419ZM3.86756 5.57115L3.51739 5.92806H3.51739L3.86756 5.57115ZM5.36067 7.03611L5.71093 7.39292L6.07451 7.03602L5.71084 6.67921L5.36067 7.03611ZM3.86736 8.50201L4.21762 8.85882H4.21762L3.86736 8.50201ZM3.86736 10.0986L4.21762 9.74175H4.21762L3.86736 10.0986ZM5.49378 10.0986L5.14351 9.74175L5.14351 9.74175L5.49378 10.0986ZM6.9875 8.63227L7.33767 8.27537L6.98741 7.93171L6.63724 8.27545L6.9875 8.63227ZM8.353 9.97203L8.00283 10.3289V10.3289L8.353 9.97203ZM9.97942 9.97163L10.3298 10.3284L10.3298 10.3284L9.97942 9.97163ZM9.97901 8.37507L9.62884 8.73197V8.73197L9.97901 8.37507ZM8.61392 7.03571L8.26365 6.6789L7.90007 7.0358L8.26374 7.39261L8.61392 7.03571ZM9.97921 5.69548L9.62895 5.33866V5.33866L9.97921 5.69548ZM9.97921 4.09892L9.62895 4.45573V4.45573L9.97921 4.09892ZM8.3528 4.09892L8.00253 3.74211L8.3528 4.09892ZM6.98709 5.43955L6.63692 5.79646L6.98718 6.14011L7.33735 5.79637L6.98709 5.43955ZM3.86716 3.9746L4.21751 4.33132C4.47208 4.0813 4.8887 4.08119 5.1434 4.3311L5.49357 3.97419L5.84375 3.61729C5.19998 2.98566 4.16025 2.98592 3.5168 3.61787L3.86716 3.9746ZM3.86756 5.57115L4.21774 5.21425C3.9682 4.96942 3.9681 4.57627 4.21751 4.33132L3.86716 3.9746L3.5168 3.61787C2.86819 4.2549 2.86846 5.29136 3.51739 5.92806L3.86756 5.57115ZM5.36067 7.03611L5.71084 6.67921L4.21774 5.21425L3.86756 5.57115L3.51739 5.92806L5.0105 7.39301L5.36067 7.03611ZM3.86736 8.50201L4.21762 8.85882L5.71093 7.39292L5.36067 7.03611L5.01041 6.6793L3.5171 8.14519L3.86736 8.50201ZM3.86736 10.0986L4.21762 9.74175C3.96815 9.49686 3.96815 9.10371 4.21762 8.85882L3.86736 8.50201L3.5171 8.14519C2.86832 8.78205 2.86832 9.81852 3.5171 10.4554L3.86736 10.0986ZM5.49378 10.0986L5.14351 9.74175C4.88888 9.99171 4.47226 9.99171 4.21762 9.74175L3.86736 10.0986L3.5171 10.4554C4.16071 11.0872 5.20043 11.0872 5.84404 10.4554L5.49378 10.0986ZM6.9875 8.63227L6.63724 8.27545L5.14351 9.74175L5.49378 10.0986L5.84404 10.4554L7.33776 8.98908L6.9875 8.63227ZM8.353 9.97203L8.70317 9.61513L7.33767 8.27537L6.9875 8.63227L6.63732 8.98917L8.00283 10.3289L8.353 9.97203ZM9.97942 9.97163L9.62907 9.6149C9.3745 9.86492 8.95788 9.86503 8.70317 9.61513L8.353 9.97203L8.00283 10.3289C8.6466 10.9606 9.68632 10.9603 10.3298 10.3284L9.97942 9.97163ZM9.97901 8.37507L9.62884 8.73197C9.87838 8.97681 9.87847 9.36995 9.62907 9.6149L9.97942 9.97163L10.3298 10.3284C10.9784 9.69133 10.9781 8.65486 10.3292 8.01817L9.97901 8.37507ZM8.61392 7.03571L8.26374 7.39261L9.62884 8.73197L9.97901 8.37507L10.3292 8.01817L8.96409 6.67881L8.61392 7.03571ZM9.97921 5.69548L9.62895 5.33866L8.26365 6.6789L8.61392 7.03571L8.96418 7.39252L10.3295 6.05229L9.97921 5.69548ZM9.97921 4.09892L9.62895 4.45573C9.87843 4.70063 9.87843 5.09377 9.62895 5.33866L9.97921 5.69548L10.3295 6.05229C10.9783 5.41543 10.9783 4.37897 10.3295 3.74211L9.97921 4.09892ZM8.3528 4.09892L8.70306 4.45573C8.9577 4.20577 9.37431 4.20577 9.62895 4.45573L9.97921 4.09892L10.3295 3.74211C9.68587 3.11031 8.64614 3.11031 8.00253 3.74211L8.3528 4.09892ZM6.98709 5.43955L7.33735 5.79637L8.70306 4.45573L8.3528 4.09892L8.00253 3.74211L6.63683 5.08274L6.98709 5.43955ZM5.49357 3.97419L5.1434 4.3311L6.63692 5.79646L6.98709 5.43955L7.33726 5.08265L5.84375 3.61729L5.49357 3.97419Z" fill="black" fill-opacity="0.33" mask="url(#path-3-outside-1_3677_15603)"/>
</svg>
