<svg width="16" height="16" viewBox="0 0 16 16" fill="none" xmlns="http://www.w3.org/2000/svg">
<g clip-path="url(#clip0_4009_60890)">
<path d="M14 14H2V12H6V10H10V8H14V14Z" fill="white"/>
<path fill-rule="evenodd" clip-rule="evenodd" d="M14.4766 0C15.3144 0.000189345 15.9999 0.640157 16 1.42871V14.5713C15.9999 15.3613 15.3144 15.9998 14.4766 16H1.52344C0.685596 15.9998 0.000138993 15.3613 0 14.5713V1.42871C0.000139383 0.640157 0.685597 0.000189345 1.52344 0H14.4766ZM1.52344 1C1.17518 1.00018 1.00016 1.25311 1 1.42871V14.5713C1.00016 14.7477 1.17451 14.9998 1.52344 15H14.4766C14.8255 14.9998 14.9998 14.7477 15 14.5713V1.42871C14.9998 1.25311 14.8248 1.00018 14.4766 1H1.52344Z" fill="white"/>
<rect x="6" y="-1" width="4" height="3" fill="#444444"/>
<path d="M9 2H11.4639L8 8L4.53613 2H7V0H9V2Z" fill="#FFC600"/>
</g>
<defs>
<clipPath id="clip0_4009_60890">
<rect width="16" height="16" fill="white"/>
</clipPath>
</defs>
</svg>
