<svg width="16" height="16" viewBox="0 0 16 16" fill="none" xmlns="http://www.w3.org/2000/svg">
<g clip-path="url(#clip0_4004_60878)">
<path d="M6.26758 1H1.52344C1.17518 1.00018 1.00016 1.25311 1 1.42871V14.5713C1.00016 14.7477 1.17451 14.9998 1.52344 15H14.4766C14.8255 14.9998 14.9998 14.7477 15 14.5713V1.42871C14.9998 1.25311 14.8248 1.00018 14.4766 1H9.73242L9.1543 0H14.4766C15.3144 0.000189345 15.9999 0.640157 16 1.42871V14.5713C15.9999 15.3613 15.3144 15.9998 14.4766 16H1.52344C0.685596 15.9998 0.000138993 15.3613 0 14.5713V1.42871C0.000139383 0.640157 0.685597 0.000189345 1.52344 0H6.8457L6.26758 1Z" fill="white"/>
<path d="M14 8V14H2V12H6V10H10V8H14Z" fill="white"/>
<path d="M11.4639 6H9V8H7V6H4.53613L8 0L11.4639 6Z" fill="#FFC600"/>
</g>
<defs>
<clipPath id="clip0_4004_60878">
<rect width="16" height="16" fill="white"/>
</clipPath>
</defs>
</svg>
