<svg width="18" height="19" viewBox="0 0 18 19" fill="none" xmlns="http://www.w3.org/2000/svg">
<path d="M15.57 2.5C16.4078 2.50019 17.0933 3.14016 17.0934 3.92871V17.0713C17.0933 17.8613 16.4078 18.4998 15.57 18.5H2.61684C1.779 18.4998 1.09355 17.8613 1.09341 17.0713V9.84961L2.09341 10.9629V17.0713C2.09356 17.2477 2.26791 17.4998 2.61684 17.5H15.57C15.9189 17.4998 16.0932 17.2477 16.0934 17.0713V3.92871C16.0932 3.75311 15.9182 3.50018 15.57 3.5H12.3053L11.4293 2.5H15.57Z" fill="#D9D9D9"/>
<path d="M15.0934 16.5H3.09341V14.5H7.09341V12.5H11.0934V10.5H15.0934V16.5Z" fill="#D9D9D9"/>
<path d="M3.24966 2.5C2.4984 3.16501 1.76125 3.82013 1.09341 4.41699V3.92871C1.09355 3.14016 1.779 2.50019 2.61684 2.5H3.24966Z" fill="#D9D9D9"/>
<path fill-rule="evenodd" clip-rule="evenodd" d="M11.951 4.9151C12.2326 5.23914 12.2389 5.70928 11.9887 6.03866C11.9594 6.07729 11.9265 6.11399 11.8902 6.14828C11.8826 6.15637 11.8748 6.16435 11.8668 6.17221C11.8541 6.18475 11.841 6.19699 11.8274 6.2089L5.55517 11.7037C5.18474 12.0282 4.62137 11.991 4.29685 11.6205L0.756024 7.6766C0.389198 7.26801 0.419655 6.64086 0.827462 6.27316C2.50612 4.75961 5.06878 2.49277 7.09124 0.720991C7.46168 0.396473 8.02504 0.433693 8.34956 0.804125L11.9486 4.91239L11.951 4.9151ZM1.38066 6.93854L4.96758 11.0329L6.62354 9.58224L3.03662 5.48784L1.38066 6.93854Z" fill="#D9D9D9"/>
<path d="M15.3438 10.25V16.75H2.84375V14.25H6.84375V12.25H10.8438V10.25H15.3438ZM6.92676 0.533203C7.40104 0.117716 8.12259 0.165366 8.53809 0.639648L12.1367 4.74805L12.1396 4.75098L12.2031 4.83105C12.5001 5.24074 12.4878 5.794 12.1875 6.18945C12.1528 6.23508 12.1134 6.27757 12.0713 6.31836L12.0723 6.31934C12.0625 6.32969 12.0522 6.34054 12.042 6.35059C12.026 6.36636 12.0093 6.38152 11.9922 6.39648L5.71973 11.8916C5.24544 12.3071 4.52389 12.2594 4.1084 11.7852V11.7842L0.570312 7.84375C0.112249 7.33354 0.149186 6.54874 0.660156 6.08789C2.34006 4.57322 4.90386 2.30537 6.92676 0.533203ZM1.73242 6.96094L4.99023 10.6797L6.27051 9.55859L3.0127 5.83984L1.73242 6.96094ZM3.90918 2.25L3.41504 2.6875C2.66413 3.35222 1.92716 4.00707 1.25977 4.60352L0.84375 4.97559V3.92871C0.843916 2.98693 1.65702 2.25022 2.61719 2.25H3.90918ZM2.34375 17.0713L2.35547 17.1133C2.38173 17.1682 2.45491 17.2499 2.61719 17.25H15.5703C15.7862 17.2497 15.8435 17.1045 15.8438 17.0713V3.92871L15.8311 3.8877C15.8048 3.83294 15.7322 3.75024 15.5703 3.75H12.1924L12.1172 3.66504L11.2412 2.66504L10.8779 2.25H15.5703C16.5304 2.25036 17.3436 2.98702 17.3438 3.92871V17.0713C17.3436 17.9557 16.6284 18.6568 15.748 18.7412L15.5703 18.75H2.61719C1.65719 18.7498 0.843916 18.0147 0.84375 17.0713V9.19727L1.2793 9.68262L2.2793 10.7959L2.34375 10.8672V17.0713Z" stroke="black" stroke-opacity="0.3" stroke-width="0.5" stroke-linecap="round"/>
</svg>
