<svg width="16" height="16" viewBox="0 0 16 16" fill="none" xmlns="http://www.w3.org/2000/svg">
<path d="M1.99715 1.87454C2.89373 0.994036 4.34714 0.993575 5.24422 1.87356L8.22664 4.79935L10.9542 2.12259C11.851 1.24225 13.3054 1.24221 14.2022 2.12259C15.0991 3.00297 15.0991 4.43067 14.2022 5.31106L11.4747 7.98685L14.2013 10.6617C15.0983 11.5418 15.0989 12.9695 14.2022 13.8501C13.3056 14.7305 11.8512 14.7312 10.9542 13.8511L8.22664 11.1753L5.2452 14.1031C4.34834 14.9834 2.89401 14.9834 1.99715 14.1031C1.1006 13.2227 1.10052 11.7959 1.99715 10.9156L4.9786 7.98782L1.99715 5.06204C1.10052 4.18183 1.10067 2.755 1.99715 1.87454Z" fill="white"/>
</svg>
