<svg width="17" height="16" viewBox="0 0 17 16" fill="none" xmlns="http://www.w3.org/2000/svg">
<path fill-rule="evenodd" clip-rule="evenodd" d="M6.26956 3.80149C5.65526 3.19877 4.65953 3.19901 4.04554 3.80204C3.43154 4.40506 3.43179 5.38251 4.0461 5.98523L6.08783 7.98847L4.04582 9.99299C3.43167 10.5959 3.43167 11.5733 4.04582 12.1762C4.65996 12.7791 5.65569 12.7791 6.26984 12.1762L8.31241 10.1711L10.1797 12.0032C10.794 12.6059 11.7897 12.6056 12.4037 12.0026C13.0177 11.3996 13.0174 10.4221 12.4031 9.81941L10.5364 7.98792L12.4034 6.15524C13.0176 5.55236 13.0176 4.57491 12.4034 3.97204C11.7893 3.36917 10.7935 3.36917 10.1794 3.97204L8.31185 5.80528L6.26956 3.80149Z" fill="white"/>
</svg>
