<svg width="24" height="24" viewBox="0 0 24 24" fill="none" xmlns="http://www.w3.org/2000/svg">
<path fill-rule="evenodd" clip-rule="evenodd" d="M12.0001 1.86719C16.1461 1.86728 19.5079 5.22912 19.5081 9.37512C19.5081 13.5213 12.0001 22.1328 12.0001 22.1328C12.0001 22.1328 4.49219 13.5213 4.49219 9.37512C4.49236 5.22907 7.85408 1.86719 12.0001 1.86719ZM12.0001 5.99751C10.135 5.99751 8.62268 7.51003 8.62251 9.37512C8.62251 11.2404 10.1349 12.7527 12.0001 12.7527C13.8653 12.7526 15.3777 11.2403 15.3777 9.37512C15.3776 7.51008 13.8652 5.9976 12.0001 5.99751Z" fill="white"/>
<path d="M12 22.1328L11.623 22.4619L12 22.8936L12.377 22.4619L12 22.1328ZM12 22.1328L12.377 22.4609H12.3779L12.3789 22.46C12.3799 22.4588 12.3809 22.4563 12.3828 22.4541C12.3866 22.4498 12.3923 22.4438 12.3994 22.4355C12.414 22.4186 12.4359 22.3929 12.4639 22.3604C12.5197 22.2952 12.6016 22.2 12.7051 22.0771C12.9124 21.8312 13.2081 21.4753 13.5625 21.0361C14.2709 20.1584 15.2166 18.9437 16.1631 17.5967C17.1085 16.2512 18.0623 14.764 18.7812 13.3438C19.4918 11.9401 20.0078 10.5354 20.0078 9.375C20.0076 5.09111 16.6428 1.59249 12.4121 1.37793L12 1.36719C7.71611 1.36725 4.21768 4.73229 4.00293 8.96289L3.99219 9.375C3.99219 10.5354 4.50818 11.9401 5.21875 13.3438C5.93775 14.764 6.89146 16.2512 7.83691 17.5967C8.78342 18.9436 9.72911 20.1584 10.4375 21.0361C10.7919 21.4753 11.0876 21.8312 11.2949 22.0771C11.3984 22.1999 11.4802 22.2952 11.5361 22.3604C11.5641 22.3929 11.586 22.4186 11.6006 22.4355C11.6077 22.4437 11.6134 22.4498 11.6172 22.4541C11.6191 22.4563 11.6201 22.4588 11.6211 22.46L11.623 22.4609L12 22.1328ZM12 6.49707C10.4112 6.49714 9.12231 7.78608 9.12207 9.375C9.12207 10.9641 10.411 12.2529 12 12.2529C13.5891 12.2529 14.8779 10.964 14.8779 9.375C14.8777 7.78612 13.5889 6.49715 12 6.49707Z" stroke="black" stroke-opacity="0.3"/>
</svg>
