<svg width="33" height="33" viewBox="0 0 33 33" fill="none" xmlns="http://www.w3.org/2000/svg">
<path d="M10.3217 19.788C10.5704 19.7869 10.8176 19.8345 11.0478 19.9286C11.2779 20.0227 11.4871 20.1615 11.6636 20.3364C12.3999 21.0727 12.3944 22.272 11.6509 23.0157C11.4759 23.1925 11.2667 23.333 11.0374 23.4294C10.8082 23.5256 10.5621 23.5757 10.3135 23.5769C10.065 23.5781 9.81867 23.5303 9.58852 23.4363C9.35824 23.3423 9.14833 23.2035 8.97156 23.0285C8.23558 22.2922 8.24142 21.0921 8.98434 20.3492C9.15929 20.1725 9.36743 20.0319 9.59666 19.9356C9.82607 19.8392 10.0729 19.7892 10.3217 19.788Z" fill="white"/>
<path d="M10.3461 16.0015C11.0898 15.9964 11.8272 16.1386 12.5153 16.4209C13.2033 16.7032 13.8286 17.1197 14.3546 17.6455C14.8804 18.1714 15.2969 18.7968 15.5792 19.4848C15.8615 20.173 16.0048 20.9114 15.9998 21.6552L14.1059 21.6645C14.1094 21.1686 14.0141 20.6768 13.8259 20.2179C13.6377 19.7591 13.3609 19.3416 13.0103 18.991C12.6596 18.6403 12.2422 18.3635 11.7833 18.1753C11.3244 17.9872 10.8327 17.8919 10.3368 17.8953L10.3461 16.0015Z" fill="white"/>
<path d="M10.3658 12.2126C11.6057 12.2038 12.8356 12.4404 13.9828 12.9109C15.1299 13.3813 16.1723 14.0756 17.049 14.9523C17.9256 15.8289 18.6189 16.8714 19.0892 18.0185C19.5596 19.1655 19.7975 20.3946 19.7887 21.6343L17.8937 21.6436C17.9006 20.6518 17.7111 19.6681 17.3348 18.7505C16.9585 17.8329 16.4036 16.999 15.7023 16.2977C15.0011 15.5965 14.1672 15.0416 13.2496 14.6653C12.332 14.289 11.3483 14.0995 10.3565 14.1064L10.3658 12.2126Z" fill="white"/>
<path d="M10.3844 8.42367C12.1201 8.41139 13.8407 8.74461 15.4467 9.40313C17.0528 10.0618 18.5124 11.0327 19.7399 12.2602C20.9672 13.4875 21.9383 14.9464 22.597 16.5522C23.2556 18.1583 23.5887 19.8798 23.5764 21.6157L21.6826 21.625C21.6931 20.1372 21.4082 18.6619 20.8437 17.2853C20.2791 15.9087 19.4465 14.6578 18.3944 13.6057C17.3423 12.5535 16.0914 11.721 14.7147 11.1564C13.3381 10.5919 11.8629 10.307 10.3751 10.3175L10.3844 8.42367Z" fill="white"/>
<path d="M10.3188 19.2876C10.6327 19.2861 10.9454 19.3463 11.2368 19.4653V19.4663C11.5279 19.5854 11.7924 19.7604 12.0151 19.981L12.0171 19.9829C12.9512 20.917 12.9393 22.4308 12.0054 23.3667C11.839 23.5347 11.6495 23.677 11.4429 23.7886L11.231 23.8901C10.9412 24.0118 10.6299 24.0751 10.3159 24.0767C10.0016 24.0782 9.69056 24.0176 9.3999 23.8989C9.10885 23.7801 8.843 23.6054 8.61963 23.3843L8.61768 23.3823C7.68344 22.4477 7.69552 20.9306 8.63037 19.9956C8.85106 19.7731 9.11383 19.5966 9.40283 19.4751V19.4741C9.69305 19.3522 10.0049 19.2892 10.3188 19.2876ZM10.3423 15.5015C11.1518 15.496 11.9551 15.6511 12.7046 15.9585H12.7056C13.4548 16.2659 14.136 16.7191 14.7085 17.2915C15.2812 17.8642 15.734 18.5461 16.0415 19.2954C16.3489 20.0447 16.505 20.8486 16.4995 21.6587L16.4966 22.1528L16.0024 22.1548L14.1079 22.1646L13.6021 22.1665L13.606 21.6606C13.6089 21.2313 13.5267 20.8052 13.3638 20.4077C13.2004 20.0096 12.9601 19.6476 12.6567 19.3442C12.3534 19.0409 11.9913 18.8015 11.5933 18.6382C11.1957 18.4752 10.7698 18.392 10.3403 18.395L9.83447 18.3989L9.83643 17.8931L9.84619 15.9985L9.84814 15.5044L10.3423 15.5015ZM10.3618 11.7124C11.6675 11.7031 12.9637 11.9522 14.1724 12.4478C15.3809 12.9433 16.4794 13.6757 17.4028 14.5991C18.3262 15.5226 19.0569 16.6205 19.5522 17.8286C20.0477 19.0369 20.2978 20.3322 20.2886 21.6382L20.2856 22.1313L19.7915 22.1343L17.896 22.1431L17.3901 22.146L17.394 21.6401C17.4005 20.7144 17.2236 19.796 16.8726 18.9399C16.5214 18.0836 16.0035 17.3052 15.3491 16.6509C14.6948 15.9965 13.9164 15.4786 13.0601 15.1274C12.204 14.7764 11.2856 14.5995 10.3599 14.606L9.854 14.6099L9.85693 14.104L9.86572 12.2104L9.86865 11.7163L10.3618 11.7124ZM10.3813 7.92334C12.1832 7.91066 13.9692 8.25736 15.6362 8.94092C17.3035 9.62463 18.8189 10.6324 20.0933 11.9067C21.3674 13.1809 22.3753 14.6957 23.0591 16.3628C23.7428 18.0301 24.0894 19.8175 24.0767 21.6196L24.0728 22.1128L23.5786 22.1157L21.6851 22.1245L21.1792 22.1274L21.1821 21.6216C21.1922 20.2 20.9206 18.7903 20.3813 17.4751C19.842 16.1597 19.0458 14.9647 18.0405 13.9595C17.0353 12.9542 15.8402 12.158 14.5249 11.6187C13.2098 11.0794 11.8 10.8078 10.3784 10.8179L9.87256 10.8208L9.87549 10.3149L9.88428 8.42139L9.88721 7.92725L10.3813 7.92334Z" stroke="black" stroke-opacity="0.3"/>
</svg>
