<svg width="24" height="24" viewBox="0 0 24 24" fill="none" xmlns="http://www.w3.org/2000/svg">
<path d="M3.37332 16.1831C3.37332 15.7413 3.73149 15.3831 4.17332 15.3831H11.2C11.6418 15.3831 12 15.7413 12 16.1831V19.416C12 19.8578 11.6418 20.216 11.2 20.216H4.17332C3.73149 20.216 3.37332 19.8578 3.37332 19.416V16.1831ZM2.41479 10.3836C2.41479 9.9418 2.77297 9.58363 3.21479 9.58363H7.36592C7.80775 9.58363 8.16592 9.9418 8.16592 10.3836V13.6165C8.16592 14.0583 7.80775 14.4165 7.36592 14.4165H3.21479C2.77297 14.4165 2.41479 14.0583 2.41479 13.6165V10.3836ZM9.12444 10.3836C9.12444 9.9418 9.48261 9.58363 9.92444 9.58363H14.0756C14.5174 9.58363 14.8756 9.9418 14.8756 10.3836V13.6165C14.8756 14.0583 14.5174 14.4165 14.0756 14.4165H9.92444C9.48261 14.4165 9.12444 14.0583 9.12444 13.6165V10.3836ZM15.8341 10.3836C15.8341 9.9418 16.1923 9.58363 16.6341 9.58363H20.7852C21.227 9.58363 21.5852 9.9418 21.5852 10.3836V13.6165C21.5852 14.0583 21.227 14.4165 20.7852 14.4165H16.6341C16.1923 14.4165 15.8341 14.0583 15.8341 13.6165V10.3836ZM12.9585 16.1831C12.9585 15.7413 13.3167 15.3831 13.7585 15.3831H19.8267C20.2685 15.3831 20.6267 15.7413 20.6267 16.1831V19.416C20.6267 19.8578 20.2685 20.216 19.8267 20.216H13.7585C13.3167 20.216 12.9585 19.8578 12.9585 19.416V16.1831ZM3.37332 4.58418C3.37332 4.14235 3.73149 3.78418 4.17332 3.78418H10.2415C10.6833 3.78418 11.0415 4.14235 11.0415 4.58418V7.81705C11.0415 8.25888 10.6833 8.61706 10.2415 8.61706H4.17332C3.73149 8.61706 3.37332 8.25888 3.37332 7.81706V4.58418ZM12 4.58418C12 4.14235 12.3582 3.78418 12.8 3.78418H19.8267C20.2685 3.78418 20.6267 4.14235 20.6267 4.58418V7.81705C20.6267 8.25888 20.2685 8.61706 19.8267 8.61706H12.8C12.3582 8.61706 12 8.25888 12 7.81706V4.58418Z" fill="white"/>
<path d="M10.2419 3.28418C10.8823 3.2844 11.4129 3.74783 11.5203 4.35742C11.6276 3.74774 12.1592 3.28439 12.7996 3.28418H19.8269C20.5447 3.2843 21.1266 3.86618 21.1267 4.58398V7.81738C21.1266 8.43605 20.694 8.95278 20.115 9.08398H20.7849C21.5029 9.08398 22.0857 9.66582 22.0857 10.3838V13.6162C22.0857 14.3342 21.5029 14.917 20.7849 14.917H20.1189C20.6959 15.0496 21.1265 15.5654 21.1267 16.1826V19.416C21.1267 20.1339 20.5448 20.7157 19.8269 20.7158H13.7585C13.1166 20.7158 12.585 20.2504 12.4792 19.6387C12.3735 20.2504 11.8419 20.7158 11.2 20.7158H4.17358C3.45563 20.7158 2.87381 20.134 2.87378 19.416V16.1826C2.874 15.5656 3.30384 15.0498 3.88062 14.917H3.2146C2.49672 14.9169 1.91479 14.3341 1.91479 13.6162V10.3838C1.91479 9.66588 2.49672 9.08409 3.2146 9.08398H3.88452C3.30574 8.95261 2.87393 8.43589 2.87378 7.81738V4.58398C2.87389 3.86611 3.45568 3.28418 4.17358 3.28418H10.2419ZM11.4919 14.917C11.9977 15.0331 12.3896 15.4436 12.4792 15.959C12.5689 15.4436 12.9608 15.0331 13.4666 14.917H11.4919ZM15.3542 13.8428C15.2637 14.3579 14.8712 14.7676 14.365 14.8828H16.3445C15.8383 14.7675 15.4447 14.358 15.3542 13.8428ZM8.64526 13.8398C8.5557 14.3565 8.16236 14.7675 7.65503 14.8828H9.6355C9.1281 14.7675 8.73484 14.3565 8.64526 13.8398ZM7.65503 9.11719C8.16233 9.23251 8.55566 9.64357 8.64526 10.1602C8.73489 9.64352 9.12813 9.23246 9.6355 9.11719H7.65503ZM14.365 9.11719C14.8712 9.23239 15.2637 9.64212 15.3542 10.1572C15.4448 9.64209 15.8383 9.23245 16.3445 9.11719H14.365ZM11.5203 8.04297C11.4298 8.55862 11.0368 8.96904 10.53 9.08398H12.5115C12.0046 8.96904 11.6107 8.55871 11.5203 8.04297Z" stroke="black" stroke-opacity="0.3"/>
</svg>
