<svg width="24" height="24" viewBox="0 0 24 24" fill="none" xmlns="http://www.w3.org/2000/svg">
<mask id="path-1-outside-1_3507_6126" maskUnits="userSpaceOnUse" x="3.91797" y="2.38184" width="16" height="19" fill="black">
<rect fill="white" x="3.91797" y="2.38184" width="16" height="19"/>
<path d="M11.918 3.38184C15.784 3.38184 18.918 6.51584 18.918 10.3818C18.918 12.6905 17.7999 14.7376 16.0762 16.0127V19.4531H14.7979V18.2832H14.0059V19.4531H12.5137V17.3545C12.3172 17.3711 12.1187 17.3818 11.918 17.3818C11.8523 17.3818 11.7869 17.3788 11.7217 17.377V19.4531H10.2295V18.2832H9.4375V19.4531H7.76074V16.0127C6.03662 14.7377 4.91797 12.6908 4.91797 10.3818C4.91797 6.51588 8.05203 3.3819 11.918 3.38184ZM6.60059 9.49805C6.15453 10.0754 5.95619 10.8066 6.04883 11.5303C6.14156 12.2539 6.51763 12.9112 7.09473 13.3574C7.67212 13.8038 8.40404 14.0028 9.12793 13.9102C9.85166 13.8174 10.5088 13.4406 10.9551 12.8633L9.49707 11.7363C9.33749 11.891 9.13224 11.9929 8.90918 12.0215C8.63716 12.0562 8.36252 11.9811 8.14551 11.8135C7.92838 11.6456 7.7868 11.3982 7.75195 11.126C7.72344 10.9031 7.76854 10.6787 7.87793 10.4854L6.60059 9.49805ZM15.957 10.4844C16.0669 10.6779 16.1135 10.9026 16.085 11.126C16.0501 11.3981 15.9084 11.6456 15.6914 11.8135C15.4743 11.9813 15.199 12.0563 14.9268 12.0215C14.7034 11.9929 14.4976 11.8914 14.3379 11.7363L12.8809 12.8633C13.3272 13.4407 13.9851 13.8175 14.709 13.9102C15.4328 14.0027 16.1639 13.8037 16.7412 13.3574C17.3184 12.9112 17.6944 12.2539 17.7871 11.5303C17.8798 10.8066 17.6815 10.0754 17.2354 9.49805L15.957 10.4844Z"/>
</mask>
<path d="M11.918 3.38184C15.784 3.38184 18.918 6.51584 18.918 10.3818C18.918 12.6905 17.7999 14.7376 16.0762 16.0127V19.4531H14.7979V18.2832H14.0059V19.4531H12.5137V17.3545C12.3172 17.3711 12.1187 17.3818 11.918 17.3818C11.8523 17.3818 11.7869 17.3788 11.7217 17.377V19.4531H10.2295V18.2832H9.4375V19.4531H7.76074V16.0127C6.03662 14.7377 4.91797 12.6908 4.91797 10.3818C4.91797 6.51588 8.05203 3.3819 11.918 3.38184ZM6.60059 9.49805C6.15453 10.0754 5.95619 10.8066 6.04883 11.5303C6.14156 12.2539 6.51763 12.9112 7.09473 13.3574C7.67212 13.8038 8.40404 14.0028 9.12793 13.9102C9.85166 13.8174 10.5088 13.4406 10.9551 12.8633L9.49707 11.7363C9.33749 11.891 9.13224 11.9929 8.90918 12.0215C8.63716 12.0562 8.36252 11.9811 8.14551 11.8135C7.92838 11.6456 7.7868 11.3982 7.75195 11.126C7.72344 10.9031 7.76854 10.6787 7.87793 10.4854L6.60059 9.49805ZM15.957 10.4844C16.0669 10.6779 16.1135 10.9026 16.085 11.126C16.0501 11.3981 15.9084 11.6456 15.6914 11.8135C15.4743 11.9813 15.199 12.0563 14.9268 12.0215C14.7034 11.9929 14.4976 11.8914 14.3379 11.7363L12.8809 12.8633C13.3272 13.4407 13.9851 13.8175 14.709 13.9102C15.4328 14.0027 16.1639 13.8037 16.7412 13.3574C17.3184 12.9112 17.6944 12.2539 17.7871 11.5303C17.8798 10.8066 17.6815 10.0754 17.2354 9.49805L15.957 10.4844Z" fill="white"/>
<path d="M11.918 3.38184V2.38184H11.918L11.918 3.38184ZM16.0762 16.0127L15.4815 15.2087L15.0762 15.5085V16.0127H16.0762ZM16.0762 19.4531V20.4531H17.0762V19.4531H16.0762ZM14.7979 19.4531H13.7979V20.4531H14.7979V19.4531ZM14.7979 18.2832H15.7979V17.2832H14.7979V18.2832ZM14.0059 18.2832V17.2832H13.0059V18.2832H14.0059ZM14.0059 19.4531V20.4531H15.0059V19.4531H14.0059ZM12.5137 19.4531H11.5137V20.4531H12.5137V19.4531ZM12.5137 17.3545H13.5137V16.2666L12.4297 16.358L12.5137 17.3545ZM11.918 17.3818L11.918 18.3818H11.918V17.3818ZM11.7217 17.377L11.7492 16.3773L10.7217 16.349V17.377H11.7217ZM11.7217 19.4531V20.4531H12.7217V19.4531H11.7217ZM10.2295 19.4531H9.22949V20.4531H10.2295V19.4531ZM10.2295 18.2832H11.2295V17.2832H10.2295V18.2832ZM9.4375 18.2832V17.2832H8.4375V18.2832H9.4375ZM9.4375 19.4531V20.4531H10.4375V19.4531H9.4375ZM7.76074 19.4531H6.76074V20.4531H7.76074V19.4531ZM7.76074 16.0127H8.76074V15.5085L8.35534 15.2087L7.76074 16.0127ZM6.60059 9.49805L7.21214 8.70684L6.42079 8.09518L5.80927 8.88664L6.60059 9.49805ZM6.04883 11.5303L5.05692 11.6572L5.05694 11.6574L6.04883 11.5303ZM7.09473 13.3574L6.483 14.1485L6.48312 14.1486L7.09473 13.3574ZM9.12793 13.9102L9.2549 14.9021L9.25504 14.902L9.12793 13.9102ZM10.9551 12.8633L11.7462 13.4749L12.3579 12.6837L11.5666 12.0721L10.9551 12.8633ZM9.49707 11.7363L10.1086 10.9451L9.42306 10.4152L8.80097 11.0184L9.49707 11.7363ZM8.90918 12.0215L9.03586 13.0134L9.03615 13.0134L8.90918 12.0215ZM8.14551 11.8135L7.53391 12.6046L7.53413 12.6048L8.14551 11.8135ZM7.75195 11.126L6.76003 11.2528L6.76005 11.2529L7.75195 11.126ZM7.87793 10.4854L8.74823 10.9779L9.1749 10.2239L8.48948 9.69415L7.87793 10.4854ZM15.957 10.4844L15.3462 9.69265L14.6587 10.2231L15.0874 10.9781L15.957 10.4844ZM16.085 11.126L17.0769 11.2529L17.0769 11.2528L16.085 11.126ZM15.6914 11.8135L16.303 12.6046L16.3032 12.6045L15.6914 11.8135ZM14.9268 12.0215L14.7998 13.0134L14.7999 13.0134L14.9268 12.0215ZM14.3379 11.7363L15.0346 11.019L14.4123 10.4146L13.7261 10.9453L14.3379 11.7363ZM12.8809 12.8633L12.269 12.0723L11.4783 12.6839L12.0897 13.4749L12.8809 12.8633ZM14.709 13.9102L14.582 14.9021L14.5821 14.9021L14.709 13.9102ZM16.7412 13.3574L17.3528 14.1486L17.3529 14.1485L16.7412 13.3574ZM17.7871 11.5303L18.779 11.6574L18.779 11.6572L17.7871 11.5303ZM17.2354 9.49805L18.0266 8.88659L17.4156 8.09589L16.6245 8.70632L17.2354 9.49805ZM11.918 3.38184V4.38184C15.2317 4.38184 17.918 7.06813 17.918 10.3818H18.918H19.918C19.918 5.96356 16.3362 2.38184 11.918 2.38184V3.38184ZM18.918 10.3818H17.918C17.918 12.3598 16.9615 14.114 15.4815 15.2087L16.0762 16.0127L16.6709 16.8167C18.6384 15.3613 19.918 13.0212 19.918 10.3818H18.918ZM16.0762 16.0127H15.0762V19.4531H16.0762H17.0762V16.0127H16.0762ZM16.0762 19.4531V18.4531H14.7979V19.4531V20.4531H16.0762V19.4531ZM14.7979 19.4531H15.7979V18.2832H14.7979H13.7979V19.4531H14.7979ZM14.7979 18.2832V17.2832H14.0059V18.2832V19.2832H14.7979V18.2832ZM14.0059 18.2832H13.0059V19.4531H14.0059H15.0059V18.2832H14.0059ZM14.0059 19.4531V18.4531H12.5137V19.4531V20.4531H14.0059V19.4531ZM12.5137 19.4531H13.5137V17.3545H12.5137H11.5137V19.4531H12.5137ZM12.5137 17.3545L12.4297 16.358C12.2528 16.3729 12.0833 16.3818 11.918 16.3818V17.3818V18.3818C12.1541 18.3818 12.3817 18.3692 12.5977 18.351L12.5137 17.3545ZM11.918 17.3818L11.918 16.3818C11.8703 16.3818 11.8409 16.3799 11.7492 16.3773L11.7217 17.377L11.6941 18.3766C11.7329 18.3776 11.8343 18.3818 11.918 18.3818L11.918 17.3818ZM11.7217 17.377H10.7217V19.4531H11.7217H12.7217V17.377H11.7217ZM11.7217 19.4531V18.4531H10.2295V19.4531V20.4531H11.7217V19.4531ZM10.2295 19.4531H11.2295V18.2832H10.2295H9.22949V19.4531H10.2295ZM10.2295 18.2832V17.2832H9.4375V18.2832V19.2832H10.2295V18.2832ZM9.4375 18.2832H8.4375V19.4531H9.4375H10.4375V18.2832H9.4375ZM9.4375 19.4531V18.4531H7.76074V19.4531V20.4531H9.4375V19.4531ZM7.76074 19.4531H8.76074V16.0127H7.76074H6.76074V19.4531H7.76074ZM7.76074 16.0127L8.35534 15.2087C6.87491 14.1139 5.91797 12.3599 5.91797 10.3818H4.91797H3.91797C3.91797 13.0217 5.19833 15.3615 7.16615 16.8167L7.76074 16.0127ZM4.91797 10.3818H5.91797C5.91797 7.06819 8.6043 4.38189 11.918 4.38184L11.918 3.38184L11.918 2.38184C7.49976 2.38191 3.91797 5.96358 3.91797 10.3818H4.91797ZM6.60059 9.49805L5.80927 8.88664C5.20091 9.674 4.93066 10.6709 5.05692 11.6572L6.04883 11.5303L7.04073 11.4033C6.98172 10.9423 7.10814 10.4767 7.3919 10.1095L6.60059 9.49805ZM6.04883 11.5303L5.05694 11.6574C5.18334 12.6437 5.696 13.5399 6.483 14.1485L7.09473 13.3574L7.70645 12.5664C7.33927 12.2824 7.09978 11.864 7.04072 11.4032L6.04883 11.5303ZM7.09473 13.3574L6.48312 14.1486C7.27026 14.7571 8.26782 15.0284 9.2549 14.9021L9.12793 13.9102L9.00096 12.9183C8.54025 12.9772 8.07398 12.8505 7.70633 12.5663L7.09473 13.3574ZM9.12793 13.9102L9.25504 14.902C10.2422 14.7755 11.1381 14.2616 11.7462 13.4749L10.9551 12.8633L10.1639 12.2517C9.87955 12.6195 9.46109 12.8593 9.00081 12.9183L9.12793 13.9102ZM10.9551 12.8633L11.5666 12.0721L10.1086 10.9451L9.49707 11.7363L8.88552 12.5275L10.3435 13.6545L10.9551 12.8633ZM9.49707 11.7363L8.80097 11.0184C8.79108 11.028 8.78354 11.0294 8.78221 11.0296L8.90918 12.0215L9.03615 13.0134C9.48094 12.9565 9.88391 12.7541 10.1932 12.4543L9.49707 11.7363ZM8.90918 12.0215L8.7825 11.0295C8.77448 11.0306 8.76508 11.0285 8.75689 11.0221L8.14551 11.8135L7.53413 12.6048C7.95996 12.9338 8.49983 13.0819 9.03586 13.0134L8.90918 12.0215ZM8.14551 11.8135L8.75711 11.0223C8.74998 11.0168 8.74506 11.0084 8.74386 10.999L7.75195 11.126L6.76005 11.2529C6.82854 11.788 7.10678 12.2745 7.53391 12.6046L8.14551 11.8135ZM7.75195 11.126L8.74387 10.9991C8.743 10.9923 8.74424 10.9849 8.74823 10.9779L7.87793 10.4854L7.00763 9.99283C6.79283 10.3724 6.70389 10.8139 6.76003 11.2528L7.75195 11.126ZM7.87793 10.4854L8.48948 9.69415L7.21214 8.70684L6.60059 9.49805L5.98904 10.2893L7.26638 11.2766L7.87793 10.4854ZM15.957 10.4844L15.0874 10.9781C15.0934 10.9886 15.0934 10.9962 15.093 10.9992L16.085 11.126L17.0769 11.2528C17.1336 10.809 17.0405 10.3672 16.8266 9.99063L15.957 10.4844ZM16.085 11.126L15.0931 10.999C15.0919 11.0081 15.0869 11.0168 15.0796 11.0225L15.6914 11.8135L16.3032 12.6045C16.7299 12.2745 17.0084 11.7881 17.0769 11.2529L16.085 11.126ZM15.6914 11.8135L15.0798 11.0223C15.0722 11.0282 15.0624 11.0307 15.0537 11.0296L14.9268 12.0215L14.7999 13.0134C15.3355 13.0819 15.8764 12.9344 16.303 12.6046L15.6914 11.8135ZM14.9268 12.0215L15.0537 11.0296C15.0502 11.0291 15.0429 11.027 15.0346 11.019L14.3379 11.7363L13.6412 12.4537C13.9522 12.7558 14.3566 12.9567 14.7998 13.0134L14.9268 12.0215ZM14.3379 11.7363L13.7261 10.9453L12.269 12.0723L12.8809 12.8633L13.4927 13.6543L14.9497 12.5273L14.3379 11.7363ZM12.8809 12.8633L12.0897 13.4749C12.6982 14.262 13.5949 14.7757 14.582 14.9021L14.709 13.9102L14.836 12.9183C14.3752 12.8593 13.9562 12.6193 13.672 12.2517L12.8809 12.8633ZM14.709 13.9102L14.5821 14.9021C15.5692 15.0283 16.5659 14.7569 17.3528 14.1486L16.7412 13.3574L16.1296 12.5663C15.7619 12.8505 15.2963 12.9771 14.8358 12.9182L14.709 13.9102ZM16.7412 13.3574L17.3529 14.1485C18.1401 13.5399 18.6526 12.6437 18.779 11.6574L17.7871 11.5303L16.7952 11.4032C16.7361 11.8641 16.4967 12.2824 16.1295 12.5663L16.7412 13.3574ZM17.7871 11.5303L18.779 11.6572C18.9053 10.6709 18.6351 9.67403 18.0266 8.88659L17.2354 9.49805L16.4441 10.1095C16.7278 10.4767 16.8542 10.9422 16.7952 11.4033L17.7871 11.5303ZM17.2354 9.49805L16.6245 8.70632L15.3462 9.69265L15.957 10.4844L16.5679 11.2761L17.8462 10.2898L17.2354 9.49805Z" fill="black" fill-opacity="0.3" mask="url(#path-1-outside-1_3507_6126)"/>
</svg>
