<svg width="16" height="16" viewBox="0 0 16 16" fill="none" xmlns="http://www.w3.org/2000/svg">
<circle cx="8" cy="8" r="7.5" fill="#383838" stroke="black"/>
<mask id="path-2-outside-1_2375_17841" maskUnits="userSpaceOnUse" x="4.08398" y="2.62549" width="8" height="10" fill="black">
<rect fill="white" x="4.08398" y="2.62549" width="8" height="10"/>
<path d="M7.30371 3.62549V11.6255H5.6123V3.62549H7.30371ZM10.3867 3.62549V11.6255H8.69531V3.62549H10.3867Z"/>
</mask>
<path d="M7.30371 3.62549V11.6255H5.6123V3.62549H7.30371ZM10.3867 3.62549V11.6255H8.69531V3.62549H10.3867Z" fill="#F7C440"/>
<path d="M7.30371 3.62549H8.30371V2.62549H7.30371V3.62549ZM7.30371 11.6255V12.6255H8.30371V11.6255H7.30371ZM5.6123 11.6255H4.6123V12.6255H5.6123V11.6255ZM5.6123 3.62549V2.62549H4.6123V3.62549H5.6123ZM7.30371 3.62549H6.30371V11.6255H7.30371H8.30371V3.62549H7.30371ZM7.30371 11.6255V10.6255H5.6123V11.6255V12.6255H7.30371V11.6255ZM5.6123 11.6255H6.6123V3.62549H5.6123H4.6123V11.6255H5.6123ZM5.6123 3.62549V4.62549H7.30371V3.62549V2.62549H5.6123V3.62549ZM10.3867 3.62549H11.3867V2.62549H10.3867V3.62549ZM10.3867 11.6255V12.6255H11.3867V11.6255H10.3867ZM8.69531 11.6255H7.69531V12.6255H8.69531V11.6255ZM8.69531 3.62549V2.62549H7.69531V3.62549H8.69531ZM10.3867 3.62549H9.38672V11.6255H10.3867H11.3867V3.62549H10.3867ZM10.3867 11.6255V10.6255H8.69531V11.6255V12.6255H10.3867V11.6255ZM8.69531 11.6255H9.69531V3.62549H8.69531H7.69531V11.6255H8.69531ZM8.69531 3.62549V4.62549H10.3867V3.62549V2.62549H8.69531V3.62549Z" fill="black" fill-opacity="0.3" mask="url(#path-2-outside-1_2375_17841)"/>
</svg>
