<svg width="16" height="16" viewBox="0 0 16 16" fill="none" xmlns="http://www.w3.org/2000/svg">
<circle cx="8" cy="8" r="7.5" fill="#383838" stroke="black"/>
<mask id="path-2-outside-1_2375_17844" maskUnits="userSpaceOnUse" x="2.08398" y="2.62549" width="11" height="10" fill="black">
<rect fill="white" x="2.08398" y="2.62549" width="11" height="10"/>
<path d="M5.76221 3.62549V11.6255H4.0708V3.62549H5.76221ZM8.84521 3.62549V11.6255H7.15381V3.62549H8.84521ZM11.9282 3.62549V11.6255H10.2368V3.62549H11.9282Z"/>
</mask>
<path d="M5.76221 3.62549V11.6255H4.0708V3.62549H5.76221ZM8.84521 3.62549V11.6255H7.15381V3.62549H8.84521ZM11.9282 3.62549V11.6255H10.2368V3.62549H11.9282Z" fill="#FF6A00"/>
<path d="M5.76221 3.62549H6.76221V2.62549H5.76221V3.62549ZM5.76221 11.6255V12.6255H6.76221V11.6255H5.76221ZM4.0708 11.6255H3.0708V12.6255H4.0708V11.6255ZM4.0708 3.62549V2.62549H3.0708V3.62549H4.0708ZM5.76221 3.62549H4.76221V11.6255H5.76221H6.76221V3.62549H5.76221ZM5.76221 11.6255V10.6255H4.0708V11.6255V12.6255H5.76221V11.6255ZM4.0708 11.6255H5.0708V3.62549H4.0708H3.0708V11.6255H4.0708ZM4.0708 3.62549V4.62549H5.76221V3.62549V2.62549H4.0708V3.62549ZM8.84521 3.62549H9.84521V2.62549H8.84521V3.62549ZM8.84521 11.6255V12.6255H9.84521V11.6255H8.84521ZM7.15381 11.6255H6.15381V12.6255H7.15381V11.6255ZM7.15381 3.62549V2.62549H6.15381V3.62549H7.15381ZM8.84521 3.62549H7.84521V11.6255H8.84521H9.84521V3.62549H8.84521ZM8.84521 11.6255V10.6255H7.15381V11.6255V12.6255H8.84521V11.6255ZM7.15381 11.6255H8.15381V3.62549H7.15381H6.15381V11.6255H7.15381ZM7.15381 3.62549V4.62549H8.84521V3.62549V2.62549H7.15381V3.62549ZM11.9282 3.62549H12.9282V2.62549H11.9282V3.62549ZM11.9282 11.6255V12.6255H12.9282V11.6255H11.9282ZM10.2368 11.6255H9.23682V12.6255H10.2368V11.6255ZM10.2368 3.62549V2.62549H9.23682V3.62549H10.2368ZM11.9282 3.62549H10.9282V11.6255H11.9282H12.9282V3.62549H11.9282ZM11.9282 11.6255V10.6255H10.2368V11.6255V12.6255H11.9282V11.6255ZM10.2368 11.6255H11.2368V3.62549H10.2368H9.23682V11.6255H10.2368ZM10.2368 3.62549V4.62549H11.9282V3.62549V2.62549H10.2368V3.62549Z" fill="black" fill-opacity="0.3" mask="url(#path-2-outside-1_2375_17844)"/>
</svg>
