<svg width="24" height="24" viewBox="0 0 24 24" fill="none" xmlns="http://www.w3.org/2000/svg">
<mask id="path-2-outside-1_3507_14816" maskUnits="userSpaceOnUse" x="5.27832" y="1.89453" width="14" height="21" fill="black">
<rect fill="white" x="5.27832" y="1.89453" width="14" height="21"/>
<path d="M14.9395 16.7773C15.9864 17.2245 16.6562 17.9052 16.6562 18.668C16.6561 20.0148 14.5711 21.1055 12 21.1055C9.42886 21.1055 7.34488 20.0148 7.34473 18.668C7.34473 17.9052 8.01358 17.2245 9.06055 16.7773C9.43716 17.2745 9.78906 17.7191 10.0859 18.0869C10.3605 18.4271 10.5903 18.7028 10.752 18.8945C10.8326 18.9903 10.8962 19.0666 10.9404 19.1182L10.9922 19.1768L11.0068 19.1934L11.0127 19.2002L12 20.333L12.9873 19.2002L12.9932 19.1934L13.0078 19.1768L13.0596 19.1182C13.1038 19.0666 13.1674 18.9903 13.248 18.8945C13.4097 18.7028 13.6395 18.4271 13.9141 18.0869C14.2109 17.7191 14.5628 17.2745 14.9395 16.7773ZM12 2.89453C15.1596 2.8946 17.7215 5.45661 17.7217 8.61621C17.7217 11.776 12 18.3389 12 18.3389C12 18.3389 6.27832 11.776 6.27832 8.61621C6.27845 5.45657 8.84036 2.89453 12 2.89453ZM11.8691 12.0938C11.7381 12.0938 11.6083 12.1205 11.4873 12.1709C11.3664 12.2213 11.2563 12.2947 11.1641 12.3877C11.0022 12.5502 10.9021 12.7639 10.8799 12.9922C10.8577 13.2205 10.9145 13.4499 11.042 13.6406C11.1695 13.8314 11.3596 13.9723 11.5791 14.0391C11.7986 14.1058 12.035 14.0943 12.2471 14.0068C12.3676 13.9529 12.4781 13.8786 12.5742 13.7881C12.6635 13.6966 12.7348 13.589 12.7832 13.4707C12.84 13.3497 12.8669 13.2166 12.8623 13.083C12.8612 12.8225 12.7577 12.5727 12.5742 12.3877C12.4819 12.2947 12.3719 12.2213 12.251 12.1709C12.13 12.1205 12.0002 12.0938 11.8691 12.0938ZM11.8672 5.13867C11.3445 5.13876 10.8306 5.2758 10.3779 5.53711C9.92511 5.79859 9.54856 6.17509 9.28711 6.62793C9.22152 6.74118 9.17919 6.86634 9.16211 6.99609C9.14504 7.12597 9.15335 7.2583 9.1875 7.38477C9.22166 7.51119 9.28122 7.6298 9.36133 7.7334C9.44133 7.83676 9.54077 7.9235 9.6543 7.98828C9.88221 8.11769 10.1524 8.1517 10.4053 8.08301C10.6582 8.0142 10.8739 7.8481 11.0049 7.62109C11.0923 7.46969 11.2186 7.34402 11.3701 7.25684C11.5218 7.16966 11.6942 7.12335 11.8691 7.12402C12.1324 7.12402 12.3851 7.22894 12.5713 7.41504C12.7575 7.60121 12.8622 7.85391 12.8623 8.11719C12.8623 8.38054 12.7575 8.6331 12.5713 8.81934C12.385 9.00558 12.1325 9.11035 11.8691 9.11035C11.6058 9.11039 11.3532 9.21517 11.167 9.40137C10.9808 9.58757 10.876 9.84019 10.876 10.1035C10.876 10.3668 10.9808 10.6194 11.167 10.8057C11.3532 10.9919 11.6058 11.0966 11.8691 11.0967C12.3919 11.0963 12.9058 10.9589 13.3584 10.6973C13.8111 10.4356 14.187 10.0584 14.4482 9.60547C14.7094 9.15258 14.8469 8.63898 14.8467 8.11621C14.8465 7.59336 14.7088 7.07967 14.4473 6.62695C14.1857 6.17422 13.8093 5.79845 13.3564 5.53711C12.9036 5.27582 12.39 5.13864 11.8672 5.13867Z"/>
</mask>
<path d="M14.9395 16.7773C15.9864 17.2245 16.6562 17.9052 16.6562 18.668C16.6561 20.0148 14.5711 21.1055 12 21.1055C9.42886 21.1055 7.34488 20.0148 7.34473 18.668C7.34473 17.9052 8.01358 17.2245 9.06055 16.7773C9.43716 17.2745 9.78906 17.7191 10.0859 18.0869C10.3605 18.4271 10.5903 18.7028 10.752 18.8945C10.8326 18.9903 10.8962 19.0666 10.9404 19.1182L10.9922 19.1768L11.0068 19.1934L11.0127 19.2002L12 20.333L12.9873 19.2002L12.9932 19.1934L13.0078 19.1768L13.0596 19.1182C13.1038 19.0666 13.1674 18.9903 13.248 18.8945C13.4097 18.7028 13.6395 18.4271 13.9141 18.0869C14.2109 17.7191 14.5628 17.2745 14.9395 16.7773ZM12 2.89453C15.1596 2.8946 17.7215 5.45661 17.7217 8.61621C17.7217 11.776 12 18.3389 12 18.3389C12 18.3389 6.27832 11.776 6.27832 8.61621C6.27845 5.45657 8.84036 2.89453 12 2.89453ZM11.8691 12.0938C11.7381 12.0938 11.6083 12.1205 11.4873 12.1709C11.3664 12.2213 11.2563 12.2947 11.1641 12.3877C11.0022 12.5502 10.9021 12.7639 10.8799 12.9922C10.8577 13.2205 10.9145 13.4499 11.042 13.6406C11.1695 13.8314 11.3596 13.9723 11.5791 14.0391C11.7986 14.1058 12.035 14.0943 12.2471 14.0068C12.3676 13.9529 12.4781 13.8786 12.5742 13.7881C12.6635 13.6966 12.7348 13.589 12.7832 13.4707C12.84 13.3497 12.8669 13.2166 12.8623 13.083C12.8612 12.8225 12.7577 12.5727 12.5742 12.3877C12.4819 12.2947 12.3719 12.2213 12.251 12.1709C12.13 12.1205 12.0002 12.0938 11.8691 12.0938ZM11.8672 5.13867C11.3445 5.13876 10.8306 5.2758 10.3779 5.53711C9.92511 5.79859 9.54856 6.17509 9.28711 6.62793C9.22152 6.74118 9.17919 6.86634 9.16211 6.99609C9.14504 7.12597 9.15335 7.2583 9.1875 7.38477C9.22166 7.51119 9.28122 7.6298 9.36133 7.7334C9.44133 7.83676 9.54077 7.9235 9.6543 7.98828C9.88221 8.11769 10.1524 8.1517 10.4053 8.08301C10.6582 8.0142 10.8739 7.8481 11.0049 7.62109C11.0923 7.46969 11.2186 7.34402 11.3701 7.25684C11.5218 7.16966 11.6942 7.12335 11.8691 7.12402C12.1324 7.12402 12.3851 7.22894 12.5713 7.41504C12.7575 7.60121 12.8622 7.85391 12.8623 8.11719C12.8623 8.38054 12.7575 8.6331 12.5713 8.81934C12.385 9.00558 12.1325 9.11035 11.8691 9.11035C11.6058 9.11039 11.3532 9.21517 11.167 9.40137C10.9808 9.58757 10.876 9.84019 10.876 10.1035C10.876 10.3668 10.9808 10.6194 11.167 10.8057C11.3532 10.9919 11.6058 11.0966 11.8691 11.0967C12.3919 11.0963 12.9058 10.9589 13.3584 10.6973C13.8111 10.4356 14.187 10.0584 14.4482 9.60547C14.7094 9.15258 14.8469 8.63898 14.8467 8.11621C14.8465 7.59336 14.7088 7.07967 14.4473 6.62695C14.1857 6.17422 13.8093 5.79845 13.3564 5.53711C12.9036 5.27582 12.39 5.13864 11.8672 5.13867Z" fill="white"/>
<path d="M14.9395 16.7773L15.3322 15.8577L14.614 15.5509L14.1423 16.1735L14.9395 16.7773ZM16.6562 18.668L17.6562 18.6681V18.668H16.6562ZM12 21.1055V22.1055V21.1055ZM7.34473 18.668H6.34473L6.34473 18.6681L7.34473 18.668ZM9.06055 16.7773L9.85767 16.1735L9.38605 15.5509L8.66775 15.8577L9.06055 16.7773ZM10.0859 18.0869L9.30775 18.7149L9.30776 18.715L10.0859 18.0869ZM10.752 18.8945L9.98731 19.539L9.98732 19.539L10.752 18.8945ZM10.9404 19.1182L10.1815 19.7693L10.1862 19.7748L10.191 19.7802L10.9404 19.1182ZM10.9922 19.1768L11.742 18.5151L11.7417 18.5147L10.9922 19.1768ZM11.0068 19.1934L11.7661 18.5426L11.7614 18.5371L11.7567 18.5317L11.0068 19.1934ZM11.0127 19.2002L10.2534 19.851L10.2588 19.8572L11.0127 19.2002ZM12 20.333L11.2461 20.99L12 21.855L12.7539 20.99L12 20.333ZM12.9873 19.2002L13.7412 19.8572L13.7466 19.851L12.9873 19.2002ZM12.9932 19.1934L12.2433 18.5317L12.2386 18.5371L12.2339 18.5426L12.9932 19.1934ZM13.0078 19.1768L12.2583 18.5147L12.258 18.5151L13.0078 19.1768ZM13.0596 19.1182L13.809 19.7802L13.8138 19.7748L13.8185 19.7693L13.0596 19.1182ZM13.248 18.8945L14.0127 19.539L14.0127 19.539L13.248 18.8945ZM13.9141 18.0869L14.6922 18.715L14.6922 18.7149L13.9141 18.0869ZM12 2.89453L12 1.89453H12V2.89453ZM17.7217 8.61621H18.7217V8.61617L17.7217 8.61621ZM12 18.3389L11.2462 18.996L12 19.8606L12.7538 18.996L12 18.3389ZM6.27832 8.61621L5.27832 8.61617V8.61621H6.27832ZM11.8691 12.0938V11.0938H11.869L11.8691 12.0938ZM11.4873 12.1709L11.1027 11.2478L11.1025 11.2479L11.4873 12.1709ZM11.1641 12.3877L11.8727 13.0933L11.8741 13.0919L11.1641 12.3877ZM10.8799 12.9922L9.8846 12.8951L9.88457 12.8954L10.8799 12.9922ZM11.042 13.6406L10.2106 14.1963L10.2107 14.1965L11.042 13.6406ZM11.5791 14.0391L11.2883 14.9958L11.2884 14.9959L11.5791 14.0391ZM12.2471 14.0068L12.6284 14.9313L12.6421 14.9256L12.6556 14.9196L12.2471 14.0068ZM12.5742 13.7881L13.2597 14.5161L13.2751 14.5017L13.2898 14.4866L12.5742 13.7881ZM12.7832 13.4707L11.8779 13.0459L11.8672 13.0687L11.8577 13.0919L12.7832 13.4707ZM12.8623 13.083L11.8623 13.0872L11.8624 13.1021L11.8629 13.117L12.8623 13.083ZM12.5742 12.3877L13.2842 11.6835L13.2841 11.6833L12.5742 12.3877ZM12.251 12.1709L12.6356 11.2478L12.6355 11.2478L12.251 12.1709ZM11.8672 5.13867L11.8671 4.13867H11.867L11.8672 5.13867ZM10.3779 5.53711L9.87801 4.67104L9.87786 4.67112L10.3779 5.53711ZM9.28711 6.62793L10.1525 7.12908L10.1531 7.12793L9.28711 6.62793ZM9.16211 6.99609L8.17066 6.86562L8.17063 6.86582L9.16211 6.99609ZM9.1875 7.38477L8.22209 7.6455L8.22212 7.6456L9.1875 7.38477ZM9.36133 7.7334L8.57024 8.3451L8.57053 8.34547L9.36133 7.7334ZM9.6543 7.98828L9.15868 8.85682L9.16055 8.85789L9.6543 7.98828ZM10.4053 8.08301L10.6674 9.04805L10.6678 9.04794L10.4053 8.08301ZM11.0049 7.62109L10.1389 7.1211L10.1388 7.12119L11.0049 7.62109ZM11.3701 7.25684L10.8718 6.38982L10.8714 6.39008L11.3701 7.25684ZM11.8691 7.12402L11.8653 8.12402H11.8691V7.12402ZM12.5713 7.41504L13.2784 6.70793L13.2782 6.70771L12.5713 7.41504ZM12.8623 8.11719H13.8623V8.11689L12.8623 8.11719ZM12.5713 8.81934L13.2784 9.52644L13.2785 9.52637L12.5713 8.81934ZM11.8691 9.11035V8.11035H11.869L11.8691 9.11035ZM11.167 9.40137L10.4599 8.69425L10.4599 8.69426L11.167 9.40137ZM10.876 10.1035L9.87598 10.1033V10.1035H10.876ZM11.167 10.8057L10.4597 11.5126L10.4599 11.5128L11.167 10.8057ZM11.8691 11.0967L11.869 12.0967H11.8698L11.8691 11.0967ZM13.3584 10.6973L13.8588 11.5631L13.8589 11.563L13.3584 10.6973ZM14.4482 9.60547L15.3145 10.1051L15.3146 10.1049L14.4482 9.60547ZM14.8467 8.11621L15.8467 8.11581V8.11578L14.8467 8.11621ZM14.4473 6.62695L15.3131 6.12669L15.3131 6.12668L14.4473 6.62695ZM13.3564 5.53711L13.8563 4.67098L13.8562 4.67096L13.3564 5.53711ZM14.9395 16.7773L14.5467 17.697C15.4962 18.1025 15.6562 18.5347 15.6562 18.668H16.6562H17.6562C17.6562 17.2756 16.4766 16.3465 15.3322 15.8577L14.9395 16.7773ZM16.6562 18.668L15.6562 18.6679C15.6562 18.7826 15.5486 19.1289 14.8285 19.5058C14.1559 19.8578 13.1575 20.1055 12 20.1055V21.1055V22.1055C13.4136 22.1055 14.7433 21.8078 15.756 21.2778C16.7212 20.7726 17.6561 19.9002 17.6562 18.6681L16.6562 18.668ZM12 21.1055V20.1055C10.8425 20.1055 9.84436 19.8578 9.17205 19.5058C8.45244 19.1291 8.34474 18.7828 8.34473 18.6679L7.34473 18.668L6.34473 18.6681C6.34486 19.9 7.27922 20.7724 8.24443 21.2777C9.25693 21.8078 10.5864 22.1055 12 22.1055V21.1055ZM7.34473 18.668H8.34473C8.34473 18.5343 8.50453 18.1022 9.45334 17.697L9.06055 16.7773L8.66775 15.8577C7.52262 16.3468 6.34473 17.2761 6.34473 18.668H7.34473ZM9.06055 16.7773L8.26342 17.3812C8.64772 17.8885 9.00622 18.3413 9.30775 18.7149L10.0859 18.0869L10.8641 17.4589C10.5719 17.0968 10.2266 16.6606 9.85767 16.1735L9.06055 16.7773ZM10.0859 18.0869L9.30776 18.715C9.58779 19.0619 9.82231 19.3432 9.98731 19.539L10.752 18.8945L11.5166 18.2501C11.3583 18.0623 11.1332 17.7923 10.8641 17.4589L10.0859 18.0869ZM10.752 18.8945L9.98732 19.539C10.0613 19.6268 10.1336 19.7136 10.1815 19.7693L10.9404 19.1182L11.6994 18.467C11.6587 18.4196 11.6039 18.3537 11.5166 18.2501L10.752 18.8945ZM10.9404 19.1182L10.191 19.7802L10.2427 19.8388L10.9922 19.1768L11.7417 18.5147L11.6899 18.4561L10.9404 19.1182ZM10.9922 19.1768L10.2423 19.8384L10.257 19.855L11.0068 19.1934L11.7567 18.5317L11.742 18.5151L10.9922 19.1768ZM11.0068 19.1934L10.2476 19.8442L10.2534 19.851L11.0127 19.2002L11.772 18.5494L11.7661 18.5426L11.0068 19.1934ZM11.0127 19.2002L10.2588 19.8572L11.2461 20.99L12 20.333L12.7539 19.676L11.7666 18.5432L11.0127 19.2002ZM12 20.333L12.7539 20.99L13.7412 19.8572L12.9873 19.2002L12.2334 18.5432L11.2461 19.676L12 20.333ZM12.9873 19.2002L13.7466 19.851L13.7524 19.8442L12.9932 19.1934L12.2339 18.5426L12.228 18.5494L12.9873 19.2002ZM12.9932 19.1934L13.743 19.855L13.7577 19.8384L13.0078 19.1768L12.258 18.5151L12.2433 18.5317L12.9932 19.1934ZM13.0078 19.1768L13.7573 19.8388L13.809 19.7802L13.0596 19.1182L12.3101 18.4561L12.2583 18.5147L13.0078 19.1768ZM13.0596 19.1182L13.8185 19.7693C13.8663 19.7136 13.9387 19.6268 14.0127 19.539L13.248 18.8945L12.4834 18.2501C12.3961 18.3537 12.3413 18.4196 12.3006 18.467L13.0596 19.1182ZM13.248 18.8945L14.0127 19.539C14.1777 19.3432 14.4122 19.062 14.6922 18.715L13.9141 18.0869L13.1359 17.4589C12.8668 17.7923 12.6417 18.0623 12.4834 18.2501L13.248 18.8945ZM13.9141 18.0869L14.6922 18.7149C14.9938 18.3413 15.3523 17.8885 15.7366 17.3812L14.9395 16.7773L14.1423 16.1735C13.7734 16.6606 13.4281 17.0968 13.1359 17.4589L13.9141 18.0869ZM12 2.89453L12 3.89453C14.6073 3.89459 16.7216 6.00889 16.7217 8.61625L17.7217 8.61621L18.7217 8.61617C18.7215 4.90433 15.7119 1.89461 12 1.89453L12 2.89453ZM17.7217 8.61621H16.7217C16.7217 9.15837 16.4585 9.9836 15.9355 11.0167C15.4293 12.0166 14.7439 13.0895 14.0426 14.0875C13.3439 15.082 12.643 15.9828 12.1158 16.636C11.8526 16.9621 11.6337 17.2253 11.4812 17.4062C11.405 17.4967 11.3454 17.5665 11.3053 17.6132C11.2853 17.6366 11.2701 17.6542 11.2601 17.6657C11.2552 17.6714 11.2515 17.6757 11.2491 17.6784C11.248 17.6797 11.2471 17.6807 11.2467 17.6812C11.2464 17.6815 11.2463 17.6817 11.2462 17.6818C11.2462 17.6818 11.2462 17.6818 11.2461 17.6818C11.2462 17.6818 11.2462 17.6817 12 18.3389C12.7538 18.996 12.7539 18.9959 12.754 18.9958C12.7541 18.9957 12.7542 18.9955 12.7543 18.9954C12.7546 18.995 12.755 18.9946 12.7554 18.9941C12.7563 18.9931 12.7576 18.9916 12.7591 18.9898C12.7623 18.9862 12.7668 18.981 12.7727 18.9742C12.7844 18.9607 12.8013 18.9411 12.8232 18.9156C12.8669 18.8646 12.9303 18.7904 13.0105 18.6952C13.1709 18.5048 13.399 18.2306 13.6722 17.8921C14.2178 17.216 14.9474 16.2786 15.679 15.2374C16.4082 14.1997 17.1532 13.0394 17.7199 11.9201C18.2697 10.834 18.7217 9.65393 18.7217 8.61621H17.7217ZM12 18.3389C12.7538 17.6817 12.7538 17.6818 12.7539 17.6818C12.7538 17.6818 12.7538 17.6818 12.7538 17.6818C12.7537 17.6817 12.7536 17.6815 12.7533 17.6812C12.7529 17.6807 12.752 17.6797 12.7509 17.6784C12.7485 17.6757 12.7448 17.6714 12.7399 17.6657C12.7299 17.6542 12.7147 17.6366 12.6947 17.6132C12.6546 17.5665 12.595 17.4967 12.5188 17.4062C12.3663 17.2253 12.1474 16.9621 11.8842 16.636C11.357 15.9828 10.6561 15.082 9.95736 14.0875C9.25607 13.0895 8.57067 12.0166 8.06453 11.0167C7.54152 9.9836 7.27832 9.15837 7.27832 8.61621H6.27832H5.27832C5.27832 9.65393 5.73033 10.834 6.28014 11.9201C6.84681 13.0394 7.59183 14.1997 8.32096 15.2374C9.05261 16.2786 9.7822 17.216 10.3278 17.8921C10.601 18.2306 10.8291 18.5048 10.9895 18.6952C11.0697 18.7904 11.1331 18.8646 11.1768 18.9156C11.1987 18.9411 11.2156 18.9607 11.2273 18.9742C11.2332 18.981 11.2377 18.9862 11.2409 18.9898C11.2424 18.9916 11.2437 18.9931 11.2446 18.9941C11.245 18.9946 11.2454 18.995 11.2457 18.9954C11.2458 18.9955 11.2459 18.9957 11.246 18.9958C11.2461 18.9959 11.2462 18.996 12 18.3389ZM6.27832 8.61621L7.27832 8.61625C7.27843 6.00883 9.39269 3.89453 12 3.89453V2.89453V1.89453C8.28804 1.89453 5.27847 4.90431 5.27832 8.61617L6.27832 8.61621ZM11.8691 12.0938L11.869 11.0938C11.6021 11.0938 11.3419 11.1482 11.1027 11.2478L11.4873 12.1709L11.8719 13.094C11.8747 13.0928 11.8741 13.0937 11.8693 13.0938L11.8691 12.0938ZM11.4873 12.1709L11.1025 11.2479C10.8625 11.3479 10.6413 11.4947 10.4541 11.6835L11.1641 12.3877L11.8741 13.0919C11.8714 13.0946 11.8702 13.0947 11.8721 13.0939L11.4873 12.1709ZM11.1641 12.3877L10.4554 11.6821C10.1295 12.0094 9.92912 12.4386 9.8846 12.8951L10.8799 12.9922L11.8752 13.0892C11.8752 13.0892 11.8749 13.091 11.8727 13.0933L11.1641 12.3877ZM10.8799 12.9922L9.88457 12.8954C9.84027 13.3512 9.95341 13.8116 10.2106 14.1963L11.042 13.6406L11.8734 13.0849C11.8756 13.0883 11.8751 13.0898 11.8752 13.0889L10.8799 12.9922ZM11.042 13.6406L10.2107 14.1965C10.4667 14.5792 10.8477 14.8619 11.2883 14.9958L11.5791 14.0391L11.8699 13.0823C11.8715 13.0828 11.8724 13.0835 11.8733 13.0847L11.042 13.6406ZM11.5791 14.0391L11.2884 14.9959C11.7291 15.1298 12.2029 15.1068 12.6284 14.9313L12.2471 14.0068L11.8657 13.0824C11.867 13.0819 11.8682 13.0818 11.8698 13.0823L11.5791 14.0391ZM12.2471 14.0068L12.6556 14.9196C12.8806 14.8189 13.0842 14.6815 13.2597 14.5161L12.5742 13.7881L11.8887 13.06C11.872 13.0758 11.8547 13.0869 11.8386 13.0941L12.2471 14.0068ZM12.5742 13.7881L13.2898 14.4866C13.467 14.3051 13.6105 14.0895 13.7087 13.8495L12.7832 13.4707L11.8577 13.0919C11.8591 13.0885 11.86 13.0882 11.8586 13.0896L12.5742 13.7881ZM12.7832 13.4707L13.6885 13.8955C13.8134 13.6292 13.8716 13.3386 13.8617 13.049L12.8623 13.083L11.8629 13.117C11.8621 13.0946 11.8665 13.0702 11.8779 13.0459L12.7832 13.4707ZM12.8623 13.083L13.8623 13.0788C13.8601 12.5559 13.6524 12.0547 13.2842 11.6835L12.5742 12.3877L11.8642 13.0919C11.863 13.0907 11.8623 13.0891 11.8623 13.0872L12.8623 13.083ZM12.5742 12.3877L13.2841 11.6833C13.0971 11.4949 12.876 11.348 12.6356 11.2478L12.251 12.1709L11.8664 13.094C11.8679 13.0946 11.8668 13.0945 11.8644 13.092L12.5742 12.3877ZM12.251 12.1709L12.6355 11.2478C12.3964 11.1482 12.1363 11.0938 11.8691 11.0938V12.0938V13.0938C11.8642 13.0938 11.8635 13.0928 11.8664 13.094L12.251 12.1709ZM11.8672 5.13867L11.867 4.13867C11.1697 4.13878 10.4834 4.32159 9.87801 4.67104L10.3779 5.53711L10.8778 6.40318C11.1779 6.23 11.5192 6.13873 11.8673 6.13867L11.8672 5.13867ZM10.3779 5.53711L9.87786 4.67112C9.27312 5.02033 8.77033 5.52302 8.42108 6.12793L9.28711 6.62793L10.1531 7.12793C10.3268 6.82716 10.5771 6.57685 10.878 6.40309L10.3779 5.53711ZM9.28711 6.62793L8.42175 6.12678C8.28953 6.35509 8.20478 6.60637 8.17066 6.86562L9.16211 6.99609L10.1536 7.12657C10.1536 7.12631 10.1535 7.12728 10.1525 7.12908L9.28711 6.62793ZM9.16211 6.99609L8.17063 6.86582C8.13674 7.12378 8.15284 7.3891 8.22209 7.6455L9.1875 7.38477L10.1529 7.12403C10.1539 7.12751 10.1534 7.12816 10.1536 7.12637L9.16211 6.99609ZM9.1875 7.38477L8.22212 7.6456C8.29145 7.90221 8.41132 8.13957 8.57024 8.3451L9.36133 7.7334L10.1524 7.1217C10.1511 7.12003 10.1519 7.12017 10.1529 7.12393L9.1875 7.38477ZM9.36133 7.7334L8.57053 8.34547C8.73027 8.55185 8.92968 8.72615 9.15868 8.85682L9.6543 7.98828L10.1499 7.11974C10.1519 7.12085 10.1524 7.12167 10.1521 7.12133L9.36133 7.7334ZM9.6543 7.98828L9.16055 8.85789C9.61817 9.11772 10.16 9.18584 10.6674 9.04805L10.4053 8.08301L10.1432 7.11797C10.1447 7.11756 10.1462 7.11765 10.148 7.11868L9.6543 7.98828ZM10.4053 8.08301L10.6678 9.04794C11.1752 8.90988 11.6079 8.5767 11.871 8.121L11.0049 7.62109L10.1388 7.12119C10.1398 7.11949 10.1411 7.11852 10.1428 7.11808L10.4053 8.08301ZM11.0049 7.62109L11.8709 8.12109C11.8702 8.12225 11.8697 8.12289 11.8694 8.12315C11.8691 8.12341 11.869 8.12352 11.8689 8.12359L11.3701 7.25684L10.8714 6.39008C10.5684 6.56443 10.3149 6.81615 10.1389 7.1211L11.0049 7.62109ZM11.3701 7.25684L11.8684 8.12385C11.8695 8.12321 11.869 8.12403 11.8653 8.12402L11.8691 7.12402L11.873 6.12403C11.5194 6.12268 11.1741 6.21612 10.8718 6.38982L11.3701 7.25684ZM11.8691 7.12402V8.12402C11.8665 8.12402 11.8651 8.1231 11.8644 8.12237L12.5713 7.41504L13.2782 6.70771C12.905 6.33477 12.3983 6.12402 11.8691 6.12402V7.12402ZM12.5713 7.41504L11.8642 8.12215C11.863 8.12095 11.8623 8.11945 11.8623 8.11749L12.8623 8.11719L13.8623 8.11689C13.8621 7.58836 13.6519 7.08147 13.2784 6.70793L12.5713 7.41504ZM12.8623 8.11719H11.8623C11.8623 8.11479 11.8632 8.1132 11.8641 8.11231L12.5713 8.81934L13.2785 9.52637C13.6518 9.15301 13.8623 8.64629 13.8623 8.11719H12.8623ZM12.5713 8.81934L11.8642 8.11223C11.8652 8.11126 11.8669 8.11035 11.8691 8.11035V9.11035V10.1104C12.3982 10.1104 12.9049 9.8999 13.2784 9.52644L12.5713 8.81934ZM11.8691 9.11035L11.869 8.11035C11.3402 8.11043 10.8334 8.32078 10.4599 8.69425L11.167 9.40137L11.8741 10.1085C11.873 10.1096 11.8714 10.1104 11.8693 10.1104L11.8691 9.11035ZM11.167 9.40137L10.4599 8.69426C10.0864 9.06777 9.87607 9.57459 9.87598 10.1033L10.876 10.1035L11.876 10.1037C11.876 10.1058 11.8752 10.1074 11.8741 10.1085L11.167 9.40137ZM10.876 10.1035H9.87598C9.87598 10.6327 10.0866 11.1394 10.4597 11.5126L11.167 10.8057L11.8743 10.0987C11.8751 10.0995 11.876 10.101 11.876 10.1035H10.876ZM11.167 10.8057L10.4599 11.5128C10.8334 11.8863 11.3402 12.0966 11.869 12.0967L11.8691 11.0967L11.8693 10.0967C11.8714 10.0967 11.873 10.0975 11.8741 10.0986L11.167 10.8057ZM11.8691 11.0967L11.8698 12.0967C12.5674 12.0962 13.2537 11.9128 13.8588 11.5631L13.3584 10.6973L12.858 9.83147C12.5579 10.0049 12.2165 10.0965 11.8685 10.0967L11.8691 11.0967ZM13.3584 10.6973L13.8589 11.563C14.4642 11.2131 14.966 10.7094 15.3145 10.1051L14.4482 9.60547L13.582 9.10589C13.408 9.40748 13.158 9.65804 12.8579 9.83152L13.3584 10.6973ZM14.4482 9.60547L15.3146 10.1049C15.6632 9.50026 15.847 8.8143 15.8467 8.11581L14.8467 8.11621L13.8467 8.11661C13.8468 8.46367 13.7555 8.8049 13.5819 9.10599L14.4482 9.60547ZM14.8467 8.11621L15.8467 8.11578C15.8464 7.41772 15.6626 6.73161 15.3131 6.12669L14.4473 6.62695L13.5814 7.12721C13.755 7.42774 13.8465 7.76901 13.8467 8.11664L14.8467 8.11621ZM14.4473 6.62695L15.3131 6.12668C14.9636 5.52166 14.4608 5.01985 13.8563 4.67098L13.3564 5.53711L12.8566 6.40324C13.1578 6.57705 13.4078 6.82679 13.5814 7.12723L14.4473 6.62695ZM13.3564 5.53711L13.8562 4.67096C13.251 4.32174 12.5649 4.13863 11.8671 4.13867L11.8672 5.13867L11.8673 6.13867C12.215 6.13865 12.5562 6.2299 12.8567 6.40325L13.3564 5.53711Z" fill="black" fill-opacity="0.3" mask="url(#path-2-outside-1_3507_14816)"/>
</svg>
