<svg width="24" height="24" viewBox="0 0 24 24" fill="none" xmlns="http://www.w3.org/2000/svg">
<mask id="path-1-outside-1_3507_13180" maskUnits="userSpaceOnUse" x="3.49219" y="0.867188" width="18" height="23" fill="black">
<rect fill="white" x="3.49219" y="0.867188" width="18" height="23"/>
<path d="M12 1.86719C16.1459 1.86728 19.5076 5.22906 19.5078 9.375C19.5078 13.5175 12.0134 22.1175 12 22.1328C11.9866 22.1175 4.49219 13.5175 4.49219 9.375C4.49242 5.229 7.854 1.86719 12 1.86719ZM12 4.55859C9.32447 4.55859 7.15527 6.72779 7.15527 9.40332C7.15541 12.0787 9.32455 14.248 12 14.248C14.6755 14.248 16.8446 12.0787 16.8447 9.40332C16.8447 6.72779 14.6755 4.55859 12 4.55859Z"/>
</mask>
<path d="M12 1.86719C16.1459 1.86728 19.5076 5.22906 19.5078 9.375C19.5078 13.5175 12.0134 22.1175 12 22.1328C11.9866 22.1175 4.49219 13.5175 4.49219 9.375C4.49242 5.229 7.854 1.86719 12 1.86719ZM12 4.55859C9.32447 4.55859 7.15527 6.72779 7.15527 9.40332C7.15541 12.0787 9.32455 14.248 12 14.248C14.6755 14.248 16.8446 12.0787 16.8447 9.40332C16.8447 6.72779 14.6755 4.55859 12 4.55859Z" fill="white"/>
<path d="M12 1.86719L12 0.867188H12V1.86719ZM19.5078 9.375H20.5078V9.37494L19.5078 9.375ZM12 22.1328L11.2462 22.7899L12 23.6547L12.7538 22.7899L12 22.1328ZM4.49219 9.375L3.49219 9.37494V9.375H4.49219ZM7.15527 9.40332H6.15527V9.40337L7.15527 9.40332ZM16.8447 9.40332L17.8447 9.40337V9.40332H16.8447ZM12 1.86719L12 2.86719C15.5936 2.86726 18.5076 5.78132 18.5078 9.37506L19.5078 9.375L20.5078 9.37494C20.5075 4.67679 16.6982 0.867289 12 0.867188L12 1.86719ZM19.5078 9.375H18.5078C18.5078 10.163 18.1337 11.2999 17.4443 12.6624C16.7718 13.9916 15.8643 15.4118 14.9406 16.7268C13.0948 19.3545 11.2442 21.478 11.2462 21.4757L12 22.1328L12.7538 22.7899C12.7692 22.7722 14.6724 20.5881 16.5772 17.8764C17.5288 16.5217 18.4958 15.0142 19.2289 13.5653C19.9451 12.1498 20.5078 10.6582 20.5078 9.375H19.5078ZM12 22.1328L12.7538 21.4757C12.7558 21.478 10.9052 19.3545 9.05937 16.7268C8.13566 15.4117 7.22824 13.9916 6.55568 12.6624C5.86631 11.2999 5.49219 10.163 5.49219 9.375H4.49219H3.49219C3.49219 10.6582 4.05487 12.1498 4.77112 13.5653C5.50419 15.0142 6.47121 16.5217 7.42277 17.8764C9.32755 20.5881 11.2308 22.7722 11.2462 22.7899L12 22.1328ZM4.49219 9.375L5.49219 9.37506C5.49239 5.78125 8.40633 2.86719 12 2.86719V1.86719V0.867188C7.30166 0.867188 3.49245 4.67676 3.49219 9.37494L4.49219 9.375ZM12 4.55859V3.55859C8.77218 3.55859 6.15527 6.1755 6.15527 9.40332H7.15527H8.15527C8.15527 7.28007 9.87675 5.55859 12 5.55859V4.55859ZM7.15527 9.40332L6.15527 9.40337C6.15543 12.631 8.77221 15.248 12 15.248V14.248V13.248C9.87688 13.248 8.15538 11.5265 8.15527 9.40327L7.15527 9.40332ZM12 14.248V15.248C15.2278 15.248 17.8446 12.631 17.8447 9.40337L16.8447 9.40332L15.8447 9.40327C15.8446 11.5265 14.1231 13.248 12 13.248V14.248ZM16.8447 9.40332H17.8447C17.8447 6.1755 15.2278 3.55859 12 3.55859V4.55859V5.55859C14.1232 5.55859 15.8447 7.28007 15.8447 9.40332H16.8447Z" fill="black" fill-opacity="0.3" mask="url(#path-1-outside-1_3507_13180)"/>
<mask id="path-3-outside-2_3507_13180" maskUnits="userSpaceOnUse" x="6.05151" y="4.29492" width="12" height="10" fill="black">
<rect fill="white" x="6.05151" y="4.29492" width="12" height="10"/>
<path d="M15.6892 7.68848L10.8367 12.54L10.7927 12.4961L10.7498 12.54L8.05151 9.8418L9.44409 8.44922L10.7927 9.79785L14.2966 6.29492L15.6892 7.68848Z"/>
</mask>
<path d="M15.6892 7.68848L10.8367 12.54L10.7927 12.4961L10.7498 12.54L8.05151 9.8418L9.44409 8.44922L10.7927 9.79785L14.2966 6.29492L15.6892 7.68848Z" fill="#C2F671"/>
<path d="M15.6892 7.68848L16.3962 8.39565L17.1032 7.6888L16.3966 6.98162L15.6892 7.68848ZM10.8367 12.54L10.1296 13.2471L10.8366 13.9542L11.5437 13.2472L10.8367 12.54ZM10.7927 12.4961L11.4998 11.789L10.7847 11.0739L10.0777 11.797L10.7927 12.4961ZM10.7498 12.54L10.0426 13.2471L10.7577 13.9622L11.4648 13.2392L10.7498 12.54ZM8.05151 9.8418L7.34441 9.13469L6.6373 9.8418L7.34441 10.5489L8.05151 9.8418ZM9.44409 8.44922L10.1512 7.74211L9.44409 7.03501L8.73699 7.74211L9.44409 8.44922ZM10.7927 9.79785L10.0856 10.505L10.7926 11.212L11.4997 10.5051L10.7927 9.79785ZM14.2966 6.29492L15.004 5.58806L14.297 4.88056L13.5896 5.58772L14.2966 6.29492ZM15.6892 7.68848L14.9822 6.9813L10.1296 11.8329L10.8367 12.54L11.5437 13.2472L16.3962 8.39565L15.6892 7.68848ZM10.8367 12.54L11.5438 11.8329L11.4998 11.789L10.7927 12.4961L10.0856 13.2032L10.1296 13.2471L10.8367 12.54ZM10.7927 12.4961L10.0777 11.797L10.0347 11.8409L10.7498 12.54L11.4648 13.2392L11.5077 13.1952L10.7927 12.4961ZM10.7498 12.54L11.4569 11.8329L8.75862 9.13469L8.05151 9.8418L7.34441 10.5489L10.0426 13.2471L10.7498 12.54ZM8.05151 9.8418L8.75862 10.5489L10.1512 9.15633L9.44409 8.44922L8.73699 7.74211L7.34441 9.13469L8.05151 9.8418ZM9.44409 8.44922L8.73699 9.15633L10.0856 10.505L10.7927 9.79785L11.4998 9.09074L10.1512 7.74211L9.44409 8.44922ZM10.7927 9.79785L11.4997 10.5051L15.0036 7.00213L14.2966 6.29492L13.5896 5.58772L10.0857 9.09065L10.7927 9.79785ZM14.2966 6.29492L13.5893 7.00178L14.9819 8.39534L15.6892 7.68848L16.3966 6.98162L15.004 5.58806L14.2966 6.29492Z" fill="black" fill-opacity="0.3" mask="url(#path-3-outside-2_3507_13180)"/>
</svg>
