<svg width="24" height="24" viewBox="0 0 24 24" fill="none" xmlns="http://www.w3.org/2000/svg">
<path d="M11.0489 2.92705C11.3482 2.00574 12.6516 2.00574 12.951 2.92705L14.4696 7.60077C14.6035 8.01279 14.9874 8.29175 15.4206 8.29175H20.3349C21.3036 8.29175 21.7064 9.53137 20.9227 10.1008L16.947 12.9893C16.5965 13.2439 16.4498 13.6953 16.5837 14.1073L18.1023 18.781C18.4016 19.7024 17.3471 20.4685 16.5634 19.8991L12.5877 17.0106C12.2372 16.7559 11.7626 16.7559 11.4122 17.0106L7.43645 19.8991C6.65274 20.4685 5.59826 19.7024 5.89761 18.781L7.41619 14.1073C7.55007 13.6953 7.40341 13.2439 7.05292 12.9893L3.07722 10.1008C2.2935 9.53137 2.69628 8.29175 3.665 8.29175H8.57924C9.01247 8.29175 9.39642 8.01279 9.5303 7.60077L11.0489 2.92705Z" fill="white"/>
<path d="M10.5732 2.77246C11.0223 1.39054 12.9777 1.39051 13.4268 2.77246L14.9453 7.44629C15.0123 7.65225 15.2043 7.79199 15.4209 7.79199H20.335C21.7878 7.79207 22.3919 9.65068 21.2168 10.5049L17.2412 13.3936C17.066 13.5209 16.9926 13.7471 17.0596 13.9531L18.5781 18.627C19.0266 20.0087 17.445 21.1576 16.2695 20.3037L12.2939 17.415C12.1187 17.2877 11.8813 17.2877 11.7061 17.415L7.73047 20.3037C6.55502 21.1577 4.97332 20.0087 5.42188 18.627L6.94043 13.9531C7.00737 13.7471 6.93403 13.5209 6.75879 13.3936L2.7832 10.5049C1.60799 9.65069 2.21206 7.79199 3.66504 7.79199H8.5791C8.7957 7.79199 8.98774 7.65227 9.05469 7.44629L10.5732 2.77246Z" stroke="black" stroke-opacity="0.3"/>
</svg>
