<svg width="33" height="33" viewBox="0 0 33 33" fill="none" xmlns="http://www.w3.org/2000/svg">
<mask id="path-1-outside-1_3507_9039" maskUnits="userSpaceOnUse" x="4.5" y="4.5" width="23" height="23" fill="black">
<rect fill="white" x="4.5" y="4.5" width="23" height="23"/>
<path d="M9.31641 25.4336C9.53708 25.4772 9.76563 25.5 10 25.5H11C11.2761 25.5 11.5 25.7239 11.5 26C11.5 26.2761 11.2761 26.5 11 26.5H10C9.70011 26.5 9.40634 26.4703 9.12207 26.4141C8.85147 26.3604 8.67518 26.0978 8.72852 25.8271C8.78211 25.5563 9.04551 25.38 9.31641 25.4336Z"/>
<path d="M15 25.5C15.2761 25.5 15.5 25.7239 15.5 26C15.5 26.2761 15.2761 26.5 15 26.5H13C12.7239 26.5 12.5 26.2761 12.5 26C12.5 25.7239 12.7239 25.5 13 25.5H15Z"/>
<path d="M19 25.5C19.2761 25.5 19.5 25.7239 19.5 26C19.5 26.2761 19.2761 26.5 19 26.5H17C16.7239 26.5 16.5 26.2761 16.5 26C16.5 25.7239 16.7239 25.5 17 25.5H19Z"/>
<path d="M22.6836 25.4336C22.9545 25.38 23.2179 25.5563 23.2715 25.8271C23.3248 26.0978 23.1485 26.3604 22.8779 26.4141C22.5937 26.4703 22.2999 26.5 22 26.5H21C20.7239 26.5 20.5 26.2761 20.5 26C20.5 25.7239 20.7239 25.5 21 25.5H22C22.2344 25.5 22.4629 25.4772 22.6836 25.4336Z"/>
<path d="M6.39551 23.8066C6.62492 23.6531 6.93523 23.715 7.08887 23.9443C7.34454 24.3262 7.67377 24.6555 8.05566 24.9111C8.28498 25.0648 8.34686 25.3751 8.19336 25.6045C8.03974 25.834 7.72849 25.8958 7.49902 25.7422C7.00854 25.4138 6.58619 24.9915 6.25781 24.501C6.10419 24.2715 6.16604 23.9603 6.39551 23.8066Z"/>
<path d="M24.9111 23.9443C25.0648 23.715 25.3751 23.6531 25.6045 23.8066C25.834 23.9603 25.8958 24.2715 25.7422 24.501C25.4138 24.9915 24.9915 25.4138 24.501 25.7422C24.2715 25.8958 23.9603 25.834 23.8066 25.6045C23.6531 25.3751 23.715 25.0648 23.9443 24.9111C24.3262 24.6555 24.6555 24.3262 24.9111 23.9443Z"/>
<path d="M6 20.5C6.27614 20.5 6.5 20.7239 6.5 21V22C6.5 22.2344 6.52275 22.4629 6.56641 22.6836C6.62 22.9545 6.44374 23.2179 6.17285 23.2715C5.90219 23.3248 5.63964 23.1485 5.58594 22.8779C5.5297 22.5937 5.5 22.2999 5.5 22V21C5.5 20.7239 5.72386 20.5 6 20.5Z"/>
<path d="M26.4141 22.8779C26.3604 23.1485 26.0978 23.3248 25.8271 23.2715C25.5563 23.2179 25.38 22.9545 25.4336 22.6836L26.4141 22.8779Z"/>
<path d="M26 20.5C26.2761 20.5 26.5 20.7239 26.5 21V22C26.5 22.2999 26.4703 22.5937 26.4141 22.8779L25.9238 22.7803L25.4336 22.6836C25.4772 22.4629 25.5 22.2344 25.5 22V21C25.5 20.7239 25.7239 20.5 26 20.5Z"/>
<path d="M11.7363 18.8438C11.9231 18.8429 12.1093 18.8785 12.2822 18.9492C12.4549 19.0199 12.6116 19.1246 12.7441 19.2559C13.2969 19.8086 13.2926 20.7092 12.7344 21.2676C12.6031 21.4001 12.4464 21.5058 12.2744 21.5781C12.1023 21.6504 11.9171 21.6875 11.7305 21.6885C11.5439 21.6894 11.3592 21.6535 11.1865 21.583C11.0136 21.5124 10.8554 21.4087 10.7227 21.2773C10.1702 20.7246 10.1748 19.8234 10.7324 19.2656C10.8638 19.133 11.0203 19.0274 11.1924 18.9551C11.3645 18.8828 11.5496 18.8447 11.7363 18.8438Z"/>
<path d="M11.7549 16.001C12.3133 15.9972 12.8672 16.1045 13.3838 16.3164C13.9003 16.5283 14.3699 16.8406 14.7646 17.2354C15.1594 17.6301 15.4716 18.0998 15.6836 18.6162C15.8956 19.1329 16.0038 19.6876 16 20.2461L14.5781 20.2529C14.5807 19.8806 14.5085 19.5115 14.3672 19.167C14.2259 18.8225 14.0181 18.5094 13.7549 18.2461C13.4916 17.9828 13.1785 17.7741 12.834 17.6328C12.4895 17.4916 12.1203 17.4203 11.748 17.4229L11.7549 16.001Z"/>
<path d="M11.7695 13.1562C12.7004 13.1496 13.6241 13.3275 14.4854 13.6807C15.3466 14.0338 16.1289 14.5557 16.7871 15.2139C17.4452 15.872 17.9662 16.6545 18.3193 17.5156C18.6724 18.3768 18.8513 19.2997 18.8447 20.2305L17.4219 20.2373C17.4271 19.4928 17.2844 18.7543 17.002 18.0654C16.7194 17.3765 16.3029 16.7501 15.7764 16.2236C15.2499 15.6971 14.6235 15.2806 13.9346 14.998C13.2457 14.7156 12.5072 14.5729 11.7627 14.5781L11.7695 13.1562Z"/>
<path d="M11.7842 10.3115C13.0872 10.3024 14.3793 10.5525 15.585 11.0469C16.7907 11.5414 17.8861 12.2709 18.8076 13.1924C19.7291 14.1138 20.4586 15.2094 20.9531 16.415C21.4474 17.6206 21.6976 18.9129 21.6885 20.2158L20.2666 20.2236C20.2745 19.1066 20.0605 17.9984 19.6367 16.9648C19.2129 15.9313 18.5877 14.992 17.7979 14.2021C17.008 13.4123 16.0687 12.7871 15.0352 12.3633C14.0016 11.9394 12.8934 11.7255 11.7764 11.7334L11.7842 10.3115Z"/>
<path d="M6 16.5C6.27614 16.5 6.5 16.7239 6.5 17V19C6.5 19.2761 6.27614 19.5 6 19.5C5.72386 19.5 5.5 19.2761 5.5 19V17C5.5 16.7239 5.72386 16.5 6 16.5Z"/>
<path d="M26 16.5C26.2761 16.5 26.5 16.7239 26.5 17V19C26.5 19.2761 26.2761 19.5 26 19.5C25.7239 19.5 25.5 19.2761 25.5 19V17C25.5 16.7239 25.7239 16.5 26 16.5Z"/>
<path d="M6 12.5C6.27614 12.5 6.5 12.7239 6.5 13V15C6.5 15.2761 6.27614 15.5 6 15.5C5.72386 15.5 5.5 15.2761 5.5 15V13C5.5 12.7239 5.72386 12.5 6 12.5Z"/>
<path d="M26 12.5C26.2761 12.5 26.5 12.7239 26.5 13V15C26.5 15.2761 26.2761 15.5 26 15.5C25.7239 15.5 25.5 15.2761 25.5 15V13C25.5 12.7239 25.7239 12.5 26 12.5Z"/>
<path d="M6.17285 8.72852C6.44374 8.78211 6.62 9.04551 6.56641 9.31641C6.52275 9.53708 6.5 9.76563 6.5 10V11C6.5 11.2761 6.27614 11.5 6 11.5C5.72386 11.5 5.5 11.2761 5.5 11V10C5.5 9.70011 5.5297 9.40634 5.58594 9.12207C5.63964 8.85147 5.90219 8.67518 6.17285 8.72852Z"/>
<path d="M26.4141 9.12207C26.4703 9.40634 26.5 9.70011 26.5 10V11C26.5 11.2761 26.2761 11.5 26 11.5C25.7239 11.5 25.5 11.2761 25.5 11V10C25.5 9.76563 25.4772 9.53708 25.4336 9.31641L25.9238 9.21973L26.4141 9.12207Z"/>
<path d="M25.8271 8.72852C26.0978 8.67518 26.3604 8.85147 26.4141 9.12207L25.4336 9.31641C25.38 9.04551 25.5563 8.78211 25.8271 8.72852Z"/>
<path d="M7.08887 8.05566C6.93523 8.28498 6.62492 8.34686 6.39551 8.19336C6.16604 8.03974 6.10419 7.72849 6.25781 7.49902L7.08887 8.05566Z"/>
<path d="M23.8066 6.39551C23.9603 6.16604 24.2715 6.10419 24.501 6.25781C24.9915 6.58619 25.4138 7.00854 25.7422 7.49902C25.8958 7.72849 25.834 8.03974 25.6045 8.19336C25.3751 8.34686 25.0648 8.28498 24.9111 8.05566C24.6555 7.67377 24.3262 7.34454 23.9443 7.08887C23.715 6.93523 23.6531 6.62492 23.8066 6.39551Z"/>
<path d="M7.49902 6.25781C7.72849 6.10419 8.03974 6.16604 8.19336 6.39551C8.34686 6.62492 8.28498 6.93523 8.05566 7.08887C7.67377 7.34454 7.34454 7.67377 7.08887 8.05566L6.67383 7.77734L6.25781 7.49902C6.58619 7.00854 7.00854 6.58619 7.49902 6.25781Z"/>
<path d="M9.31641 6.56641C9.04551 6.62 8.78211 6.44374 8.72852 6.17285C8.67518 5.90219 8.85147 5.63964 9.12207 5.58594L9.31641 6.56641Z"/>
<path d="M22 5.5C22.2999 5.5 22.5937 5.5297 22.8779 5.58594C23.1485 5.63964 23.3248 5.90219 23.2715 6.17285C23.2179 6.44374 22.9545 6.62 22.6836 6.56641C22.4629 6.52275 22.2344 6.5 22 6.5H21C20.7239 6.5 20.5 6.27614 20.5 6C20.5 5.72386 20.7239 5.5 21 5.5H22Z"/>
<path d="M11 5.5C11.2761 5.5 11.5 5.72386 11.5 6C11.5 6.27614 11.2761 6.5 11 6.5H10C9.76563 6.5 9.53708 6.52275 9.31641 6.56641L9.21973 6.07617L9.12207 5.58594C9.40634 5.5297 9.70011 5.5 10 5.5H11Z"/>
<path d="M15 5.5C15.2761 5.5 15.5 5.72386 15.5 6C15.5 6.27614 15.2761 6.5 15 6.5H13C12.7239 6.5 12.5 6.27614 12.5 6C12.5 5.72386 12.7239 5.5 13 5.5H15Z"/>
<path d="M19 5.5C19.2761 5.5 19.5 5.72386 19.5 6C19.5 6.27614 19.2761 6.5 19 6.5H17C16.7239 6.5 16.5 6.27614 16.5 6C16.5 5.72386 16.7239 5.5 17 5.5H19Z"/>
</mask>
<path d="M9.31641 25.4336C9.53708 25.4772 9.76563 25.5 10 25.5H11C11.2761 25.5 11.5 25.7239 11.5 26C11.5 26.2761 11.2761 26.5 11 26.5H10C9.70011 26.5 9.40634 26.4703 9.12207 26.4141C8.85147 26.3604 8.67518 26.0978 8.72852 25.8271C8.78211 25.5563 9.04551 25.38 9.31641 25.4336Z" fill="white"/>
<path d="M15 25.5C15.2761 25.5 15.5 25.7239 15.5 26C15.5 26.2761 15.2761 26.5 15 26.5H13C12.7239 26.5 12.5 26.2761 12.5 26C12.5 25.7239 12.7239 25.5 13 25.5H15Z" fill="white"/>
<path d="M19 25.5C19.2761 25.5 19.5 25.7239 19.5 26C19.5 26.2761 19.2761 26.5 19 26.5H17C16.7239 26.5 16.5 26.2761 16.5 26C16.5 25.7239 16.7239 25.5 17 25.5H19Z" fill="white"/>
<path d="M22.6836 25.4336C22.9545 25.38 23.2179 25.5563 23.2715 25.8271C23.3248 26.0978 23.1485 26.3604 22.8779 26.4141C22.5937 26.4703 22.2999 26.5 22 26.5H21C20.7239 26.5 20.5 26.2761 20.5 26C20.5 25.7239 20.7239 25.5 21 25.5H22C22.2344 25.5 22.4629 25.4772 22.6836 25.4336Z" fill="white"/>
<path d="M6.39551 23.8066C6.62492 23.6531 6.93523 23.715 7.08887 23.9443C7.34454 24.3262 7.67377 24.6555 8.05566 24.9111C8.28498 25.0648 8.34686 25.3751 8.19336 25.6045C8.03974 25.834 7.72849 25.8958 7.49902 25.7422C7.00854 25.4138 6.58619 24.9915 6.25781 24.501C6.10419 24.2715 6.16604 23.9603 6.39551 23.8066Z" fill="white"/>
<path d="M24.9111 23.9443C25.0648 23.715 25.3751 23.6531 25.6045 23.8066C25.834 23.9603 25.8958 24.2715 25.7422 24.501C25.4138 24.9915 24.9915 25.4138 24.501 25.7422C24.2715 25.8958 23.9603 25.834 23.8066 25.6045C23.6531 25.3751 23.715 25.0648 23.9443 24.9111C24.3262 24.6555 24.6555 24.3262 24.9111 23.9443Z" fill="white"/>
<path d="M6 20.5C6.27614 20.5 6.5 20.7239 6.5 21V22C6.5 22.2344 6.52275 22.4629 6.56641 22.6836C6.62 22.9545 6.44374 23.2179 6.17285 23.2715C5.90219 23.3248 5.63964 23.1485 5.58594 22.8779C5.5297 22.5937 5.5 22.2999 5.5 22V21C5.5 20.7239 5.72386 20.5 6 20.5Z" fill="white"/>
<path d="M26.4141 22.8779C26.3604 23.1485 26.0978 23.3248 25.8271 23.2715C25.5563 23.2179 25.38 22.9545 25.4336 22.6836L26.4141 22.8779Z" fill="white"/>
<path d="M26 20.5C26.2761 20.5 26.5 20.7239 26.5 21V22C26.5 22.2999 26.4703 22.5937 26.4141 22.8779L25.9238 22.7803L25.4336 22.6836C25.4772 22.4629 25.5 22.2344 25.5 22V21C25.5 20.7239 25.7239 20.5 26 20.5Z" fill="white"/>
<path d="M11.7363 18.8438C11.9231 18.8429 12.1093 18.8785 12.2822 18.9492C12.4549 19.0199 12.6116 19.1246 12.7441 19.2559C13.2969 19.8086 13.2926 20.7092 12.7344 21.2676C12.6031 21.4001 12.4464 21.5058 12.2744 21.5781C12.1023 21.6504 11.9171 21.6875 11.7305 21.6885C11.5439 21.6894 11.3592 21.6535 11.1865 21.583C11.0136 21.5124 10.8554 21.4087 10.7227 21.2773C10.1702 20.7246 10.1748 19.8234 10.7324 19.2656C10.8638 19.133 11.0203 19.0274 11.1924 18.9551C11.3645 18.8828 11.5496 18.8447 11.7363 18.8438Z" fill="white"/>
<path d="M11.7549 16.001C12.3133 15.9972 12.8672 16.1045 13.3838 16.3164C13.9003 16.5283 14.3699 16.8406 14.7646 17.2354C15.1594 17.6301 15.4716 18.0998 15.6836 18.6162C15.8956 19.1329 16.0038 19.6876 16 20.2461L14.5781 20.2529C14.5807 19.8806 14.5085 19.5115 14.3672 19.167C14.2259 18.8225 14.0181 18.5094 13.7549 18.2461C13.4916 17.9828 13.1785 17.7741 12.834 17.6328C12.4895 17.4916 12.1203 17.4203 11.748 17.4229L11.7549 16.001Z" fill="white"/>
<path d="M11.7695 13.1562C12.7004 13.1496 13.6241 13.3275 14.4854 13.6807C15.3466 14.0338 16.1289 14.5557 16.7871 15.2139C17.4452 15.872 17.9662 16.6545 18.3193 17.5156C18.6724 18.3768 18.8513 19.2997 18.8447 20.2305L17.4219 20.2373C17.4271 19.4928 17.2844 18.7543 17.002 18.0654C16.7194 17.3765 16.3029 16.7501 15.7764 16.2236C15.2499 15.6971 14.6235 15.2806 13.9346 14.998C13.2457 14.7156 12.5072 14.5729 11.7627 14.5781L11.7695 13.1562Z" fill="white"/>
<path d="M11.7842 10.3115C13.0872 10.3024 14.3793 10.5525 15.585 11.0469C16.7907 11.5414 17.8861 12.2709 18.8076 13.1924C19.7291 14.1138 20.4586 15.2094 20.9531 16.415C21.4474 17.6206 21.6976 18.9129 21.6885 20.2158L20.2666 20.2236C20.2745 19.1066 20.0605 17.9984 19.6367 16.9648C19.2129 15.9313 18.5877 14.992 17.7979 14.2021C17.008 13.4123 16.0687 12.7871 15.0352 12.3633C14.0016 11.9394 12.8934 11.7255 11.7764 11.7334L11.7842 10.3115Z" fill="white"/>
<path d="M6 16.5C6.27614 16.5 6.5 16.7239 6.5 17V19C6.5 19.2761 6.27614 19.5 6 19.5C5.72386 19.5 5.5 19.2761 5.5 19V17C5.5 16.7239 5.72386 16.5 6 16.5Z" fill="white"/>
<path d="M26 16.5C26.2761 16.5 26.5 16.7239 26.5 17V19C26.5 19.2761 26.2761 19.5 26 19.5C25.7239 19.5 25.5 19.2761 25.5 19V17C25.5 16.7239 25.7239 16.5 26 16.5Z" fill="white"/>
<path d="M6 12.5C6.27614 12.5 6.5 12.7239 6.5 13V15C6.5 15.2761 6.27614 15.5 6 15.5C5.72386 15.5 5.5 15.2761 5.5 15V13C5.5 12.7239 5.72386 12.5 6 12.5Z" fill="white"/>
<path d="M26 12.5C26.2761 12.5 26.5 12.7239 26.5 13V15C26.5 15.2761 26.2761 15.5 26 15.5C25.7239 15.5 25.5 15.2761 25.5 15V13C25.5 12.7239 25.7239 12.5 26 12.5Z" fill="white"/>
<path d="M6.17285 8.72852C6.44374 8.78211 6.62 9.04551 6.56641 9.31641C6.52275 9.53708 6.5 9.76563 6.5 10V11C6.5 11.2761 6.27614 11.5 6 11.5C5.72386 11.5 5.5 11.2761 5.5 11V10C5.5 9.70011 5.5297 9.40634 5.58594 9.12207C5.63964 8.85147 5.90219 8.67518 6.17285 8.72852Z" fill="white"/>
<path d="M26.4141 9.12207C26.4703 9.40634 26.5 9.70011 26.5 10V11C26.5 11.2761 26.2761 11.5 26 11.5C25.7239 11.5 25.5 11.2761 25.5 11V10C25.5 9.76563 25.4772 9.53708 25.4336 9.31641L25.9238 9.21973L26.4141 9.12207Z" fill="white"/>
<path d="M25.8271 8.72852C26.0978 8.67518 26.3604 8.85147 26.4141 9.12207L25.4336 9.31641C25.38 9.04551 25.5563 8.78211 25.8271 8.72852Z" fill="white"/>
<path d="M7.08887 8.05566C6.93523 8.28498 6.62492 8.34686 6.39551 8.19336C6.16604 8.03974 6.10419 7.72849 6.25781 7.49902L7.08887 8.05566Z" fill="white"/>
<path d="M23.8066 6.39551C23.9603 6.16604 24.2715 6.10419 24.501 6.25781C24.9915 6.58619 25.4138 7.00854 25.7422 7.49902C25.8958 7.72849 25.834 8.03974 25.6045 8.19336C25.3751 8.34686 25.0648 8.28498 24.9111 8.05566C24.6555 7.67377 24.3262 7.34454 23.9443 7.08887C23.715 6.93523 23.6531 6.62492 23.8066 6.39551Z" fill="white"/>
<path d="M7.49902 6.25781C7.72849 6.10419 8.03974 6.16604 8.19336 6.39551C8.34686 6.62492 8.28498 6.93523 8.05566 7.08887C7.67377 7.34454 7.34454 7.67377 7.08887 8.05566L6.67383 7.77734L6.25781 7.49902C6.58619 7.00854 7.00854 6.58619 7.49902 6.25781Z" fill="white"/>
<path d="M9.31641 6.56641C9.04551 6.62 8.78211 6.44374 8.72852 6.17285C8.67518 5.90219 8.85147 5.63964 9.12207 5.58594L9.31641 6.56641Z" fill="white"/>
<path d="M22 5.5C22.2999 5.5 22.5937 5.5297 22.8779 5.58594C23.1485 5.63964 23.3248 5.90219 23.2715 6.17285C23.2179 6.44374 22.9545 6.62 22.6836 6.56641C22.4629 6.52275 22.2344 6.5 22 6.5H21C20.7239 6.5 20.5 6.27614 20.5 6C20.5 5.72386 20.7239 5.5 21 5.5H22Z" fill="white"/>
<path d="M11 5.5C11.2761 5.5 11.5 5.72386 11.5 6C11.5 6.27614 11.2761 6.5 11 6.5H10C9.76563 6.5 9.53708 6.52275 9.31641 6.56641L9.21973 6.07617L9.12207 5.58594C9.40634 5.5297 9.70011 5.5 10 5.5H11Z" fill="white"/>
<path d="M15 5.5C15.2761 5.5 15.5 5.72386 15.5 6C15.5 6.27614 15.2761 6.5 15 6.5H13C12.7239 6.5 12.5 6.27614 12.5 6C12.5 5.72386 12.7239 5.5 13 5.5H15Z" fill="white"/>
<path d="M19 5.5C19.2761 5.5 19.5 5.72386 19.5 6C19.5 6.27614 19.2761 6.5 19 6.5H17C16.7239 6.5 16.5 6.27614 16.5 6C16.5 5.72386 16.7239 5.5 17 5.5H19Z" fill="white"/>
<path d="M9.31641 25.4336L9.12234 26.4146L9.12236 26.4146L9.31641 25.4336ZM11 25.5L11 24.5H11V25.5ZM11 26.5V27.5H11L11 26.5ZM9.12207 26.4141L8.92743 27.3949L8.928 27.3951L9.12207 26.4141ZM8.72852 25.8271L7.74753 25.6331L7.74738 25.6338L8.72852 25.8271ZM19 25.5V24.5V25.5ZM19 26.5V27.5V26.5ZM22.6836 25.4336L22.8776 26.4146L22.8777 26.4146L22.6836 25.4336ZM23.2715 25.8271L24.2526 25.6338L24.2525 25.6331L23.2715 25.8271ZM22.8779 26.4141L23.072 27.3951L23.0726 27.3949L22.8779 26.4141ZM22 26.5V27.5V26.5ZM22 25.5V26.5V25.5ZM6.39551 23.8066L5.8394 22.9755L5.83919 22.9757L6.39551 23.8066ZM7.08887 23.9443L7.91984 23.388L7.91965 23.3877L7.08887 23.9443ZM8.05566 24.9111L8.61226 24.0804L8.61198 24.0802L8.05566 24.9111ZM8.19336 25.6045L9.02433 26.1608L9.02447 26.1606L8.19336 25.6045ZM7.49902 25.7422L6.94269 26.5732L6.9427 26.5732L7.49902 25.7422ZM6.25781 24.501L5.42684 25.0573L5.42685 25.0573L6.25781 24.501ZM24.9111 23.9443L24.0804 23.3877L24.0802 23.388L24.9111 23.9443ZM25.6045 23.8066L26.1608 22.9757L26.1606 22.9755L25.6045 23.8066ZM25.7422 24.501L26.5732 25.0573L26.5732 25.0573L25.7422 24.501ZM24.501 25.7422L25.0573 26.5732L25.0573 26.5732L24.501 25.7422ZM23.8066 25.6045L22.9755 26.1606L22.9757 26.1608L23.8066 25.6045ZM23.9443 24.9111L23.388 24.0802L23.3877 24.0803L23.9443 24.9111ZM6.5 22H5.5V22H6.5ZM6.56641 22.6836L5.58541 22.8776L5.58542 22.8777L6.56641 22.6836ZM6.17285 23.2715L6.36619 24.2526L6.36692 24.2525L6.17285 23.2715ZM5.58594 22.8779L4.60495 23.072L4.60506 23.0726L5.58594 22.8779ZM5.5 22H4.5H5.5ZM26.4141 22.8779L27.3949 23.0726L27.3951 23.072L26.4141 22.8779ZM25.8271 23.2715L25.6331 24.2525L25.6338 24.2526L25.8271 23.2715ZM26.5 21H27.5V21L26.5 21ZM25.9238 22.7803L26.1192 21.7995L26.1173 21.7992L25.9238 22.7803ZM25.5 21L24.5 21V21H25.5ZM11.7363 18.8438L11.7316 17.8438L11.7313 17.8438L11.7363 18.8438ZM12.2822 18.9492L12.6609 18.0237L12.6606 18.0236L12.2822 18.9492ZM12.7441 19.2559L13.4513 18.5487L13.4479 18.5454L12.7441 19.2559ZM12.7344 21.2676L12.0272 20.5605L12.0239 20.5639L12.7344 21.2676ZM12.2744 21.5781L12.6615 22.5002L12.6619 22.5L12.2744 21.5781ZM11.7305 21.6885L11.7353 22.6885L11.7355 22.6885L11.7305 21.6885ZM11.1865 21.583L10.8085 22.5088L10.8087 22.5089L11.1865 21.583ZM10.7227 21.2773L10.0154 21.9843L10.0191 21.988L10.7227 21.2773ZM10.7324 19.2656L11.4397 19.9726L11.443 19.9692L10.7324 19.2656ZM11.1924 18.9551L10.8052 18.0331L10.805 18.0332L11.1924 18.9551ZM11.7549 16.001L11.7481 15.001L10.7596 15.0077L10.7549 15.9962L11.7549 16.001ZM13.3838 16.3164L13.7634 15.3913L13.7633 15.3912L13.3838 16.3164ZM14.7646 17.2354L15.4718 16.5282L15.4717 16.5282L14.7646 17.2354ZM15.6836 18.6162L16.6088 18.2366L16.6087 18.2365L15.6836 18.6162ZM16 20.2461L16.0048 21.2461L16.9933 21.2413L17 20.2528L16 20.2461ZM14.5781 20.2529L13.5781 20.246L13.5711 21.2578L14.5829 21.2529L14.5781 20.2529ZM14.3672 19.167L15.2924 18.7876L15.2924 18.7875L14.3672 19.167ZM13.7549 18.2461L14.462 17.539L14.462 17.539L13.7549 18.2461ZM12.834 17.6328L13.2135 16.7076L13.2133 16.7076L12.834 17.6328ZM11.748 17.4229L10.7481 17.418L10.7432 18.4299L11.755 18.4228L11.748 17.4229ZM11.7695 13.1562L11.7624 12.1563L10.7743 12.1633L10.7695 13.1514L11.7695 13.1562ZM14.4854 13.6807L14.8648 12.7554L14.8647 12.7554L14.4854 13.6807ZM16.7871 15.2139L17.4943 14.5068L17.4942 14.5068L16.7871 15.2139ZM18.3193 17.5156L19.2446 17.1363L19.2446 17.1362L18.3193 17.5156ZM18.8447 20.2305L18.8495 21.2305L19.8377 21.2257L19.8447 20.2375L18.8447 20.2305ZM17.4219 20.2373L16.4219 20.2303L16.4148 21.2422L17.4267 21.2373L17.4219 20.2373ZM17.002 18.0654L17.9272 17.686L17.9272 17.686L17.002 18.0654ZM15.7764 16.2236L16.4835 15.5165L16.4835 15.5165L15.7764 16.2236ZM13.9346 14.998L14.314 14.0728L14.314 14.0728L13.9346 14.998ZM11.7627 14.5781L10.7627 14.5733L10.7578 15.5852L11.7697 15.5781L11.7627 14.5781ZM11.7842 10.3115L11.7772 9.31155L10.7896 9.31849L10.7842 10.306L11.7842 10.3115ZM15.585 11.0469L15.9644 10.1217L15.9643 10.1216L15.585 11.0469ZM18.8076 13.1924L19.5147 12.4853L19.5147 12.4853L18.8076 13.1924ZM20.9531 16.415L21.8784 16.0357L21.8783 16.0356L20.9531 16.415ZM21.6885 20.2158L21.694 21.2158L22.6815 21.2104L22.6885 20.2228L21.6885 20.2158ZM20.2666 20.2236L19.2666 20.2166L19.2595 21.2292L20.2721 21.2236L20.2666 20.2236ZM19.6367 16.9648L20.5619 16.5854L20.5619 16.5854L19.6367 16.9648ZM17.7979 14.2021L18.505 13.495L18.505 13.495L17.7979 14.2021ZM15.0352 12.3633L15.4146 11.4381L15.4146 11.4381L15.0352 12.3633ZM11.7764 11.7334L10.7764 11.7279L10.7708 12.7405L11.7834 12.7334L11.7764 11.7334ZM6.5 19H7.5H6.5ZM5.5 19H4.5H5.5ZM26.5 13H27.5H26.5ZM25.5 13H24.5H25.5ZM6.17285 8.72852L6.36692 7.74753L6.36619 7.74738L6.17285 8.72852ZM6.56641 9.31641L5.58542 9.12234L5.58541 9.12236L6.56641 9.31641ZM6.5 11L7.5 11V11H6.5ZM5.5 11H4.5V11L5.5 11ZM5.58594 9.12207L4.60506 8.92743L4.60495 8.928L5.58594 9.12207ZM26.4141 9.12207L27.3951 8.928L27.3949 8.92742L26.4141 9.12207ZM26.5 10H27.5H26.5ZM25.5 10H26.5H25.5ZM25.9238 9.21973L26.1173 10.2008L26.1192 10.2005L25.9238 9.21973ZM25.8271 8.72852L25.6338 7.74738L25.6331 7.74753L25.8271 8.72852ZM7.08887 8.05566L7.91965 8.61226L7.91984 8.61198L7.08887 8.05566ZM6.39551 8.19336L5.83919 9.02433L5.8394 9.02447L6.39551 8.19336ZM6.25781 7.49902L5.42685 6.94269L5.42684 6.9427L6.25781 7.49902ZM23.8066 6.39551L22.9757 5.83919L22.9755 5.8394L23.8066 6.39551ZM24.501 6.25781L25.0573 5.42685L25.0573 5.42684L24.501 6.25781ZM25.7422 7.49902L26.5732 6.9427L26.5732 6.94269L25.7422 7.49902ZM25.6045 8.19336L26.1606 9.02447L26.1608 9.02433L25.6045 8.19336ZM24.9111 8.05566L24.0802 8.61198L24.0803 8.61226L24.9111 8.05566ZM23.9443 7.08887L23.3877 7.91965L23.388 7.91984L23.9443 7.08887ZM7.49902 6.25781L6.9427 5.42684L6.94269 5.42685L7.49902 6.25781ZM8.19336 6.39551L9.02447 5.8394L9.02433 5.83919L8.19336 6.39551ZM8.05566 7.08887L8.61198 7.91984L8.61226 7.91965L8.05566 7.08887ZM6.67383 7.77734L7.23078 6.9468L7.22988 6.9462L6.67383 7.77734ZM8.72852 6.17285L7.74738 6.36619L7.74753 6.36692L8.72852 6.17285ZM9.12207 5.58594L8.928 4.60495L8.92742 4.60506L9.12207 5.58594ZM22.8779 5.58594L23.0726 4.60506L23.072 4.60495L22.8779 5.58594ZM23.2715 6.17285L24.2525 6.36692L24.2526 6.36619L23.2715 6.17285ZM22.6836 6.56641L22.8777 5.58542L22.8776 5.58541L22.6836 6.56641ZM21 6.5L21 7.5H21V6.5ZM21 5.5V4.5H21L21 5.5ZM10 6.5V5.5V5.5V6.5ZM9.21973 6.07617L10.2008 5.88269L10.2005 5.88081L9.21973 6.07617ZM10 5.5V4.5V5.5ZM13 6.5V7.5V6.5ZM13 5.5V4.5V5.5ZM9.31641 25.4336L9.12236 26.4146C9.40721 26.4709 9.70076 26.5 10 26.5V25.5V24.5C9.8305 24.5 9.66695 24.4836 9.51046 24.4526L9.31641 25.4336ZM10 25.5V26.5H11V25.5V24.5H10V25.5ZM11 25.5L11 26.5C10.7239 26.5 10.5 26.2761 10.5 26H11.5H12.5C12.5 25.1716 11.8284 24.5 11 24.5L11 25.5ZM11.5 26H10.5C10.5 25.7239 10.7239 25.5 11 25.5L11 26.5L11 27.5C11.8284 27.5 12.5 26.8284 12.5 26H11.5ZM11 26.5V25.5H10V26.5V27.5H11V26.5ZM10 26.5V25.5C9.76622 25.5 9.53744 25.4769 9.31614 25.4331L9.12207 26.4141L8.928 27.3951C9.27523 27.4637 9.63399 27.5 10 27.5V26.5ZM9.12207 26.4141L9.31671 25.4332C9.58602 25.4866 9.76325 25.7485 9.70965 26.0205L8.72852 25.8271L7.74738 25.6338C7.58711 26.4471 8.11692 27.2341 8.92743 27.3949L9.12207 26.4141ZM8.72852 25.8271L9.7095 26.0212C9.65583 26.2926 9.39279 26.4681 9.12234 26.4146L9.31641 25.4336L9.51048 24.4526C8.69824 24.2919 7.90839 24.82 7.74753 25.6331L8.72852 25.8271ZM15 25.5V26.5C14.7239 26.5 14.5 26.2761 14.5 26H15.5H16.5C16.5 25.1716 15.8284 24.5 15 24.5V25.5ZM15.5 26H14.5C14.5 25.7239 14.7239 25.5 15 25.5V26.5V27.5C15.8284 27.5 16.5 26.8284 16.5 26H15.5ZM15 26.5V25.5H13V26.5V27.5H15V26.5ZM13 26.5V25.5C13.2761 25.5 13.5 25.7239 13.5 26H12.5H11.5C11.5 26.8284 12.1716 27.5 13 27.5V26.5ZM12.5 26H13.5C13.5 26.2761 13.2761 26.5 13 26.5V25.5V24.5C12.1716 24.5 11.5 25.1716 11.5 26H12.5ZM13 25.5V26.5H15V25.5V24.5H13V25.5ZM19 25.5V26.5C18.7239 26.5 18.5 26.2761 18.5 26H19.5H20.5C20.5 25.1716 19.8284 24.5 19 24.5V25.5ZM19.5 26H18.5C18.5 25.7239 18.7239 25.5 19 25.5V26.5V27.5C19.8284 27.5 20.5 26.8284 20.5 26H19.5ZM19 26.5V25.5H17V26.5V27.5H19V26.5ZM17 26.5V25.5C17.2761 25.5 17.5 25.7239 17.5 26H16.5H15.5C15.5 26.8284 16.1716 27.5 17 27.5V26.5ZM16.5 26H17.5C17.5 26.2761 17.2761 26.5 17 26.5V25.5V24.5C16.1716 24.5 15.5 25.1716 15.5 26H16.5ZM17 25.5V26.5H19V25.5V24.5H17V25.5ZM22.6836 25.4336L22.8777 26.4146C22.6072 26.4681 22.3442 26.2926 22.2905 26.0212L23.2715 25.8271L24.2525 25.6331C24.0916 24.82 23.3018 24.2919 22.4895 24.4526L22.6836 25.4336ZM23.2715 25.8271L22.2904 26.0205C22.2368 25.7485 22.414 25.4866 22.6833 25.4332L22.8779 26.4141L23.0726 27.3949C23.8831 27.2341 24.4129 26.4471 24.2526 25.6338L23.2715 25.8271ZM22.8779 26.4141L22.6839 25.4331C22.4626 25.4769 22.2338 25.5 22 25.5V26.5V27.5C22.366 27.5 22.7248 27.4637 23.072 27.3951L22.8779 26.4141ZM22 26.5V25.5H21V26.5V27.5H22V26.5ZM21 26.5V25.5C21.2761 25.5 21.5 25.7239 21.5 26H20.5H19.5C19.5 26.8284 20.1716 27.5 21 27.5V26.5ZM20.5 26H21.5C21.5 26.2761 21.2761 26.5 21 26.5V25.5V24.5C20.1716 24.5 19.5 25.1716 19.5 26H20.5ZM21 25.5V26.5H22V25.5V24.5H21V25.5ZM22 25.5V26.5C22.2992 26.5 22.5928 26.4709 22.8776 26.4146L22.6836 25.4336L22.4895 24.4526C22.333 24.4836 22.1695 24.5 22 24.5V25.5ZM6.39551 23.8066L6.95162 24.6377C6.72083 24.7922 6.4108 24.7289 6.25808 24.5009L7.08887 23.9443L7.91965 23.3877C7.45967 22.7012 6.529 22.5141 5.8394 22.9755L6.39551 23.8066ZM7.08887 23.9443L6.2579 24.5007C6.58629 24.9912 7.00883 25.4137 7.49934 25.7421L8.05566 24.9111L8.61198 24.0802C8.33871 23.8972 8.10279 23.6613 7.91984 23.388L7.08887 23.9443ZM8.05566 24.9111L7.49907 25.7419C7.27112 25.5892 7.20783 25.2792 7.36225 25.0484L8.19336 25.6045L9.02447 26.1606C9.48589 25.471 9.29884 24.5403 8.61226 24.0804L8.05566 24.9111ZM8.19336 25.6045L7.36239 25.0482C7.51554 24.8194 7.82518 24.7571 8.05534 24.9112L7.49902 25.7422L6.9427 26.5732C7.6318 27.0345 8.56393 26.8485 9.02433 26.1608L8.19336 25.6045ZM7.49902 25.7422L8.05535 24.9112C7.67348 24.6556 7.34444 24.3265 7.08877 23.9446L6.25781 24.501L5.42685 25.0573C5.82795 25.6564 6.3436 26.1721 6.94269 26.5732L7.49902 25.7422ZM6.25781 24.501L7.08878 23.9447C7.24287 24.1748 7.18059 24.4845 6.95183 24.6376L6.39551 23.8066L5.83919 22.9757C5.15149 23.4361 4.9655 24.3682 5.42684 25.0573L6.25781 24.501ZM24.9111 23.9443L25.7419 24.5009C25.5892 24.7289 25.2792 24.7922 25.0484 24.6377L25.6045 23.8066L26.1606 22.9755C25.471 22.5141 24.5403 22.7012 24.0804 23.3877L24.9111 23.9443ZM25.6045 23.8066L25.0482 24.6376C24.8194 24.4845 24.7571 24.1748 24.9112 23.9447L25.7422 24.501L26.5732 25.0573C27.0345 24.3682 26.8485 23.4361 26.1608 22.9757L25.6045 23.8066ZM25.7422 24.501L24.9112 23.9446C24.6556 24.3265 24.3265 24.6556 23.9446 24.9112L24.501 25.7422L25.0573 26.5732C25.6564 26.1721 26.1721 25.6564 26.5732 25.0573L25.7422 24.501ZM24.501 25.7422L23.9447 24.9112C24.1748 24.7571 24.4845 24.8194 24.6376 25.0482L23.8066 25.6045L22.9757 26.1608C23.4361 26.8485 24.3682 27.0345 25.0573 26.5732L24.501 25.7422ZM23.8066 25.6045L24.6377 25.0484C24.7922 25.2792 24.7289 25.5892 24.5009 25.7419L23.9443 24.9111L23.3877 24.0803C22.7012 24.5403 22.5141 25.471 22.9755 26.1606L23.8066 25.6045ZM23.9443 24.9111L24.5007 25.7421C24.9912 25.4137 25.4137 24.9912 25.7421 24.5007L24.9111 23.9443L24.0802 23.388C23.8972 23.6613 23.6613 23.8972 23.388 24.0802L23.9443 24.9111ZM6 20.5V21.5C5.72386 21.5 5.5 21.2761 5.5 21H6.5H7.5C7.5 20.1716 6.82843 19.5 6 19.5V20.5ZM6.5 21H5.5V22H6.5H7.5V21H6.5ZM6.5 22H5.5C5.5 22.2992 5.52907 22.5928 5.58541 22.8776L6.56641 22.6836L7.5474 22.4895C7.51644 22.333 7.5 22.1695 7.5 22H6.5ZM6.56641 22.6836L5.58542 22.8777C5.53192 22.6072 5.70745 22.3442 5.97878 22.2905L6.17285 23.2715L6.36692 24.2525C7.18004 24.0916 7.70808 23.3018 7.54739 22.4895L6.56641 22.6836ZM6.17285 23.2715L5.97951 22.2904C6.25151 22.2368 6.51337 22.414 6.56681 22.6833L5.58594 22.8779L4.60506 23.0726C4.7659 23.8831 5.55286 24.4129 6.36619 24.2526L6.17285 23.2715ZM5.58594 22.8779L6.56693 22.6839C6.52315 22.4626 6.5 22.2338 6.5 22H5.5H4.5C4.5 22.366 4.53626 22.7248 4.60495 23.072L5.58594 22.8779ZM5.5 22H6.5V21H5.5H4.5V22H5.5ZM5.5 21H6.5C6.5 21.2761 6.27614 21.5 6 21.5V20.5V19.5C5.17157 19.5 4.5 20.1716 4.5 21H5.5ZM26.4141 22.8779L25.4332 22.6833C25.4866 22.414 25.7485 22.2368 26.0205 22.2904L25.8271 23.2715L25.6338 24.2526C26.4471 24.4129 27.2341 23.8831 27.3949 23.0726L26.4141 22.8779ZM25.8271 23.2715L26.0212 22.2905C26.2926 22.3442 26.4681 22.6072 26.4146 22.8777L25.4336 22.6836L24.4526 22.4895C24.2919 23.3018 24.82 24.0916 25.6331 24.2525L25.8271 23.2715ZM25.4336 22.6836L25.2392 23.6645L26.2196 23.8588L26.4141 22.8779L26.6085 21.897L25.628 21.7027L25.4336 22.6836ZM26 20.5V21.5C25.7239 21.5 25.5 21.2761 25.5 21L26.5 21L27.5 21C27.5 20.1716 26.8284 19.5 26 19.5V20.5ZM26.5 21H25.5V22H26.5H27.5V21H26.5ZM26.5 22H25.5C25.5 22.2338 25.4769 22.4626 25.4331 22.6839L26.4141 22.8779L27.3951 23.072C27.4637 22.7248 27.5 22.366 27.5 22H26.5ZM26.4141 22.8779L26.6094 21.8972L26.1192 21.7995L25.9238 22.7803L25.7285 23.761L26.2187 23.8587L26.4141 22.8779ZM25.9238 22.7803L26.1173 21.7992L25.6271 21.7025L25.4336 22.6836L25.2401 23.6647L25.7303 23.7614L25.9238 22.7803ZM25.4336 22.6836L26.4146 22.8776C26.4709 22.5928 26.5 22.2992 26.5 22H25.5H24.5C24.5 22.1695 24.4836 22.333 24.4526 22.4895L25.4336 22.6836ZM25.5 22H26.5V21H25.5H24.5V22H25.5ZM25.5 21L26.5 21C26.5 21.2761 26.2761 21.5 26 21.5V20.5V19.5C25.1716 19.5 24.5 20.1716 24.5 21L25.5 21ZM11.7363 18.8438L11.741 19.8437C11.7981 19.8435 11.8541 19.8545 11.9038 19.8749L12.2822 18.9492L12.6606 18.0236C12.3646 17.9026 12.0481 17.8423 11.7316 17.8438L11.7363 18.8438ZM12.2822 18.9492L11.9035 19.8747C11.9519 19.8945 11.9989 19.9252 12.0404 19.9663L12.7441 19.2559L13.4479 18.5454C13.2244 18.324 12.9578 18.1452 12.6609 18.0237L12.2822 18.9492ZM12.7441 19.2559L12.037 19.963C12.1928 20.1188 12.2015 20.3862 12.0272 20.5605L12.7344 21.2676L13.4416 21.9746C14.3838 21.0322 14.401 19.4985 13.4512 18.5488L12.7441 19.2559ZM12.7344 21.2676L12.0239 20.5639C11.9852 20.6029 11.9384 20.6346 11.8869 20.6563L12.2744 21.5781L12.6619 22.5C12.9544 22.377 13.221 22.1974 13.4449 21.9713L12.7344 21.2676ZM12.2744 21.5781L11.8874 20.6561C11.8383 20.6767 11.783 20.6882 11.7254 20.6885L11.7305 21.6885L11.7355 22.6885C12.0511 22.6869 12.3664 22.624 12.6615 22.5002L12.2744 21.5781ZM11.7305 21.6885L11.7257 20.6885C11.6707 20.6888 11.616 20.6782 11.5643 20.6571L11.1865 21.583L10.8087 22.5089C11.1025 22.6288 11.4172 22.69 11.7353 22.6885L11.7305 21.6885ZM11.1865 21.583L11.5646 20.6572C11.5106 20.6352 11.4636 20.6037 11.4262 20.5667L10.7227 21.2773L10.0191 21.988C10.2471 22.2137 10.5166 22.3896 10.8085 22.5088L11.1865 21.583ZM10.7227 21.2773L11.4299 20.5704C11.2743 20.4147 11.2658 20.1465 11.4397 19.9726L10.7324 19.2656L10.0252 18.5587C9.08386 19.5003 9.066 21.0345 10.0154 21.9843L10.7227 21.2773ZM10.7324 19.2656L11.443 19.9692C11.4817 19.9302 11.5283 19.8986 11.5798 19.877L11.1924 18.9551L10.805 18.0332C10.5123 18.1562 10.2458 18.3358 10.0218 18.562L10.7324 19.2656ZM11.1924 18.9551L11.5796 19.8771C11.6318 19.8552 11.6871 19.844 11.7413 19.8437L11.7363 18.8438L11.7313 17.8438C11.4122 17.8454 11.0973 17.9104 10.8052 18.0331L11.1924 18.9551ZM11.7549 16.001L11.7616 17.001C12.1875 16.9981 12.6102 17.0799 13.0043 17.2416L13.3838 16.3164L13.7633 15.3912C13.1242 15.1291 12.439 14.9963 11.7481 15.001L11.7549 16.001ZM13.3838 16.3164L13.0042 17.2415C13.3985 17.4033 13.7567 17.6417 14.0576 17.9425L14.7646 17.2354L15.4717 16.5282C14.983 16.0396 14.4021 15.6533 13.7634 15.3913L13.3838 16.3164ZM14.7646 17.2354L14.0575 17.9425C14.3583 18.2432 14.5966 18.6015 14.7585 18.9959L15.6836 18.6162L16.6087 18.2365C16.3466 17.5981 15.9605 17.017 15.4718 16.5282L14.7646 17.2354ZM15.6836 18.6162L14.7584 18.9958C14.9205 19.3908 15.0029 19.8143 15 20.2393L16 20.2461L17 20.2528C17.0046 19.561 16.8707 18.875 16.6088 18.2366L15.6836 18.6162ZM16 20.2461L15.9952 19.2461L14.5733 19.2529L14.5781 20.2529L14.5829 21.2529L16.0048 21.2461L16 20.2461ZM14.5781 20.2529L15.5781 20.2599C15.5816 19.7536 15.4834 19.2532 15.2924 18.7876L14.3672 19.167L13.442 19.5464C13.5335 19.7697 13.5798 20.0076 13.5781 20.246L14.5781 20.2529ZM14.3672 19.167L15.2924 18.7875C15.1012 18.3215 14.8197 17.8967 14.462 17.539L13.7549 18.2461L13.0478 18.9532C13.2166 19.122 13.3506 19.3236 13.442 19.5465L14.3672 19.167ZM13.7549 18.2461L14.462 17.539C14.1053 17.1823 13.6809 16.8993 13.2135 16.7076L12.834 17.6328L12.4545 18.558C12.676 18.6489 12.8779 18.7833 13.0478 18.9532L13.7549 18.2461ZM12.834 17.6328L13.2133 16.7076C12.7462 16.516 12.2456 16.4194 11.7411 16.4229L11.748 17.4229L11.755 18.4228C11.995 18.4212 12.2329 18.4671 12.4546 18.5581L12.834 17.6328ZM11.748 17.4229L12.748 17.4277L12.7549 16.0058L11.7549 16.001L10.7549 15.9962L10.7481 17.418L11.748 17.4229ZM11.7695 13.1562L11.7766 14.1562C12.5755 14.1506 13.3678 14.3032 14.106 14.6059L14.4854 13.6807L14.8647 12.7554C13.8804 12.3518 12.8252 12.1487 11.7624 12.1563L11.7695 13.1562ZM14.4854 13.6807L14.1059 14.6059C14.844 14.9085 15.515 15.356 16.08 15.921L16.7871 15.2139L17.4942 14.5068C16.7428 13.7553 15.8492 13.1591 14.8648 12.7554L14.4854 13.6807ZM16.7871 15.2139L16.08 15.9209C16.6445 16.4855 17.0913 17.1566 17.3941 17.895L18.3193 17.5156L19.2446 17.1362C18.8411 16.1523 18.246 15.2586 17.4943 14.5068L16.7871 15.2139ZM18.3193 17.5156L17.3941 17.895C17.697 18.6338 17.8504 19.4254 17.8448 20.2234L18.8447 20.2305L19.8447 20.2375C19.8522 19.174 19.6478 18.1198 19.2446 17.1363L18.3193 17.5156ZM18.8447 20.2305L18.8399 19.2305L17.4171 19.2373L17.4219 20.2373L17.4267 21.2373L18.8495 21.2305L18.8447 20.2305ZM17.4219 20.2373L18.4219 20.2443C18.428 19.3675 18.26 18.4976 17.9272 17.686L17.002 18.0654L16.0767 18.4448C16.3089 19.011 16.4262 19.6181 16.4219 20.2303L17.4219 20.2373ZM17.002 18.0654L17.9272 17.686C17.5945 16.8748 17.1039 16.137 16.4835 15.5165L15.7764 16.2236L15.0693 16.9307C15.5019 17.3633 15.8444 17.8783 16.0767 18.4449L17.002 18.0654ZM15.7764 16.2236L16.4835 15.5165C15.8631 14.8961 15.1252 14.4055 14.314 14.0728L13.9346 14.998L13.5551 15.9233C14.1217 16.1556 14.6367 16.4982 15.0693 16.9307L15.7764 16.2236ZM13.9346 14.998L14.314 14.0728C13.5024 13.74 12.6325 13.572 11.7557 13.5781L11.7627 14.5781L11.7697 15.5781C12.3819 15.5738 12.9891 15.6911 13.5552 15.9233L13.9346 14.998ZM11.7627 14.5781L12.7627 14.5829L12.7695 13.1611L11.7695 13.1562L10.7695 13.1514L10.7627 14.5733L11.7627 14.5781ZM11.7842 10.3115L11.7912 11.3115C12.9616 11.3033 14.1224 11.528 15.2056 11.9721L15.585 11.0469L15.9643 10.1216C14.6362 9.57705 13.2128 9.30146 11.7772 9.31155L11.7842 10.3115ZM15.585 11.0469L15.2055 11.9721C16.2885 12.4162 17.2726 13.0716 18.1005 13.8995L18.8076 13.1924L19.5147 12.4853C18.4996 11.4702 17.2929 10.6665 15.9644 10.1217L15.585 11.0469ZM18.8076 13.1924L18.1005 13.8995C18.9284 14.7273 19.5838 15.7116 20.0279 16.7945L20.9531 16.415L21.8783 16.0356C21.3335 14.7072 20.5298 13.5003 19.5147 12.4853L18.8076 13.1924ZM20.9531 16.415L20.0279 16.7944C20.472 17.8775 20.6967 19.0385 20.6885 20.2088L21.6885 20.2158L22.6885 20.2228C22.6985 18.7873 22.4229 17.3637 21.8784 16.0357L20.9531 16.415ZM21.6885 20.2158L21.683 19.2158L20.2611 19.2236L20.2666 20.2236L20.2721 21.2236L21.694 21.2158L21.6885 20.2158ZM20.2666 20.2236L21.2666 20.2307C21.2754 18.9814 21.0361 17.7418 20.5619 16.5854L19.6367 16.9648L18.7115 17.3443C19.085 18.255 19.2736 19.2318 19.2666 20.2166L20.2666 20.2236ZM19.6367 16.9648L20.5619 16.5854C20.0878 15.4293 19.3886 14.3787 18.505 13.495L17.7979 14.2021L17.0907 14.9093C17.7869 15.6054 18.3379 16.4333 18.7115 17.3443L19.6367 16.9648ZM17.7979 14.2021L18.505 13.495C17.6213 12.6114 16.5707 11.9122 15.4146 11.4381L15.0352 12.3633L14.6557 13.2885C15.5667 13.6621 16.3946 14.2131 17.0907 14.9093L17.7979 14.2021ZM15.0352 12.3633L15.4146 11.4381C14.2582 10.9639 13.0186 10.7246 11.7693 10.7334L11.7764 11.7334L11.7834 12.7334C12.7682 12.7264 13.745 12.915 14.6557 13.2885L15.0352 12.3633ZM11.7764 11.7334L12.7764 11.7389L12.7842 10.317L11.7842 10.3115L10.7842 10.306L10.7764 11.7279L11.7764 11.7334ZM6 16.5V17.5C5.72386 17.5 5.5 17.2761 5.5 17H6.5H7.5C7.5 16.1716 6.82843 15.5 6 15.5V16.5ZM6.5 17H5.5V19H6.5H7.5V17H6.5ZM6.5 19H5.5C5.5 18.7239 5.72386 18.5 6 18.5V19.5V20.5C6.82843 20.5 7.5 19.8284 7.5 19H6.5ZM6 19.5V18.5C6.27614 18.5 6.5 18.7239 6.5 19H5.5H4.5C4.5 19.8284 5.17157 20.5 6 20.5V19.5ZM5.5 19H6.5V17H5.5H4.5V19H5.5ZM5.5 17H6.5C6.5 17.2761 6.27614 17.5 6 17.5V16.5V15.5C5.17157 15.5 4.5 16.1716 4.5 17H5.5ZM26 16.5V17.5C25.7239 17.5 25.5 17.2761 25.5 17H26.5H27.5C27.5 16.1716 26.8284 15.5 26 15.5V16.5ZM26.5 17H25.5V19H26.5H27.5V17H26.5ZM26.5 19H25.5C25.5 18.7239 25.7239 18.5 26 18.5V19.5V20.5C26.8284 20.5 27.5 19.8284 27.5 19H26.5ZM26 19.5V18.5C26.2761 18.5 26.5 18.7239 26.5 19H25.5H24.5C24.5 19.8284 25.1716 20.5 26 20.5V19.5ZM25.5 19H26.5V17H25.5H24.5V19H25.5ZM25.5 17H26.5C26.5 17.2761 26.2761 17.5 26 17.5V16.5V15.5C25.1716 15.5 24.5 16.1716 24.5 17H25.5ZM6 12.5V13.5C5.72386 13.5 5.5 13.2761 5.5 13H6.5H7.5C7.5 12.1716 6.82843 11.5 6 11.5V12.5ZM6.5 13H5.5V15H6.5H7.5V13H6.5ZM6.5 15H5.5C5.5 14.7239 5.72386 14.5 6 14.5V15.5V16.5C6.82843 16.5 7.5 15.8284 7.5 15H6.5ZM6 15.5V14.5C6.27614 14.5 6.5 14.7239 6.5 15H5.5H4.5C4.5 15.8284 5.17157 16.5 6 16.5V15.5ZM5.5 15H6.5V13H5.5H4.5V15H5.5ZM5.5 13H6.5C6.5 13.2761 6.27614 13.5 6 13.5V12.5V11.5C5.17157 11.5 4.5 12.1716 4.5 13H5.5ZM26 12.5V13.5C25.7239 13.5 25.5 13.2761 25.5 13H26.5H27.5C27.5 12.1716 26.8284 11.5 26 11.5V12.5ZM26.5 13H25.5V15H26.5H27.5V13H26.5ZM26.5 15H25.5C25.5 14.7239 25.7239 14.5 26 14.5V15.5V16.5C26.8284 16.5 27.5 15.8284 27.5 15H26.5ZM26 15.5V14.5C26.2761 14.5 26.5 14.7239 26.5 15H25.5H24.5C24.5 15.8284 25.1716 16.5 26 16.5V15.5ZM25.5 15H26.5V13H25.5H24.5V15H25.5ZM25.5 13H26.5C26.5 13.2761 26.2761 13.5 26 13.5V12.5V11.5C25.1716 11.5 24.5 12.1716 24.5 13H25.5ZM6.17285 8.72852L5.97878 9.7095C5.70745 9.65583 5.53192 9.39279 5.58542 9.12234L6.56641 9.31641L7.54739 9.51048C7.70808 8.69824 7.18004 7.90839 6.36692 7.74753L6.17285 8.72852ZM6.56641 9.31641L5.58541 9.12236C5.52907 9.40721 5.5 9.70076 5.5 10H6.5H7.5C7.5 9.8305 7.51644 9.66695 7.5474 9.51046L6.56641 9.31641ZM6.5 10H5.5V11H6.5H7.5V10H6.5ZM6.5 11L5.5 11C5.5 10.7239 5.72386 10.5 6 10.5V11.5V12.5C6.82843 12.5 7.5 11.8284 7.5 11L6.5 11ZM6 11.5V10.5C6.27614 10.5 6.5 10.7239 6.5 11L5.5 11L4.5 11C4.5 11.8284 5.17157 12.5 6 12.5V11.5ZM5.5 11H6.5V10H5.5H4.5V11H5.5ZM5.5 10H6.5C6.5 9.76622 6.52315 9.53744 6.56693 9.31614L5.58594 9.12207L4.60495 8.928C4.53626 9.27523 4.5 9.63399 4.5 10H5.5ZM5.58594 9.12207L6.56681 9.31671C6.51337 9.58602 6.25151 9.76325 5.97951 9.70965L6.17285 8.72852L6.36619 7.74738C5.55286 7.58711 4.7659 8.11692 4.60506 8.92743L5.58594 9.12207ZM26.4141 9.12207L25.4331 9.31614C25.4769 9.53744 25.5 9.76622 25.5 10H26.5H27.5C27.5 9.63399 27.4637 9.27523 27.3951 8.928L26.4141 9.12207ZM26.5 10H25.5V11H26.5H27.5V10H26.5ZM26.5 11H25.5C25.5 10.7239 25.7239 10.5 26 10.5V11.5V12.5C26.8284 12.5 27.5 11.8284 27.5 11H26.5ZM26 11.5V10.5C26.2761 10.5 26.5 10.7239 26.5 11H25.5H24.5C24.5 11.8284 25.1716 12.5 26 12.5V11.5ZM25.5 11H26.5V10H25.5H24.5V11H25.5ZM25.5 10H26.5C26.5 9.70076 26.4709 9.40721 26.4146 9.12235L25.4336 9.31641L24.4526 9.51046C24.4836 9.66695 24.5 9.8305 24.5 10H25.5ZM25.4336 9.31641L25.6271 10.2975L26.1173 10.2008L25.9238 9.21973L25.7303 8.23862L25.2401 8.3353L25.4336 9.31641ZM25.9238 9.21973L26.1192 10.2005L26.6094 10.1028L26.4141 9.12207L26.2187 8.14134L25.7285 8.239L25.9238 9.21973ZM25.8271 8.72852L26.0205 9.70965C25.7485 9.76325 25.4866 9.58601 25.4332 9.31672L26.4141 9.12207L27.3949 8.92742C27.2341 8.11692 26.4471 7.58711 25.6338 7.74738L25.8271 8.72852ZM26.4141 9.12207L26.2196 8.14115L25.2392 8.33549L25.4336 9.31641L25.628 10.2973L26.6085 10.103L26.4141 9.12207ZM25.4336 9.31641L26.4146 9.12234C26.4681 9.39279 26.2926 9.65583 26.0212 9.7095L25.8271 8.72852L25.6331 7.74753C24.82 7.90839 24.2919 8.69824 24.4526 9.51048L25.4336 9.31641ZM7.08887 8.05566L6.25808 7.49907C6.4108 7.27112 6.72083 7.20783 6.95162 7.36225L6.39551 8.19336L5.8394 9.02447C6.529 9.48589 7.45967 9.29884 7.91965 8.61226L7.08887 8.05566ZM6.39551 8.19336L6.95183 7.36239C7.18059 7.51554 7.24287 7.82518 7.08878 8.05534L6.25781 7.49902L5.42684 6.9427C4.9655 7.6318 5.15149 8.56393 5.83919 9.02433L6.39551 8.19336ZM6.25781 7.49902L5.70131 8.32987L6.53237 8.88651L7.08887 8.05566L7.64537 7.22482L6.81431 6.66818L6.25781 7.49902ZM23.8066 6.39551L24.6376 6.95183C24.4845 7.18059 24.1748 7.24287 23.9447 7.08878L24.501 6.25781L25.0573 5.42684C24.3682 4.9655 23.4361 5.15149 22.9757 5.83919L23.8066 6.39551ZM24.501 6.25781L23.9446 7.08877C24.3265 7.34444 24.6556 7.67348 24.9112 8.05535L25.7422 7.49902L26.5732 6.94269C26.1721 6.3436 25.6564 5.82795 25.0573 5.42685L24.501 6.25781ZM25.7422 7.49902L24.9112 8.05534C24.7571 7.82518 24.8194 7.51554 25.0482 7.36239L25.6045 8.19336L26.1608 9.02433C26.8485 8.56393 27.0345 7.6318 26.5732 6.9427L25.7422 7.49902ZM25.6045 8.19336L25.0484 7.36225C25.2792 7.20783 25.5892 7.27112 25.7419 7.49907L24.9111 8.05566L24.0803 8.61226C24.5403 9.29884 25.471 9.48589 26.1606 9.02447L25.6045 8.19336ZM24.9111 8.05566L25.7421 7.49934C25.4137 7.00883 24.9912 6.58629 24.5007 6.2579L23.9443 7.08887L23.388 7.91984C23.6613 8.10279 23.8972 8.33871 24.0802 8.61198L24.9111 8.05566ZM23.9443 7.08887L24.5009 6.25808C24.7289 6.4108 24.7922 6.72083 24.6377 6.95162L23.8066 6.39551L22.9755 5.8394C22.5141 6.529 22.7012 7.45967 23.3877 7.91965L23.9443 7.08887ZM7.49902 6.25781L8.05534 7.08878C7.82518 7.24287 7.51554 7.18059 7.36239 6.95183L8.19336 6.39551L9.02433 5.83919C8.56393 5.15149 7.6318 4.9655 6.9427 5.42684L7.49902 6.25781ZM8.19336 6.39551L7.36225 6.95162C7.20783 6.72083 7.27112 6.4108 7.49907 6.25808L8.05566 7.08887L8.61226 7.91965C9.29884 7.45967 9.48589 6.529 9.02447 5.8394L8.19336 6.39551ZM8.05566 7.08887L7.49934 6.2579C7.00883 6.58629 6.58629 7.00883 6.2579 7.49934L7.08887 8.05566L7.91984 8.61198C8.10279 8.33871 8.33871 8.10279 8.61198 7.91984L8.05566 7.08887ZM7.08887 8.05566L7.64582 7.22512L7.23078 6.9468L6.67383 7.77734L6.11688 8.60789L6.53191 8.88621L7.08887 8.05566ZM6.67383 7.77734L7.22988 6.9462L6.81386 6.66787L6.25781 7.49902L5.70176 8.33017L6.11778 8.60849L6.67383 7.77734ZM6.25781 7.49902L7.08877 8.05535C7.34444 7.67348 7.67348 7.34444 8.05535 7.08877L7.49902 6.25781L6.94269 5.42685C6.3436 5.82795 5.82795 6.3436 5.42685 6.94269L6.25781 7.49902ZM9.31641 6.56641L9.12234 5.58542C9.39279 5.53192 9.65583 5.70745 9.7095 5.97878L8.72852 6.17285L7.74753 6.36692C7.90839 7.18004 8.69824 7.70808 9.51048 7.54739L9.31641 6.56641ZM8.72852 6.17285L9.70965 5.97951C9.76325 6.25151 9.58601 6.51337 9.31672 6.56681L9.12207 5.58594L8.92742 4.60506C8.11692 4.7659 7.58711 5.55286 7.74738 6.36619L8.72852 6.17285ZM9.12207 5.58594L8.14115 5.78036L8.33549 6.76083L9.31641 6.56641L10.2973 6.37198L10.103 5.39151L9.12207 5.58594ZM22 5.5V6.5C22.2338 6.5 22.4626 6.52315 22.6839 6.56693L22.8779 5.58594L23.072 4.60495C22.7248 4.53626 22.366 4.5 22 4.5V5.5ZM22.8779 5.58594L22.6833 6.56681C22.414 6.51337 22.2368 6.25151 22.2904 5.97951L23.2715 6.17285L24.2526 6.36619C24.4129 5.55286 23.8831 4.7659 23.0726 4.60506L22.8779 5.58594ZM23.2715 6.17285L22.2905 5.97878C22.3442 5.70745 22.6072 5.53192 22.8777 5.58542L22.6836 6.56641L22.4895 7.54739C23.3018 7.70808 24.0916 7.18004 24.2525 6.36692L23.2715 6.17285ZM22.6836 6.56641L22.8776 5.58541C22.5928 5.52907 22.2992 5.5 22 5.5V6.5V7.5C22.1695 7.5 22.333 7.51644 22.4895 7.5474L22.6836 6.56641ZM22 6.5V5.5H21V6.5V7.5H22V6.5ZM21 6.5L21 5.5C21.2761 5.5 21.5 5.72386 21.5 6H20.5H19.5C19.5 6.82843 20.1716 7.5 21 7.5L21 6.5ZM20.5 6H21.5C21.5 6.27614 21.2761 6.5 21 6.5L21 5.5L21 4.5C20.1716 4.5 19.5 5.17157 19.5 6H20.5ZM21 5.5V6.5H22V5.5V4.5H21V5.5ZM11 5.5V6.5C10.7239 6.5 10.5 6.27614 10.5 6H11.5H12.5C12.5 5.17157 11.8284 4.5 11 4.5V5.5ZM11.5 6H10.5C10.5 5.72386 10.7239 5.5 11 5.5V6.5V7.5C11.8284 7.5 12.5 6.82843 12.5 6H11.5ZM11 6.5V5.5H10V6.5V7.5H11V6.5ZM10 6.5V5.5C9.70076 5.5 9.40721 5.52907 9.12235 5.58541L9.31641 6.56641L9.51046 7.5474C9.66695 7.51644 9.8305 7.5 10 7.5V6.5ZM9.31641 6.56641L10.2975 6.37292L10.2008 5.88269L9.21973 6.07617L8.23862 6.26966L8.3353 6.75989L9.31641 6.56641ZM9.21973 6.07617L10.2005 5.88081L10.1028 5.39057L9.12207 5.58594L8.14134 5.7813L8.239 6.27154L9.21973 6.07617ZM9.12207 5.58594L9.31614 6.56693C9.53744 6.52315 9.76622 6.5 10 6.5V5.5V4.5C9.63399 4.5 9.27523 4.53626 8.928 4.60495L9.12207 5.58594ZM10 5.5V6.5H11V5.5V4.5H10V5.5ZM15 5.5V6.5C14.7239 6.5 14.5 6.27614 14.5 6H15.5H16.5C16.5 5.17157 15.8284 4.5 15 4.5V5.5ZM15.5 6H14.5C14.5 5.72386 14.7239 5.5 15 5.5V6.5V7.5C15.8284 7.5 16.5 6.82843 16.5 6H15.5ZM15 6.5V5.5H13V6.5V7.5H15V6.5ZM13 6.5V5.5C13.2761 5.5 13.5 5.72386 13.5 6H12.5H11.5C11.5 6.82843 12.1716 7.5 13 7.5V6.5ZM12.5 6H13.5C13.5 6.27614 13.2761 6.5 13 6.5V5.5V4.5C12.1716 4.5 11.5 5.17157 11.5 6H12.5ZM13 5.5V6.5H15V5.5V4.5H13V5.5ZM19 5.5V6.5C18.7239 6.5 18.5 6.27614 18.5 6H19.5H20.5C20.5 5.17157 19.8284 4.5 19 4.5V5.5ZM19.5 6H18.5C18.5 5.72386 18.7239 5.5 19 5.5V6.5V7.5C19.8284 7.5 20.5 6.82843 20.5 6H19.5ZM19 6.5V5.5H17V6.5V7.5H19V6.5ZM17 6.5V5.5C17.2761 5.5 17.5 5.72386 17.5 6H16.5H15.5C15.5 6.82843 16.1716 7.5 17 7.5V6.5ZM16.5 6H17.5C17.5 6.27614 17.2761 6.5 17 6.5V5.5V4.5C16.1716 4.5 15.5 5.17157 15.5 6H16.5ZM17 5.5V6.5H19V5.5V4.5H17V5.5Z" fill="black" fill-opacity="0.3" mask="url(#path-1-outside-1_3507_9039)"/>
</svg>
