<svg width="16" height="16" viewBox="0 0 16 16" fill="none" xmlns="http://www.w3.org/2000/svg">
<circle cx="8" cy="8" r="7.5" fill="#383838" stroke="black"/>
<mask id="path-2-outside-1_2375_17847" maskUnits="userSpaceOnUse" x="1.08398" y="2.62549" width="14" height="10" fill="black">
<rect fill="white" x="1.08398" y="2.62549" width="14" height="10"/>
<path d="M4.73096 3.62549V11.6255H3.03955V3.62549H4.73096ZM7.56787 3.62549L9.50146 9.70361H9.57568L11.5132 3.62549H13.3882L10.6304 11.6255H8.45068L5.68896 3.62549H7.56787Z"/>
</mask>
<path d="M4.73096 3.62549V11.6255H3.03955V3.62549H4.73096ZM7.56787 3.62549L9.50146 9.70361H9.57568L11.5132 3.62549H13.3882L10.6304 11.6255H8.45068L5.68896 3.62549H7.56787Z" fill="#CF2050"/>
<path d="M4.73096 3.62549H5.73096V2.62549H4.73096V3.62549ZM4.73096 11.6255V12.6255H5.73096V11.6255H4.73096ZM3.03955 11.6255H2.03955V12.6255H3.03955V11.6255ZM3.03955 3.62549V2.62549H2.03955V3.62549H3.03955ZM4.73096 3.62549H3.73096V11.6255H4.73096H5.73096V3.62549H4.73096ZM4.73096 11.6255V10.6255H3.03955V11.6255V12.6255H4.73096V11.6255ZM3.03955 11.6255H4.03955V3.62549H3.03955H2.03955V11.6255H3.03955ZM3.03955 3.62549V4.62549H4.73096V3.62549V2.62549H3.03955V3.62549ZM7.56787 3.62549L8.52081 3.32233L8.29913 2.62549H7.56787V3.62549ZM9.50146 9.70361L8.54852 10.0068L8.77021 10.7036H9.50146V9.70361ZM9.57568 9.70361V10.7036H10.3065L10.5284 10.0073L9.57568 9.70361ZM11.5132 3.62549V2.62549H10.7824L10.5604 3.32178L11.5132 3.62549ZM13.3882 3.62549L14.3336 3.95139L14.7907 2.62549H13.3882V3.62549ZM10.6304 11.6255V12.6255H11.3434L11.5758 11.9514L10.6304 11.6255ZM8.45068 11.6255L7.50542 11.9518L7.73799 12.6255H8.45068V11.6255ZM5.68896 3.62549V2.62549H4.28584L4.7437 3.95181L5.68896 3.62549ZM7.56787 3.62549L6.61493 3.92864L8.54852 10.0068L9.50146 9.70361L10.4544 9.40046L8.52081 3.32233L7.56787 3.62549ZM9.50146 9.70361V10.7036H9.57568V9.70361V8.70361H9.50146V9.70361ZM9.57568 9.70361L10.5284 10.0073L12.4659 3.9292L11.5132 3.62549L10.5604 3.32178L8.62292 9.3999L9.57568 9.70361ZM11.5132 3.62549V4.62549H13.3882V3.62549V2.62549H11.5132V3.62549ZM13.3882 3.62549L12.4428 3.29958L9.68497 11.2996L10.6304 11.6255L11.5758 11.9514L14.3336 3.95139L13.3882 3.62549ZM10.6304 11.6255V10.6255H8.45068V11.6255V12.6255H10.6304V11.6255ZM8.45068 11.6255L9.39594 11.2992L6.63422 3.29917L5.68896 3.62549L4.7437 3.95181L7.50542 11.9518L8.45068 11.6255ZM5.68896 3.62549V4.62549H7.56787V3.62549V2.62549H5.68896V3.62549Z" fill="black" fill-opacity="0.3" mask="url(#path-2-outside-1_2375_17847)"/>
</svg>
