<svg width="24" height="24" viewBox="0 0 24 24" fill="none" xmlns="http://www.w3.org/2000/svg">
<mask id="path-1-outside-1_3507_14835" maskUnits="userSpaceOnUse" x="3" y="3" width="18" height="18" fill="black">
<rect fill="white" x="3" y="3" width="18" height="18"/>
<path d="M13 4C14.1046 4 15 4.89543 15 6V9H18C19.1046 9 20 9.89543 20 11V13C20 14.1046 19.1046 15 18 15H15V18C15 19.1046 14.1046 20 13 20H11C9.89543 20 9 19.1046 9 18V15H6C4.89543 15 4 14.1046 4 13V11C4 9.89543 4.89543 9 6 9H9V6C9 4.89543 9.89543 4 11 4H13Z"/>
</mask>
<path d="M13 4C14.1046 4 15 4.89543 15 6V9H18C19.1046 9 20 9.89543 20 11V13C20 14.1046 19.1046 15 18 15H15V18C15 19.1046 14.1046 20 13 20H11C9.89543 20 9 19.1046 9 18V15H6C4.89543 15 4 14.1046 4 13V11C4 9.89543 4.89543 9 6 9H9V6C9 4.89543 9.89543 4 11 4H13Z" fill="white"/>
<path d="M13 4V3V4ZM15 6H14H15ZM15 9H14V10H15V9ZM20 11H21H20ZM15 15V14H14V15H15ZM15 18H16H15ZM13 20V21V20ZM11 20V21V20ZM9 18H8H9ZM9 15H10V14H9V15ZM4 13H3H4ZM9 9V10H10V9H9ZM9 6H8H9ZM11 4V5V4ZM13 4V5C13.5523 5 14 5.44772 14 6H15H16C16 4.34315 14.6569 3 13 3V4ZM15 6H14V9H15H16V6H15ZM15 9V10H18V9V8H15V9ZM18 9V10C18.5523 10 19 10.4477 19 11H20H21C21 9.34315 19.6569 8 18 8V9ZM20 11H19V13H20H21V11H20ZM20 13H19C19 13.5523 18.5523 14 18 14V15V16C19.6569 16 21 14.6569 21 13H20ZM18 15V14H15V15V16H18V15ZM15 15H14V18H15H16V15H15ZM15 18H14C14 18.5523 13.5523 19 13 19V20V21C14.6569 21 16 19.6569 16 18H15ZM13 20V19H11V20V21H13V20ZM11 20V19C10.4477 19 10 18.5523 10 18H9H8C8 19.6569 9.34315 21 11 21V20ZM9 18H10V15H9H8V18H9ZM9 15V14H6V15V16H9V15ZM6 15V14C5.44772 14 5 13.5523 5 13H4H3C3 14.6569 4.34315 16 6 16V15ZM4 13H5V11H4H3V13H4ZM4 11H5C5 10.4477 5.44772 10 6 10V9V8C4.34315 8 3 9.34315 3 11H4ZM6 9V10H9V9V8H6V9ZM9 9H10V6H9H8V9H9ZM9 6H10C10 5.44772 10.4477 5 11 5V4V3C9.34315 3 8 4.34315 8 6H9ZM11 4V5H13V4V3H11V4Z" fill="black" fill-opacity="0.3" mask="url(#path-1-outside-1_3507_14835)"/>
</svg>
