<svg width="16" height="16" viewBox="0 0 16 16" fill="none" xmlns="http://www.w3.org/2000/svg">
<circle cx="8" cy="8" r="7.5" fill="#383838" stroke="black"/>
<mask id="path-2-outside-1_2375_17850" maskUnits="userSpaceOnUse" x="2" y="3" width="12" height="10" fill="black">
<rect fill="white" x="2" y="3" width="12" height="10"/>
<path d="M6.02637 4L7.95996 10.0781H8.03418L9.97168 4H11.8467L9.08887 12H6.90918L4.14746 4H6.02637Z"/>
</mask>
<path d="M6.02637 4L7.95996 10.0781H8.03418L9.97168 4H11.8467L9.08887 12H6.90918L4.14746 4H6.02637Z" fill="#9747FF"/>
<path d="M6.02637 4L6.97931 3.69685L6.75763 3H6.02637V4ZM7.95996 10.0781L7.00702 10.3813L7.2287 11.0781H7.95996V10.0781ZM8.03418 10.0781V11.0781H8.76499L8.98694 10.3818L8.03418 10.0781ZM9.97168 4V3H9.24087L9.01892 3.69629L9.97168 4ZM11.8467 4L12.7921 4.32591L13.2492 3H11.8467V4ZM9.08887 12V13H9.80189L10.0343 12.3259L9.08887 12ZM6.90918 12L5.96392 12.3263L6.19649 13H6.90918V12ZM4.14746 4V3H2.74434L3.2022 4.32632L4.14746 4ZM6.02637 4L5.07343 4.30315L7.00702 10.3813L7.95996 10.0781L8.9129 9.77497L6.97931 3.69685L6.02637 4ZM7.95996 10.0781V11.0781H8.03418V10.0781V9.07812H7.95996V10.0781ZM8.03418 10.0781L8.98694 10.3818L10.9244 4.30371L9.97168 4L9.01892 3.69629L7.08142 9.77442L8.03418 10.0781ZM9.97168 4V5H11.8467V4V3H9.97168V4ZM11.8467 4L10.9013 3.67409L8.14347 11.6741L9.08887 12L10.0343 12.3259L12.7921 4.32591L11.8467 4ZM9.08887 12V11H6.90918V12V13H9.08887V12ZM6.90918 12L7.85444 11.6737L5.09272 3.67368L4.14746 4L3.2022 4.32632L5.96392 12.3263L6.90918 12ZM4.14746 4V5H6.02637V4V3H4.14746V4Z" fill="black" fill-opacity="0.3" mask="url(#path-2-outside-1_2375_17850)"/>
</svg>
