<svg width="33" height="33" viewBox="0 0 33 33" fill="none" xmlns="http://www.w3.org/2000/svg">
<path d="M26 25.7935H6V21.8237H26V25.7935Z" fill="white"/>
<path d="M22.2305 16.7583C23.335 16.7583 24.2305 17.6537 24.2305 18.7583V20.8608H7.76953V18.7573C7.7698 17.653 8.66512 16.7583 9.76953 16.7583H22.2305Z" fill="white"/>
<path d="M16 13.0737C16.6704 13.0738 17.3346 13.2068 17.9531 13.4653C18.572 13.7241 19.1344 14.1041 19.6055 14.5815L18.4043 15.7954C18.0903 15.477 17.7153 15.2239 17.3027 15.0513C16.8902 14.8788 16.4471 14.7886 16 14.7886C15.553 14.7886 15.1106 14.8788 14.6982 15.0513C14.2856 15.2239 13.9107 15.477 13.5967 15.7954L12.3955 14.5815C12.8665 14.1041 13.4272 13.7241 14.0459 13.4653C14.6646 13.2066 15.3294 13.0738 16 13.0737Z" fill="white"/>
<path d="M16 9.63818C17.1179 9.63823 18.2255 9.86101 19.2568 10.2925C20.2879 10.7239 21.223 11.356 22.0078 12.1519L20.8057 13.3667C20.1777 12.7299 19.4295 12.2236 18.6045 11.8784C17.7795 11.5333 16.8942 11.355 16 11.355C15.1057 11.355 14.2196 11.5333 13.3945 11.8784C12.5696 12.2236 11.8212 12.73 11.1934 13.3667L9.99219 12.1528C10.7771 11.3567 11.7128 10.723 12.7441 10.2915C13.7752 9.86023 14.8824 9.63825 16 9.63818Z" fill="white"/>
<path d="M16 6.20654C17.565 6.20658 19.1148 6.51763 20.5586 7.12158C22.0024 7.72568 23.3123 8.61065 24.4111 9.7251L23.21 10.939C22.2681 9.98368 21.1458 9.22436 19.9082 8.70654C18.6705 8.18875 17.3416 7.9224 16 7.92236C14.6583 7.92236 13.3296 8.18872 12.0918 8.70654C10.8541 9.22436 9.73202 9.9836 8.79004 10.939L7.58789 9.7251C8.68682 8.61052 9.9965 7.72572 11.4404 7.12158C12.8845 6.51745 14.4347 6.20654 16 6.20654Z" fill="white"/>
<path d="M15.7158 15.3032C15.4334 15.3317 15.1555 15.4019 14.8916 15.5122C14.54 15.6593 14.2205 15.8758 13.9531 16.147L13.8438 16.2583H18.1572L18.0479 16.147C17.7805 15.8758 17.461 15.6593 17.1094 15.5122C16.7572 15.365 16.3798 15.2886 16 15.2886L15.7158 15.3032ZM16.4434 9.14893C17.4763 9.20036 18.4944 9.43165 19.4502 9.83154C20.5422 10.2885 21.5331 10.9584 22.3643 11.8013L22.7109 12.1528L22.3633 12.5034L21.1611 13.7183L20.8047 14.0786L20.4492 13.7173C19.8677 13.1277 19.1747 12.6588 18.4111 12.3394C17.7426 12.0598 17.0314 11.8987 16.3096 11.8628L16 11.855C15.1723 11.855 14.3518 12.0199 13.5879 12.3394C12.8245 12.6588 12.1312 13.1278 11.5498 13.7173L11.1943 14.0786L10.8379 13.7183L9.63672 12.5044L9.28906 12.1538L9.63574 11.8022C10.4668 10.9593 11.4582 10.2878 12.5508 9.83057C13.643 9.3737 14.8162 9.13825 16 9.13818L16.4434 9.14893ZM16 5.70654C17.6313 5.70658 19.247 6.03112 20.752 6.66064C22.2566 7.29028 23.6223 8.21295 24.7676 9.37451L25.1143 9.72607L24.7666 10.0767L23.5654 11.2905L23.209 11.6509L22.8535 11.2896C21.9581 10.3815 20.891 9.65959 19.7148 9.16748C18.5385 8.67542 17.2753 8.4224 16 8.42236C14.7246 8.42236 13.4616 8.67539 12.2852 9.16748C11.1089 9.65957 10.042 10.3814 9.14648 11.2896L8.79102 11.6499L8.43457 11.2905L7.23242 10.0767L6.88477 9.72607L7.23145 9.37451C8.37683 8.21281 9.74226 7.29032 11.2471 6.66064C12.7523 6.03091 14.3685 5.70654 16 5.70654ZM24.7305 21.3237H26.5V26.2935H5.5V21.3237H7.26953V18.7573L7.28223 18.5015C7.41059 17.2411 8.4755 16.2583 9.76953 16.2583H13.3516L13.2412 16.147L12.04 14.9331L11.6924 14.5825L12.04 14.23C12.557 13.7061 13.1726 13.2888 13.8525 13.0044C14.5326 12.72 15.2635 12.5738 16 12.5737L16.2754 12.5806C16.9178 12.6124 17.5507 12.7558 18.1455 13.0044H18.1465C18.826 13.2886 19.4436 13.7057 19.9609 14.23L20.3086 14.5825L19.9609 14.9331L18.7598 16.147L18.6494 16.2583H22.2305C23.6112 16.2583 24.7305 17.3776 24.7305 18.7583V21.3237Z" stroke="black" stroke-opacity="0.3"/>
</svg>
