<svg width="33" height="33" viewBox="0 0 33 33" fill="none" xmlns="http://www.w3.org/2000/svg">
<mask id="path-1-outside-1_3507_3014" maskUnits="userSpaceOnUse" x="-0.111328" y="-0.111328" width="32" height="32" fill="black">
<rect fill="white" x="-0.111328" y="-0.111328" width="32" height="32"/>
<path d="M7.01771 28.6783C7.31428 28.737 7.62144 28.7675 7.93642 28.7675H9.28036C9.65148 28.7675 9.95233 29.0684 9.95233 29.4395C9.95233 29.8106 9.65148 30.1115 9.28036 30.1115H7.93642C7.53338 30.1115 7.13857 30.0716 6.75653 29.996C6.39286 29.9238 6.15593 29.571 6.22761 29.2072C6.29964 28.8431 6.65364 28.6063 7.01771 28.6783Z"/>
<path d="M14.6561 28.7675C15.0273 28.7675 15.3281 29.0684 15.3281 29.4395C15.3281 29.8106 15.0273 30.1115 14.6561 30.1115H11.9682C11.5971 30.1115 11.2963 29.8106 11.2963 29.4395C11.2963 29.0684 11.5971 28.7675 11.9682 28.7675H14.6561Z"/>
<path d="M20.0319 28.7675C20.403 28.7675 20.7039 29.0684 20.7039 29.4395C20.7039 29.8106 20.403 30.1115 20.0319 30.1115H17.344C16.9729 30.1115 16.672 29.8106 16.672 29.4395C16.672 29.0684 16.9729 28.7675 17.344 28.7675H20.0319Z"/>
<path d="M24.9824 28.6783C25.3465 28.6063 25.7005 28.8431 25.7725 29.2072C25.8442 29.571 25.6073 29.9238 25.2436 29.996C24.8616 30.0716 24.4668 30.1115 24.0637 30.1115H22.7198C22.3487 30.1115 22.0478 29.8106 22.0478 29.4395C22.0478 29.0684 22.3487 28.7675 22.7198 28.7675H24.0637C24.3787 28.7675 24.6859 28.737 24.9824 28.6783Z"/>
<path d="M3.09218 26.4918C3.4005 26.2855 3.81755 26.3686 4.02402 26.6768C4.36763 27.1901 4.81009 27.6325 5.32334 27.9761C5.63152 28.1826 5.71469 28.5997 5.50839 28.908C5.30193 29.2164 4.88363 29.2995 4.57525 29.093C3.91606 28.6517 3.34845 28.0841 2.90713 27.4249C2.70067 27.1165 2.78379 26.6982 3.09218 26.4918Z"/>
<path d="M27.9761 26.6768C28.1826 26.3686 28.5997 26.2855 28.908 26.4918C29.2164 26.6982 29.2995 27.1165 29.093 27.4249C28.6517 28.0841 28.0841 28.6517 27.4249 29.093C27.1165 29.2995 26.6982 29.2164 26.4918 28.908C26.2855 28.5997 26.3686 28.1826 26.6768 27.9761C27.1901 27.6325 27.6325 27.1901 27.9761 26.6768Z"/>
<path d="M2.56064 22.0478C2.93176 22.0478 3.23262 22.3487 3.23262 22.7198V24.0637C3.23262 24.3787 3.2632 24.6859 3.32186 24.9824C3.39388 25.3465 3.15701 25.7005 2.79295 25.7725C2.42919 25.8442 2.07633 25.6073 2.00417 25.2436C1.92859 24.8616 1.88867 24.4668 1.88867 24.0637V22.7198C1.88867 22.3487 2.18952 22.0478 2.56064 22.0478Z"/>
<path d="M29.996 25.2436C29.9238 25.6073 29.571 25.8442 29.2072 25.7725C28.8431 25.7005 28.6063 25.3465 28.6783 24.9824L29.996 25.2436Z"/>
<path d="M29.4395 22.0478C29.8106 22.0478 30.1115 22.3487 30.1115 22.7198V24.0637C30.1115 24.4668 30.0716 24.8616 29.996 25.2436L29.3371 25.1124L28.6783 24.9824C28.737 24.6859 28.7675 24.3787 28.7675 24.0637V22.7198C28.7675 22.3487 29.0684 22.0478 29.4395 22.0478Z"/>
<path d="M16.0001 17.9031C17.0669 17.9032 17.9318 18.7683 17.932 19.835C17.932 20.902 17.067 21.7669 16.0001 21.767C14.9331 21.767 14.0682 20.902 14.0682 19.835C14.0683 18.7682 14.9332 17.9031 16.0001 17.9031Z"/>
<path fill-rule="evenodd" clip-rule="evenodd" d="M16.0001 16.0001C18.425 16.0001 20.587 17.1254 21.9927 18.8822C22.4392 19.4403 22.4391 20.2298 21.9927 20.7879C20.587 22.5449 18.4252 23.67 16.0001 23.67C13.575 23.67 11.4131 22.5449 10.0075 20.7879C9.56099 20.2298 9.56099 19.4403 10.0075 18.8822C11.4131 17.1254 13.5752 16.0001 16.0001 16.0001ZM16.0001 16.9135C14.3863 16.9135 13.0774 18.2213 13.0773 19.835C13.0773 21.4489 14.3862 22.7579 16.0001 22.7579C17.6138 22.7578 18.9216 21.4488 18.9216 19.835C18.9214 18.2214 17.6137 16.9136 16.0001 16.9135Z"/>
<path d="M2.56064 16.672C2.93176 16.672 3.23262 16.9729 3.23262 17.344V20.0319C3.23261 20.403 2.93176 20.7039 2.56064 20.7039C2.18952 20.7039 1.88867 20.403 1.88867 20.0319V17.344C1.88867 16.9729 2.18952 16.672 2.56064 16.672Z"/>
<path d="M29.4395 16.672C29.8106 16.672 30.1115 16.9729 30.1115 17.344V20.0319C30.1115 20.403 29.8106 20.7039 29.4395 20.7039C29.0684 20.7039 28.7675 20.403 28.7675 20.0319V17.344C28.7675 16.9729 29.0684 16.672 29.4395 16.672Z"/>
<path d="M2.56064 11.2963C2.93176 11.2963 3.23262 11.5971 3.23262 11.9682V14.6561C3.23262 15.0273 2.93176 15.3281 2.56064 15.3281C2.18952 15.3281 1.88867 15.0273 1.88867 14.6561V11.9682C1.88867 11.5971 2.18952 11.2963 2.56064 11.2963Z"/>
<path d="M29.4395 11.2963C29.8106 11.2963 30.1115 11.5971 30.1115 11.9682V14.6561C30.1115 15.0273 29.8106 15.3281 29.4395 15.3281C29.0684 15.3281 28.7675 15.0273 28.7675 14.6561V11.9682C28.7675 11.5971 29.0684 11.2963 29.4395 11.2963Z"/>
<path d="M16.0001 12.1126C16.5087 12.1126 17.0125 12.2144 17.4818 12.4105C17.9512 12.6068 18.3779 12.8949 18.7352 13.2571L17.8231 14.1771C17.5849 13.9357 17.3011 13.7436 16.9883 13.6127C16.6755 13.4819 16.3392 13.4146 16.0001 13.4146C15.6612 13.4146 15.3258 13.482 15.0131 13.6127C14.7002 13.7437 14.4153 13.9355 14.1771 14.1771L13.2663 13.2571C13.6235 12.8949 14.049 12.6068 14.5183 12.4105C14.9876 12.2143 15.4914 12.1127 16.0001 12.1126Z"/>
<path d="M16.0001 9.50741C16.8479 9.50745 17.6879 9.67631 18.4701 10.0035C19.2523 10.3308 19.9616 10.8106 20.5569 11.4144L19.646 12.3357C19.1697 11.8527 18.6011 11.4675 17.9753 11.2057C17.3497 10.9441 16.6782 10.8094 16.0001 10.8094C15.322 10.8094 14.6505 10.9441 14.0248 11.2057C13.399 11.4675 12.8304 11.8527 12.3541 12.3357L11.4433 11.4144C12.0385 10.8107 12.7479 10.3308 13.5301 10.0035C14.3122 9.6763 15.1522 9.50749 16.0001 9.50741Z"/>
<path d="M16.0001 6.90352C17.1873 6.90353 18.3632 7.13967 19.4584 7.59781C20.5534 8.05599 21.5465 8.72784 22.3799 9.57303L21.469 10.4931C20.7546 9.76858 19.9035 9.19274 18.9649 8.8C18.026 8.40722 17.0178 8.20547 16.0001 8.20547C14.9824 8.20547 13.9741 8.40722 13.0353 8.8C12.0967 9.19273 11.2455 9.76858 10.5311 10.4931L9.62028 9.57303C10.4538 8.72777 11.4467 8.05599 12.5418 7.59781C13.6371 7.13961 14.8128 6.90352 16.0001 6.90352Z"/>
<path d="M2.79295 6.22761C3.15701 6.29964 3.39388 6.65364 3.32186 7.01771C3.2632 7.31428 3.23262 7.62144 3.23262 7.93642V9.28036C3.23261 9.65148 2.93176 9.95233 2.56064 9.95233C2.18952 9.95233 1.88867 9.65148 1.88867 9.28036V7.93642C1.88867 7.53338 1.92859 7.13857 2.00417 6.75653C2.07633 6.39286 2.42919 6.15593 2.79295 6.22761Z"/>
<path d="M29.996 6.75653C30.0716 7.13857 30.1115 7.53338 30.1115 7.93642V9.28036C30.1115 9.65148 29.8106 9.95233 29.4395 9.95233C29.0684 9.95233 28.7675 9.65148 28.7675 9.28036V7.93642C28.7675 7.62144 28.737 7.31428 28.6783 7.01771L29.3371 6.88777L29.996 6.75653Z"/>
<path d="M29.2072 6.22761C29.571 6.15593 29.9238 6.39286 29.996 6.75653L28.6783 7.01771C28.6063 6.65364 28.8431 6.29964 29.2072 6.22761Z"/>
<path d="M4.02402 5.32334C3.81755 5.63152 3.40049 5.71469 3.09218 5.50839C2.78379 5.30193 2.70067 4.88363 2.90713 4.57525L4.02402 5.32334Z"/>
<path d="M26.4918 3.09218C26.6982 2.78379 27.1165 2.70067 27.4249 2.90713C28.0841 3.34845 28.6517 3.91606 29.093 4.57525C29.2995 4.88363 29.2164 5.30193 28.908 5.50839C28.5997 5.71469 28.1826 5.63152 27.9761 5.32334C27.6325 4.81009 27.1901 4.36763 26.6768 4.02402C26.3686 3.81755 26.2855 3.40049 26.4918 3.09218Z"/>
<path d="M4.57525 2.90713C4.88363 2.70067 5.30193 2.78379 5.50839 3.09218C5.71469 3.4005 5.63152 3.81755 5.32334 4.02402C4.81009 4.36763 4.36763 4.81009 4.02402 5.32334L3.46623 4.94929L2.90713 4.57525C3.34845 3.91606 3.91606 3.34845 4.57525 2.90713Z"/>
<path d="M7.01771 3.32186C6.65364 3.39388 6.29964 3.15701 6.22761 2.79295C6.15593 2.42919 6.39286 2.07633 6.75653 2.00417L7.01771 3.32186Z"/>
<path d="M24.0637 1.88867C24.4668 1.88867 24.8616 1.92859 25.2436 2.00417C25.6073 2.07633 25.8442 2.42919 25.7725 2.79295C25.7005 3.15701 25.3465 3.39388 24.9824 3.32186C24.6859 3.2632 24.3787 3.23262 24.0637 3.23262H22.7198C22.3487 3.23261 22.0478 2.93176 22.0478 2.56064C22.0478 2.18952 22.3487 1.88867 22.7198 1.88867H24.0637Z"/>
<path d="M9.28036 1.88867C9.65148 1.88867 9.95233 2.18952 9.95233 2.56064C9.95233 2.93176 9.65148 3.23262 9.28036 3.23262H7.93642C7.62144 3.23262 7.31428 3.2632 7.01771 3.32186L6.88777 2.66301L6.75653 2.00417C7.13857 1.92859 7.53338 1.88867 7.93642 1.88867H9.28036Z"/>
<path d="M14.6561 1.88867C15.0273 1.88867 15.3281 2.18952 15.3281 2.56064C15.3281 2.93176 15.0273 3.23262 14.6561 3.23262H11.9682C11.5971 3.23261 11.2963 2.93176 11.2963 2.56064C11.2963 2.18952 11.5971 1.88867 11.9682 1.88867H14.6561Z"/>
<path d="M20.0319 1.88867C20.403 1.88867 20.7039 2.18952 20.7039 2.56064C20.7039 2.93176 20.403 3.23262 20.0319 3.23262H17.344C16.9729 3.23262 16.672 2.93176 16.672 2.56064C16.672 2.18952 16.9729 1.88867 17.344 1.88867H20.0319Z"/>
</mask>
<path d="M7.01771 28.6783C7.31428 28.737 7.62144 28.7675 7.93642 28.7675H9.28036C9.65148 28.7675 9.95233 29.0684 9.95233 29.4395C9.95233 29.8106 9.65148 30.1115 9.28036 30.1115H7.93642C7.53338 30.1115 7.13857 30.0716 6.75653 29.996C6.39286 29.9238 6.15593 29.571 6.22761 29.2072C6.29964 28.8431 6.65364 28.6063 7.01771 28.6783Z" fill="white"/>
<path d="M14.6561 28.7675C15.0273 28.7675 15.3281 29.0684 15.3281 29.4395C15.3281 29.8106 15.0273 30.1115 14.6561 30.1115H11.9682C11.5971 30.1115 11.2963 29.8106 11.2963 29.4395C11.2963 29.0684 11.5971 28.7675 11.9682 28.7675H14.6561Z" fill="white"/>
<path d="M20.0319 28.7675C20.403 28.7675 20.7039 29.0684 20.7039 29.4395C20.7039 29.8106 20.403 30.1115 20.0319 30.1115H17.344C16.9729 30.1115 16.672 29.8106 16.672 29.4395C16.672 29.0684 16.9729 28.7675 17.344 28.7675H20.0319Z" fill="white"/>
<path d="M24.9824 28.6783C25.3465 28.6063 25.7005 28.8431 25.7725 29.2072C25.8442 29.571 25.6073 29.9238 25.2436 29.996C24.8616 30.0716 24.4668 30.1115 24.0637 30.1115H22.7198C22.3487 30.1115 22.0478 29.8106 22.0478 29.4395C22.0478 29.0684 22.3487 28.7675 22.7198 28.7675H24.0637C24.3787 28.7675 24.6859 28.737 24.9824 28.6783Z" fill="white"/>
<path d="M3.09218 26.4918C3.4005 26.2855 3.81755 26.3686 4.02402 26.6768C4.36763 27.1901 4.81009 27.6325 5.32334 27.9761C5.63152 28.1826 5.71469 28.5997 5.50839 28.908C5.30193 29.2164 4.88363 29.2995 4.57525 29.093C3.91606 28.6517 3.34845 28.0841 2.90713 27.4249C2.70067 27.1165 2.78379 26.6982 3.09218 26.4918Z" fill="white"/>
<path d="M27.9761 26.6768C28.1826 26.3686 28.5997 26.2855 28.908 26.4918C29.2164 26.6982 29.2995 27.1165 29.093 27.4249C28.6517 28.0841 28.0841 28.6517 27.4249 29.093C27.1165 29.2995 26.6982 29.2164 26.4918 28.908C26.2855 28.5997 26.3686 28.1826 26.6768 27.9761C27.1901 27.6325 27.6325 27.1901 27.9761 26.6768Z" fill="white"/>
<path d="M2.56064 22.0478C2.93176 22.0478 3.23262 22.3487 3.23262 22.7198V24.0637C3.23262 24.3787 3.2632 24.6859 3.32186 24.9824C3.39388 25.3465 3.15701 25.7005 2.79295 25.7725C2.42919 25.8442 2.07633 25.6073 2.00417 25.2436C1.92859 24.8616 1.88867 24.4668 1.88867 24.0637V22.7198C1.88867 22.3487 2.18952 22.0478 2.56064 22.0478Z" fill="white"/>
<path d="M29.996 25.2436C29.9238 25.6073 29.571 25.8442 29.2072 25.7725C28.8431 25.7005 28.6063 25.3465 28.6783 24.9824L29.996 25.2436Z" fill="white"/>
<path d="M29.4395 22.0478C29.8106 22.0478 30.1115 22.3487 30.1115 22.7198V24.0637C30.1115 24.4668 30.0716 24.8616 29.996 25.2436L29.3371 25.1124L28.6783 24.9824C28.737 24.6859 28.7675 24.3787 28.7675 24.0637V22.7198C28.7675 22.3487 29.0684 22.0478 29.4395 22.0478Z" fill="white"/>
<path d="M16.0001 17.9031C17.0669 17.9032 17.9318 18.7683 17.932 19.835C17.932 20.902 17.067 21.7669 16.0001 21.767C14.9331 21.767 14.0682 20.902 14.0682 19.835C14.0683 18.7682 14.9332 17.9031 16.0001 17.9031Z" fill="white"/>
<path fill-rule="evenodd" clip-rule="evenodd" d="M16.0001 16.0001C18.425 16.0001 20.587 17.1254 21.9927 18.8822C22.4392 19.4403 22.4391 20.2298 21.9927 20.7879C20.587 22.5449 18.4252 23.67 16.0001 23.67C13.575 23.67 11.4131 22.5449 10.0075 20.7879C9.56099 20.2298 9.56099 19.4403 10.0075 18.8822C11.4131 17.1254 13.5752 16.0001 16.0001 16.0001ZM16.0001 16.9135C14.3863 16.9135 13.0774 18.2213 13.0773 19.835C13.0773 21.4489 14.3862 22.7579 16.0001 22.7579C17.6138 22.7578 18.9216 21.4488 18.9216 19.835C18.9214 18.2214 17.6137 16.9136 16.0001 16.9135Z" fill="white"/>
<path d="M2.56064 16.672C2.93176 16.672 3.23262 16.9729 3.23262 17.344V20.0319C3.23261 20.403 2.93176 20.7039 2.56064 20.7039C2.18952 20.7039 1.88867 20.403 1.88867 20.0319V17.344C1.88867 16.9729 2.18952 16.672 2.56064 16.672Z" fill="white"/>
<path d="M29.4395 16.672C29.8106 16.672 30.1115 16.9729 30.1115 17.344V20.0319C30.1115 20.403 29.8106 20.7039 29.4395 20.7039C29.0684 20.7039 28.7675 20.403 28.7675 20.0319V17.344C28.7675 16.9729 29.0684 16.672 29.4395 16.672Z" fill="white"/>
<path d="M2.56064 11.2963C2.93176 11.2963 3.23262 11.5971 3.23262 11.9682V14.6561C3.23262 15.0273 2.93176 15.3281 2.56064 15.3281C2.18952 15.3281 1.88867 15.0273 1.88867 14.6561V11.9682C1.88867 11.5971 2.18952 11.2963 2.56064 11.2963Z" fill="white"/>
<path d="M29.4395 11.2963C29.8106 11.2963 30.1115 11.5971 30.1115 11.9682V14.6561C30.1115 15.0273 29.8106 15.3281 29.4395 15.3281C29.0684 15.3281 28.7675 15.0273 28.7675 14.6561V11.9682C28.7675 11.5971 29.0684 11.2963 29.4395 11.2963Z" fill="white"/>
<path d="M16.0001 12.1126C16.5087 12.1126 17.0125 12.2144 17.4818 12.4105C17.9512 12.6068 18.3779 12.8949 18.7352 13.2571L17.8231 14.1771C17.5849 13.9357 17.3011 13.7436 16.9883 13.6127C16.6755 13.4819 16.3392 13.4146 16.0001 13.4146C15.6612 13.4146 15.3258 13.482 15.0131 13.6127C14.7002 13.7437 14.4153 13.9355 14.1771 14.1771L13.2663 13.2571C13.6235 12.8949 14.049 12.6068 14.5183 12.4105C14.9876 12.2143 15.4914 12.1127 16.0001 12.1126Z" fill="white"/>
<path d="M16.0001 9.50741C16.8479 9.50745 17.6879 9.67631 18.4701 10.0035C19.2523 10.3308 19.9616 10.8106 20.5569 11.4144L19.646 12.3357C19.1697 11.8527 18.6011 11.4675 17.9753 11.2057C17.3497 10.9441 16.6782 10.8094 16.0001 10.8094C15.322 10.8094 14.6505 10.9441 14.0248 11.2057C13.399 11.4675 12.8304 11.8527 12.3541 12.3357L11.4433 11.4144C12.0385 10.8107 12.7479 10.3308 13.5301 10.0035C14.3122 9.6763 15.1522 9.50749 16.0001 9.50741Z" fill="white"/>
<path d="M16.0001 6.90352C17.1873 6.90353 18.3632 7.13967 19.4584 7.59781C20.5534 8.05599 21.5465 8.72784 22.3799 9.57303L21.469 10.4931C20.7546 9.76858 19.9035 9.19274 18.9649 8.8C18.026 8.40722 17.0178 8.20547 16.0001 8.20547C14.9824 8.20547 13.9741 8.40722 13.0353 8.8C12.0967 9.19273 11.2455 9.76858 10.5311 10.4931L9.62028 9.57303C10.4538 8.72777 11.4467 8.05599 12.5418 7.59781C13.6371 7.13961 14.8128 6.90352 16.0001 6.90352Z" fill="white"/>
<path d="M2.79295 6.22761C3.15701 6.29964 3.39388 6.65364 3.32186 7.01771C3.2632 7.31428 3.23262 7.62144 3.23262 7.93642V9.28036C3.23261 9.65148 2.93176 9.95233 2.56064 9.95233C2.18952 9.95233 1.88867 9.65148 1.88867 9.28036V7.93642C1.88867 7.53338 1.92859 7.13857 2.00417 6.75653C2.07633 6.39286 2.42919 6.15593 2.79295 6.22761Z" fill="white"/>
<path d="M29.996 6.75653C30.0716 7.13857 30.1115 7.53338 30.1115 7.93642V9.28036C30.1115 9.65148 29.8106 9.95233 29.4395 9.95233C29.0684 9.95233 28.7675 9.65148 28.7675 9.28036V7.93642C28.7675 7.62144 28.737 7.31428 28.6783 7.01771L29.3371 6.88777L29.996 6.75653Z" fill="white"/>
<path d="M29.2072 6.22761C29.571 6.15593 29.9238 6.39286 29.996 6.75653L28.6783 7.01771C28.6063 6.65364 28.8431 6.29964 29.2072 6.22761Z" fill="white"/>
<path d="M4.02402 5.32334C3.81755 5.63152 3.40049 5.71469 3.09218 5.50839C2.78379 5.30193 2.70067 4.88363 2.90713 4.57525L4.02402 5.32334Z" fill="white"/>
<path d="M26.4918 3.09218C26.6982 2.78379 27.1165 2.70067 27.4249 2.90713C28.0841 3.34845 28.6517 3.91606 29.093 4.57525C29.2995 4.88363 29.2164 5.30193 28.908 5.50839C28.5997 5.71469 28.1826 5.63152 27.9761 5.32334C27.6325 4.81009 27.1901 4.36763 26.6768 4.02402C26.3686 3.81755 26.2855 3.40049 26.4918 3.09218Z" fill="white"/>
<path d="M4.57525 2.90713C4.88363 2.70067 5.30193 2.78379 5.50839 3.09218C5.71469 3.4005 5.63152 3.81755 5.32334 4.02402C4.81009 4.36763 4.36763 4.81009 4.02402 5.32334L3.46623 4.94929L2.90713 4.57525C3.34845 3.91606 3.91606 3.34845 4.57525 2.90713Z" fill="white"/>
<path d="M7.01771 3.32186C6.65364 3.39388 6.29964 3.15701 6.22761 2.79295C6.15593 2.42919 6.39286 2.07633 6.75653 2.00417L7.01771 3.32186Z" fill="white"/>
<path d="M24.0637 1.88867C24.4668 1.88867 24.8616 1.92859 25.2436 2.00417C25.6073 2.07633 25.8442 2.42919 25.7725 2.79295C25.7005 3.15701 25.3465 3.39388 24.9824 3.32186C24.6859 3.2632 24.3787 3.23262 24.0637 3.23262H22.7198C22.3487 3.23261 22.0478 2.93176 22.0478 2.56064C22.0478 2.18952 22.3487 1.88867 22.7198 1.88867H24.0637Z" fill="white"/>
<path d="M9.28036 1.88867C9.65148 1.88867 9.95233 2.18952 9.95233 2.56064C9.95233 2.93176 9.65148 3.23262 9.28036 3.23262H7.93642C7.62144 3.23262 7.31428 3.2632 7.01771 3.32186L6.88777 2.66301L6.75653 2.00417C7.13857 1.92859 7.53338 1.88867 7.93642 1.88867H9.28036Z" fill="white"/>
<path d="M14.6561 1.88867C15.0273 1.88867 15.3281 2.18952 15.3281 2.56064C15.3281 2.93176 15.0273 3.23262 14.6561 3.23262H11.9682C11.5971 3.23261 11.2963 2.93176 11.2963 2.56064C11.2963 2.18952 11.5971 1.88867 11.9682 1.88867H14.6561Z" fill="white"/>
<path d="M20.0319 1.88867C20.403 1.88867 20.7039 2.18952 20.7039 2.56064C20.7039 2.93176 20.403 3.23262 20.0319 3.23262H17.344C16.9729 3.23262 16.672 2.93176 16.672 2.56064C16.672 2.18952 16.9729 1.88867 17.344 1.88867H20.0319Z" fill="white"/>
<path d="M7.01771 28.6783L6.75689 29.9967L6.75691 29.9967L7.01771 28.6783ZM9.28036 28.7675L9.28036 27.4236H9.28036V28.7675ZM9.28036 30.1115V31.4554H9.28036L9.28036 30.1115ZM6.75653 29.996L6.49494 31.3142L6.49571 31.3144L6.75653 29.996ZM6.22761 29.2072L4.90922 28.9464L4.90903 28.9474L6.22761 29.2072ZM20.0319 28.7675V27.4236V28.7675ZM20.0319 30.1115V31.4554V30.1115ZM24.9824 28.6783L25.2432 29.9967L25.2433 29.9967L24.9824 28.6783ZM25.7725 29.2072L27.0911 28.9474L27.0909 28.9464L25.7725 29.2072ZM25.2436 29.996L25.5044 31.3144L25.5052 31.3142L25.2436 29.996ZM24.0637 30.1115V31.4554V30.1115ZM24.0637 28.7675V30.1115V28.7675ZM3.09218 26.4918L2.3448 25.3748L2.34452 25.375L3.09218 26.4918ZM4.02402 26.6768L5.14079 25.9292L5.14055 25.9288L4.02402 26.6768ZM5.32334 27.9761L6.07137 26.8596L6.071 26.8594L5.32334 27.9761ZM5.50839 28.908L6.62517 29.6556L6.62536 29.6553L5.50839 28.908ZM4.57525 29.093L3.82757 30.2098L3.82758 30.2098L4.57525 29.093ZM2.90713 27.4249L1.79035 28.1726L1.79036 28.1726L2.90713 27.4249ZM27.9761 26.6768L26.8596 25.9288L26.8594 25.9291L27.9761 26.6768ZM28.908 26.4918L29.6556 25.375L29.6553 25.3748L28.908 26.4918ZM29.093 27.4249L30.2098 28.1726L30.2098 28.1726L29.093 27.4249ZM27.4249 29.093L28.1726 30.2098L28.1726 30.2098L27.4249 29.093ZM26.4918 28.908L25.3748 29.6553L25.375 29.6556L26.4918 28.908ZM26.6768 27.9761L25.9292 26.8594L25.9288 26.8596L26.6768 27.9761ZM3.23262 24.0637H1.88867H3.23262ZM3.32186 24.9824L2.00346 25.2432L2.00347 25.2433L3.32186 24.9824ZM2.79295 25.7725L3.05279 27.0911L3.05376 27.0909L2.79295 25.7725ZM2.00417 25.2436L0.685775 25.5044L0.685928 25.5052L2.00417 25.2436ZM1.88867 24.0637H0.544729H1.88867ZM29.996 25.2436L31.3142 25.5052L31.3144 25.5044L29.996 25.2436ZM29.2072 25.7725L28.9464 27.0909L28.9474 27.0911L29.2072 25.7725ZM30.1115 22.7198H31.4554H30.1115ZM29.3371 25.1124L29.5997 23.7943L29.5972 23.7938L29.3371 25.1124ZM28.7675 22.7198H27.4236H28.7675ZM16.0001 16.0001L16.0001 14.6561H16.0001V16.0001ZM21.9927 18.8822L23.0421 18.0426L23.0421 18.0426L21.9927 18.8822ZM21.9927 20.7879L23.0421 21.6274L23.0422 21.6274L21.9927 20.7879ZM16.0001 23.67V25.0139H16.0001L16.0001 23.67ZM10.0075 20.7879L8.95802 21.6274L8.95804 21.6275L10.0075 20.7879ZM10.0075 18.8822L8.95809 18.0425L8.95802 18.0426L10.0075 18.8822ZM16.0001 16.9135L16.0001 15.5696H16.0001V16.9135ZM13.0773 19.835L11.7333 19.8349V19.835H13.0773ZM16.0001 22.7579V24.1018H16.0001L16.0001 22.7579ZM18.9216 19.835H20.2655V19.8349L18.9216 19.835ZM16.0001 17.9031L16.0002 16.5592H16.0001V17.9031ZM17.932 19.835H19.2759V19.8348L17.932 19.835ZM16.0001 21.767V23.1109H16.0002L16.0001 21.767ZM14.0682 19.835L12.7242 19.8348V19.835H14.0682ZM3.23262 20.0319H4.57656H3.23262ZM1.88867 20.0319H0.544729H1.88867ZM30.1115 11.9682H31.4554V11.9682L30.1115 11.9682ZM28.7675 11.9682L27.4236 11.9682V11.9682H28.7675ZM16.0001 12.1126V10.7687H16L16.0001 12.1126ZM17.4818 12.4105L18.0003 11.1706L18.0002 11.1706L17.4818 12.4105ZM18.7352 13.2571L19.6896 14.2033L20.6254 13.2594L19.6919 12.3132L18.7352 13.2571ZM17.8231 14.1771L16.8663 15.1209L17.8207 16.0883L18.7774 15.1233L17.8231 14.1771ZM16.9883 13.6127L17.507 12.3729L17.5068 12.3728L16.9883 13.6127ZM16.0001 13.4146V12.0706H15.9997L16.0001 13.4146ZM15.0131 13.6127L14.4947 12.3728L14.4945 12.3729L15.0131 13.6127ZM14.1771 14.1771L13.222 15.1226L14.179 16.0892L15.134 15.1207L14.1771 14.1771ZM13.2663 13.2571L12.3096 12.3132L11.3767 13.2587L12.3112 14.2026L13.2663 13.2571ZM14.5183 12.4105L13.9999 11.1706L13.9998 11.1707L14.5183 12.4105ZM16.0001 9.50741L16.0001 8.16347H16L16.0001 9.50741ZM18.4701 10.0035L18.9888 8.76372L18.9887 8.76368L18.4701 10.0035ZM20.5569 11.4144L21.5126 12.3592L22.4455 11.4156L21.5139 10.4708L20.5569 11.4144ZM19.646 12.3357L18.6891 13.2794L19.6448 14.2486L20.6018 13.2806L19.646 12.3357ZM17.9753 11.2057L18.494 9.96588L18.4938 9.96581L17.9753 11.2057ZM16.0001 10.8094L16.0001 9.46541H16.0001L16.0001 10.8094ZM14.0248 11.2057L13.5064 9.9658L13.5062 9.96588L14.0248 11.2057ZM12.3541 12.3357L11.3984 13.2806L12.3553 14.2486L13.311 13.2794L12.3541 12.3357ZM11.4433 11.4144L10.4863 10.4708L9.55469 11.4157L10.4875 12.3592L11.4433 11.4144ZM13.5301 10.0035L13.0114 8.7637L13.0113 8.76374L13.5301 10.0035ZM16.0001 6.90352L16.0001 5.55958H16.0001L16.0001 6.90352ZM19.4584 7.59781L19.9771 6.35802L19.977 6.35796L19.4584 7.59781ZM22.3799 9.57303L23.3349 10.5186L24.2692 9.57493L23.3368 8.62942L22.3799 9.57303ZM21.469 10.4931L20.5121 11.4367L21.4671 12.4052L22.4241 11.4386L21.469 10.4931ZM18.9649 8.8L19.4836 7.56021L19.4836 7.56019L18.9649 8.8ZM16.0001 8.20547L16.0001 6.86152H16.0001L16.0001 8.20547ZM13.0353 8.8L12.5166 7.56019L12.5165 7.56021L13.0353 8.8ZM10.5311 10.4931L9.57605 11.4386L10.533 12.4052L11.4881 11.4367L10.5311 10.4931ZM9.62028 9.57303L8.66332 8.62942L7.731 9.57493L8.66522 10.5186L9.62028 9.57303ZM12.5418 7.59781L12.0231 6.35798L12.0231 6.358L12.5418 7.59781ZM2.79295 6.22761L3.05376 4.90922L3.05279 4.90903L2.79295 6.22761ZM3.32186 7.01771L2.00347 6.75689L2.00346 6.75691L3.32186 7.01771ZM3.23262 9.28036L4.57656 9.28036V9.28036H3.23262ZM1.88867 9.28036H0.544729V9.28036L1.88867 9.28036ZM2.00417 6.75653L0.685928 6.49494L0.685775 6.49571L2.00417 6.75653ZM29.996 6.75653L31.3144 6.49571L31.3142 6.49494L29.996 6.75653ZM30.1115 7.93642H31.4554H30.1115ZM28.7675 7.93642H30.1115H28.7675ZM29.3371 6.88777L29.5972 8.20632L29.5997 8.20582L29.3371 6.88777ZM29.2072 6.22761L28.9474 4.90903L28.9464 4.90922L29.2072 6.22761ZM4.02402 5.32334L5.14054 6.07137L5.14079 6.071L4.02402 5.32334ZM3.09218 5.50839L2.34452 6.62517L2.3448 6.62536L3.09218 5.50839ZM2.90713 4.57525L1.79036 3.82757L1.79035 3.82758L2.90713 4.57525ZM26.4918 3.09218L25.375 2.34452L25.3748 2.3448L26.4918 3.09218ZM27.4249 2.90713L28.1726 1.79036L28.1726 1.79035L27.4249 2.90713ZM29.093 4.57525L30.2098 3.82758L30.2098 3.82757L29.093 4.57525ZM28.908 5.50839L29.6553 6.62536L29.6556 6.62517L28.908 5.50839ZM27.9761 5.32334L26.8594 6.071L26.8596 6.07137L27.9761 5.32334ZM26.6768 4.02402L25.9288 5.14054L25.9291 5.14079L26.6768 4.02402ZM4.57525 2.90713L3.82758 1.79035L3.82757 1.79036L4.57525 2.90713ZM5.50839 3.09218L6.62536 2.3448L6.62517 2.34452L5.50839 3.09218ZM5.32334 4.02402L6.071 5.14079L6.07137 5.14055L5.32334 4.02402ZM3.46623 4.94929L4.21474 3.83309L4.21353 3.83228L3.46623 4.94929ZM6.22761 2.79295L4.90903 3.05279L4.90922 3.05376L6.22761 2.79295ZM6.75653 2.00417L6.49571 0.685775L6.49494 0.685928L6.75653 2.00417ZM25.2436 2.00417L25.5052 0.685928L25.5044 0.685775L25.2436 2.00417ZM25.7725 2.79295L27.0909 3.05376L27.0911 3.05279L25.7725 2.79295ZM24.9824 3.32186L25.2433 2.00347L25.2432 2.00346L24.9824 3.32186ZM22.7198 3.23262V4.57656V3.23262ZM22.7198 1.88867V0.544729V1.88867ZM7.93642 3.23262V1.88867V3.23262ZM6.88777 2.66301L8.20632 2.40298L8.20582 2.40046L6.88777 2.66301ZM7.93642 1.88867V0.544729V1.88867ZM11.9682 3.23262L11.9682 4.57656H11.9682V3.23262ZM11.9682 1.88867V0.544729H11.9682L11.9682 1.88867ZM7.01771 28.6783L6.75691 29.9967C7.13974 30.0724 7.53426 30.1115 7.93642 30.1115V28.7675V27.4236C7.70862 27.4236 7.48882 27.4015 7.2785 27.3599L7.01771 28.6783ZM7.93642 28.7675V30.1115H9.28036V28.7675V27.4236H7.93642V28.7675ZM9.28036 28.7675L9.28036 30.1115C8.90924 30.1115 8.60839 29.8106 8.60839 29.4395H9.95233H11.2963C11.2963 28.3261 10.3937 27.4236 9.28036 27.4236L9.28036 28.7675ZM9.95233 29.4395H8.60839C8.60839 29.0684 8.90924 28.7675 9.28036 28.7675L9.28036 30.1115L9.28036 31.4554C10.3937 31.4554 11.2963 30.5529 11.2963 29.4395H9.95233ZM9.28036 30.1115V28.7675H7.93642V30.1115V31.4554H9.28036V30.1115ZM7.93642 30.1115V28.7675C7.62223 28.7675 7.31476 28.7364 7.01735 28.6776L6.75653 29.996L6.49571 31.3144C6.96237 31.4067 7.44452 31.4554 7.93642 31.4554V30.1115ZM6.75653 29.996L7.01812 28.6777C7.38004 28.7496 7.61823 29.1015 7.5462 29.467L6.22761 29.2072L4.90903 28.9474C4.69363 30.0404 5.40567 31.0981 6.49494 31.3142L6.75653 29.996ZM6.22761 29.2072L7.54601 29.468C7.47387 29.8327 7.12036 30.0686 6.75689 29.9967L7.01771 28.6783L7.27852 27.3599C6.18693 27.1439 5.12541 27.8536 4.90922 28.9464L6.22761 29.2072ZM14.6561 28.7675V30.1115C14.285 30.1115 13.9842 29.8106 13.9842 29.4395H15.3281H16.672C16.672 28.3261 15.7695 27.4236 14.6561 27.4236V28.7675ZM15.3281 29.4395H13.9842C13.9842 29.0684 14.285 28.7675 14.6561 28.7675V30.1115V31.4554C15.7695 31.4554 16.672 30.5529 16.672 29.4395H15.3281ZM14.6561 30.1115V28.7675H11.9682V30.1115V31.4554H14.6561V30.1115ZM11.9682 30.1115V28.7675C12.3394 28.7675 12.6402 29.0684 12.6402 29.4395H11.2963H9.95233C9.95233 30.5529 10.8549 31.4554 11.9682 31.4554V30.1115ZM11.2963 29.4395H12.6402C12.6402 29.8106 12.3394 30.1115 11.9682 30.1115V28.7675V27.4236C10.8549 27.4236 9.95233 28.3261 9.95233 29.4395H11.2963ZM11.9682 28.7675V30.1115H14.6561V28.7675V27.4236H11.9682V28.7675ZM20.0319 28.7675V30.1115C19.6608 30.1115 19.3599 29.8106 19.3599 29.4395H20.7039H22.0478C22.0478 28.3261 21.1453 27.4236 20.0319 27.4236V28.7675ZM20.7039 29.4395H19.3599C19.3599 29.0684 19.6608 28.7675 20.0319 28.7675V30.1115V31.4554C21.1453 31.4554 22.0478 30.5529 22.0478 29.4395H20.7039ZM20.0319 30.1115V28.7675H17.344V30.1115V31.4554H20.0319V30.1115ZM17.344 30.1115V28.7675C17.7151 28.7675 18.016 29.0684 18.016 29.4395H16.672H15.3281C15.3281 30.5529 16.2307 31.4554 17.344 31.4554V30.1115ZM16.672 29.4395H18.016C18.016 29.8106 17.7151 30.1115 17.344 30.1115V28.7675V27.4236C16.2307 27.4236 15.3281 28.3261 15.3281 29.4395H16.672ZM17.344 28.7675V30.1115H20.0319V28.7675V27.4236H17.344V28.7675ZM24.9824 28.6783L25.2433 29.9967C24.8798 30.0686 24.5263 29.8327 24.4541 29.468L25.7725 29.2072L27.0909 28.9464C26.8747 27.8536 25.8132 27.1439 24.7216 27.3599L24.9824 28.6783ZM25.7725 29.2072L24.454 29.467C24.3819 29.1015 24.6201 28.7496 24.982 28.6777L25.2436 29.996L25.5052 31.3142C26.5945 31.0981 27.3065 30.0404 27.0911 28.9474L25.7725 29.2072ZM25.2436 29.996L24.9828 28.6776C24.6854 28.7364 24.3779 28.7675 24.0637 28.7675V30.1115V31.4554C24.5556 31.4554 25.0378 31.4067 25.5044 31.3144L25.2436 29.996ZM24.0637 30.1115V28.7675H22.7198V30.1115V31.4554H24.0637V30.1115ZM22.7198 30.1115V28.7675C23.0909 28.7675 23.3918 29.0684 23.3918 29.4395H22.0478H20.7039C20.7039 30.5529 21.6064 31.4554 22.7198 31.4554V30.1115ZM22.0478 29.4395H23.3918C23.3918 29.8106 23.0909 30.1115 22.7198 30.1115V28.7675V27.4236C21.6064 27.4236 20.7039 28.3261 20.7039 29.4395H22.0478ZM22.7198 28.7675V30.1115H24.0637V28.7675V27.4236H22.7198V28.7675ZM24.0637 28.7675V30.1115C24.4659 30.1115 24.8604 30.0724 25.2432 29.9967L24.9824 28.6783L24.7217 27.3599C24.5113 27.4015 24.2915 27.4236 24.0637 27.4236V28.7675ZM3.09218 26.4918L3.83956 27.6087C3.5294 27.8163 3.11274 27.7312 2.90749 27.4248L4.02402 26.6768L5.14055 25.9288C4.52235 25.0061 3.27159 24.7547 2.3448 25.3748L3.09218 26.4918ZM4.02402 26.6768L2.90724 27.4245C3.34859 28.0837 3.91645 28.6516 4.57568 29.0929L5.32334 27.9761L6.071 26.8594C5.70373 26.6135 5.38667 26.2964 5.14079 25.9292L4.02402 26.6768ZM5.32334 27.9761L4.5753 29.0927C4.26896 28.8874 4.18389 28.4708 4.39143 28.1606L5.50839 28.908L6.62536 29.6553C7.24549 28.7286 6.99409 27.4778 6.07137 26.8596L5.32334 27.9761ZM5.50839 28.908L4.39162 28.1603C4.59745 27.8529 5.01358 27.7692 5.32291 27.9762L4.57525 29.093L3.82758 30.2098C4.75369 30.8298 6.00642 30.5799 6.62517 29.6556L5.50839 28.908ZM4.57525 29.093L5.32292 27.9763C4.80971 27.6327 4.36749 27.1904 4.0239 26.6772L2.90713 27.4249L1.79036 28.1726C2.32941 28.9777 3.02242 29.6707 3.82757 30.2098L4.57525 29.093ZM2.90713 27.4249L4.0239 26.6772C4.231 26.9866 4.14729 27.4027 3.83985 27.6085L3.09218 26.4918L2.34452 25.375C1.4203 25.9937 1.17034 27.2465 1.79035 28.1726L2.90713 27.4249ZM27.9761 26.6768L29.0927 27.4248C28.8874 27.7312 28.4708 27.8163 28.1606 27.6087L28.908 26.4918L29.6553 25.3748C28.7286 24.7547 27.4778 25.0061 26.8596 25.9288L27.9761 26.6768ZM28.908 26.4918L28.1603 27.6085C27.8529 27.4027 27.7692 26.9866 27.9762 26.6772L29.093 27.4249L30.2098 28.1726C30.8298 27.2465 30.5799 25.9937 29.6556 25.375L28.908 26.4918ZM29.093 27.4249L27.9763 26.6772C27.6327 27.1904 27.1904 27.6327 26.6772 27.9763L27.4249 29.093L28.1726 30.2098C28.9777 29.6707 29.6707 28.9777 30.2098 28.1726L29.093 27.4249ZM27.4249 29.093L26.6772 27.9762C26.9866 27.7692 27.4027 27.8529 27.6085 28.1603L26.4918 28.908L25.375 29.6556C25.9937 30.5799 27.2465 30.8298 28.1726 30.2098L27.4249 29.093ZM26.4918 28.908L27.6087 28.1606C27.8163 28.4708 27.7312 28.8874 27.4248 29.0927L26.6768 27.9761L25.9288 26.8596C25.0061 27.4778 24.7547 28.7286 25.3748 29.6553L26.4918 28.908ZM26.6768 27.9761L27.4245 29.0929C28.0837 28.6516 28.6516 28.0837 29.0929 27.4245L27.9761 26.6768L26.8594 25.9291C26.6135 26.2964 26.2964 26.6135 25.9292 26.8594L26.6768 27.9761ZM2.56064 22.0478V23.3918C2.18952 23.3918 1.88867 23.0909 1.88867 22.7198H3.23262H4.57656C4.57656 21.6064 3.674 20.7039 2.56064 20.7039V22.0478ZM3.23262 22.7198H1.88867V24.0637H3.23262H4.57656V22.7198H3.23262ZM3.23262 24.0637H1.88867C1.88867 24.4659 1.92774 24.8604 2.00346 25.2432L3.32186 24.9824L4.64026 24.7217C4.59865 24.5113 4.57656 24.2915 4.57656 24.0637H3.23262ZM3.32186 24.9824L2.00347 25.2433C1.93156 24.8798 2.16747 24.5263 2.53213 24.4541L2.79295 25.7725L3.05376 27.0909C4.14655 26.8747 4.8562 25.8132 4.64025 24.7216L3.32186 24.9824ZM2.79295 25.7725L2.53311 24.454C2.89866 24.3819 3.25059 24.6201 3.32241 24.982L2.00417 25.2436L0.685928 25.5052C0.902084 26.5945 1.95972 27.3065 3.05279 27.0911L2.79295 25.7725ZM2.00417 25.2436L3.32256 24.9828C3.26372 24.6854 3.23262 24.3779 3.23262 24.0637H1.88867H0.544729C0.544729 24.5556 0.593455 25.0378 0.685775 25.5044L2.00417 25.2436ZM1.88867 24.0637H3.23262V22.7198H1.88867H0.544729V24.0637H1.88867ZM1.88867 22.7198H3.23262C3.23262 23.0909 2.93176 23.3918 2.56064 23.3918V22.0478V20.7039C1.44728 20.7039 0.544729 21.6064 0.544729 22.7198H1.88867ZM29.996 25.2436L28.6777 24.982C28.7496 24.6201 29.1015 24.3819 29.467 24.454L29.2072 25.7725L28.9474 27.0911C30.0404 27.3065 31.0981 26.5945 31.3142 25.5052L29.996 25.2436ZM29.2072 25.7725L29.468 24.4541C29.8327 24.5263 30.0686 24.8798 29.9967 25.2433L28.6783 24.9824L27.3599 24.7216C27.1439 25.8132 27.8536 26.8747 28.9464 27.0909L29.2072 25.7725ZM28.6783 24.9824L28.417 26.3007L29.7347 26.5619L29.996 25.2436L30.2573 23.9253L28.9396 23.6641L28.6783 24.9824ZM29.4395 22.0478V23.3918C29.0684 23.3918 28.7675 23.0909 28.7675 22.7198L30.1115 22.7198H31.4554C31.4554 21.6064 30.5529 20.7039 29.4395 20.7039V22.0478ZM30.1115 22.7198H28.7675V24.0637H30.1115H31.4554V22.7198H30.1115ZM30.1115 24.0637H28.7675C28.7675 24.3779 28.7364 24.6854 28.6776 24.9828L29.996 25.2436L31.3144 25.5044C31.4067 25.0378 31.4554 24.5556 31.4554 24.0637H30.1115ZM29.996 25.2436L30.2585 23.9256L29.5997 23.7943L29.3371 25.1124L29.0746 26.4304L29.7334 26.5617L29.996 25.2436ZM29.3371 25.1124L29.5972 23.7938L28.9383 23.6639L28.6783 24.9824L28.4183 26.301L29.0771 26.4309L29.3371 25.1124ZM28.6783 24.9824L29.9967 25.2432C30.0724 24.8604 30.1115 24.4659 30.1115 24.0637H28.7675H27.4236C27.4236 24.2915 27.4015 24.5113 27.3599 24.7217L28.6783 24.9824ZM28.7675 24.0637H30.1115V22.7198H28.7675H27.4236V24.0637H28.7675ZM28.7675 22.7198L30.1115 22.7198C30.1115 23.0909 29.8106 23.3918 29.4395 23.3918V22.0478V20.7039C28.3261 20.7039 27.4236 21.6064 27.4236 22.7198H28.7675ZM16.0001 16.0001L16 17.344C17.9995 17.3441 19.7817 18.2701 20.9433 19.7218L21.9927 18.8822L23.0421 18.0426C21.3924 15.9807 18.8505 14.6562 16.0001 14.6561L16.0001 16.0001ZM21.9927 18.8822L20.9433 19.7218C20.997 19.789 20.9971 19.8811 20.9432 19.9483L21.9927 20.7879L23.0422 21.6274C23.8812 20.5785 23.8813 19.0916 23.0421 18.0426L21.9927 18.8822ZM21.9927 20.7879L20.9433 19.9483C19.7817 21.4002 17.9997 22.326 16 22.3261L16.0001 23.67L16.0001 25.0139C18.8506 25.0139 21.3924 23.6896 23.0421 21.6274L21.9927 20.7879ZM16.0001 23.67V22.3261C14.0005 22.3261 12.2185 21.4002 11.0569 19.9483L10.0075 20.7879L8.95804 21.6275C10.6078 23.6895 13.1495 25.0139 16.0001 25.0139V23.67ZM10.0075 20.7879L11.0569 19.9483C11.0031 19.8811 11.0031 19.789 11.0569 19.7218L10.0075 18.8822L8.95802 18.0426C8.11888 19.0915 8.11888 20.5785 8.95802 21.6274L10.0075 20.7879ZM10.0075 18.8822L11.0568 19.7219C12.2185 18.2701 14.0007 17.344 16.0001 17.344V16.0001V14.6561C13.1496 14.6561 10.6078 15.9808 8.95809 18.0425L10.0075 18.8822ZM16.0001 16.9135V15.5696C13.6447 15.5696 11.7336 17.4784 11.7333 19.8349L13.0773 19.835L14.4212 19.8352C14.4213 18.9643 15.1279 18.2575 16.0001 18.2575V16.9135ZM13.0773 19.835H11.7333C11.7333 22.1911 13.644 24.1018 16.0001 24.1018V22.7579V21.4139C15.1285 21.4139 14.4212 20.7066 14.4212 19.835H13.0773ZM16.0001 22.7579L16.0001 24.1018C18.3568 24.1017 20.2655 22.1903 20.2655 19.835H18.9216H17.5776C17.5776 20.7073 16.8709 21.4139 16 21.4139L16.0001 22.7579ZM18.9216 19.835L20.2655 19.8349C20.2653 17.4792 18.3561 15.5697 16.0001 15.5696L16.0001 16.9135L16 18.2575C16.8714 18.2575 17.5775 18.9636 17.5776 19.8352L18.9216 19.835ZM16.0001 17.9031L16 19.2471C16.3245 19.2471 16.588 19.5104 16.5881 19.8353L17.932 19.835L19.2759 19.8348C19.2756 18.0261 17.8092 16.5593 16.0002 16.5592L16.0001 17.9031ZM17.932 19.835H16.5881C16.5881 20.1596 16.3248 20.423 16 20.423L16.0001 21.767L16.0002 23.1109C17.8091 23.1108 19.2759 21.6443 19.2759 19.835H17.932ZM16.0001 21.767V20.423C15.6754 20.423 15.4121 20.1598 15.4121 19.835H14.0682H12.7242C12.7242 21.6442 14.1909 23.1109 16.0001 23.1109V21.767ZM14.0682 19.835L15.4121 19.8353C15.4122 19.5103 15.6757 19.2471 16.0001 19.2471V17.9031V16.5592C14.1908 16.5592 12.7245 18.0262 12.7242 19.8348L14.0682 19.835ZM2.56064 16.672V18.016C2.18952 18.016 1.88867 17.7151 1.88867 17.344H3.23262H4.57656C4.57656 16.2307 3.674 15.3281 2.56064 15.3281V16.672ZM3.23262 17.344H1.88867V20.0319H3.23262H4.57656V17.344H3.23262ZM3.23262 20.0319H1.88867C1.88867 19.6608 2.18952 19.3599 2.56064 19.3599V20.7039V22.0478C3.674 22.0478 4.57656 21.1453 4.57656 20.0319H3.23262ZM2.56064 20.7039V19.3599C2.93176 19.3599 3.23261 19.6608 3.23262 20.0319H1.88867H0.544729C0.544729 21.1453 1.44728 22.0478 2.56064 22.0478V20.7039ZM1.88867 20.0319H3.23262V17.344H1.88867H0.544729V20.0319H1.88867ZM1.88867 17.344H3.23262C3.23262 17.7151 2.93176 18.016 2.56064 18.016V16.672V15.3281C1.44728 15.3281 0.544729 16.2307 0.544729 17.344H1.88867ZM29.4395 16.672V18.016C29.0684 18.016 28.7675 17.7151 28.7675 17.344H30.1115H31.4554C31.4554 16.2307 30.5529 15.3281 29.4395 15.3281V16.672ZM30.1115 17.344H28.7675V20.0319H30.1115H31.4554V17.344H30.1115ZM30.1115 20.0319H28.7675C28.7675 19.6608 29.0684 19.3599 29.4395 19.3599V20.7039V22.0478C30.5529 22.0478 31.4554 21.1453 31.4554 20.0319H30.1115ZM29.4395 20.7039V19.3599C29.8106 19.3599 30.1115 19.6608 30.1115 20.0319H28.7675H27.4236C27.4236 21.1453 28.3261 22.0478 29.4395 22.0478V20.7039ZM28.7675 20.0319H30.1115V17.344H28.7675H27.4236V20.0319H28.7675ZM28.7675 17.344H30.1115C30.1115 17.7151 29.8106 18.016 29.4395 18.016V16.672V15.3281C28.3261 15.3281 27.4236 16.2307 27.4236 17.344H28.7675ZM2.56064 11.2963V12.6402C2.18952 12.6402 1.88867 12.3394 1.88867 11.9682H3.23262H4.57656C4.57656 10.8549 3.674 9.95233 2.56064 9.95233V11.2963ZM3.23262 11.9682H1.88867V14.6561H3.23262H4.57656V11.9682H3.23262ZM3.23262 14.6561H1.88867C1.88867 14.285 2.18952 13.9842 2.56064 13.9842V15.3281V16.672C3.674 16.672 4.57656 15.7695 4.57656 14.6561H3.23262ZM2.56064 15.3281V13.9842C2.93176 13.9842 3.23262 14.285 3.23262 14.6561H1.88867H0.544729C0.544729 15.7695 1.44728 16.672 2.56064 16.672V15.3281ZM1.88867 14.6561H3.23262V11.9682H1.88867H0.544729V14.6561H1.88867ZM1.88867 11.9682H3.23262C3.23262 12.3394 2.93176 12.6402 2.56064 12.6402V11.2963V9.95233C1.44728 9.95233 0.544729 10.8549 0.544729 11.9682H1.88867ZM29.4395 11.2963V12.6402C29.0684 12.6402 28.7675 12.3394 28.7675 11.9682H30.1115L31.4554 11.9682C31.4554 10.8549 30.5529 9.95233 29.4395 9.95233V11.2963ZM30.1115 11.9682H28.7675V14.6561H30.1115H31.4554V11.9682H30.1115ZM30.1115 14.6561H28.7675C28.7675 14.285 29.0684 13.9842 29.4395 13.9842V15.3281V16.672C30.5529 16.672 31.4554 15.7695 31.4554 14.6561H30.1115ZM29.4395 15.3281V13.9842C29.8106 13.9842 30.1115 14.285 30.1115 14.6561H28.7675H27.4236C27.4236 15.7695 28.3261 16.672 29.4395 16.672V15.3281ZM28.7675 14.6561H30.1115V11.9682H28.7675H27.4236V14.6561H28.7675ZM28.7675 11.9682H30.1115C30.1115 12.3394 29.8106 12.6402 29.4395 12.6402V11.2963V9.95233C28.3261 9.95233 27.4236 10.8549 27.4236 11.9682L28.7675 11.9682ZM16.0001 12.1126V13.4566C16.3296 13.4566 16.6573 13.5225 16.9635 13.6505L17.4818 12.4105L18.0002 11.1706C17.3678 10.9062 16.6879 10.7687 16.0001 10.7687V12.1126ZM17.4818 12.4105L16.9633 13.6504C17.2687 13.7781 17.5464 13.9657 17.7785 14.2009L18.7352 13.2571L19.6919 12.3132C19.2094 11.8241 18.6337 11.4355 18.0003 11.1706L17.4818 12.4105ZM18.7352 13.2571L17.7808 12.3108L16.8687 13.2309L17.8231 14.1771L18.7774 15.1233L19.6896 14.2033L18.7352 13.2571ZM17.8231 14.1771L18.7798 13.2332C18.4173 12.8658 17.9848 12.5728 17.507 12.3729L16.9883 13.6127L16.4697 14.8526C16.6175 14.9144 16.7526 15.0056 16.8663 15.1209L17.8231 14.1771ZM16.9883 13.6127L17.5068 12.3728C17.0294 12.1732 16.5169 12.0706 16.0001 12.0706V13.4146V14.7585C16.1615 14.7585 16.3215 14.7906 16.4699 14.8527L16.9883 13.6127ZM16.0001 13.4146L15.9997 12.0706C15.4829 12.0707 14.9714 12.1735 14.4947 12.3728L15.0131 13.6127L15.5315 14.8527C15.6802 14.7905 15.8395 14.7585 16.0004 14.7585L16.0001 13.4146ZM15.0131 13.6127L14.4945 12.3729C14.0185 12.572 13.5844 12.8641 13.2202 13.2334L14.1771 14.1771L15.134 15.1207C15.2462 15.007 15.3818 14.9153 15.5318 14.8526L15.0131 13.6127ZM14.1771 14.1771L15.1322 13.2316L14.2213 12.3115L13.2663 13.2571L12.3112 14.2026L13.222 15.1226L14.1771 14.1771ZM13.2663 13.2571L14.223 14.2009C14.4559 13.9648 14.7327 13.7776 15.0369 13.6504L14.5183 12.4105L13.9998 11.1707C13.3653 11.436 12.7911 11.8251 12.3096 12.3132L13.2663 13.2571ZM14.5183 12.4105L15.0368 13.6504C15.3428 13.5225 15.6704 13.4566 16.0002 13.4566L16.0001 12.1126L16 10.7687C15.3124 10.7687 14.6325 10.9061 13.9999 11.1706L14.5183 12.4105ZM16.0001 9.50741L16 10.8514C16.6696 10.8514 17.3333 10.9848 17.9515 11.2434L18.4701 10.0035L18.9887 8.76368C18.0425 8.36787 17.0263 8.16351 16.0001 8.16347L16.0001 9.50741ZM18.4701 10.0035L17.9514 11.2433C18.5689 11.5017 19.1293 11.8807 19.5999 12.358L20.5569 11.4144L21.5139 10.4708C20.7938 9.74054 19.9357 9.15987 18.9888 8.76372L18.4701 10.0035ZM20.5569 11.4144L19.6011 10.4695L18.6903 11.3909L19.646 12.3357L20.6018 13.2806L21.5126 12.3592L20.5569 11.4144ZM19.646 12.3357L20.603 11.3921C20.0024 10.783 19.285 10.2968 18.494 9.96588L17.9753 11.2057L17.4567 12.4455C17.9172 12.6382 18.3371 12.9224 18.6891 13.2794L19.646 12.3357ZM17.9753 11.2057L18.4938 9.96581C17.7039 9.63554 16.8562 9.46542 16.0001 9.46541L16.0001 10.8094L16.0001 12.1533C16.5002 12.1533 16.9954 12.2527 17.4568 12.4456L17.9753 11.2057ZM16.0001 10.8094L16.0001 9.46541C15.1439 9.46541 14.2962 9.63555 13.5064 9.9658L14.0248 11.2057L14.5433 12.4456C15.0047 12.2527 15.5 12.1533 16.0001 12.1533V10.8094ZM14.0248 11.2057L13.5062 9.96588C12.7152 10.2968 11.9978 10.783 11.3972 11.3921L12.3541 12.3357L13.311 13.2794C13.663 12.9224 14.0829 12.6382 14.5435 12.4455L14.0248 11.2057ZM12.3541 12.3357L13.3098 11.3909L12.399 10.4695L11.4433 11.4144L10.4875 12.3592L11.3984 13.2806L12.3541 12.3357ZM11.4433 11.4144L12.4003 12.358C12.8708 11.8808 13.4313 11.5017 14.0488 11.2433L13.5301 10.0035L13.0113 8.76374C12.0646 9.15988 11.2063 9.74053 10.4863 10.4708L11.4433 11.4144ZM13.5301 10.0035L14.0487 11.2433C14.6668 10.9848 15.3305 10.8514 16.0002 10.8514L16.0001 9.50741L16 8.16347C14.9739 8.16356 13.9576 8.36782 13.0114 8.7637L13.5301 10.0035ZM16.0001 6.90352L16.0001 8.24747C17.0091 8.24747 18.0087 8.4482 18.9397 8.83765L19.4584 7.59781L19.977 6.35796C18.7176 5.83115 17.3654 5.55958 16.0001 5.55958L16.0001 6.90352ZM19.4584 7.59781L18.9396 8.83759C19.87 9.22689 20.7142 9.79794 21.4229 10.5167L22.3799 9.57303L23.3368 8.62942C22.3787 7.65773 21.2367 6.88508 19.9771 6.35802L19.4584 7.59781ZM22.3799 9.57303L21.4248 8.6275L20.514 9.54753L21.469 10.4931L22.4241 11.4386L23.3349 10.5186L22.3799 9.57303ZM21.469 10.4931L22.426 9.54944C21.5869 8.69849 20.5869 8.02183 19.4836 7.56021L18.9649 8.8L18.4461 10.0398C19.2201 10.3636 19.9224 10.8387 20.5121 11.4367L21.469 10.4931ZM18.9649 8.8L19.4836 7.56019C18.3799 7.09845 17.1953 6.86153 16.0001 6.86152L16.0001 8.20547L16.0001 9.54941C16.8403 9.54941 17.6722 9.71599 18.4462 10.0398L18.9649 8.8ZM16.0001 8.20547L16.0001 6.86152C14.8048 6.86152 13.6203 7.09845 12.5166 7.56019L13.0353 8.8L13.554 10.0398C14.328 9.71599 15.1599 9.54941 16.0001 9.54941V8.20547ZM13.0353 8.8L12.5165 7.56021C11.4133 8.02183 10.4133 8.69849 9.57417 9.54943L10.5311 10.4931L11.4881 11.4367C12.0778 10.8387 12.78 10.3636 13.554 10.0398L13.0353 8.8ZM10.5311 10.4931L11.4862 9.54753L10.5754 8.6275L9.62028 9.57303L8.66522 10.5186L9.57605 11.4386L10.5311 10.4931ZM9.62028 9.57303L10.5772 10.5167C11.286 9.79785 12.1301 9.22689 13.0605 8.83761L12.5418 7.59781L12.0231 6.358C10.7633 6.88509 9.62151 7.65769 8.66332 8.62942L9.62028 9.57303ZM12.5418 7.59781L13.0605 8.83763C13.9915 8.44814 14.9909 8.24747 16.0001 8.24747V6.90352L16.0001 5.55958C14.6347 5.55958 13.2826 5.83107 12.0231 6.35798L12.5418 7.59781ZM2.79295 6.22761L2.53213 7.54601C2.16747 7.47387 1.93156 7.12036 2.00347 6.75689L3.32186 7.01771L4.64025 7.27852C4.8562 6.18693 4.14655 5.12541 3.05376 4.90922L2.79295 6.22761ZM3.32186 7.01771L2.00346 6.75691C1.92774 7.13974 1.88867 7.53426 1.88867 7.93642H3.23262H4.57656C4.57656 7.70862 4.59865 7.48882 4.64026 7.2785L3.32186 7.01771ZM3.23262 7.93642H1.88867V9.28036H3.23262H4.57656V7.93642H3.23262ZM3.23262 9.28036L1.88867 9.28036C1.88867 8.90924 2.18952 8.60839 2.56064 8.60839V9.95233V11.2963C3.674 11.2963 4.57656 10.3937 4.57656 9.28036L3.23262 9.28036ZM2.56064 9.95233V8.60839C2.93176 8.60839 3.23261 8.90924 3.23262 9.28036L1.88867 9.28036L0.544729 9.28036C0.54473 10.3937 1.44728 11.2963 2.56064 11.2963V9.95233ZM1.88867 9.28036H3.23262V7.93642H1.88867H0.544729V9.28036H1.88867ZM1.88867 7.93642H3.23262C3.23262 7.62223 3.26372 7.31476 3.32256 7.01735L2.00417 6.75653L0.685775 6.49571C0.593455 6.96237 0.544729 7.44452 0.544729 7.93642H1.88867ZM2.00417 6.75653L3.32241 7.01812C3.25059 7.38004 2.89866 7.61823 2.53311 7.5462L2.79295 6.22761L3.05279 4.90903C1.95972 4.69363 0.902083 5.40567 0.685928 6.49494L2.00417 6.75653ZM29.996 6.75653L28.6776 7.01735C28.7364 7.31476 28.7675 7.62223 28.7675 7.93642H30.1115H31.4554C31.4554 7.44452 31.4067 6.96237 31.3144 6.49571L29.996 6.75653ZM30.1115 7.93642H28.7675V9.28036H30.1115H31.4554V7.93642H30.1115ZM30.1115 9.28036H28.7675C28.7675 8.90924 29.0684 8.60839 29.4395 8.60839V9.95233V11.2963C30.5529 11.2963 31.4554 10.3937 31.4554 9.28036H30.1115ZM29.4395 9.95233V8.60839C29.8106 8.60839 30.1115 8.90924 30.1115 9.28036H28.7675H27.4236C27.4236 10.3937 28.3261 11.2963 29.4395 11.2963V9.95233ZM28.7675 9.28036H30.1115V7.93642H28.7675H27.4236V9.28036H28.7675ZM28.7675 7.93642H30.1115C30.1115 7.53426 30.0724 7.13975 29.9967 6.75691L28.6783 7.01771L27.3599 7.2785C27.4015 7.48882 27.4236 7.70862 27.4236 7.93642H28.7675ZM28.6783 7.01771L28.9383 8.33625L29.5972 8.20632L29.3371 6.88777L29.0771 5.56923L28.4183 5.69916L28.6783 7.01771ZM29.3371 6.88777L29.5997 8.20582L30.2585 8.07457L29.996 6.75653L29.7334 5.43848L29.0746 5.56973L29.3371 6.88777ZM29.2072 6.22761L29.467 7.5462C29.1015 7.61824 28.7496 7.38004 28.6777 7.01812L29.996 6.75653L31.3142 6.49494C31.0981 5.40567 30.0404 4.69363 28.9474 4.90903L29.2072 6.22761ZM29.996 6.75653L29.7347 5.43823L28.417 5.69941L28.6783 7.01771L28.9396 8.336L30.2573 8.07483L29.996 6.75653ZM28.6783 7.01771L29.9967 6.75689C30.0686 7.12036 29.8327 7.47387 29.468 7.54601L29.2072 6.22761L28.9464 4.90922C27.8536 5.12541 27.1439 6.18693 27.3599 7.27852L28.6783 7.01771ZM4.02402 5.32334L2.90749 4.5753C3.11274 4.26896 3.5294 4.18389 3.83956 4.39143L3.09218 5.50839L2.3448 6.62536C3.27159 7.24549 4.52235 6.99409 5.14054 6.07137L4.02402 5.32334ZM3.09218 5.50839L3.83985 4.39162C4.14729 4.59745 4.231 5.01358 4.0239 5.32291L2.90713 4.57525L1.79035 3.82758C1.17034 4.75369 1.4203 6.00642 2.34452 6.62517L3.09218 5.50839ZM2.90713 4.57525L2.15922 5.69186L3.27611 6.43995L4.02402 5.32334L4.77193 4.20673L3.65504 3.45864L2.90713 4.57525ZM26.4918 3.09218L27.6085 3.83985C27.4027 4.14729 26.9866 4.231 26.6772 4.0239L27.4249 2.90713L28.1726 1.79035C27.2465 1.17034 25.9937 1.4203 25.375 2.34452L26.4918 3.09218ZM27.4249 2.90713L26.6772 4.0239C27.1904 4.36749 27.6327 4.80971 27.9763 5.32292L29.093 4.57525L30.2098 3.82757C29.6707 3.02242 28.9777 2.32941 28.1726 1.79036L27.4249 2.90713ZM29.093 4.57525L27.9762 5.32291C27.7692 5.01358 27.8529 4.59745 28.1603 4.39162L28.908 5.50839L29.6556 6.62517C30.5799 6.00642 30.8298 4.75369 30.2098 3.82758L29.093 4.57525ZM28.908 5.50839L28.1606 4.39143C28.4708 4.1839 28.8874 4.26895 29.0927 4.57531L27.9761 5.32334L26.8596 6.07137C27.4778 6.99409 28.7286 7.24549 29.6553 6.62536L28.908 5.50839ZM27.9761 5.32334L29.0929 4.57568C28.6516 3.91645 28.0837 3.34859 27.4245 2.90724L26.6768 4.02402L25.9291 5.14079C26.2964 5.38667 26.6135 5.70373 26.8594 6.071L27.9761 5.32334ZM26.6768 4.02402L27.4248 2.90749C27.7312 3.11274 27.8163 3.5294 27.6087 3.83956L26.4918 3.09218L25.3748 2.3448C24.7547 3.27159 25.0061 4.52235 25.9288 5.14054L26.6768 4.02402ZM4.57525 2.90713L5.32291 4.0239C5.01358 4.231 4.59745 4.14729 4.39162 3.83985L5.50839 3.09218L6.62517 2.34452C6.00642 1.4203 4.75369 1.17034 3.82758 1.79035L4.57525 2.90713ZM5.50839 3.09218L4.39143 3.83956C4.1839 3.5294 4.26895 3.11274 4.57531 2.90749L5.32334 4.02402L6.07137 5.14055C6.99409 4.52235 7.24549 3.27159 6.62536 2.3448L5.50839 3.09218ZM5.32334 4.02402L4.57568 2.90724C3.91645 3.34859 3.34859 3.91645 2.90724 4.57568L4.02402 5.32334L5.14079 6.071C5.38667 5.70373 5.70373 5.38667 6.071 5.14079L5.32334 4.02402ZM4.02402 5.32334L4.77253 4.20714L4.21474 3.83309L3.46623 4.94929L2.71772 6.0655L3.27551 6.43954L4.02402 5.32334ZM3.46623 4.94929L4.21353 3.83228L3.65443 3.45823L2.90713 4.57525L2.15983 5.69226L2.71893 6.06631L3.46623 4.94929ZM2.90713 4.57525L4.0239 5.32292C4.36749 4.80971 4.80971 4.36749 5.32292 4.0239L4.57525 2.90713L3.82757 1.79036C3.02242 2.32941 2.32941 3.02242 1.79036 3.82757L2.90713 4.57525ZM7.01771 3.32186L6.75689 2.00347C7.12036 1.93156 7.47387 2.16747 7.54601 2.53213L6.22761 2.79295L4.90922 3.05376C5.12541 4.14655 6.18693 4.8562 7.27852 4.64025L7.01771 3.32186ZM6.22761 2.79295L7.5462 2.53311C7.61824 2.89866 7.38004 3.25059 7.01812 3.32241L6.75653 2.00417L6.49494 0.685928C5.40567 0.902084 4.69363 1.95972 4.90903 3.05279L6.22761 2.79295ZM6.75653 2.00417L5.43823 2.26546L5.69941 3.58316L7.01771 3.32186L8.336 3.06057L8.07483 1.74287L6.75653 2.00417ZM24.0637 1.88867V3.23262C24.3779 3.23262 24.6854 3.26372 24.9828 3.32256L25.2436 2.00417L25.5044 0.685775C25.0378 0.593455 24.5556 0.544729 24.0637 0.544729V1.88867ZM25.2436 2.00417L24.982 3.32241C24.6201 3.25059 24.3819 2.89866 24.454 2.53311L25.7725 2.79295L27.0911 3.05279C27.3065 1.95972 26.5945 0.902083 25.5052 0.685928L25.2436 2.00417ZM25.7725 2.79295L24.4541 2.53213C24.5263 2.16747 24.8798 1.93156 25.2433 2.00347L24.9824 3.32186L24.7216 4.64025C25.8132 4.8562 26.8747 4.14655 27.0909 3.05376L25.7725 2.79295ZM24.9824 3.32186L25.2432 2.00346C24.8604 1.92774 24.4659 1.88867 24.0637 1.88867V3.23262V4.57656C24.2915 4.57656 24.5113 4.59865 24.7217 4.64026L24.9824 3.32186ZM24.0637 3.23262V1.88867H22.7198V3.23262V4.57656H24.0637V3.23262ZM22.7198 3.23262L22.7198 1.88867C23.0909 1.88867 23.3918 2.18952 23.3918 2.56064H22.0478H20.7039C20.7039 3.674 21.6064 4.57656 22.7198 4.57656V3.23262ZM22.0478 2.56064H23.3918C23.3918 2.93176 23.0909 3.23261 22.7198 3.23262L22.7198 1.88867V0.544729C21.6064 0.54473 20.7039 1.44728 20.7039 2.56064H22.0478ZM22.7198 1.88867V3.23262H24.0637V1.88867V0.544729H22.7198V1.88867ZM9.28036 1.88867V3.23262C8.90924 3.23262 8.60839 2.93176 8.60839 2.56064H9.95233H11.2963C11.2963 1.44728 10.3937 0.544729 9.28036 0.544729V1.88867ZM9.95233 2.56064H8.60839C8.60839 2.18952 8.90924 1.88867 9.28036 1.88867V3.23262V4.57656C10.3937 4.57656 11.2963 3.674 11.2963 2.56064H9.95233ZM9.28036 3.23262V1.88867H7.93642V3.23262V4.57656H9.28036V3.23262ZM7.93642 3.23262V1.88867C7.53426 1.88867 7.13975 1.92774 6.75691 2.00346L7.01771 3.32186L7.2785 4.64026C7.48882 4.59865 7.70862 4.57656 7.93642 4.57656V3.23262ZM7.01771 3.32186L8.33625 3.06183L8.20632 2.40298L6.88777 2.66301L5.56923 2.92305L5.69916 3.58189L7.01771 3.32186ZM6.88777 2.66301L8.20582 2.40046L8.07457 1.74161L6.75653 2.00417L5.43848 2.26673L5.56973 2.92557L6.88777 2.66301ZM6.75653 2.00417L7.01735 3.32256C7.31476 3.26372 7.62223 3.23262 7.93642 3.23262V1.88867V0.544729C7.44452 0.544729 6.96237 0.593455 6.49571 0.685775L6.75653 2.00417ZM7.93642 1.88867V3.23262H9.28036V1.88867V0.544729H7.93642V1.88867ZM14.6561 1.88867V3.23262C14.285 3.23262 13.9842 2.93176 13.9842 2.56064H15.3281H16.672C16.672 1.44728 15.7695 0.544729 14.6561 0.544729V1.88867ZM15.3281 2.56064H13.9842C13.9842 2.18952 14.285 1.88867 14.6561 1.88867V3.23262V4.57656C15.7695 4.57656 16.672 3.674 16.672 2.56064H15.3281ZM14.6561 3.23262V1.88867H11.9682V3.23262V4.57656H14.6561V3.23262ZM11.9682 3.23262V1.88867C12.3394 1.88867 12.6402 2.18952 12.6402 2.56064H11.2963H9.95233C9.95233 3.674 10.8549 4.57656 11.9682 4.57656L11.9682 3.23262ZM11.2963 2.56064H12.6402C12.6402 2.93176 12.3394 3.23261 11.9682 3.23262V1.88867L11.9682 0.544729C10.8549 0.544729 9.95233 1.44728 9.95233 2.56064H11.2963ZM11.9682 1.88867V3.23262H14.6561V1.88867V0.544729H11.9682V1.88867ZM20.0319 1.88867V3.23262C19.6608 3.23262 19.3599 2.93176 19.3599 2.56064H20.7039H22.0478C22.0478 1.44728 21.1453 0.544729 20.0319 0.544729V1.88867ZM20.7039 2.56064H19.3599C19.3599 2.18952 19.6608 1.88867 20.0319 1.88867V3.23262V4.57656C21.1453 4.57656 22.0478 3.674 22.0478 2.56064H20.7039ZM20.0319 3.23262V1.88867H17.344V3.23262V4.57656H20.0319V3.23262ZM17.344 3.23262V1.88867C17.7151 1.88867 18.016 2.18952 18.016 2.56064H16.672H15.3281C15.3281 3.674 16.2307 4.57656 17.344 4.57656V3.23262ZM16.672 2.56064H18.016C18.016 2.93176 17.7151 3.23262 17.344 3.23262V1.88867V0.544729C16.2307 0.544729 15.3281 1.44728 15.3281 2.56064H16.672ZM17.344 1.88867V3.23262H20.0319V1.88867V0.544729H17.344V1.88867Z" fill="black" fill-opacity="0.3" mask="url(#path-1-outside-1_3507_3014)"/>
</svg>
