<svg width="16" height="16" viewBox="0 0 16 16" fill="none" xmlns="http://www.w3.org/2000/svg">
<circle cx="8" cy="8" r="7.5" fill="#383838" stroke="black"/>
<mask id="path-2-outside-1_2375_17836" maskUnits="userSpaceOnUse" x="6.08398" y="2.62549" width="4" height="10" fill="black">
<rect fill="white" x="6.08398" y="2.62549" width="4" height="10"/>
<path d="M8.84521 3.62549V11.6255H7.15381V3.62549H8.84521Z"/>
</mask>
<path d="M8.84521 3.62549V11.6255H7.15381V3.62549H8.84521Z" fill="#89F687"/>
<path d="M8.84521 3.62549H9.84521V2.62549H8.84521V3.62549ZM8.84521 11.6255V12.6255H9.84521V11.6255H8.84521ZM7.15381 11.6255H6.15381V12.6255H7.15381V11.6255ZM7.15381 3.62549V2.62549H6.15381V3.62549H7.15381ZM8.84521 3.62549H7.84521V11.6255H8.84521H9.84521V3.62549H8.84521ZM8.84521 11.6255V10.6255H7.15381V11.6255V12.6255H8.84521V11.6255ZM7.15381 11.6255H8.15381V3.62549H7.15381H6.15381V11.6255H7.15381ZM7.15381 3.62549V4.62549H8.84521V3.62549V2.62549H7.15381V3.62549Z" fill="black" fill-opacity="0.3" mask="url(#path-2-outside-1_2375_17836)"/>
</svg>
