<svg width="33" height="33" viewBox="0 0 33 33" fill="none" xmlns="http://www.w3.org/2000/svg">
<mask id="path-1-outside-1_3507_9079" maskUnits="userSpaceOnUse" x="6.65234" y="4.31348" width="19" height="23" fill="black">
<rect fill="white" x="6.65234" y="4.31348" width="19" height="23"/>
<path d="M22.6133 15.1826C23.0189 15.1828 23.3477 15.5113 23.3477 15.917V20.3252C23.3477 20.7309 23.0189 21.0603 22.6133 21.0605H21.1738V25.04C21.5757 25.0446 21.9004 25.3724 21.9004 25.7754V26.0967H18.9775V25.7754C18.9775 25.3723 19.303 25.0444 19.7051 25.04V23.8926H12.3623V25.041C12.7602 25.0501 13.0801 25.3753 13.0801 25.7754V26.0967H10.1582V25.7754C10.1582 25.3949 10.4469 25.0816 10.8174 25.0439L10.8926 25.04V21.0605H9.38672C8.9811 21.0603 8.65234 20.7309 8.65234 20.3252V15.917C8.65234 15.5113 8.9811 15.1828 9.38672 15.1826H22.6133ZM12.3623 22.4229H19.7051V21.0605H12.3623V22.4229ZM15.999 11.2656C16.5802 11.2656 17.1562 11.3813 17.6924 11.6055C18.2286 11.8297 18.7158 12.1585 19.124 12.5723L18.083 13.624C17.811 13.3482 17.4863 13.1291 17.1289 12.9795C16.7714 12.83 16.3875 12.752 16 12.752C15.6124 12.752 15.2286 12.8299 14.8711 12.9795C14.5136 13.1291 14.1891 13.3481 13.917 13.624L12.876 12.5723C13.2842 12.1585 13.7705 11.8297 14.3066 11.6055C14.8427 11.3814 15.418 11.2657 15.999 11.2656ZM16 8.28809C16.9687 8.28813 17.9276 8.48164 18.8213 8.85547C19.715 9.22939 20.5259 9.77697 21.2061 10.4668L20.1641 11.5195C19.6199 10.9677 18.9718 10.5286 18.2568 10.2295C17.5418 9.9304 16.7741 9.77637 15.999 9.77637C15.2242 9.7764 14.457 9.9305 13.7422 10.2295C13.0272 10.5286 12.3782 10.9677 11.834 11.5195L10.793 10.4678C11.4732 9.77779 12.2839 9.22846 13.1777 8.85449C14.0715 8.48062 15.0312 8.28809 16 8.28809ZM15.999 5.31348C17.3554 5.31348 18.6989 5.58301 19.9502 6.10645C21.2015 6.62998 22.3367 7.3974 23.2891 8.36328L22.248 9.41504C21.4317 8.58708 20.4584 7.92923 19.3857 7.48047C18.3132 7.03181 17.1617 6.80079 15.999 6.80078C14.8363 6.80082 13.6849 7.03173 12.6123 7.48047C11.5397 7.9292 10.5673 8.58715 9.75098 9.41504L8.70996 8.36328C9.66218 7.39759 10.7968 6.63092 12.0479 6.10742C13.2992 5.58389 14.6425 5.31351 15.999 5.31348Z"/>
</mask>
<path d="M22.6133 15.1826C23.0189 15.1828 23.3477 15.5113 23.3477 15.917V20.3252C23.3477 20.7309 23.0189 21.0603 22.6133 21.0605H21.1738V25.04C21.5757 25.0446 21.9004 25.3724 21.9004 25.7754V26.0967H18.9775V25.7754C18.9775 25.3723 19.303 25.0444 19.7051 25.04V23.8926H12.3623V25.041C12.7602 25.0501 13.0801 25.3753 13.0801 25.7754V26.0967H10.1582V25.7754C10.1582 25.3949 10.4469 25.0816 10.8174 25.0439L10.8926 25.04V21.0605H9.38672C8.9811 21.0603 8.65234 20.7309 8.65234 20.3252V15.917C8.65234 15.5113 8.9811 15.1828 9.38672 15.1826H22.6133ZM12.3623 22.4229H19.7051V21.0605H12.3623V22.4229ZM15.999 11.2656C16.5802 11.2656 17.1562 11.3813 17.6924 11.6055C18.2286 11.8297 18.7158 12.1585 19.124 12.5723L18.083 13.624C17.811 13.3482 17.4863 13.1291 17.1289 12.9795C16.7714 12.83 16.3875 12.752 16 12.752C15.6124 12.752 15.2286 12.8299 14.8711 12.9795C14.5136 13.1291 14.1891 13.3481 13.917 13.624L12.876 12.5723C13.2842 12.1585 13.7705 11.8297 14.3066 11.6055C14.8427 11.3814 15.418 11.2657 15.999 11.2656ZM16 8.28809C16.9687 8.28813 17.9276 8.48164 18.8213 8.85547C19.715 9.22939 20.5259 9.77697 21.2061 10.4668L20.1641 11.5195C19.6199 10.9677 18.9718 10.5286 18.2568 10.2295C17.5418 9.9304 16.7741 9.77637 15.999 9.77637C15.2242 9.7764 14.457 9.9305 13.7422 10.2295C13.0272 10.5286 12.3782 10.9677 11.834 11.5195L10.793 10.4678C11.4732 9.77779 12.2839 9.22846 13.1777 8.85449C14.0715 8.48062 15.0312 8.28809 16 8.28809ZM15.999 5.31348C17.3554 5.31348 18.6989 5.58301 19.9502 6.10645C21.2015 6.62998 22.3367 7.3974 23.2891 8.36328L22.248 9.41504C21.4317 8.58708 20.4584 7.92923 19.3857 7.48047C18.3132 7.03181 17.1617 6.80079 15.999 6.80078C14.8363 6.80082 13.6849 7.03173 12.6123 7.48047C11.5397 7.9292 10.5673 8.58715 9.75098 9.41504L8.70996 8.36328C9.66218 7.39759 10.7968 6.63092 12.0479 6.10742C13.2992 5.58389 14.6425 5.31351 15.999 5.31348Z" fill="white"/>
<path d="M22.6133 15.1826L22.6138 14.1826H22.6133V15.1826ZM22.6133 21.0605L22.6133 22.0605L22.6138 22.0605L22.6133 21.0605ZM21.1738 21.0605V20.0605H20.1738V21.0605H21.1738ZM21.1738 25.04H20.1738V26.0287L21.1625 26.04L21.1738 25.04ZM21.9004 26.0967V27.0967H22.9004V26.0967H21.9004ZM18.9775 26.0967H17.9775V27.0967H18.9775V26.0967ZM19.7051 25.04L19.7158 26.04L20.7051 26.0293V25.04H19.7051ZM19.7051 23.8926H20.7051V22.8926H19.7051V23.8926ZM12.3623 23.8926V22.8926H11.3623V23.8926H12.3623ZM12.3623 25.041H11.3623V26.0184L12.3394 26.0408L12.3623 25.041ZM13.0801 26.0967V27.0967H14.0801V26.0967H13.0801ZM10.1582 26.0967H9.1582V27.0967H10.1582V26.0967ZM10.8174 25.0439L10.7655 24.0453L10.7409 24.0466L10.7164 24.0491L10.8174 25.0439ZM10.8926 25.04L10.9445 26.0387L11.8926 25.9894V25.04H10.8926ZM10.8926 21.0605H11.8926V20.0605H10.8926V21.0605ZM9.38672 21.0605L9.3862 22.0605H9.38672V21.0605ZM8.65234 15.917H7.65234H8.65234ZM9.38672 15.1826L9.38672 14.1826L9.3862 14.1826L9.38672 15.1826ZM12.3623 22.4229H11.3623V23.4229H12.3623V22.4229ZM19.7051 22.4229V23.4229H20.7051V22.4229H19.7051ZM19.7051 21.0605H20.7051V20.0605H19.7051V21.0605ZM12.3623 21.0605V20.0605H11.3623V21.0605H12.3623ZM15.999 11.2656L15.999 10.2656L15.9989 10.2656L15.999 11.2656ZM17.6924 11.6055L18.0782 10.6829L18.0781 10.6829L17.6924 11.6055ZM19.124 12.5723L19.8348 13.2757L20.5299 12.5734L19.8359 11.8699L19.124 12.5723ZM18.083 13.624L17.371 14.3262L18.0817 15.0469L18.7937 14.3275L18.083 13.624ZM17.1289 12.9795L17.5149 12.057L17.5148 12.0569L17.1289 12.9795ZM16 12.752L16 11.752L16 11.752L16 12.752ZM14.8711 12.9795L14.4852 12.0569L14.4851 12.057L14.8711 12.9795ZM13.917 13.624L13.2063 14.3275L13.9183 15.0469L14.629 14.3262L13.917 13.624ZM12.876 12.5723L12.1641 11.8699L11.4701 12.5734L12.1652 13.2757L12.876 12.5723ZM14.3066 11.6055L13.9209 10.6829L13.9208 10.6829L14.3066 11.6055ZM16 8.28809L16 7.28809L16 7.28809L16 8.28809ZM18.8213 8.85547L19.2073 7.93296L19.2072 7.93293L18.8213 8.85547ZM21.2061 10.4668L21.9168 11.1703L22.6117 10.4681L21.9181 9.76469L21.2061 10.4668ZM20.1641 11.5195L19.452 12.2217L20.1627 12.9424L20.8748 12.223L20.1641 11.5195ZM18.2568 10.2295L18.6428 9.30697L18.6427 9.30696L18.2568 10.2295ZM15.999 9.77637L15.999 8.77637L15.999 8.77637L15.999 9.77637ZM13.7422 10.2295L13.3563 9.30694L13.3563 9.30696L13.7422 10.2295ZM11.834 11.5195L11.1233 12.223L11.8353 12.9424L12.546 12.2217L11.834 11.5195ZM10.793 10.4678L10.0809 9.7657L9.38732 10.4692L10.0822 11.1712L10.793 10.4678ZM13.1777 8.85449L12.7918 7.93196L12.7918 7.93198L13.1777 8.85449ZM15.999 5.31348L15.999 4.31348L15.999 4.31348L15.999 5.31348ZM19.9502 6.10645L20.3362 5.18393L20.3361 5.18391L19.9502 6.10645ZM23.2891 8.36328L23.9998 9.06675L24.6947 8.36463L24.0011 7.66118L23.2891 8.36328ZM22.248 9.41504L21.536 10.1171L22.2467 10.838L22.9588 10.1185L22.248 9.41504ZM19.3857 7.48047L19.7717 6.55795L19.7716 6.55793L19.3857 7.48047ZM15.999 6.80078L15.999 5.80078L15.999 5.80078L15.999 6.80078ZM12.6123 7.48047L12.2264 6.55795L12.2263 6.55795L12.6123 7.48047ZM9.75098 9.41504L9.04025 10.1185L9.75233 10.8379L10.463 10.1172L9.75098 9.41504ZM8.70996 8.36328L7.9979 7.66116L7.30427 8.36461L7.99923 9.06675L8.70996 8.36328ZM12.0479 6.10742L11.6619 5.1849L11.6619 5.18492L12.0479 6.10742ZM22.6133 15.1826L22.6128 16.1826C22.467 16.1825 22.3477 16.0641 22.3477 15.917H23.3477H24.3477C24.3477 14.9585 23.5708 14.1831 22.6138 14.1826L22.6133 15.1826ZM23.3477 15.917H22.3477V20.3252H23.3477H24.3477V15.917H23.3477ZM23.3477 20.3252H22.3477C22.3477 20.1798 22.4653 20.0606 22.6128 20.0605L22.6133 21.0605L22.6138 22.0605C23.5725 22.06 24.3477 21.2819 24.3477 20.3252H23.3477ZM22.6133 21.0605V20.0605H21.1738V21.0605V22.0605H22.6133V21.0605ZM21.1738 21.0605H20.1738V25.04H21.1738H22.1738V21.0605H21.1738ZM21.1738 25.04L21.1625 26.04C21.0166 26.0383 20.9004 25.9204 20.9004 25.7754H21.9004H22.9004C22.9004 24.8245 22.1348 24.0509 21.1852 24.0401L21.1738 25.04ZM21.9004 25.7754H20.9004V26.0967H21.9004H22.9004V25.7754H21.9004ZM21.9004 26.0967V25.0967H18.9775V26.0967V27.0967H21.9004V26.0967ZM18.9775 26.0967H19.9775V25.7754H18.9775H17.9775V26.0967H18.9775ZM18.9775 25.7754H19.9775C19.9775 25.9214 19.8608 26.0384 19.7158 26.04L19.7051 25.04L19.6943 24.0401C18.7452 24.0503 17.9775 24.8232 17.9775 25.7754H18.9775ZM19.7051 25.04H20.7051V23.8926H19.7051H18.7051V25.04H19.7051ZM19.7051 23.8926V22.8926H12.3623V23.8926V24.8926H19.7051V23.8926ZM12.3623 23.8926H11.3623V25.041H12.3623H13.3623V23.8926H12.3623ZM12.3623 25.041L12.3394 26.0408C12.1959 26.0375 12.0801 25.9205 12.0801 25.7754H13.0801H14.0801C14.0801 24.8301 13.3244 24.0628 12.3852 24.0413L12.3623 25.041ZM13.0801 25.7754H12.0801V26.0967H13.0801H14.0801V25.7754H13.0801ZM13.0801 26.0967V25.0967H10.1582V26.0967V27.0967H13.0801V26.0967ZM10.1582 26.0967H11.1582V25.7754H10.1582H9.1582V26.0967H10.1582ZM10.1582 25.7754H11.1582C11.1582 25.9116 11.0549 26.025 10.9184 26.0388L10.8174 25.0439L10.7164 24.0491C9.83879 24.1381 9.1582 24.8783 9.1582 25.7754H10.1582ZM10.8174 25.0439L10.8693 26.0426L10.9445 26.0387L10.8926 25.04L10.8407 24.0414L10.7655 24.0453L10.8174 25.0439ZM10.8926 25.04H11.8926V21.0605H10.8926H9.89258V25.04H10.8926ZM10.8926 21.0605V20.0605H9.38672V21.0605V22.0605H10.8926V21.0605ZM9.38672 21.0605L9.38724 20.0605C9.53471 20.0606 9.65234 20.1798 9.65234 20.3252H8.65234H7.65234C7.65234 21.2819 8.42749 22.06 9.3862 22.0605L9.38672 21.0605ZM8.65234 20.3252H9.65234V15.917H8.65234H7.65234V20.3252H8.65234ZM8.65234 15.917H9.65234C9.65234 16.0641 9.53298 16.1825 9.38724 16.1826L9.38672 15.1826L9.3862 14.1826C8.42922 14.1831 7.65234 14.9585 7.65234 15.917H8.65234ZM9.38672 15.1826V16.1826H22.6133V15.1826V14.1826H9.38672V15.1826ZM12.3623 22.4229V23.4229H19.7051V22.4229V21.4229H12.3623V22.4229ZM19.7051 22.4229H20.7051V21.0605H19.7051H18.7051V22.4229H19.7051ZM19.7051 21.0605V20.0605H12.3623V21.0605V22.0605H19.7051V21.0605ZM12.3623 21.0605H11.3623V22.4229H12.3623H13.3623V21.0605H12.3623ZM15.999 11.2656L15.999 12.2656C16.4476 12.2656 16.8925 12.3549 17.3067 12.5281L17.6924 11.6055L18.0781 10.6829C17.4199 10.4077 16.7128 10.2656 15.999 10.2656L15.999 11.2656ZM17.6924 11.6055L17.3066 12.528C17.7209 12.7013 18.0972 12.9553 18.4122 13.2746L19.124 12.5723L19.8359 11.8699C19.3344 11.3616 18.7364 10.9581 18.0782 10.6829L17.6924 11.6055ZM19.124 12.5723L18.4133 11.8688L17.3723 12.9206L18.083 13.624L18.7937 14.3275L19.8348 13.2757L19.124 12.5723ZM18.083 13.624L18.795 12.9218C18.4297 12.5514 17.9941 12.2575 17.5149 12.057L17.1289 12.9795L16.7429 13.902C16.9785 14.0006 17.1923 14.145 17.371 14.3262L18.083 13.624ZM17.1289 12.9795L17.5148 12.0569C17.0366 11.8569 16.5217 11.752 16 11.752L16 12.752L16 13.752C16.2534 13.752 16.5062 13.803 16.7431 13.9021L17.1289 12.9795ZM16 12.752L16 11.752C15.4783 11.752 14.9635 11.8569 14.4852 12.0569L14.8711 12.9795L15.257 13.902C15.4938 13.803 15.7465 13.752 16 13.752L16 12.752ZM14.8711 12.9795L14.4851 12.057C14.0058 12.2575 13.5704 12.5513 13.205 12.9219L13.917 13.624L14.629 14.3262C14.8078 14.1449 15.0214 14.0006 15.2571 13.902L14.8711 12.9795ZM13.917 13.624L14.6277 12.9206L13.5867 11.8688L12.876 12.5723L12.1652 13.2757L13.2063 14.3275L13.917 13.624ZM12.876 12.5723L13.5878 13.2746C13.9032 12.9549 14.2788 12.7011 14.6925 12.528L14.3066 11.6055L13.9208 10.6829C13.2621 10.9584 12.6651 11.3622 12.1641 11.8699L12.876 12.5723ZM14.3066 11.6055L14.6924 12.5281C15.1065 12.355 15.5508 12.2657 15.9992 12.2656L15.999 11.2656L15.9989 10.2656C15.2853 10.2657 14.5789 10.4078 13.9209 10.6829L14.3066 11.6055ZM16 8.28809L16 9.28809C16.8355 9.28813 17.6633 9.45504 18.4354 9.778L18.8213 8.85547L19.2072 7.93293C18.192 7.50824 17.1019 7.28814 16 7.28809L16 8.28809ZM18.8213 8.85547L18.4353 9.77798C19.207 10.1009 19.907 10.5736 20.494 11.1689L21.2061 10.4668L21.9181 9.76469C21.1447 8.98031 20.2229 8.35791 19.2073 7.93296L18.8213 8.85547ZM21.2061 10.4668L20.4953 9.76333L19.4533 10.8161L20.1641 11.5195L20.8748 12.223L21.9168 11.1703L21.2061 10.4668ZM20.1641 11.5195L20.8761 10.8174C20.2395 10.1718 19.4807 9.65752 18.6428 9.30697L18.2568 10.2295L17.8709 11.152C18.4629 11.3997 19.0003 11.7636 19.452 12.2217L20.1641 11.5195ZM18.2568 10.2295L18.6427 9.30696C17.8054 8.9567 16.9065 8.77637 15.999 8.77637L15.999 9.77637L15.999 10.7764C16.6416 10.7764 17.2782 10.9041 17.8709 11.152L18.2568 10.2295ZM15.999 9.77637L15.999 8.77637C15.0916 8.77641 14.1933 8.95687 13.3563 9.30694L13.7422 10.2295L14.1281 11.152C14.7208 10.9041 15.3568 10.7764 15.9991 10.7764L15.999 9.77637ZM13.7422 10.2295L13.3563 9.30696C12.5187 9.65733 11.7589 10.1714 11.1219 10.8174L11.834 11.5195L12.546 12.2217C12.9974 11.7639 13.5356 11.3999 14.1281 11.152L13.7422 10.2295ZM11.834 11.5195L12.5447 10.8161L11.5037 9.76431L10.793 10.4678L10.0822 11.1712L11.1233 12.223L11.834 11.5195ZM10.793 10.4678L11.5051 11.1698C12.0929 10.5736 12.7928 10.0995 13.5637 9.77701L13.1777 8.85449L12.7918 7.93198C11.7749 8.35741 10.8536 8.98194 10.0809 9.7657L10.793 10.4678ZM13.1777 8.85449L13.5636 9.77703C14.3351 9.45432 15.1636 9.28809 16 9.28809L16 8.28809L16 7.28809C14.8988 7.28809 13.8079 7.50692 12.7918 7.93196L13.1777 8.85449ZM15.999 5.31348L15.999 6.31348C17.223 6.31348 18.4353 6.55671 19.5643 7.02898L19.9502 6.10645L20.3361 5.18391C18.9625 4.60932 17.4878 4.31348 15.999 4.31348L15.999 5.31348ZM19.9502 6.10645L19.5642 7.02896C20.6932 7.50133 21.7176 8.19381 22.577 9.06538L23.2891 8.36328L24.0011 7.66118C22.9558 6.601 21.7098 5.75864 20.3362 5.18393L19.9502 6.10645ZM23.2891 8.36328L22.5783 7.65981L21.5373 8.71157L22.248 9.41504L22.9588 10.1185L23.9998 9.06675L23.2891 8.36328ZM22.248 9.41504L22.9601 8.71294C22.0507 7.79063 20.9666 7.05786 19.7717 6.55795L19.3857 7.48047L18.9998 8.40299C19.9502 8.80061 20.8126 9.38353 21.536 10.1171L22.248 9.41504ZM19.3857 7.48047L19.7716 6.55793C18.5768 6.05811 17.2941 5.80079 15.999 5.80078L15.999 6.80078L15.999 7.80078C17.0292 7.80078 18.0496 8.0055 18.9998 8.40301L19.3857 7.48047ZM15.999 6.80078L15.999 5.80078C14.7039 5.80082 13.4213 6.05802 12.2264 6.55795L12.6123 7.48047L12.9983 8.40299C13.9485 8.00545 14.9687 7.80081 15.9991 7.80078L15.999 6.80078ZM12.6123 7.48047L12.2263 6.55795C11.0312 7.05796 9.94801 7.79094 9.03891 8.71293L9.75098 9.41504L10.463 10.1172C11.1866 9.38337 12.0482 8.80045 12.9983 8.40299L12.6123 7.48047ZM9.75098 9.41504L10.4617 8.71157L9.42069 7.65981L8.70996 8.36328L7.99923 9.06675L9.04025 10.1185L9.75098 9.41504ZM8.70996 8.36328L9.42202 9.0654C10.2812 8.19409 11.3049 7.50231 12.4339 7.02992L12.0479 6.10742L11.6619 5.18492C10.2886 5.75953 9.04319 6.60108 7.9979 7.66116L8.70996 8.36328ZM12.0479 6.10742L12.4338 7.02994C13.5633 6.55742 14.7754 6.31351 15.9991 6.31348L15.999 5.31348L15.999 4.31348C14.5097 4.31352 13.0352 4.61036 11.6619 5.1849L12.0479 6.10742Z" fill="black" fill-opacity="0.3" mask="url(#path-1-outside-1_3507_9079)"/>
</svg>
