<svg width="24" height="24" viewBox="0 0 24 24" fill="none" xmlns="http://www.w3.org/2000/svg">
<path d="M11.9997 15.2492C12.8944 15.2492 13.6197 15.9746 13.6198 16.8693C13.6198 17.764 12.8945 18.4894 11.9997 18.4894C11.1051 18.4891 10.3796 17.7639 10.3796 16.8693C10.3797 15.9748 11.1052 15.2494 11.9997 15.2492Z" fill="white"/>
<path d="M10.7175 7.60071C11.4353 6.9167 12.564 6.91679 13.2819 7.60071C13.6988 7.99798 13.908 8.56602 13.8483 9.1388L13.4294 13.1603C13.3531 13.8925 12.7359 14.4484 11.9997 14.4484C11.2637 14.4482 10.6463 13.8924 10.57 13.1603L10.1511 9.1388C10.0914 8.56616 10.3007 7.99796 10.7175 7.60071Z" fill="white"/>
<path fill-rule="evenodd" clip-rule="evenodd" d="M9.73309 4.51673C10.7404 2.77236 13.2589 2.77247 14.2663 4.51673L21.3952 16.8654C22.4022 18.61 21.143 20.7909 19.1286 20.7911H4.87079C2.85649 20.791 1.59753 18.6099 2.60418 16.8654L9.73309 4.51673ZM13.1335 5.17103C12.6297 4.29921 11.3706 4.29918 10.8669 5.17103L3.737 17.5197C3.23409 18.3919 3.86385 19.4824 4.87079 19.4825H19.1286C20.1357 19.4824 20.7648 18.3919 20.2614 17.5197L13.1335 5.17103Z" fill="white"/>
<path d="M9.2998 4.26709C10.4996 2.1894 13.4993 2.18964 14.6992 4.26709L21.8281 16.6157C23.0272 18.6935 21.5279 21.2911 19.1289 21.2915H4.87109C2.47193 21.2913 0.972286 18.6934 2.1709 16.6157L9.2998 4.26709ZM12.7002 5.42139C12.3889 4.88267 11.611 4.88272 11.2998 5.42139L4.16992 17.77C3.85976 18.3089 4.24917 18.9828 4.87109 18.9829H11.873C10.7616 18.9171 9.88007 17.9978 9.87988 16.8696C9.88004 15.9167 10.5086 15.1093 11.374 14.8423C10.6773 14.6042 10.1525 13.9819 10.0723 13.2124L9.65332 9.19092C9.57764 8.46425 9.84343 7.74282 10.3721 7.23877L10.5488 7.08643C11.3995 6.42148 12.5995 6.42171 13.4502 7.08643L13.627 7.23877L13.7227 7.33545C14.1877 7.83275 14.4167 8.50937 14.3457 9.19092L13.9268 13.2124C13.8464 13.9823 13.3215 14.6046 12.624 14.8423C13.4902 15.1088 14.12 15.9162 14.1201 16.8696C14.1199 17.9976 13.2384 18.917 12.127 18.9829H19.1289C19.7506 18.9825 20.139 18.3091 19.8281 17.77L12.7002 5.42139Z" stroke="black" stroke-opacity="0.3"/>
</svg>
