<svg width="16" height="16" viewBox="0 0 16 16" fill="none" xmlns="http://www.w3.org/2000/svg">
<path d="M11.168 1.03418C13.1932 1.03444 14.835 2.67584 14.835 4.70117V10H14.0547V9.23828H14.0498V4.70117C14.0498 3.1094 12.7597 1.81862 11.168 1.81836C9.57603 1.81836 8.28516 3.10924 8.28516 4.70117V9.48438H8.28906V10H7.5V4.70117C7.50001 2.67568 9.14247 1.03418 11.168 1.03418ZM11.168 2.18945C12.5913 2.18965 13.7451 3.34326 13.7451 4.7666V10L11.168 8.65137V2.18945Z" fill="white"/>
<path d="M0.988324 12.016C1.38246 12.0134 1.77325 12.0887 2.13791 12.2383C2.50253 12.3879 2.83391 12.6086 3.11262 12.8873C3.39129 13.166 3.61198 13.4974 3.7616 13.862C3.91123 14.2267 3.98716 14.618 3.9845 15.0122L2.98085 15.0171C2.98267 14.7543 2.93218 14.4937 2.83246 14.2505C2.73272 14.0074 2.58604 13.7861 2.40021 13.6003C2.21436 13.4145 1.99315 13.2678 1.74999 13.1681C1.50681 13.0683 1.24623 13.0178 0.983398 13.0197L0.988324 12.016Z" fill="white"/>
<path d="M0.998792 10.0081C1.65584 10.0034 2.30765 10.1289 2.91558 10.3781C3.52349 10.6274 4.07591 10.9954 4.54051 11.46C5.00506 11.9246 5.37248 12.4771 5.62175 13.0849C5.871 13.6928 5.99707 14.3441 5.99242 15.0011L4.98815 15.006C4.99183 14.4805 4.89141 13.9591 4.69198 13.4728C4.49255 12.9866 4.19851 12.5447 3.82687 12.173C3.45524 11.8014 3.01331 11.5073 2.52705 11.3079C2.04077 11.1085 1.51944 11.0081 0.993866 11.0117L0.998792 10.0081Z" fill="white"/>
<path d="M1.00864 8.00017C1.92848 7.99367 2.84032 8.17025 3.69141 8.51924C4.54255 8.86827 5.31607 9.38285 5.96656 10.0333C6.61696 10.6837 7.13163 11.4569 7.48066 12.3079C7.82969 13.159 8.00623 14.0713 7.99972 14.9913L6.99607 14.9962C7.00164 14.2077 6.85067 13.4259 6.55151 12.6964C6.25234 11.9668 5.81109 11.3039 5.25353 10.7464C4.69597 10.1888 4.03305 9.74756 3.3035 9.44839C2.57396 9.14922 1.79219 8.99826 1.00372 9.00382L1.00864 8.00017Z" fill="white"/>
</svg>
