<svg width="24" height="24" viewBox="0 0 24 24" fill="none" xmlns="http://www.w3.org/2000/svg">
<path d="M9.62219 4.52585C9.62219 4.05594 9.76154 3.59657 10.0226 3.20585C10.2837 2.81512 10.6548 2.51059 11.0889 2.33076C11.5231 2.15093 12.0008 2.10388 12.4617 2.19556C12.9226 2.28723 13.3459 2.51352 13.6782 2.8458C14.0105 3.17809 14.2368 3.60144 14.3284 4.06233C14.4201 4.52322 14.3731 5.00094 14.1932 5.43509C14.0134 5.86924 13.7089 6.24031 13.3181 6.50139C12.9274 6.76246 12.4681 6.90181 11.9981 6.90181C11.368 6.90181 10.7637 6.65148 10.3181 6.20591C9.87251 5.76033 9.62219 5.156 9.62219 4.52585ZM19.4162 13.417L15.5765 9.06392C15.3535 8.8111 15.0793 8.60862 14.7721 8.46992C14.4649 8.33123 14.1316 8.2595 13.7945 8.25949H10.2018C9.86466 8.2595 9.53143 8.33123 9.22419 8.46992C8.91696 8.60862 8.64275 8.8111 8.41979 9.06392L4.58008 13.417C4.33075 13.6721 4.19184 14.0151 4.19337 14.3718C4.1949 14.7285 4.33676 15.0703 4.58826 15.3232C4.83977 15.5762 5.18072 15.72 5.53742 15.7236C5.89411 15.7272 6.23788 15.5902 6.49442 15.3424L8.68878 13.5799L7.01713 19.9339C6.87169 20.2604 6.86087 20.6311 6.987 20.9655C7.11314 21.2999 7.36606 21.5711 7.69089 21.7202C8.01571 21.8693 8.38624 21.8844 8.72207 21.762C9.0579 21.6397 9.33194 21.3898 9.48472 21.0667L11.9981 16.745L14.5082 21.0727C14.661 21.3958 14.935 21.6456 15.2708 21.768C15.6066 21.8903 15.9772 21.8753 16.302 21.7262C16.6268 21.577 16.8797 21.3059 17.0059 20.9714C17.132 20.637 17.1212 20.2663 16.9758 19.9398L15.3075 13.5799L17.5053 15.3424C17.7618 15.5902 18.1056 15.7272 18.4623 15.7236C18.819 15.72 19.1599 15.5762 19.4114 15.3232C19.6629 15.0703 19.8048 14.7285 19.8063 14.3718C19.8078 14.0151 19.6689 13.6721 19.4196 13.417H19.4162Z" fill="white"/>
<path d="M13.7949 7.75928C14.2027 7.75934 14.6058 7.8464 14.9775 8.01416C15.3493 8.18198 15.6813 8.42704 15.9512 8.73291L19.75 13.0405L19.7773 13.0679C20.1182 13.4168 20.3086 13.8857 20.3066 14.3735C20.3045 14.8616 20.1097 15.3292 19.7656 15.6753C19.4215 16.0214 18.9548 16.2182 18.4668 16.2231C17.9942 16.2278 17.5394 16.0511 17.1924 15.7319L16.1748 14.9165L17.4521 19.7886C17.6301 20.2226 17.6397 20.7078 17.4736 21.1479C17.3011 21.6054 16.955 21.9761 16.5107 22.1802C16.0663 22.3842 15.5591 22.4052 15.0996 22.2378C14.6533 22.0752 14.2874 21.7476 14.0752 21.3237L11.9971 17.7407L9.91699 21.3179C9.70478 21.7415 9.33968 22.0693 8.89355 22.2319C8.43405 22.3993 7.92687 22.3784 7.48242 22.1743C7.03805 21.9703 6.69215 21.5996 6.51953 21.1421C6.35396 20.7031 6.36155 20.2188 6.53809 19.7856L7.81836 14.9194L6.80762 15.7319C6.46043 16.0513 6.0051 16.2279 5.53223 16.2231C5.04424 16.2182 4.57749 16.0214 4.2334 15.6753C3.88951 15.3292 3.69545 14.8614 3.69336 14.3735C3.69141 13.8942 3.87524 13.4334 4.20508 13.0864L8.04492 8.73291C8.31477 8.42699 8.64676 8.182 9.01855 8.01416C9.39042 7.8463 9.79415 7.75928 10.2021 7.75928H13.7949ZM10.8975 1.86865C11.423 1.65098 12.0017 1.5946 12.5596 1.70557C13.1173 1.81659 13.6301 2.09057 14.0322 2.49268C14.4341 2.8947 14.7074 3.40688 14.8184 3.96436C14.9293 4.52223 14.8729 5.10096 14.6553 5.62646C14.4376 6.15198 14.0687 6.60147 13.5957 6.91748C13.1228 7.23335 12.5667 7.40186 11.998 7.40186C11.2353 7.40183 10.5042 7.09841 9.96484 6.55908C9.42553 6.01975 9.12208 5.2886 9.12207 4.52588C9.12207 3.95719 9.29056 3.4011 9.60645 2.92822C9.92245 2.45528 10.372 2.08633 10.8975 1.86865Z" stroke="black" stroke-opacity="0.3"/>
</svg>
