<svg width="24" height="24" viewBox="0 0 24 24" fill="none" xmlns="http://www.w3.org/2000/svg">
<path fill-rule="evenodd" clip-rule="evenodd" d="M11.0288 11.5261H9.91993L8.92049 12.5256C8.63659 12.2103 8.38599 11.8756 8.1687 11.5261H5.09453C5.40788 10.1496 6.12222 8.92568 7.1082 7.9836C7.06891 6.52931 7.47507 5.06522 8.32666 3.81348C8.36559 4.80216 8.56703 5.78563 8.93099 6.72042C9.85943 6.27331 10.9004 6.02277 11.9998 6.02277C13.0993 6.02277 14.1402 6.27331 15.0686 6.7204C15.4326 5.78562 15.634 4.80215 15.6729 3.81348C16.5245 5.06521 16.9307 6.52929 16.8914 7.98357C17.8774 8.92565 18.5918 10.1496 18.9051 11.5261H15.8309C15.6136 11.8756 15.363 12.2103 15.0791 12.5256L14.0797 11.5261H12.9708C12.9711 13.2133 14.3389 14.581 16.0262 14.581C17.4998 14.581 18.7297 13.5378 19.0178 12.1496C19.0599 12.462 19.0817 12.7808 19.0817 13.1046C19.0817 17.0158 15.911 20.1865 11.9998 20.1865C8.08862 20.1865 4.91797 17.0158 4.91797 13.1046C4.91797 12.7808 4.9397 12.4621 4.98178 12.1498C5.26993 13.5379 6.49984 14.581 7.97338 14.581C9.66066 14.581 11.0285 13.2133 11.0288 11.5261ZM9.88669 16.5855C9.88669 17.7526 10.8328 18.6987 11.9999 18.6987C13.167 18.6987 14.1131 17.7526 14.1131 16.5855H9.88669Z" fill="white"/>
<path d="M16.0859 3.53223C16.9552 4.80989 17.3897 6.29335 17.3926 7.77637C18.3668 8.76229 19.0737 10.0142 19.3926 11.415L19.5312 12.0264H16.1016C15.9064 12.3155 15.6893 12.5948 15.4502 12.8604L15.0977 13.252L14.7256 12.8789L13.873 12.0264H13.5205C13.7533 13.1978 14.7865 14.0811 16.0264 14.0811C17.2582 14.081 18.2874 13.2086 18.5283 12.0479L19.5137 12.083C19.5587 12.4173 19.582 12.7583 19.582 13.1045C19.582 17.2918 16.1873 20.6864 12 20.6865C7.81266 20.6865 4.41797 17.2918 4.41797 13.1045C4.41797 12.7583 4.44127 12.4173 4.48633 12.083L5.47168 12.0479C5.71264 13.2086 6.74182 14.0811 7.97363 14.0811C9.21336 14.0809 10.2457 13.1977 10.4785 12.0264H10.127L8.90137 13.252L8.54883 12.8604C8.30973 12.5948 8.09356 12.3155 7.89844 12.0264H4.46777L4.60742 11.415C4.92635 10.0142 5.63218 8.76132 6.60645 7.77539C6.60952 6.29273 7.04409 4.80959 7.91309 3.53223L8.7666 2.27832L8.82617 3.79395C8.85622 4.55666 8.98995 5.31549 9.22461 6.04883C10.0848 5.71026 11.0209 5.52246 12 5.52246C12.9788 5.52248 13.9145 5.71041 14.7744 6.04883C15.0091 5.31544 15.1428 4.55671 15.1729 3.79395L15.2334 2.27832L16.0859 3.53223ZM10.4668 17.0859C10.6775 17.7318 11.2838 18.1982 12 18.1982C12.7161 18.1982 13.3226 17.7318 13.5332 17.0859H10.4668Z" stroke="black" stroke-opacity="0.3"/>
</svg>
