<svg width="33" height="33" viewBox="0 0 33 33" fill="none" xmlns="http://www.w3.org/2000/svg">
<path fill-rule="evenodd" clip-rule="evenodd" d="M25 10.1787C25.5523 10.1787 26 10.6264 26 11.1787V17.1787C26 17.731 25.5523 18.1787 25 18.1787H23.042V23.5957C23.5889 23.6019 24.0303 24.0473 24.0303 24.5957V25.0332H20.0527V24.5957C20.0527 24.0471 20.4948 23.6016 21.042 23.5957V22.0332H11.0488V23.5967C11.5905 23.6089 12.0264 24.0511 12.0264 24.5957V25.0332H8.04883V24.5957C8.04883 24.0779 8.44201 23.6518 8.94629 23.6006L9.04883 23.5957V18.1787H7C6.44772 18.1787 6 17.731 6 17.1787V11.1787C6 10.6264 6.44772 10.1787 7 10.1787H25ZM11.0488 18.1787V20.0332H21.042V18.1787H11.0488Z" fill="white"/>
<path d="M25 9.67871L25.1533 9.68652C25.9097 9.76332 26.5 10.402 26.5 11.1787V17.1787C26.5 18.0071 25.8284 18.6787 25 18.6787H23.542V23.1865C24.1183 23.3958 24.5303 23.9472 24.5303 24.5957V25.5332H19.5527V24.5957C19.5527 23.9468 19.9654 23.3957 20.542 23.1865V22.5332H11.5488V23.1914C12.119 23.4035 12.5264 23.9508 12.5264 24.5957V25.5332H7.54883V24.5957C7.54883 23.9428 7.96592 23.3877 8.54883 23.1816V18.6787H7C6.17157 18.6787 5.5 18.0071 5.5 17.1787V11.1787L5.50781 11.0254C5.58461 10.269 6.22334 9.67871 7 9.67871H25ZM11.5488 19.5332H20.542V18.6787H11.5488V19.5332Z" stroke="black" stroke-opacity="0.3"/>
</svg>
