<svg width="16" height="16" viewBox="0 0 16 16" fill="none" xmlns="http://www.w3.org/2000/svg">
<path fill-rule="evenodd" clip-rule="evenodd" d="M8.43359 5.12305H10.2012V6.89062H14.0088V5.12305H14.9521V7.70312C14.9519 8.08684 14.6406 8.39837 14.2568 8.39844H12.8955V12.0098C13.2756 12.0141 13.5818 12.324 13.582 12.7051V13.0098H10.8174V12.7051C10.8176 12.3239 11.1247 12.0141 11.5049 12.0098V11.0781H4.55664V12.0107C4.93313 12.0192 5.23615 12.3266 5.23633 12.7051V13.0098H2.47168V12.7051C2.47185 12.3454 2.74541 12.0494 3.0957 12.0137L3.16699 12.0098V8.39844H1.74219C1.35854 8.39824 1.04714 8.08676 1.04688 7.70312V3.53125C1.04712 3.14761 1.35853 2.83711 1.74219 2.83691H8.43359V5.12305ZM4.55664 9.6875H11.5049V8.39844H4.55664V9.6875Z" fill="white"/>
<path d="M13.0713 0.487305V2.25781L15.0645 2.25879V4.0957H13.0713V5.86719L11.2334 5.86621V4.0957H9.23828V2.25781H11.2334V0.486328L13.0713 0.487305Z" fill="white"/>
</svg>
