<svg width="16" height="16" viewBox="0 0 16 16" fill="none" xmlns="http://www.w3.org/2000/svg">
<path d="M14.2572 2.83643C14.641 2.8365 14.9523 3.14704 14.9525 3.53076V7.70264C14.9525 8.08657 14.6411 8.39788 14.2572 8.39795H12.8959V12.0093C13.276 12.0137 13.5822 12.3235 13.5824 12.7046V13.0093H10.8177V12.7046C10.8179 12.3233 11.1249 12.0134 11.5052 12.0093V11.0776H4.55701V12.0103C4.93349 12.0187 5.23651 12.3261 5.23669 12.7046V13.0093H2.47205V12.7046C2.47222 12.3448 2.74558 12.0488 3.09607 12.0132L3.16736 12.0093V8.39795H1.74255C1.35857 8.39795 1.04724 8.08662 1.04724 7.70264V3.53076C1.04749 3.14699 1.35873 2.83643 1.74255 2.83643H14.2572ZM4.55701 9.68701H11.5052V8.39795H4.55701V9.68701Z" fill="white"/>
</svg>
