<svg width="24" height="24" viewBox="0 0 24 24" fill="none" xmlns="http://www.w3.org/2000/svg">
<path d="M16.3398 15.6211C16.3398 15.1298 16.8589 14.8227 17.2744 15.0684L23.6064 18.8115C24.022 19.0572 24.022 19.6713 23.6064 19.917L17.2744 23.6602C16.8589 23.9057 16.3398 23.5987 16.3398 23.1074V21.6465L12.9346 23.6602C12.5191 23.9055 12 23.5986 12 23.1074V15.6211C12 15.1298 12.5191 14.8228 12.9346 15.0684L16.3398 17.0811V15.6211Z" fill="white"/>
<path fill-rule="evenodd" clip-rule="evenodd" d="M17.3906 6.6875C18.3292 6.68756 19.2299 7.0672 19.8936 7.74414C20.5572 8.42105 20.9296 9.33959 20.9297 10.2969V15.4551L18.0244 13.7373C18.0068 13.7269 17.9884 13.7178 17.9707 13.708C18.0701 13.5118 18.1249 13.2933 18.125 13.0684V11.9131C18.125 11.5421 17.9799 11.1862 17.7227 10.9238C17.4655 10.6616 17.1166 10.5137 16.7529 10.5137C16.3893 10.5138 16.0403 10.6616 15.7832 10.9238C15.5262 11.1861 15.3818 11.5422 15.3818 11.9131V13.0684C15.3819 13.3723 15.4806 13.6648 15.6572 13.9053C15.4313 14.0846 15.2396 14.3107 15.0986 14.5732L13.6846 13.7373C12.368 12.959 10.7468 13.8099 10.5264 15.2793H7.66602C7.06525 15.2793 6.48926 15.5228 6.06445 15.9561C5.63967 16.3893 5.40039 16.9771 5.40039 17.5898C5.40048 18.2025 5.63973 18.7904 6.06445 19.2236C6.48923 19.6567 7.06539 19.9004 7.66602 19.9004H10.5V21.6602H6.35645C5.41775 21.6602 4.51728 21.2795 3.85352 20.6025C3.18979 19.9255 2.81739 19.0072 2.81738 18.0498V10.2969C2.81749 9.33959 3.18985 8.42105 3.85352 7.74414C4.51726 7.06722 5.41781 6.6875 6.35645 6.6875H17.3906ZM7.02051 10.5137C6.65676 10.5137 6.30701 10.6615 6.0498 10.9238C5.79281 11.1861 5.64844 11.5422 5.64844 11.9131V13.0684C5.64854 13.439 5.79298 13.7944 6.0498 14.0566C6.30701 14.319 6.65676 14.4668 7.02051 14.4668C7.38409 14.4667 7.73313 14.3189 7.99023 14.0566C8.24708 13.7944 8.3915 13.439 8.3916 13.0684V11.9131C8.3916 11.5422 8.24726 11.1861 7.99023 10.9238C7.73313 10.6616 7.38409 10.5138 7.02051 10.5137Z" fill="white"/>
<path d="M10.5 19.0332L8.59387 18.9971V16.1816L10.5 16.2178V19.0332Z" fill="white"/>
<path d="M7.3125 18.9248C7.02084 18.8491 6.76185 18.6771 6.57617 18.4355C6.39055 18.194 6.28765 17.8967 6.28516 17.5898C6.27966 17.2768 6.37831 16.9706 6.56445 16.7217C6.75076 16.4727 7.01489 16.295 7.3125 16.2178V18.9248Z" fill="white"/>
<path d="M1.9502 16.7051C1.41168 16.6355 0.916509 16.3675 0.557617 15.9521C0.198857 15.5369 0.00107726 15.0027 0.000976562 14.4492C0.000976562 13.8956 0.198726 13.3607 0.557617 12.9453C0.916508 12.5299 1.41168 12.262 1.9502 12.1924V16.7051Z" fill="white"/>
<path d="M21.7881 12.2109C22.3747 12.2109 22.9377 12.448 23.3525 12.8711C23.7674 13.2942 24 13.8684 24 14.4668C24 15.0652 23.7674 15.6394 23.3525 16.0625C23.1668 16.2519 22.9497 16.4005 22.7158 16.5107L21.7881 15.9619V12.2109Z" fill="white"/>
<path d="M11.7979 1.46191C12.3728 1.46191 12.9245 1.69472 13.3311 2.10938C13.7376 2.52404 13.9658 3.08642 13.9658 3.67285C13.9658 4.11017 13.8388 4.53775 13.6006 4.90137C13.3624 5.26492 13.024 5.54848 12.6279 5.71582C12.2318 5.88318 11.7955 5.92711 11.375 5.8418C10.9546 5.75647 10.5687 5.54543 10.2656 5.23633C9.9625 4.92715 9.75555 4.53332 9.67188 4.10449C9.58827 3.67577 9.63102 3.23103 9.79492 2.82715C9.959 2.42312 10.2372 2.07695 10.5938 1.83398C10.9501 1.59115 11.3693 1.46198 11.7979 1.46191Z" fill="white"/>
</svg>
