<svg width="16" height="16" viewBox="0 0 16 16" fill="none" xmlns="http://www.w3.org/2000/svg">
<path d="M7.81641 14H3.4502C3.21575 13.9997 3.00006 13.8604 2.92773 13.6396C2.75252 13.1008 2.74833 12.6767 2.93164 12.0859C3.00175 11.86 3.22115 11.7139 3.46094 11.7139H5.44824L7.81641 14Z" fill="white"/>
<path d="M12.5195 11.7139C12.7508 11.7139 12.9637 11.8501 13.04 12.0654C13.277 12.7338 13.2396 13.1513 13.0459 13.6592C12.9655 13.8693 12.7541 14 12.5264 14H7.81641L10.1025 11.7139H12.5195Z" fill="white"/>
<path d="M2.57812 12.2852C2.48445 12.692 2.48202 13.0453 2.56934 13.4287H2.33691C2.26021 13.4287 2.18402 13.3999 2.14062 13.3379C1.95331 13.0671 1.95331 12.6468 2.14062 12.376C2.18401 12.3139 2.26018 12.2852 2.33691 12.2852H2.57812Z" fill="white"/>
<path d="M13.6631 12.2852C13.7399 12.2852 13.816 12.3139 13.8594 12.376C14.0468 12.6468 14.0468 13.067 13.8594 13.3379C13.816 13.3999 13.7398 13.4287 13.6631 13.4287H13.4229C13.4651 13.2665 13.4912 13.1015 13.4941 12.9268C13.497 12.7228 13.4691 12.5132 13.4102 12.2852H13.6631Z" fill="white"/>
<path d="M12.4941 7.77344L7.72363 12.5439L6.33984 11.208L8.82129 8.72754H1.04395V6.81934H8.82129L6.33984 4.33789L7.72363 3.00195L12.4941 7.77344Z" fill="white"/>
<path d="M4.99316 11.2744L5.15234 11.4277H3.95215V9.78125H6.48633L4.99316 11.2744Z" fill="white"/>
<path d="M12.0479 11.4277H10.3887L12.0479 9.76758V11.4277Z" fill="white"/>
<path d="M6.4873 5.87305H4.11328L4.03613 5.79688C3.98256 5.74379 3.95219 5.67152 3.95215 5.5957V4.57129H5.18555L6.4873 5.87305Z" fill="white"/>
<path d="M12.0479 5.5957C12.0478 5.67155 12.0175 5.74379 11.9639 5.79688L11.96 5.79883L10.7324 4.57129H12.0479V5.5957Z" fill="white"/>
<path d="M5.08984 4.28613H3.4502C3.21564 4.28588 2.99996 4.14574 2.92773 3.9248C2.75257 3.38607 2.74835 2.96282 2.93164 2.37207C3.0016 2.14584 3.22099 2.00006 3.46094 2H7.45703L5.08984 4.28613Z" fill="white"/>
<path d="M12.5195 2C12.7507 2.00007 12.9636 2.13535 13.04 2.35059C13.2771 3.01902 13.2395 3.43647 13.0459 3.94434C12.9655 4.15457 12.7542 4.28611 12.5264 4.28613H10.4473L8.16113 2H12.5195Z" fill="white"/>
<path d="M2.57812 2.57129C2.4845 2.97799 2.48206 3.33058 2.56934 3.71387H2.33691C2.26007 3.71383 2.18398 3.68525 2.14062 3.62305C1.95332 3.35222 1.95332 2.93294 2.14062 2.66211C2.18397 2.59987 2.26005 2.57133 2.33691 2.57129H2.57812Z" fill="white"/>
<path d="M13.6631 2.57129C13.74 2.57129 13.816 2.59987 13.8594 2.66211C14.0467 2.93295 14.0467 3.35223 13.8594 3.62305C13.816 3.68528 13.74 3.71387 13.6631 3.71387H13.4229C13.4651 3.55159 13.4912 3.38677 13.4941 3.21191C13.497 3.00804 13.4691 2.79914 13.4102 2.57129H13.6631Z" fill="white"/>
</svg>
