<svg width="16" height="16" viewBox="0 0 16 16" fill="none" xmlns="http://www.w3.org/2000/svg">
<path d="M8.38965 10.2129H7.31445L7.61133 9.10156H8.68652L8.38965 10.2129Z" fill="white"/>
<path fill-rule="evenodd" clip-rule="evenodd" d="M10.9863 2.02344C11.0517 2.02332 11.1163 2.03661 11.1768 2.06152C11.2373 2.08648 11.2925 2.12273 11.3389 2.16895L13.3311 4.16113C13.3773 4.20747 13.4135 4.26274 13.4385 4.32324C13.4634 4.38371 13.4767 4.44827 13.4766 4.51367V13.4785C13.4766 13.6106 13.4245 13.7377 13.3311 13.8311C13.2377 13.9245 13.1106 13.9766 12.9785 13.9766H3.02148C2.88939 13.9766 2.76235 13.9245 2.66895 13.8311C2.57554 13.7377 2.52344 13.6106 2.52344 13.4785V2.52149C2.52344 2.3894 2.57554 2.26235 2.66895 2.16895C2.76235 2.07554 2.88939 2.02344 3.02148 2.02344H10.9863ZM9.84961 6.83008C9.5639 6.75367 9.27089 6.92328 9.19434 7.20899L8.97461 8.03027H7.89941L8.04492 7.48633C8.12149 7.20057 7.95175 6.9067 7.66602 6.83008C7.38037 6.75381 7.0863 6.92335 7.00977 7.20899L6.79004 8.03027H5.60742C5.31169 8.03027 5.07152 8.26975 5.07129 8.56543C5.07149 8.86113 5.31167 9.10156 5.60742 9.10156H6.50293L6.20508 10.2129H5.60742C5.31171 10.2129 5.07057 10.4534 5.07031 10.749C5.07084 11.0444 5.31187 11.2852 5.60742 11.2852H5.91797L5.77148 11.832C5.69541 12.1175 5.86499 12.4117 6.15039 12.4883C6.43584 12.5646 6.72882 12.3946 6.80566 12.1094L7.02734 11.2852H8.10156L7.95508 11.832C7.87889 12.1176 8.04839 12.4118 8.33398 12.4883C8.61943 12.5645 8.91345 12.3947 8.99023 12.1094L9.21094 11.2852H10.3936C10.6889 11.2849 10.9292 11.0443 10.9297 10.749C10.9294 10.4535 10.689 10.2132 10.3936 10.2129H9.49805L9.7959 9.10156H10.3936C10.6891 9.10128 10.9295 8.86096 10.9297 8.56543C10.9295 8.26993 10.689 8.03056 10.3936 8.03027H10.083L10.2285 7.48633C10.3051 7.20063 10.1352 6.90677 9.84961 6.83008ZM9.76367 2.57031V4.75586L9.76953 4.87109C9.82736 5.43703 10.3055 5.87891 10.8867 5.87891H13.0439V4.75586H10.8867V2.57031H9.76367Z" fill="white"/>
</svg>
