<svg width="16" height="16" viewBox="0 0 16 16" fill="none" xmlns="http://www.w3.org/2000/svg">
<path d="M11.5774 2L13.031 2C13.2974 2 13.5257 2.0948 13.7156 2.28441C13.9052 2.47435 14 2.70256 14 2.96904L14 4.42261L11.5774 4.42261L11.5774 2Z" fill="#616161"/>
<path d="M5.2786 2L10.6083 2L10.6083 4.42261L5.2786 4.42261L5.2786 2Z" fill="#616161"/>
<path d="M11.5774 5.39166L14 5.39166L14 10.7214L11.5774 10.7214L11.5774 5.39166Z" fill="#616161"/>
<path d="M2 5.39165L4.42261 5.39166L4.42261 9.7214L2 9.7214L2 5.39165Z" fill="#616161"/>
<path d="M6.2786 11.5774L10.6083 11.5774L10.6083 14L6.2786 14L6.2786 11.5774Z" fill="#616161"/>
<path d="M5.45357 14L3 14C2.73351 14 2.5053 13.9052 2.31537 13.7156C2.12576 13.5257 2.03095 13.2974 2.03095 13.031L2.03096 10.5774L5.45357 10.5774L5.45357 14Z" fill="#A3A0FB"/>
<path d="M14 11.5774L14 13.031C14 13.2974 13.9052 13.5257 13.7156 13.7156C13.5257 13.9052 13.2974 14 13.031 14L11.5774 14L11.5774 11.5774L14 11.5774Z" fill="#616161"/>
<path d="M2 4.42261L2 2.96904C2 2.70256 2.0948 2.47435 2.28441 2.28441C2.47435 2.0948 2.70256 2 2.96904 2L4.42261 2L4.42261 4.42261L2 4.42261Z" fill="#616161"/>
</svg>
