<svg width="17" height="16" viewBox="0 0 17 16" fill="none" xmlns="http://www.w3.org/2000/svg">
<path d="M4.2373 10.3809C4.23739 11.3681 5.03822 12.1687 6.02539 12.1689H7.38379V13.0625H6.02539L5.8877 13.0586C4.47085 12.9867 3.34383 11.8156 3.34375 10.3809V9.20605H4.2373V10.3809Z" fill="white"/>
<path d="M13.3438 10.3809C13.3437 11.8619 12.1431 13.0624 10.6621 13.0625H9.77539V12.1689H10.6621C11.6494 12.1689 12.4501 11.3681 12.4502 10.3809V9.20605H13.3438V10.3809Z" fill="white"/>
<path d="M8.34375 6.0625C9.44832 6.0625 10.3438 6.95793 10.3438 8.0625C10.3438 9.16707 9.44832 10.0625 8.34375 10.0625C7.23918 10.0625 6.34375 9.16707 6.34375 8.0625C6.34375 6.95793 7.23918 6.0625 8.34375 6.0625Z" fill="white"/>
<path d="M7.38379 3.95605H6.02539C5.03835 3.95627 4.2376 4.75712 4.2373 5.74414V6.81445H3.34375V5.74414C3.34404 4.30961 4.47096 3.1383 5.8877 3.06641L6.02539 3.0625H7.38379V3.95605Z" fill="white"/>
<path d="M10.6621 3.0625C12.143 3.06259 13.3435 4.26333 13.3438 5.74414V6.81445H12.4502V5.74414C12.4499 4.81869 11.7461 4.05736 10.8447 3.96582L10.6621 3.95605H9.77539V3.0625H10.6621Z" fill="white"/>
</svg>
