<svg width="17" height="16" viewBox="0 0 17 16" fill="none" xmlns="http://www.w3.org/2000/svg">
<path opacity="0.22" d="M13.5234 2.24316C14.0756 2.24316 14.5232 2.6911 14.5234 3.24316V8.06348C14.5234 8.61576 14.0757 9.06348 13.5234 9.06348H9.0957V13.0459C9.0957 13.5982 8.64799 14.0459 8.0957 14.0459H3.27637C2.72408 14.0459 2.27539 13.5982 2.27539 13.0459V8.22656C2.27539 7.67444 2.72333 7.22683 3.27539 7.22656H7.7041V3.24414C7.7041 2.69202 8.15106 2.24343 8.70312 2.24316H13.5234Z" fill="white"/>
<path d="M3.60352 10.7178C3.60352 11.8223 4.49907 12.7176 5.60352 12.7178H7.12305V13.7178H5.60352L5.44922 13.7139C3.86421 13.6334 2.60352 12.3228 2.60352 10.7178V9.40332H3.60352V10.7178Z" fill="white"/>
<path d="M13.79 10.7178C13.79 12.3746 12.4469 13.7178 10.79 13.7178H9.79883V12.7178H10.79C11.8946 12.7178 12.79 11.8223 12.79 10.7178V9.40332H13.79V10.7178Z" fill="white"/>
<path d="M10.6074 4.71484C11.1595 4.71511 11.6074 5.16272 11.6074 5.71484V10.5352C11.6072 11.0871 11.1593 11.5349 10.6074 11.5352H5.78711C5.23499 11.5352 4.78737 11.0872 4.78711 10.5352V5.71484C4.78711 5.16256 5.23482 4.71484 5.78711 4.71484H10.6074Z" fill="white"/>
<path d="M7.12305 3.53125H5.60352C4.49922 3.53139 3.60375 4.42697 3.60352 5.53125V6.72852H2.60352V5.53125C2.60375 3.92643 3.86433 2.61558 5.44922 2.53516L5.60352 2.53125H7.12305V3.53125Z" fill="white"/>
<path d="M10.79 2.53125C12.4467 2.53125 13.7898 3.8746 13.79 5.53125V6.72852H12.79V5.53125C12.7898 4.4958 12.0027 3.64424 10.9941 3.54199L10.79 3.53125H9.79883V2.53125H10.79Z" fill="white"/>
</svg>
