<?xml version="1.0" encoding="utf-8"?>
<!-- Generator: Adobe Illustrator 26.1.0, SVG Export Plug-In . SVG Version: 6.00 Build 0)  -->
<svg version="1.1" id="Capa_2_00000044864807788284080050000009834572583461363630_"
	 xmlns="http://www.w3.org/2000/svg" xmlns:xlink="http://www.w3.org/1999/xlink" x="0px" y="0px" viewBox="0 0 32 32"
	 style="enable-background:new 0 0 32 32;" xml:space="preserve">
<style type="text/css">
	.st0{fill:#FFFFFF;}
</style>
<path class="st0" d="M16,0.2C7.3,0.2,0.2,7.3,0.2,16s7,15.8,15.8,15.8c8.7,0,15.8-7,15.8-15.8l0,0C31.8,7.3,24.7,0.2,16,0.2L16,0.2z
	 M19.1,24.9c0,1.7-1.3,3-3,3l0,0c-1.7,0-3-1.3-3-3V14.7c0-1.7,1.3-3,3-3l0,0c1.7,0,3,1.3,3,3V24.9z M19.1,7.1c0,1.7-1.3,3-3,3l0,0
	c-1.7,0-3-1.3-3-3l0,0c0-1.7,1.3-3,3-3l0,0C17.8,4.1,19.1,5.4,19.1,7.1L19.1,7.1z"/>
</svg>
