<svg id="Capa_2" data-name="Capa 2" xmlns="http://www.w3.org/2000/svg" viewBox="0 0 32 32"><defs><style>.cls-1{fill:#fff;}</style></defs><path class="cls-1" d="M2.11,16.37a1.38,1.38,0,0,0,.7.64c4,2,7.92,4,11.92,6a3.53,3.53,0,0,0,.62.24,1.58,1.58,0,0,0,.65.09,1.58,1.58,0,0,0,.65-.09,3.53,3.53,0,0,0,.62-.24c4-2,7.93-4,11.92-6a1.38,1.38,0,0,0,.7-.64.94.94,0,0,0,.12-.58,1.34,1.34,0,0,0,0-.2,1.1,1.1,0,0,0-.55-.84,1.37,1.37,0,0,0-1.08-.32,3.6,3.6,0,0,0-1.89.52c-3,1.49-6,2.93-8.92,4.47a3.8,3.8,0,0,1-1.57.47,3.8,3.8,0,0,1-1.57-.47c-2.94-1.54-5.95-3-8.92-4.47a3.6,3.6,0,0,0-1.89-.52,1.37,1.37,0,0,0-1.08.32,1.1,1.1,0,0,0-.55.84,1.34,1.34,0,0,0,0,.2A.94.94,0,0,0,2.11,16.37Z"/><path class="cls-1" d="M30,20.94s0-.05,0-.07a1,1,0,0,0,0-.16,1.24,1.24,0,0,0-.36-.89,1.81,1.81,0,0,0-2.11-.76,2.94,2.94,0,0,0-.85.31c-1,.54-2,1.05-3.06,1.57-1.23.59-2.46,1.2-3.66,1.83l-2.19,1.09a5,5,0,0,1-1.84.57,5,5,0,0,1-1.84-.57L12,22.77c-1.2-.63-2.43-1.24-3.66-1.84-1-.51-2.05-1-3.06-1.56a2.94,2.94,0,0,0-.85-.31,1.81,1.81,0,0,0-2.11.76,1.24,1.24,0,0,0-.36.89,1,1,0,0,0,0,.16s0,0,0,.07a2.14,2.14,0,0,0,.1.22h0A2.72,2.72,0,0,0,3.23,22c3.64,1.78,7.26,3.61,10.89,5.42a3.61,3.61,0,0,0,1.59.57L16,28l.29,0a3.61,3.61,0,0,0,1.59-.57c3.63-1.81,7.25-3.64,10.89-5.42a2.72,2.72,0,0,0,1.16-.86h0A2.14,2.14,0,0,0,30,20.94Z"/><path class="cls-1" d="M2.26,11.85l.15.12.06.06h0l.08.06a3.23,3.23,0,0,0,.53.32L4.15,13c3.53,1.86,7.52,4,10.29,5.13l.05,0,.11,0,.18.07.1,0a4.05,4.05,0,0,0,.47.12l.1,0h.12l.14,0,.11,0h.12l.11,0,.14,0h.13l.09,0a4.05,4.05,0,0,0,.47-.12l.1,0,.18-.07.11,0,.05,0C20.09,17,24.08,14.81,27.61,13l1.06-.54a3.23,3.23,0,0,0,.53-.32l.08-.06h0l.06-.06.15-.12a1.16,1.16,0,0,0,.39-.65.14.14,0,0,0,0-.06.14.14,0,0,1,0-.06.43.43,0,0,0,0-.05s0,0,0,0a.14.14,0,0,1,0-.07s0,0,0-.05a1.1,1.1,0,0,0-.39-.65l-.15-.13L29.29,10h0L29.2,10a4.11,4.11,0,0,0-.53-.32l-1.05-.53c-3.54-1.87-7.53-4-10.3-5.14l-.05,0-.1,0L17,3.83l-.1,0a4.05,4.05,0,0,0-.47-.12l-.1,0-.12,0-.14,0-.11,0h-.12l-.11,0-.14,0-.12,0-.1,0a4.05,4.05,0,0,0-.47.12l-.1,0-.18.08-.11,0-.05,0C11.67,5.1,7.68,7.24,4.15,9.11l-1.06.53a4.11,4.11,0,0,0-.53.32L2.48,10h0l-.06.05-.15.13a1.1,1.1,0,0,0-.39.65s0,0,0,.05a.14.14,0,0,1,0,.07s0,0,0,0a.43.43,0,0,0,0,.05.14.14,0,0,1,0,.06.14.14,0,0,0,0,.06A1.16,1.16,0,0,0,2.26,11.85Z"/></svg>