<?xml version="1.0" encoding="utf-8"?>
<!-- Generator: Adobe Illustrator 26.1.0, SVG Export Plug-In . SVG Version: 6.00 Build 0)  -->
<svg version="1.1" xmlns="http://www.w3.org/2000/svg" xmlns:xlink="http://www.w3.org/1999/xlink" x="0px" y="0px"
	 viewBox="0 0 32 32" style="enable-background:new 0 0 32 32;" xml:space="preserve">
<style type="text/css">
	.st0{display:none;}
	.st1{display:inline;fill:#FFFFFF;}
	.st2{fill:#FFFFFF;}
</style>
<g id="Capa_2_00000056423711728210904130000008406550720778302636_" class="st0">
	<path class="st1" d="M25.7,0H6.3C2.9,0,0.1,2.8,0.1,6.2v19.5c0,3.5,2.8,6.2,6.2,6.2h19.4c3.5,0,6.2-2.8,6.2-6.2V6.2
		C31.9,2.8,29.1,0,25.7,0z M4.3,10.7c0-1.7,1.4-3.1,3.1-3.1c1.7,0,3.1,1.4,3.1,3.1v2.5c0,1.7-1.4,3.1-3.1,3.1
		c-1.7,0-3.1-1.4-3.1-3.1V10.7z M23.5,25.9H8.5c-2.2,0-4-1.8-4-4s1.8-4,4-4h14.8c2.2,0,4,1.8,4,4C27.4,24,25.6,25.9,23.5,25.9z
		 M27.7,13.2c0,1.7-1.4,3.1-3.1,3.1c-1.7,0-3.1-1.4-3.1-3.1v-2.5c0-1.7,1.4-3.1,3.1-3.1c1.7,0,3.1,1.4,3.1,3.1V13.2z"/>
</g>
<g id="Capa_3">
	<g>
		<path class="st2" d="M25.8,0H6.2C2.8,0,0,2.8,0,6.2v19.5C0,29.2,2.8,32,6.2,32h19.5c3.5,0,6.2-2.8,6.2-6.2V6.2
			C32,2.8,29.2,0,25.8,0z M23.2,11.1c0-1.6,1.3-2.8,2.8-2.8c1.6,0,2.8,1.3,2.8,2.8v2.3c0,1.6-1.3,2.8-2.8,2.8
			c-1.6,0-2.8-1.3-2.8-2.8V11.1z M3.2,11.1c0-1.6,1.3-2.8,2.8-2.8s2.8,1.3,2.8,2.8v2.3c0,1.6-1.3,2.8-2.8,2.8S3.2,15,3.2,13.5V11.1z
			 M24.7,27.3H7.3c-2.6,0-4.7-2.1-4.7-4.7s2.1-4.7,4.7-4.7h17.4c2.6,0,4.7,2.1,4.7,4.7C29.3,25.2,27.3,27.3,24.7,27.3z M14.2,19.8
			h3.6v5.7h-3.6V19.8z M4.5,22.6c0,1.3,0.9,2.4,2.1,2.7v-5.5C5.3,20.1,4.5,21.3,4.5,22.6z M8.6,19.8h3.6v5.7H8.6V19.8z M19.8,19.8
			h3.6v5.7h-3.6V19.8z M25.4,19.9v5.5c1.5-0.2,2.5-1.7,2.3-3.2C27.5,21,26.6,20.1,25.4,19.9z"/>
	</g>
</g>
</svg>
