<svg width="16" height="16" viewBox="0 0 16 16" fill="none" xmlns="http://www.w3.org/2000/svg">
<path d="M3.5756 9.87842C3.57609 9.80822 3.6974 9.80454 3.7631 9.87842L4.95353 11.2563C4.89094 11.5693 4.95356 11.8819 5.14006 12.1323L7.2465 14.6353H1.35978V10.6343L1.51408 10.8179C1.63805 11.0057 1.88864 11.1313 2.13908 11.1313C2.32594 11.1313 2.51292 11.068 2.7006 10.9429L3.2631 10.4419C3.45066 10.3166 3.5756 10.0661 3.5756 9.87842Z" fill="white"/>
<path d="M14.6352 4.47314V14.6353H10.1694C10.4451 14.0851 10.3737 13.3979 9.95451 12.8843L7.58146 10.0669C7.39287 9.81655 7.14254 9.69101 6.83049 9.69092H6.76799L5.64103 8.43896L5.76603 8.31396C5.95507 8.12618 6.26716 8.00054 6.57951 8.00049H6.89201C7.14182 8.00049 7.39179 7.87495 7.51701 7.62451C7.64136 7.37417 7.57906 7.06129 7.39201 6.87354L7.01701 6.43506C6.97049 6.36765 6.91917 6.30478 6.86564 6.24463V4.7417H9.14494V9.12842H11.4086V11.4077H13.6869V5.06787L7.99748 2.30713L2.30803 5.06787V7.10205L2.13713 7.24951C1.94993 7.37473 1.82463 7.62516 1.82463 7.81299H1.76213C1.60275 7.81299 1.46845 7.8381 1.35978 7.88916V4.47314L7.99748 1.25342L14.6352 4.47314Z" fill="white"/>
<path d="M5.08372 6.12207C4.64608 6.12207 4.20719 6.24729 3.83154 6.56034L2.51674 7.6873C2.45413 7.74991 2.45413 7.87513 2.51674 7.93774C2.57935 8.00035 2.57935 8.12557 2.51674 8.18818L2.19743 8.46992C2.13608 8.52877 2.03528 8.52001 1.95451 8.43861C1.85559 8.33969 1.82929 8.3303 1.7047 8.43861L1.07861 9.00899C0.962779 9.12231 0.955891 9.18993 1.0185 9.25254L2.02025 10.4421C2.08912 10.5291 2.18929 10.5661 2.27069 10.5047L2.83229 10.0038C2.8949 9.94124 2.88739 9.83104 2.83229 9.75341C2.7772 9.67577 2.7653 9.56308 2.83229 9.50297L3.15911 9.23313C3.25678 9.15737 3.30061 9.14046 3.44085 9.25254C3.53477 9.32829 3.598 9.31827 3.66061 9.27194C3.72322 9.22624 3.71446 9.23313 3.7827 9.17678C3.86722 9.10791 3.93171 9.09413 4.02062 9.18993L5.64846 11.1934C5.46063 11.3186 5.46063 11.5691 5.58585 11.7569L7.95874 14.5743C8.20793 14.7622 8.45836 14.8874 8.71005 14.8874C8.96174 14.8874 9.14707 14.8248 9.33427 14.6369C9.77253 14.2613 9.77253 13.6978 9.45949 13.2595L7.08659 10.4421C7.02399 10.3795 6.89939 10.3169 6.77417 10.3169C6.71156 10.3169 6.58697 10.3169 6.52436 10.3795L5.14696 8.75166C4.89715 8.50122 4.99044 8.18818 5.24087 7.93774L5.38487 7.80313C5.69604 7.49008 6.14808 7.37426 6.64896 7.37426H6.89814C6.96075 7.37426 6.99456 7.29913 6.96075 7.24904L6.58572 6.81077C6.21069 6.37251 5.64721 6.12207 5.08372 6.12207Z" fill="white"/>
</svg>
