<svg id="Capa_2" data-name="Capa 2" xmlns="http://www.w3.org/2000/svg" viewBox="0 0 32 32"><defs><style>.cls-1{fill:#fff;}</style></defs><path class="cls-1" d="M3.05,12.44q4,2,8.05,4A9.63,9.63,0,0,1,28,12.81l1-.51c1.44-.75,1.33-1.81-.25-2.62C25,7.73,21.11,5.86,17.3,4a2.93,2.93,0,0,0-2.7,0C10.72,5.86,6.83,7.75,3,9.74,1.38,10.58,1.45,11.63,3.05,12.44Z"/><path class="cls-1" d="M10.8,18.81a8.12,8.12,0,0,1,0-.86L4.58,14.82c-1-.52-2.05-.57-2.58.52s.44,1.6,1.31,2l7.81,3.89A10,10,0,0,1,10.8,18.81Z"/><path class="cls-1" d="M20.44,10.94a7.88,7.88,0,1,0,7.87,7.87A7.87,7.87,0,0,0,20.44,10.94ZM22,23.26a1.51,1.51,0,0,1-1.51,1.5h0a1.5,1.5,0,0,1-1.5-1.5V18.17a1.51,1.51,0,0,1,1.5-1.51h0A1.52,1.52,0,0,1,22,18.17Zm0-8.88a1.51,1.51,0,0,1-1.51,1.5h0a1.5,1.5,0,0,1-1.5-1.5h0a1.51,1.51,0,0,1,1.5-1.51h0A1.52,1.52,0,0,1,22,14.37Z"/><path class="cls-1" d="M11.62,22.69C9.33,21.5,7,20.42,4.67,19.27A1.9,1.9,0,0,0,2,20.18c-.55,1,.28,1.49,1.14,1.91,3.65,1.79,7.28,3.62,10.92,5.44a3.61,3.61,0,0,0,1.6.57,3.5,3.5,0,0,0,.89-.08l.44-.21A9.65,9.65,0,0,1,11.62,22.69Z"/></svg>