<?xml version="1.0" encoding="utf-8"?>
<!-- Generator: Adobe Illustrator 26.1.0, SVG Export Plug-In . SVG Version: 6.00 Build 0)  -->
<svg version="1.1" id="Capa_2_00000116224277122408986540000006277410716952354726_"
	 xmlns="http://www.w3.org/2000/svg" xmlns:xlink="http://www.w3.org/1999/xlink" x="0px" y="0px" viewBox="0 0 32 32"
	 style="enable-background:new 0 0 32 32;" xml:space="preserve">
<style type="text/css">
	.st0{fill:#FFFFFF;}
</style>
<g>
	<path class="st0" d="M0.8,19.1c0.2,0.3,0.4,0.6,0.8,0.7c4.4,2.2,8.6,4.4,13,6.5c0.2,0.1,0.4,0.2,0.7,0.3c0.2,0.1,0.5,0.1,0.7,0.1
		c0.2,0,0.5,0,0.7-0.1c0.2-0.1,0.5-0.2,0.7-0.3c4.4-2.2,8.7-4.4,13-6.5c0.3-0.1,0.6-0.4,0.8-0.7c0.1-0.2,0.2-0.4,0.1-0.6
		c0-0.1,0-0.1,0-0.2c0-0.4-0.3-0.7-0.6-0.9c-0.3-0.3-0.8-0.4-1.2-0.3c-0.7,0-1.4,0.2-2.1,0.6c-3.3,1.6-6.5,3.2-9.7,4.9
		c-0.5,0.3-1.1,0.5-1.7,0.5c-0.6,0-1.2-0.2-1.7-0.5c-3.2-1.7-6.5-3.3-9.7-4.9C3.9,17.2,3.2,17,2.5,17c-0.4-0.1-0.9,0.1-1.2,0.3
		c-0.3,0.2-0.6,0.5-0.6,0.9c0,0.1,0,0.1,0,0.2C0.7,18.7,0.7,18.9,0.8,19.1z"/>
	<path class="st0" d="M1,14.2l0.2,0.1l0.1,0.1l0,0l0.1,0.1c0.2,0.1,0.4,0.3,0.6,0.3l1.2,0.6c3.9,2,8.2,4.4,11.2,5.6h0.1h0.1l0.2,0.1
		h0.1c0.2,0.1,0.3,0.1,0.5,0.1h0.1h0.1h0.2h0.1h0.1h0.1h0.2h0.1h0.1c0.2,0,0.3-0.1,0.5-0.1h0.1l0.2-0.1h0.1h0.1
		c3-1.2,7.4-3.6,11.2-5.6l1.2-0.6c0.2-0.1,0.4-0.2,0.6-0.3l0.1-0.1l0,0l0.1-0.1l0.2-0.1c0.2-0.2,0.4-0.4,0.4-0.7c0,0,0,0,0-0.1
		c0,0,0,0,0-0.1c0,0,0,0,0-0.1l0,0c0,0,0-0.1,0-0.1c0,0,0,0,0-0.1c-0.1-0.3-0.2-0.5-0.4-0.7l-0.2-0.1l-0.1-0.2l0,0h-0.1
		c-0.2-0.1-0.4-0.2-0.6-0.3l-1.1-0.6c-3.9-2-8.2-4.4-11.2-5.6h-0.1h-0.1l-0.2-0.2H17c-0.2-0.1-0.3-0.1-0.5-0.1h-0.1h-0.1h-0.2H16
		h-0.1h-0.1h-0.2h-0.1h-0.1c-0.2,0-0.3,0.1-0.5,0.1h-0.1l-0.2,0.1h-0.1h-0.1c-3,1.3-7.4,3.6-11.3,5.7l-1.2,0.6
		c-0.2,0.1-0.4,0.2-0.6,0.3l-0.1,0l0,0l-0.1,0.1L1,12.3c-0.2,0.2-0.4,0.4-0.4,0.7c0,0,0,0,0,0.1c0,0,0,0.1,0,0.1l0,0c0,0,0,0,0,0.1
		c0,0,0,0,0,0.1c0,0,0,0,0,0.1C0.6,13.7,0.8,14,1,14.2z"/>
</g>
</svg>
