<svg width="16" height="16" viewBox="0 0 16 16" fill="none" xmlns="http://www.w3.org/2000/svg">
<path d="M3.5 10C2.67157 10 2 10.6716 2 11.5C2 12.3284 2.67157 13 3.5 13C8.5783 13 7.4217 13 12.5 13C13.3284 13 14 12.3284 14 11.5C14 10.6716 13.3284 10 12.5 10C7.2718 10 7.77597 10 3.5 10Z" fill="white"/>
<path d="M5.5 6C4.67157 6 4 6.67157 4 7.5C4 8.32843 4.67157 9 5.5 9C9.5783 9 5.4217 9 10.5 9C11.3284 9 12 8.32843 12 7.5C12 6.67157 11.3284 6 10.5 6C5.2718 6 8.77597 6 5.5 6Z" fill="white"/>
<path d="M7.5783 2C6.74987 2 6.0783 2.67157 6.0783 3.5C6.0783 4.32843 6.74987 5 7.5783 5C11.6566 5 5.5 5.00007 8.49999 5.00007C9.32842 5.00007 9.99999 4.3285 9.99999 3.50007C9.99999 2.67164 9.32842 2.00007 8.49999 2.00007C5.35009 2.00007 11.8543 2 7.5783 2Z" fill="white"/>
</svg>
