<?xml version="1.0" encoding="utf-8"?>
<!-- Generator: Adobe Illustrator 26.1.0, SVG Export Plug-In . SVG Version: 6.00 Build 0)  -->
<svg version="1.1" id="Capa_1" xmlns="http://www.w3.org/2000/svg" xmlns:xlink="http://www.w3.org/1999/xlink" x="0px" y="0px"
	 viewBox="0 0 14 14" style="enable-background:new 0 0 14 14;" xml:space="preserve">
<style type="text/css">
	.st0{fill:#FFFFFF;}
</style>
<g>
	<path class="st0" d="M10.5,0c0.6,0,1.1,0.1,1.6,0.4c0.1,0.1,0.2,0.1,0.2,0.2c0,0.2-0.1,0.2-0.2,0.2c-0.4,0.3-0.9,0.5-1.4,0.8
		c-0.2,0.1-0.3,0.2-0.3,0.5c0,1.4,0,1.4,1.2,2.1c0.2,0.1,0.3,0.1,0.5,0c0.5-0.3,0.9-0.6,1.4-0.8C13.9,3.2,14,3.3,14,3.6
		c0,2-2,3.7-4,3.3c-0.3,0-0.4,0-0.6,0.2c-2.1,2.1-4.2,4.2-6.3,6.3c-0.5,0.5-1.2,0.7-1.9,0.5c-0.7-0.2-1.1-0.7-1.3-1.4
		c-0.1-0.7,0.1-1.3,0.6-1.8c2.1-2.1,4.1-4.1,6.2-6.2C7,4.4,7.1,4.2,7,3.9C6.7,1.9,8.4,0,10.5,0z"/>
</g>
</svg>
