<svg width="16" height="16" viewBox="0 0 16 16" fill="none" xmlns="http://www.w3.org/2000/svg">
<path d="M3.5 2C2.67157 2 2 2.67157 2 3.5C2 4.32843 2.67157 5 3.5 5C8.5783 5 7.4217 5 12.5 5C13.3284 5 14 4.32843 14 3.5C14 2.67157 13.3284 2 12.5 2C7.2718 2 7.77597 2 3.5 2Z" fill="white"/>
<path d="M5.5 6C4.67157 6 4 6.67157 4 7.5C4 8.32843 4.67157 9 5.5 9C9.5783 9 5.4217 9 10.5 9C11.3284 9 12 8.32843 12 7.5C12 6.67157 11.3284 6 10.5 6C5.2718 6 8.77597 6 5.5 6Z" fill="white"/>
<path d="M7.5783 10C6.74987 10 6.0783 10.6716 6.0783 11.5C6.0783 12.3284 6.74987 13 7.5783 13C11.6566 13 5.5 13.0001 8.49999 13.0001C9.32842 13.0001 9.99999 12.3285 9.99999 11.5001C9.99999 10.6716 9.32842 10.0001 8.49999 10.0001C5.35009 10.0001 11.8543 10 7.5783 10Z" fill="white"/>
</svg>
