<?xml version="1.0" encoding="UTF-8" standalone="no"?>
<!DOCTYPE svg PUBLIC "-//W3C//DTD SVG 1.1//EN" "http://www.w3.org/Graphics/SVG/1.1/DTD/svg11.dtd">
<svg width="100%" height="100%" viewBox="0 0 268 268" version="1.1" xmlns="http://www.w3.org/2000/svg" xmlns:xlink="http://www.w3.org/1999/xlink" xml:space="preserve" xmlns:serif="http://www.serif.com/" style="fill-rule:evenodd;clip-rule:evenodd;stroke-linejoin:round;stroke-miterlimit:2;">
    <g transform="matrix(1,0,0,1,-9906.376762,-7035.251175)">
        <g id="Mesa-de-trabajo1" serif:id="Mesa de trabajo1" transform="matrix(1,0,0,1,32.834436,21.875526)">
            <rect x="9873.542" y="7013.376" width="267.014" height="267.014" style="fill:none;"/>
            <g transform="matrix(0,0.328147,-1,0,16251.856173,4463.323871)">
                <path d="M8283.427,6279.427L8283.427,6332.999C8283.427,6342.553 8259.79,6350.309 8230.676,6350.309L8125.173,6350.309C8096.059,6350.309 8072.422,6342.553 8072.422,6332.999L8072.422,6279.427L7909.166,6279.427C7880.051,6279.427 7856.414,6271.671 7856.414,6262.117L7856.414,6227.497C7856.414,6217.943 7880.051,6210.187 7909.166,6210.187L8072.422,6210.187L8072.422,6156.614C8072.422,6147.061 8096.059,6139.304 8125.173,6139.304L8230.676,6139.304C8259.79,6139.304 8283.427,6147.061 8283.427,6156.614L8283.427,6210.187L8446.683,6210.187C8475.797,6210.187 8499.434,6217.943 8499.434,6227.497L8499.434,6262.117C8499.434,6271.671 8475.797,6279.427 8446.683,6279.427L8283.427,6279.427Z" style="fill:white;"/>
            </g>
        </g>
    </g>
</svg>
