<svg id="Capa_2" data-name="Capa 2" xmlns="http://www.w3.org/2000/svg" viewBox="0 0 28.064 27.526"><defs><style>.cls-1{fill:#fff;}</style></defs><path class="cls-1" d="M22.079,10.109c0-.506,0-1.011,0-1.516v-.28A4.63,4.63,0,0,0,21.734,6.2a4.011,4.011,0,0,0-.8-1.167c-.753-.729-8.245-4.6-8.886-4.845a3.6,3.6,0,0,0-2.929.3c-.56.285-6.693,3.55-7.3,3.938l-.2.124A2.912,2.912,0,0,0,.079,6.25,4.11,4.11,0,0,0,0,7.126c.011,1.355.01,2.709.008,4.063l0,2.675q0,1.816,0,3.633a3.882,3.882,0,0,0,.164,1.281A4.512,4.512,0,0,0,2.9,21.164c.281.13,1.432.752,2.651,1.411,2.33,1.26,3.873,2.089,4.087,2.14a6.129,6.129,0,0,0,1.393.158,6.625,6.625,0,0,0,1.4-.15.617.617,0,0,0,.538-.541,5.679,5.679,0,0,0-.01-1.557.458.458,0,0,0-.2-.346.408.408,0,0,0-.363-.008.2.2,0,0,1-.138.012c-.039-.019-.073-.082-.1-.179-.044-.241-.072-7.534-.03-7.964.019-.184.047-.357.177-.435.6-.358,7-4.044,7.2-4.133.194-.066.319-.081.372-.043s.081.17.081.387v.267c0,.564,0,1.127-.012,1.69a.561.561,0,0,0,.131.424.531.531,0,0,0,.4.141H20.6c.31,0,.624,0,.933,0a.512.512,0,0,0,.551-.588C22.08,11.269,22.08,10.689,22.079,10.109Zm-12.1,3.864c-.007.943-.006,1.885,0,2.827v1.028c0,3.523-.037,4.2-.059,4.283-.045.17-.118.212-.295.167a3.864,3.864,0,0,1-1.043-.5c-.164-.1-.329-.2-.5-.291-.22-.115-.906-.487-1.7-.919-1.315-.715-2.952-1.605-3.267-1.753a1.52,1.52,0,0,1-.967-1.445c-.028-1.729-.022-5.5-.02-6.919V9.858a.921.921,0,0,1,.091-.426c.023-.048.049-.078.073-.085l.015,0a.2.2,0,0,1,.089.031c.49.285,2.2,1.23,3.861,2.143,1.591.876,3.094,1.7,3.439,1.908A.545.545,0,0,1,9.982,13.973ZM2.794,6.7a.433.433,0,0,1,.185-.323A3.738,3.738,0,0,1,3.772,5.9c.13-.066.261-.132.388-.2.711-.4,4.958-2.755,5.99-3.283a2.1,2.1,0,0,1,.73-.178c.086-.011.171-.021.255-.035a2.377,2.377,0,0,1,.87.26c.765.433,5.938,3.253,6.589,3.591.086.045.174.089.262.133.148.074.3.147.439.229a.4.4,0,0,1,.232.348.378.378,0,0,1-.232.32c-.257.133-1.454.847-2.722,1.6-1.314.784-2.674,1.594-3.089,1.82-.145.079-.29.159-.431.238a5.453,5.453,0,0,1-1.7.739,2.168,2.168,0,0,1-.958-.2c-.374-.212-6.963-4.02-7.342-4.255C2.942,6.951,2.8,6.839,2.794,6.7Z"/><path class="cls-1" d="M19.13,15.61c.107-.01.213-.03.318-.049l.148-.026a.5.5,0,0,0,.452-.441,3.656,3.656,0,0,0,.032-.772l0-.181c-.009-.53-.193-.71-.725-.711H19.16a11.536,11.536,0,0,0-1.514.062,2,2,0,0,0-1.68,1.83q-.007.926-.006,1.85l0,1.008a1.2,1.2,0,0,1-.4.944,1.368,1.368,0,0,1-1,.288.608.608,0,0,0-.452.159.569.569,0,0,0-.141.429c0,.207,0,.414,0,.621v.374a.488.488,0,0,0,.536.535c.045,0,.091,0,.137,0s.108.007.163.007a1.141,1.141,0,0,1,.815.334,1.164,1.164,0,0,1,.334.835c0,.444-.006,2.389.023,2.9a2.041,2.041,0,0,0,1.812,1.884c.271.021.544.026.814.026.156,0,.31,0,.463,0s.285,0,.427,0A.523.523,0,0,0,20.059,27c.018-.239.02-.476.02-.739,0-.708-.135-.845-.844-.858A1.222,1.222,0,0,1,18.079,24.2l0-.287c.006-.43.012-.875,0-1.314a2.257,2.257,0,0,0-.616-1.752.44.44,0,0,1-.133-.309.736.736,0,0,1,.2-.51,1.573,1.573,0,0,0,.48-.861,15.5,15.5,0,0,0,.076-2.181l0-.222A1.107,1.107,0,0,1,19.13,15.61Z"/><path class="cls-1" d="M27.337,19.408l-.039,0c-.035,0-.071,0-.1,0a1,1,0,0,1-.779-.325,1.118,1.118,0,0,1-.346-.821c.017-.471.007-2.38-.019-2.868a2.154,2.154,0,0,0-1.814-1.937c-.432-.031-.873-.027-1.3-.022-.158,0-.315,0-.472,0a.462.462,0,0,0-.509.486c-.007.377-.007.756,0,1.133a.456.456,0,0,0,.467.485l.091.007c.084.006.171.011.253.01a1.059,1.059,0,0,1,.821.325,1.164,1.164,0,0,1,.351.849c-.007.306,0,.614,0,.921,0,.28.006.56,0,.841a2.129,2.129,0,0,0,.588,1.532.6.6,0,0,1,0,.9,2.108,2.108,0,0,0-.585,1.5c.007.671,0,1.345-.011,1.858a1.106,1.106,0,0,1-.335.775,1.248,1.248,0,0,1-.971.341c-.544.018-.671.15-.679.7,0,.156,0,.312,0,.469,0,.121,0,.241,0,.362a.593.593,0,0,0,.15.439.519.519,0,0,0,.414.145c.169,0,.31,0,.466,0s.3.006.444.006c.221,0,.442-.006.662-.027a2.021,2.021,0,0,0,1.737-1.146,2.509,2.509,0,0,0,.241-1.148c0-.473.005-.947.006-1.421q0-.552,0-1.1a1.137,1.137,0,0,1,.359-.829,1.3,1.3,0,0,1,.984-.319c.5-.021.634-.158.646-.666,0-.234,0-.467,0-.7C28.056,19.551,27.947,19.437,27.337,19.408Z"/></svg>