<?xml version="1.0" encoding="utf-8"?>
<!-- Generator: Adobe Illustrator 26.1.0, SVG Export Plug-In . SVG Version: 6.00 Build 0)  -->
<svg version="1.1" id="Capa_1" xmlns="http://www.w3.org/2000/svg" xmlns:xlink="http://www.w3.org/1999/xlink" x="0px" y="0px"
	 viewBox="0 0 800 800" style="enable-background:new 0 0 800 800;" xml:space="preserve">
<style type="text/css">
	.st0{fill:#FFFFFF;}
</style>
<g>
	<path class="st0" d="M786.9,147.1l-134-134c-17.5-17.5-45.9-17.5-63.4,0l-51.4,51.4l48.2,48.2c8.2,8.2,8.2,21.4,0,29.6
		c-8.2,8.2-21.4,8.2-29.6,0l-48.2-48.2l-81.4,81.4l48.2,48.2c8.2,8.2,8.2,21.4,0,29.6c-8.2,8.2-21.4,8.2-29.6,0l-48.2-48.2
		l-81.4,81.4l48.2,48.2c8.2,8.2,8.2,21.4,0,29.6c-8.2,8.2-21.4,8.2-29.6,0l-48.2-48.2l-81.4,81.4l48.2,48.2c8.2,8.2,8.2,21.4,0,29.6
		c-8.2,8.2-21.4,8.2-29.6,0l-48.2-48.2l-81.4,81.4l48.2,48.2c8.2,8.2,8.2,21.4,0,29.6c-8.2,8.2-21.4,8.2-29.6,0l-48.2-48.2
		l-51.4,51.4c-17.5,17.5-17.5,45.9,0,63.4l134,134c17.5,17.5,45.9,17.5,63.4,0l576.3-576.3C804.4,193,804.4,164.6,786.9,147.1z"/>
</g>
</svg>
