<svg width="16" height="16" viewBox="0 0 16 16" fill="none" xmlns="http://www.w3.org/2000/svg">
<path d="M11.9416 5.98644H11.3096V4.72246C11.3096 2.97816 9.89398 1.5625 8.14968 1.5625C6.40539 1.5625 4.98972 2.97816 4.98972 4.72246V5.98644H4.35773C3.66254 5.98644 3.09375 6.55523 3.09375 7.25042V13.5703C3.09375 14.2655 3.66254 14.8343 4.35773 14.8343H11.9416C12.6368 14.8343 13.2056 14.2655 13.2056 13.5703V7.25042C13.2056 6.55523 12.6368 5.98644 11.9416 5.98644ZM8.14968 11.6744C7.45449 11.6744 6.8857 11.1056 6.8857 10.4104C6.8857 9.71519 7.45449 9.1464 8.14968 9.1464C8.84487 9.1464 9.41366 9.71519 9.41366 10.4104C9.41366 11.1056 8.84487 11.6744 8.14968 11.6744ZM10.1089 5.98644H6.19051V4.72246C6.19051 3.64175 7.06898 2.76328 8.14968 2.76328C9.23039 2.76328 10.1089 3.64175 10.1089 4.72246V5.98644Z" fill="white"/>
</svg>
