<svg width="16" height="16" viewBox="0 0 16 16" fill="none" xmlns="http://www.w3.org/2000/svg">
<path d="M11.8874 5.78792C12.2226 5.78792 12.5441 5.9211 12.7812 6.15815C13.0182 6.39521 13.1514 6.71672 13.1514 7.05197V13.3722C13.1514 13.7074 13.0182 14.0289 12.7812 14.266C12.5441 14.5031 12.2226 14.6362 11.8874 14.6362H4.30311C3.96786 14.6362 3.64635 14.5031 3.40929 14.266C3.17224 14.0289 3.03906 13.7074 3.03906 13.3722V7.05197C3.03906 6.71672 3.17224 6.39521 3.40929 6.15815C3.64635 5.9211 3.96786 5.78792 4.30311 5.78792H9.9913V4.52388C9.9913 4.02101 9.79154 3.53874 9.43596 3.18316C9.08038 2.82758 8.59811 2.62781 8.09524 2.62781C7.59237 2.62781 7.1101 2.82758 6.75452 3.18316C6.39894 3.53874 6.19917 4.02101 6.19917 4.52388H4.93513C4.93513 3.68577 5.26807 2.88198 5.8607 2.28934C6.45334 1.69671 7.25712 1.36377 8.09524 1.36377C8.51023 1.36377 8.92116 1.44551 9.30456 1.60432C9.68796 1.76313 10.0363 1.9959 10.3298 2.28934C10.6232 2.58279 10.856 2.93116 11.0148 3.31456C11.1736 3.69796 11.2553 4.10889 11.2553 4.52388V5.78792H11.8874ZM8.09524 11.4761C8.43048 11.4761 8.752 11.3429 8.98905 11.1059C9.22611 10.8688 9.35928 10.5473 9.35928 10.2121C9.35928 9.87683 9.22611 9.55532 8.98905 9.31826C8.752 9.08121 8.43048 8.94803 8.09524 8.94803C7.75999 8.94803 7.43848 9.08121 7.20142 9.31826C6.96437 9.55532 6.83119 9.87683 6.83119 10.2121C6.83119 10.5473 6.96437 10.8688 7.20142 11.1059C7.43848 11.3429 7.75999 11.4761 8.09524 11.4761Z" fill="white"/>
</svg>
