<svg width="128" height="128" viewBox="0 0 128 128" fill="none" xmlns="http://www.w3.org/2000/svg">
<g clip-path="url(#clip0_3655_15454)">
<g filter="url(#filter0_d_3655_15454)">
<path d="M6 1H118C120.761 1 123 3.23858 123 6V110.024C123 111.355 122.47 112.631 121.526 113.569L113.508 121.545C112.571 122.477 111.304 123 109.982 123H6C3.23858 123 1 120.761 1 118V6C1 3.23858 3.23858 1 6 1Z" fill="white" stroke="#ABABAB" stroke-width="2"/>
<path d="M105.68 111.717C105.639 108.347 108.381 105.605 111.752 105.645L118.087 105.722C123.397 105.786 126.012 112.209 122.257 115.964L115.998 122.223C112.243 125.978 105.82 123.363 105.756 118.053L105.68 111.717Z" fill="white"/>
<path d="M106.679 111.705C106.646 108.897 108.931 106.612 111.739 106.646L118.075 106.722C122.5 106.776 124.679 112.127 121.55 115.257L115.291 121.516C112.162 124.645 106.81 122.466 106.756 118.041L106.679 111.705Z" stroke="black" stroke-opacity="0.33" stroke-width="2"/>
</g>
</g>
<defs>
<filter id="filter0_d_3655_15454" x="0" y="0" width="128.026" height="128" filterUnits="userSpaceOnUse" color-interpolation-filters="sRGB">
<feFlood flood-opacity="0" result="BackgroundImageFix"/>
<feColorMatrix in="SourceAlpha" type="matrix" values="0 0 0 0 0 0 0 0 0 0 0 0 0 0 0 0 0 0 127 0" result="hardAlpha"/>
<feOffset dx="4" dy="4"/>
<feComposite in2="hardAlpha" operator="out"/>
<feColorMatrix type="matrix" values="0 0 0 0 0 0 0 0 0 0 0 0 0 0 0 0 0 0 0.3 0"/>
<feBlend mode="normal" in2="BackgroundImageFix" result="effect1_dropShadow_3655_15454"/>
<feBlend mode="normal" in="SourceGraphic" in2="effect1_dropShadow_3655_15454" result="shape"/>
</filter>
<clipPath id="clip0_3655_15454">
<rect width="128" height="128" fill="white"/>
</clipPath>
</defs>
</svg>
