<svg width="64" height="64" viewBox="0 0 64 64" fill="none" xmlns="http://www.w3.org/2000/svg">
<g clip-path="url(#clip0_3652_30437)">
<g filter="url(#filter0_d_3652_30437)">
<path d="M3 0.5H61C62.3807 0.5 63.5 1.61929 63.5 3V54.9844C63.5 55.6635 63.2234 56.313 62.7344 56.7842L58.5674 60.7998C58.1016 61.2487 57.4799 61.4999 56.833 61.5H3C1.61929 61.5 0.5 60.3807 0.5 59V3C0.5 1.61929 1.61929 0.5 3 0.5Z" fill="white" stroke="#ABABAB"/>
<path d="M54.8398 55.8587C54.8195 54.1736 56.1907 52.8024 57.8758 52.8227L61.0435 52.8609C63.6986 52.8929 65.0062 56.1044 63.1286 57.982L59.9991 61.1115C58.1216 62.989 54.9101 61.6814 54.878 59.0263L54.8398 55.8587Z" fill="white"/>
<path d="M55.3398 55.8532C55.3228 54.449 56.4657 53.3062 57.8699 53.3231L61.0374 53.3611C63.25 53.3878 64.3394 56.0639 62.7747 57.6286L59.6452 60.7581C58.0806 62.3223 55.4048 61.2329 55.3777 59.0207L55.3398 55.8532Z" stroke="black" stroke-opacity="0.33"/>
</g>
</g>
<defs>
<filter id="filter0_d_3652_30437" x="0" y="0" width="64.013" height="64" filterUnits="userSpaceOnUse" color-interpolation-filters="sRGB">
<feFlood flood-opacity="0" result="BackgroundImageFix"/>
<feColorMatrix in="SourceAlpha" type="matrix" values="0 0 0 0 0 0 0 0 0 0 0 0 0 0 0 0 0 0 127 0" result="hardAlpha"/>
<feOffset dy="2"/>
<feComposite in2="hardAlpha" operator="out"/>
<feColorMatrix type="matrix" values="0 0 0 0 0 0 0 0 0 0 0 0 0 0 0 0 0 0 0.3 0"/>
<feBlend mode="normal" in2="BackgroundImageFix" result="effect1_dropShadow_3652_30437"/>
<feBlend mode="normal" in="SourceGraphic" in2="effect1_dropShadow_3652_30437" result="shape"/>
</filter>
<clipPath id="clip0_3652_30437">
<rect width="64" height="64" fill="white"/>
</clipPath>
</defs>
</svg>
