<svg width="16" height="16" viewBox="0 0 16 16" fill="none" xmlns="http://www.w3.org/2000/svg">
<path d="M11.917 10.7607V12.9053L7.91699 11.8301L3.91699 12.9053V10.7607L7.91699 9.68555L11.917 10.7607Z" fill="white"/>
<path d="M11.917 7.54102V9.68555L7.91699 8.61035L3.91699 9.68555V7.54102L7.91699 6.46582L11.917 7.54102Z" fill="white"/>
<path d="M11.917 4.32129V6.46582L7.91699 5.38965L3.91699 6.46582V4.32129L7.91699 3.24609L11.917 4.32129Z" fill="white"/>
<path fill-rule="evenodd" clip-rule="evenodd" d="M12.2041 1.08105C13.2128 1.18334 14 2.03468 14 3.07031V13.1182C13.9998 14.1536 13.2126 15.0052 12.2041 15.1074L12 15.1182H4C2.89559 15.1182 2.00026 14.2225 2 13.1182V3.07031C2 1.96574 2.89543 1.06934 4 1.06934H12L12.2041 1.08105ZM4 2.07031C3.44772 2.07031 3 2.51803 3 3.07031V13.1182C3.00026 13.6702 3.44788 14.1182 4 14.1182H12C12.5521 14.1182 12.9997 13.6702 13 13.1182V3.07031C13 2.55265 12.6066 2.12655 12.1025 2.0752L12 2.07031H4Z" fill="white"/>
</svg>
