<svg width="16" height="16" viewBox="0 0 16 16" fill="none" xmlns="http://www.w3.org/2000/svg">
<path d="M2.80286 1.16211C3.35042 1.01849 3.9316 1.07925 4.43762 1.33301C4.94385 1.58697 5.34061 2.0169 5.55286 2.54199H12.7081C13.4799 2.5421 14.22 2.84883 14.7657 3.39453C15.3116 3.94043 15.6183 4.68111 15.6183 5.45312C15.6182 6.225 15.3115 6.96492 14.7657 7.51074C14.2199 8.05651 13.48 8.36415 12.7081 8.36426H5.7218C5.25867 8.36427 4.81397 8.54755 4.48645 8.875C4.15895 9.20254 3.97473 9.64717 3.97473 10.1104C3.97475 10.5735 4.15892 11.0182 4.48645 11.3457C4.81397 11.6731 5.25867 11.8564 5.7218 11.8564H9.99817V10.0605L14.089 12.4229L9.99817 14.7852V13.0215H5.7218C4.94986 13.0215 4.20908 12.7148 3.66321 12.1689C3.11732 11.6231 2.81069 10.8823 2.81067 10.1104C2.81067 9.33836 3.11734 8.59765 3.66321 8.05176C4.20908 7.50595 4.94986 7.19923 5.7218 7.19922H12.7081C13.1712 7.19912 13.6151 7.01491 13.9425 6.6875C14.2699 6.36004 14.4541 5.91619 14.4542 5.45312C14.4542 4.98991 14.27 4.54531 13.9425 4.21777C13.6151 3.89043 13.1711 3.70616 12.7081 3.70605H5.70422C5.63328 4.2679 5.36008 4.78523 4.93567 5.16016C4.51121 5.53507 3.96392 5.74212 3.39758 5.74316C2.83148 5.7441 2.28423 5.53918 1.85852 5.16602C1.43268 4.79265 1.15713 4.27646 1.08411 3.71484C1.01112 3.15326 1.14585 2.58408 1.46204 2.11426C1.77826 1.64454 2.25516 1.30589 2.80286 1.16211Z" fill="white"/>
</svg>
