<?xml version="1.0" encoding="utf-8"?>
<!-- Generator: Adobe Illustrator 26.1.0, SVG Export Plug-In . SVG Version: 6.00 Build 0)  -->
<svg version="1.1" id="Capa_2_00000078728634836800642300000007000923774306195589_"
	 xmlns="http://www.w3.org/2000/svg" xmlns:xlink="http://www.w3.org/1999/xlink" x="0px" y="0px" viewBox="0 0 32 32"
	 style="enable-background:new 0 0 32 32;" xml:space="preserve">
<style type="text/css">
	.st0{fill:#FFFFFF;}
</style>
<path class="st0" d="M16,6.4C9.3,6.4,3.8,10.7,3.8,16c0,1.8,0.6,3.5,1.7,4.9c0.2-0.2,0.3-0.3,0.5-0.5c2.3-1.8,5.3-1.7,6.7,0.1
	c0.9,1.4,0.9,3.3-0.1,4.7c1.1,0.2,2.2,0.4,3.3,0.4c6.7,0,12.2-4.3,12.2-9.6S22.7,6.4,16,6.4z M10.7,12.4c-1,0-1.8-0.8-1.8-1.8
	s0.8-1.8,1.8-1.8s1.8,0.8,1.8,1.8c0,0,0,0,0,0C12.4,11.6,11.7,12.4,10.7,12.4z M17.8,24c-1,0-1.8-0.8-1.8-1.8c0-1,0.8-1.8,1.8-1.8
	c1,0,1.8,0.8,1.8,1.8c0,0,0,0,0,0C19.6,23.2,18.8,24,17.8,24z M19.3,10.7c0-1,0.8-1.8,1.8-1.8c1,0,1.8,0.8,1.8,1.8
	c0,1-0.8,1.8-1.8,1.8c0,0,0,0,0,0C20.1,12.5,19.3,11.7,19.3,10.7C19.3,10.7,19.3,10.7,19.3,10.7L19.3,10.7z M23,21.5
	c-1,0-1.8-0.8-1.8-1.8c0-1,0.8-1.8,1.8-1.8c1,0,1.8,0.8,1.8,1.8c0,0,0,0,0,0C24.8,20.7,24,21.5,23,21.5z M25,16.2
	c-1,0-1.8-0.8-1.8-1.8c0-1,0.8-1.8,1.8-1.8c1,0,1.8,0.8,1.8,1.8c0,0,0,0,0,0C26.8,15.4,26,16.2,25,16.2z M16,11.2
	c-1,0-1.8-0.8-1.8-1.8S15,7.7,16,7.7s1.8,0.8,1.8,1.8C17.8,10.4,17,11.2,16,11.2L16,11.2z"/>
<path class="st0" d="M16,6.4C9.3,6.4,3.8,10.7,3.8,16c0,1.8,0.6,3.5,1.7,4.9c0.2-0.2,0.3-0.3,0.5-0.5c2.3-1.8,5.3-1.7,6.7,0.1
	c0.9,1.4,0.9,3.3-0.1,4.7c1.1,0.2,2.2,0.4,3.3,0.4c6.7,0,12.2-4.3,12.2-9.6C28.2,10.7,22.7,6.4,16,6.4z M12.5,10.6
	c0,1-0.8,1.8-1.8,1.8c-1,0-1.8-0.8-1.8-1.8s0.8-1.8,1.8-1.8C11.6,8.8,12.4,9.6,12.5,10.6C12.5,10.6,12.5,10.6,12.5,10.6z M19.3,10.6
	L19.3,10.6C19.3,10.7,19.3,10.7,19.3,10.6C19.3,10.7,19.3,10.7,19.3,10.6z M14.2,9.5c0-1,0.8-1.8,1.8-1.8c1,0,1.8,0.8,1.8,1.8
	c0,0,0,0,0,0c0,1-0.8,1.8-1.8,1.8C15,11.3,14.2,10.5,14.2,9.5z M19.6,22.2c0,1-0.8,1.8-1.8,1.8c-1,0-1.8-0.8-1.8-1.8
	c0-1,0.8-1.8,1.8-1.8C18.8,20.4,19.6,21.2,19.6,22.2C19.6,22.2,19.6,22.2,19.6,22.2z M21.1,12.5c-1,0-1.8-0.8-1.8-1.8
	c0-1,0.8-1.8,1.8-1.8c1,0,1.8,0.8,1.8,1.8C22.9,11.6,22.1,12.5,21.1,12.5C21.1,12.5,21.1,12.5,21.1,12.5z M24.8,19.7
	c0,1-0.8,1.8-1.8,1.8c-1,0-1.8-0.8-1.8-1.8c0-1,0.8-1.8,1.8-1.8C24,17.9,24.8,18.7,24.8,19.7C24.8,19.7,24.8,19.7,24.8,19.7z
	 M25,16.2c-1,0-1.8-0.8-1.8-1.8c0-1,0.8-1.8,1.8-1.8c1,0,1.8,0.8,1.8,1.8c0,0,0,0,0,0C26.8,15.4,26,16.2,25,16.2z"/>
</svg>
