<svg id="Capa_2" data-name="Capa 2" xmlns="http://www.w3.org/2000/svg" viewBox="0 0 32 32"><defs><style>.cls-1{fill:#fff;}</style></defs><path class="cls-1" d="M16,2.14a2.45,2.45,0,1,0,2.45,2.45A2.45,2.45,0,0,0,16,2.14Z"/><rect class="cls-1" x="15.08" y="21.52" width="2" height="3.12"/><path class="cls-1" d="M9.77,23.08a1.54,1.54,0,0,0,1.16,1.48v-3A1.54,1.54,0,0,0,9.77,23.08Z"/><rect class="cls-1" x="12.01" y="21.52" width="2" height="3.12"/><rect class="cls-1" x="18.16" y="21.52" width="2" height="3.12"/><path class="cls-1" d="M21.24,21.6v3a1.52,1.52,0,0,0,0-3Z"/><path class="cls-1" d="M27.29,17.12v5a2.5,2.5,0,0,0,0-5Z"/><path class="cls-1" d="M4.87,17.1a2.52,2.52,0,0,0,0,5Z"/><path class="cls-1" d="M22.32,11H9.85a4,4,0,0,0-4,4v8.59a4,4,0,0,0,4,4H22.32a4,4,0,0,0,4-4V15A4,4,0,0,0,22.32,11Zm-2.27,5.79a1.55,1.55,0,1,1,3.1,0v1.28a1.55,1.55,0,1,1-3.1,0Zm-11,0a1.55,1.55,0,0,1,3.1,0v1.28a1.55,1.55,0,0,1-3.1,0Zm11.82,8.85H11.33a2.56,2.56,0,0,1,0-5.12h9.51a2.56,2.56,0,0,1,0,5.12Z"/><path class="cls-1" d="M17.58,10,17.2,7.82a3.38,3.38,0,0,1-2.4,0L14.42,10Z"/></svg>