<?xml version="1.0" encoding="utf-8"?>
<!-- Generator: Adobe Illustrator 26.1.0, SVG Export Plug-In . SVG Version: 6.00 Build 0)  -->
<svg version="1.1" id="Capa_1" xmlns="http://www.w3.org/2000/svg" xmlns:xlink="http://www.w3.org/1999/xlink" x="0px" y="0px"
	 viewBox="0 0 17 17" style="enable-background:new 0 0 17 17;" xml:space="preserve">
<style type="text/css">
	.st0{fill:#FFFFFF;}
</style>
<path class="st0" d="M13.8,12.8l-2.2-2.2c0.6-0.8,0.9-1.8,1-2.8l0-0.2c0-2.9-2.4-5.3-5.3-5.3c-2.9,0-5.3,2.4-5.3,5.3
	c0,2.9,2.4,5.3,5.3,5.3l0.2,0c1,0,2-0.4,2.8-1l2.2,2.2l0.1,0.1c0.3,0.3,0.9,0.3,1.2-0.1C14.2,13.7,14.2,13.2,13.8,12.8z M7.4,4.1
	c1.9,0,3.5,1.6,3.5,3.5c0,1.9-1.6,3.5-3.5,3.5c-1.9,0-3.5-1.6-3.5-3.5C3.8,5.6,5.4,4.1,7.4,4.1z"/>
</svg>
