<svg width="16" height="16" viewBox="0 0 16 16" fill="none" xmlns="http://www.w3.org/2000/svg">
<g clip-path="url(#clip0_2969_27992)">
<path d="M12.7686 12.4393L13.942 11.2659L15.116 12.4393C15.3483 12.6715 15.5064 12.9673 15.5705 13.2893C15.6346 13.6114 15.6018 13.9452 15.4762 14.2486C15.3505 14.552 15.1377 14.8113 14.8647 14.9937C14.5917 15.1762 14.2707 15.2736 13.9423 15.2736C13.614 15.2736 13.293 15.1762 13.0199 14.9937C12.7469 14.8113 12.5341 14.552 12.4085 14.2486C12.2828 13.9452 12.25 13.6114 12.3141 13.2893C12.3782 12.9673 12.5364 12.6715 12.7686 12.4393ZM5.89554 0.717285L13.4087 8.22982C13.4705 8.2915 13.5195 8.36474 13.5529 8.44535C13.5863 8.52597 13.6035 8.61238 13.6035 8.69965C13.6035 8.78692 13.5863 8.87333 13.5529 8.95395C13.5195 9.03456 13.4705 9.1078 13.4087 9.16947L7.77417 14.804C7.64964 14.9285 7.48077 14.9985 7.30468 14.9985C7.1286 14.9985 6.95972 14.9285 6.83519 14.804L1.20062 9.16947C1.13888 9.1078 1.0899 9.03456 1.05648 8.95395C1.02306 8.87333 1.00586 8.78692 1.00586 8.69965C1.00586 8.61238 1.02306 8.52597 1.05648 8.44535C1.0899 8.36474 1.13888 8.2915 1.20062 8.22982L6.3657 3.06475L4.95656 1.65627L5.89554 0.717285ZM7.30468 4.00439L2.6091 8.69932H11.9996L7.30468 4.00439Z" fill="white"/>
</g>
<defs>
<clipPath id="clip0_2969_27992">
<rect width="15.9375" height="15.9375" fill="white"/>
</clipPath>
</defs>
</svg>
