<svg width="32" height="32" viewBox="0 0 32 32" fill="none" xmlns="http://www.w3.org/2000/svg">
<path fill-rule="evenodd" clip-rule="evenodd" d="M6.56888 6.94744C8.84892 4.63339 12.5734 4.60514 14.8874 6.88516C16.8394 8.80862 17.1637 11.7602 15.8487 14.0257L21.2172 19.3159L23.0249 17.4839C23.4525 17.0502 24.1505 17.0444 24.5833 17.4723C25.0172 17.8998 25.0228 18.5977 24.5954 19.0317L22.7899 20.8654L24.522 22.5725L26.8446 20.2158C27.2722 19.7818 27.9717 19.7766 28.4057 20.2041C28.8389 20.6307 28.8426 21.3297 28.4151 21.7636L26.0941 24.1209L26.4561 24.477C27.0346 25.0469 27.0411 25.9769 26.4715 26.5557C25.9016 27.1347 24.9691 27.1411 24.3907 26.5723L13.7838 16.122C11.5383 17.4701 8.58272 17.1883 6.63061 15.2649C4.31657 12.9849 4.28892 9.26152 6.56888 6.94744ZM13.2349 8.5604C11.8464 7.19239 9.61209 7.20892 8.24406 8.59734C6.87614 9.98579 6.89258 12.2202 8.281 13.5882C9.66941 14.9561 11.9038 14.9395 13.2718 13.5512C14.6398 12.1628 14.6232 9.92842 13.2349 8.5604Z" fill="white"/>
</svg>
