<svg width="16" height="16" viewBox="0 0 16 16" fill="none" xmlns="http://www.w3.org/2000/svg">
<path d="M7.99976 3.92578H13.4314C13.8047 3.92578 14.1243 4.05927 14.3904 4.3252C14.6561 4.59088 14.7898 4.91077 14.7898 5.28418V12.0732C14.7898 12.4467 14.6561 12.7671 14.3904 13.0332C14.1243 13.2986 13.8046 13.4316 13.4314 13.4316H2.56812C2.19505 13.4315 1.87562 13.2986 1.61011 13.0332C1.34397 12.7671 1.21069 12.4467 1.21069 12.0732V3.92578C1.2108 3.55256 1.34407 3.23336 1.61011 2.96777C1.87569 2.70174 2.19489 2.56846 2.56812 2.56836H6.64233L7.99976 3.92578ZM12.3562 6.75586C12.0438 6.75598 11.7898 7.00889 11.7898 7.32129V7.60449H10.0925V7.32129C10.0925 7.00882 9.83957 6.75586 9.5271 6.75586C9.21475 6.756 8.96167 7.0089 8.96167 7.32129V7.60449H8.67847C8.36611 7.60461 8.11305 7.85754 8.11304 8.16992C8.11326 8.48213 8.36623 8.73523 8.67847 8.73535H8.96167V10.4326H8.67847C8.3661 10.4327 8.11304 10.6866 8.11304 10.999C8.11336 11.3111 8.3663 11.5643 8.67847 11.5645H8.96167V11.8477C8.96197 12.1598 9.21493 12.4129 9.5271 12.4131C9.83938 12.4131 10.0922 12.1599 10.0925 11.8477V11.5645H11.7898V11.8477C11.7901 12.1598 12.044 12.413 12.3562 12.4131C12.6684 12.413 12.9213 12.1598 12.9216 11.8477V11.5645H13.2048L13.3191 11.5527C13.5765 11.4998 13.77 11.272 13.7703 10.999C13.7703 10.7257 13.5767 10.4972 13.3191 10.4443L13.2048 10.4326H12.9216V8.73535H13.2048L13.3191 8.72461C13.5766 8.67176 13.7701 8.44305 13.7703 8.16992C13.7702 7.89663 13.5768 7.6681 13.3191 7.61523L13.2048 7.60449H12.9216V7.32129C12.9216 7.00888 12.6686 6.75596 12.3562 6.75586ZM11.7898 8.73535V10.4326H10.0925V8.73535H11.7898Z" fill="white"/>
</svg>
