<svg width="16" height="16" viewBox="0 0 16 16" fill="none" xmlns="http://www.w3.org/2000/svg">
<g clip-path="url(#clip0_153_676)">
<path d="M8.00024 3.23779H14.3499C14.7864 3.23779 15.1608 3.39344 15.4719 3.70459C15.7825 4.01518 15.9377 4.38918 15.9377 4.82568V12.7632C15.9376 13.1995 15.7824 13.5733 15.4719 13.8843C15.1608 14.1949 14.7864 14.3501 14.3499 14.3501H1.65063C1.21408 14.3501 0.840157 14.1949 0.529541 13.8843C0.218496 13.5732 0.0628477 13.1996 0.0627441 12.7632V3.23779C0.0627441 2.80123 0.218392 2.42732 0.529541 2.1167C0.840122 1.80568 1.21417 1.6499 1.65063 1.6499H6.41235L8.00024 3.23779ZM13.093 6.64111C12.7808 6.64137 12.5266 6.89423 12.5266 7.20654V7.6333H10.3508V7.20654C10.3508 6.89407 10.0979 6.64112 9.7854 6.64111C9.47315 6.64137 9.21997 6.89423 9.21997 7.20654V7.6333H8.79321C8.48096 7.63356 8.22778 7.88642 8.22778 8.19873C8.22785 8.51099 8.481 8.7639 8.79321 8.76416H9.21997V10.9399H8.79321C8.48096 10.9402 8.22778 11.194 8.22778 11.5063C8.22803 11.8184 8.48112 12.0715 8.79321 12.0718H9.21997V12.4985C9.22022 12.8106 9.4733 13.0637 9.7854 13.064C10.0977 13.064 10.3506 12.8108 10.3508 12.4985V12.0718H12.5266V12.4985C12.5269 12.8106 12.7809 13.0637 13.093 13.064C13.4052 13.0638 13.6582 12.8107 13.6584 12.4985V12.0718H14.0852C14.3974 12.0716 14.6504 11.8185 14.6506 11.5063C14.6506 11.194 14.3975 10.9401 14.0852 10.9399H13.6584V8.76416H14.0852C14.3975 8.76397 14.6506 8.51103 14.6506 8.19873C14.6506 7.88638 14.3975 7.63349 14.0852 7.6333H13.6584V7.20654C13.6584 6.89419 13.4053 6.6413 13.093 6.64111ZM12.5266 8.76416V10.9399H10.3508V8.76416H12.5266Z" fill="white"/>
</g>
<defs>
<clipPath id="clip0_153_676">
<rect width="16" height="16" fill="white"/>
</clipPath>
</defs>
</svg>
