<svg width="16" height="16" viewBox="0 0 16 16" fill="none" xmlns="http://www.w3.org/2000/svg">
<path fill-rule="evenodd" clip-rule="evenodd" d="M10.872 9.10498L10.0009 9.97607L8.54481 8.51904L7.44325 9.62158L8.5536 10.7319L7.5663 11.7183L6.45595 10.6079L5.61806 11.4468C5.98763 12.2112 5.86336 13.1728 5.22255 13.814C4.40856 14.6278 3.07652 14.6279 2.26259 13.814C1.44893 13 1.44893 11.6689 2.26259 10.855C2.90383 10.2137 3.86615 10.0896 4.63075 10.4595L8.4286 6.66162L10.872 9.10498ZM4.23622 11.8403C3.96487 11.5692 3.52016 11.5701 3.24892 11.8413C2.97791 12.1126 2.97791 12.5564 3.24892 12.8276C3.52016 13.0989 3.96487 13.0997 4.23622 12.8286C4.50755 12.5573 4.50755 12.1117 4.23622 11.8403Z" fill="white"/>
<path d="M9.51552 3.09717C11.3908 3.09753 12.9119 4.61829 12.912 6.49365V13.3901L9.51552 11.6138V11.1831L9.65517 11.0435L10.0018 11.3901L12.286 9.10498L9.51552 6.3335V3.09717Z" fill="white"/>
<path d="M9.51552 1.57568C12.1841 1.57613 14.3474 3.73909 14.3475 6.40771V13.3901H13.3202V12.3862H13.3134V6.40771C13.3132 4.31039 11.6128 2.61031 9.51552 2.60986C7.41789 2.60986 5.71681 4.31012 5.71669 6.40771V7.95947L4.68251 8.99365V6.40771C4.68263 3.73882 6.84659 1.57568 9.51552 1.57568Z" fill="white"/>
</svg>
