<svg width="16" height="16" viewBox="0 0 16 16" fill="none" xmlns="http://www.w3.org/2000/svg">
<g clip-path="url(#clip0_153_632)">
<path fill-rule="evenodd" clip-rule="evenodd" d="M2.01165 1.60932C1.78945 1.60932 1.60932 1.78945 1.60932 2.01165V14.0815C1.60932 14.3037 1.78945 14.4839 2.01165 14.4839H14.0815C14.3037 14.4839 14.4839 14.3037 14.4839 14.0815V2.01165C14.4839 1.78945 14.3037 1.60932 14.0815 1.60932H2.01165ZM0 2.01165C0 0.900646 0.900646 0 2.01165 0H14.0815C15.1925 0 16.0932 0.900646 16.0932 2.01165V14.0815C16.0932 15.1925 15.1925 16.0932 14.0815 16.0932H2.01165C0.900646 16.0932 0 15.1925 0 14.0815V2.01165Z" fill="white"/>
<path fill-rule="evenodd" clip-rule="evenodd" d="M6.03509 4.02246C6.47949 4.02246 6.83975 4.38272 6.83975 4.82712V5.22945H9.25372V4.82712C9.25372 4.38272 9.61398 4.02246 10.0584 4.02246C10.5028 4.02246 10.863 4.38272 10.863 4.82712V5.22945H11.2654C11.7098 5.22945 12.07 5.58971 12.07 6.03411C12.07 6.47851 11.7098 6.83877 11.2654 6.83877H10.863V9.25275H11.2654C11.7098 9.25275 12.07 9.61301 12.07 10.0574C12.07 10.5018 11.7098 10.8621 11.2654 10.8621H10.863V11.2644C10.863 11.7088 10.5028 12.0691 10.0584 12.0691C9.61398 12.0691 9.25372 11.7088 9.25372 11.2644V10.8621H6.83975V11.2644C6.83975 11.7088 6.47949 12.0691 6.03509 12.0691C5.59068 12.0691 5.23043 11.7088 5.23043 11.2644V10.8621H4.8281C4.3837 10.8621 4.02344 10.5018 4.02344 10.0574C4.02344 9.61301 4.3837 9.25275 4.8281 9.25275H5.23043V6.83877H4.8281C4.3837 6.83877 4.02344 6.47851 4.02344 6.03411C4.02344 5.58971 4.3837 5.22945 4.8281 5.22945H5.23043V4.82712C5.23043 4.38272 5.59068 4.02246 6.03509 4.02246ZM6.83975 6.83877V9.25275H9.25372V6.83877H6.83975Z" fill="white"/>
</g>
<defs>
<clipPath id="clip0_153_632">
<rect width="16" height="16" fill="white"/>
</clipPath>
</defs>
</svg>
