<svg width="16" height="16" viewBox="0 0 16 16" fill="none" xmlns="http://www.w3.org/2000/svg">
<g clip-path="url(#clip0_799_9169)">
<path d="M4.13706 10.6623L5.33725 11.8625L6.53744 10.6623L5.33725 9.46214L4.13706 10.6623Z" fill="white"/>
<path fill-rule="evenodd" clip-rule="evenodd" d="M1.15958 12.4269C0.378529 11.6459 0.378528 10.3795 1.15958 9.59848L8.52809 2.22997C8.93254 1.82552 9.4908 1.61359 10.0618 1.64775L12.3389 1.78401C13.3494 1.84447 14.1554 2.65046 14.2159 3.66098L14.3521 5.93814C14.3863 6.5091 14.1744 7.06736 13.7699 7.47181L6.40142 14.8403C5.62037 15.6214 4.35404 15.6214 3.57299 14.8403L1.15958 12.4269ZM2.33677 9.66217C2.55772 9.44123 2.91595 9.44123 3.1369 9.66217L3.33693 9.86221L4.53712 8.66201L4.33709 8.46198C4.11614 8.24103 4.11614 7.8828 4.33709 7.66185C4.55804 7.4409 4.91627 7.4409 5.13722 7.66185L5.33725 7.86189L5.53728 7.66185C5.75823 7.4409 6.11646 7.4409 6.33741 7.66185C6.55836 7.8828 6.55836 8.24103 6.33741 8.46198L6.13738 8.66201L7.33757 9.86221L7.53761 9.66217C7.75855 9.44122 8.11678 9.44122 8.33773 9.66217C8.55868 9.88312 8.55868 10.2414 8.33773 10.4623L8.1377 10.6623L8.33773 10.8624C8.55868 11.0833 8.55868 11.4415 8.33773 11.6625C8.11678 11.8834 7.75855 11.8834 7.53761 11.6625L7.33757 11.4625L6.13738 12.6627L6.33741 12.8627C6.55836 13.0836 6.55836 13.4419 6.33741 13.6628C6.11646 13.8838 5.75823 13.8838 5.53728 13.6628L5.33725 13.4628L5.13722 13.6628C4.91627 13.8838 4.55804 13.8838 4.33709 13.6628C4.11614 13.4419 4.11614 13.0836 4.33709 12.8627L4.53712 12.6627L3.33693 11.4625L3.1369 11.6625C2.91595 11.8834 2.55772 11.8834 2.33677 11.6625C2.11582 11.4415 2.11582 11.0833 2.33677 10.8624L2.5368 10.6623L2.33677 10.4623C2.11582 10.2414 2.11582 9.88312 2.33677 9.66217ZM11.9449 5.52312C12.3354 5.1326 12.3354 4.49943 11.9449 4.10891C11.5543 3.71838 10.9212 3.71838 10.5306 4.10891C10.1401 4.49943 10.1401 5.1326 10.5306 5.52312C10.9212 5.91365 11.5543 5.91365 11.9449 5.52312Z" fill="white"/>
</g>
<defs>
<clipPath id="clip0_799_9169">
<rect width="16" height="16" fill="white"/>
</clipPath>
</defs>
</svg>
