<?xml version="1.0" encoding="utf-8"?>
<!-- Generator: Adobe Illustrator 26.1.0, SVG Export Plug-In . SVG Version: 6.00 Build 0)  -->
<svg version="1.1" id="Capa_1" xmlns="http://www.w3.org/2000/svg" xmlns:xlink="http://www.w3.org/1999/xlink" x="0px" y="0px"
	 viewBox="0 0 13 11" style="enable-background:new 0 0 13 11;" xml:space="preserve">
<style type="text/css">
	.st0{fill:#FFFFFF;}
</style>
<path class="st0" d="M0.9,1.2c0-0.6,0.4-1,1-1h9.2c0.6,0,1,0.4,1,1c0,0.6-0.4,1-1,1H1.9C1.3,2.2,0.9,1.8,0.9,1.2z"/>
<path class="st0" d="M0.9,5.2c0-0.6,0.4-1,1-1h9.2c0.6,0,1,0.4,1,1c0,0.6-0.4,1-1,1H1.9C1.3,6.2,0.9,5.8,0.9,5.2z"/>
<path class="st0" d="M1.9,8.2c-0.6,0-1,0.4-1,1c0,0.6,0.4,1,1,1h9.2c0.6,0,1-0.4,1-1c0-0.6-0.4-1-1-1H1.9z"/>
</svg>
