<svg width="24" height="24" viewBox="0 0 24 24" fill="none" xmlns="http://www.w3.org/2000/svg">
<path fill-rule="evenodd" clip-rule="evenodd" d="M19.7783 2C20.3675 2.00008 20.9329 2.23379 21.3496 2.65039C21.7664 3.06714 22 3.63329 22 4.22266V19.7773C22 20.3667 21.7664 20.9329 21.3496 21.3496C20.9329 21.7662 20.3675 21.9999 19.7783 22H4.22266C3.63346 22 3.06808 21.7661 2.65137 21.3496C2.23462 20.9329 2 20.3667 2 19.7773V4.22266C2 3.63329 2.23462 3.06714 2.65137 2.65039C3.06808 2.23387 3.63346 2 4.22266 2H19.7783ZM6.30859 15.4424C5.71194 15.4424 5.13967 15.6797 4.71777 16.1016C4.29589 16.5235 4.05859 17.0957 4.05859 17.6924C4.05859 18.2891 4.29589 18.8613 4.71777 19.2832C5.13967 19.7051 5.71194 19.9423 6.30859 19.9424C6.90527 19.9424 7.47747 19.7051 7.89941 19.2832C8.32137 18.8612 8.55859 18.2891 8.55859 17.6924C8.55859 17.0956 8.32137 16.5235 7.89941 16.1016C7.47747 15.6797 6.90527 15.4424 6.30859 15.4424ZM17.6006 15.4424C17.004 15.4425 16.4316 15.6797 16.0098 16.1016C15.588 16.5235 15.3516 17.0958 15.3516 17.6924C15.3516 18.289 15.588 18.8613 16.0098 19.2832C16.4316 19.705 17.004 19.9423 17.6006 19.9424C18.1973 19.9424 18.7704 19.7052 19.1924 19.2832C19.6142 18.8613 19.8516 18.289 19.8516 17.6924C19.8516 17.0958 19.6142 16.5235 19.1924 16.1016C18.7704 15.6796 18.1973 15.4424 17.6006 15.4424ZM12 9.75C11.4034 9.75006 10.8311 9.98728 10.4092 10.4092C9.9873 10.8311 9.75 11.4033 9.75 12C9.75 12.5967 9.9873 13.1689 10.4092 13.5908C10.8311 14.0127 11.4034 14.2499 12 14.25C12.5967 14.25 13.1689 14.0127 13.5908 13.5908C14.0128 13.1689 14.25 12.5967 14.25 12C14.25 11.4033 14.0128 10.8311 13.5908 10.4092C13.1689 9.9873 12.5967 9.75 12 9.75ZM6.30859 3.99414C5.71194 3.99421 5.13967 4.23142 4.71777 4.65332C4.29589 5.07527 4.05859 5.64746 4.05859 6.24414C4.05859 6.84082 4.29589 7.41302 4.71777 7.83496C5.13967 8.25686 5.71194 8.49408 6.30859 8.49414C6.90527 8.49414 7.47747 8.25684 7.89941 7.83496C8.32137 7.413 8.55859 6.84088 8.55859 6.24414C8.55859 5.6474 8.32137 5.07528 7.89941 4.65332C7.47747 4.23144 6.90527 3.99414 6.30859 3.99414ZM17.6006 3.99414C17.004 3.99427 16.4316 4.23148 16.0098 4.65332C15.588 5.07525 15.3516 5.64752 15.3516 6.24414C15.3516 6.84076 15.588 7.41303 16.0098 7.83496C16.4316 8.2568 17.004 8.49401 17.6006 8.49414C18.1973 8.49414 18.7704 8.25692 19.1924 7.83496C19.6142 7.41303 19.8516 6.84076 19.8516 6.24414C19.8516 5.64752 19.6142 5.07525 19.1924 4.65332C18.7704 4.23136 18.1973 3.99414 17.6006 3.99414Z" fill="white"/>
</svg>
