<svg width="24" height="24" viewBox="0 0 24 24" fill="none" xmlns="http://www.w3.org/2000/svg">
<path fill-rule="evenodd" clip-rule="evenodd" d="M19.7842 2.00586C20.3734 2.00594 20.9388 2.23965 21.3555 2.65625C21.7722 3.073 22.0059 3.63915 22.0059 4.22852V19.7832C22.0059 20.3726 21.7722 20.9387 21.3555 21.3555C20.9388 21.7721 20.3734 22.0058 19.7842 22.0059H4.22852C3.63932 22.0059 3.07394 21.772 2.65723 21.3555C2.24048 20.9387 2.00586 20.3726 2.00586 19.7832V4.22852C2.00586 3.63915 2.24048 3.073 2.65723 2.65625C3.07394 2.23973 3.63932 2.00586 4.22852 2.00586H19.7842ZM17.6064 15.4482C17.0099 15.4484 16.4375 15.6856 16.0156 16.1074C15.5938 16.5294 15.3574 17.1016 15.3574 17.6982C15.3574 18.2949 15.5938 18.8671 16.0156 19.2891C16.4375 19.7109 17.0099 19.9481 17.6064 19.9482C18.2032 19.9482 18.7763 19.711 19.1982 19.2891C19.62 18.8671 19.8574 18.2949 19.8574 17.6982C19.8574 17.1016 19.62 16.5294 19.1982 16.1074C18.7763 15.6855 18.2032 15.4482 17.6064 15.4482ZM12.0059 9.75586C11.4092 9.75592 10.8369 9.99314 10.415 10.415C9.99316 10.837 9.75586 11.4092 9.75586 12.0059C9.75586 12.6025 9.99316 13.1747 10.415 13.5967C10.8369 14.0186 11.4092 14.2558 12.0059 14.2559C12.6025 14.2559 13.1747 14.0186 13.5967 13.5967C14.0186 13.1747 14.2559 12.6026 14.2559 12.0059C14.2559 11.4091 14.0186 10.837 13.5967 10.415C13.1747 9.99316 12.6025 9.75586 12.0059 9.75586ZM6.31445 4C5.7178 4.00006 5.14553 4.23728 4.72363 4.65918C4.30175 5.08112 4.06445 5.65332 4.06445 6.25C4.06445 6.84668 4.30175 7.41888 4.72363 7.84082C5.14553 8.26272 5.7178 8.49994 6.31445 8.5C6.91113 8.5 7.48333 8.2627 7.90527 7.84082C8.32723 7.41886 8.56445 6.84674 8.56445 6.25C8.56445 5.65326 8.32723 5.08114 7.90527 4.65918C7.48333 4.2373 6.91113 4 6.31445 4Z" fill="white"/>
</svg>
