<svg width="24" height="24" viewBox="0 0 24 24" fill="none" xmlns="http://www.w3.org/2000/svg">
<path fill-rule="evenodd" clip-rule="evenodd" d="M19.7842 2.00586C20.3734 2.00594 20.9388 2.23965 21.3555 2.65625C21.7722 3.073 22.0059 3.63915 22.0059 4.22852V19.7832C22.0059 20.3726 21.7722 20.9387 21.3555 21.3555C20.9388 21.7721 20.3734 22.0058 19.7842 22.0059H4.22852C3.63932 22.0059 3.07394 21.772 2.65723 21.3555C2.24048 20.9387 2.00586 20.3726 2.00586 19.7832V4.22852C2.00586 3.63915 2.24048 3.073 2.65723 2.65625C3.07394 2.23973 3.63932 2.00586 4.22852 2.00586H19.7842ZM12.0059 9.75586C11.4092 9.75592 10.8369 9.99314 10.415 10.415C9.99316 10.837 9.75586 11.4092 9.75586 12.0059C9.75586 12.6025 9.99316 13.1747 10.415 13.5967C10.8369 14.0186 11.4092 14.2558 12.0059 14.2559C12.6025 14.2559 13.1747 14.0186 13.5967 13.5967C14.0186 13.1747 14.2559 12.6026 14.2559 12.0059C14.2559 11.4091 14.0186 10.837 13.5967 10.415C13.1747 9.99316 12.6025 9.75586 12.0059 9.75586Z" fill="white"/>
</svg>
