<svg width="149" height="149" viewBox="0 0 149 149" fill="none" xmlns="http://www.w3.org/2000/svg">
<rect x="9.56592" y="9.64648" width="129.742" height="129.742" stroke="white"/>
<path d="M135.685 65.4463L143.931 65.4463L148.475 74.5177L143.931 83.5892L135.685 83.5892L135.685 65.4463Z" fill="#A3A0FB"/>
<path d="M143.624 83.0889L136.185 83.0889L136.185 65.9463L143.624 65.9463L147.917 74.5176L143.624 83.0889Z" stroke="white"/>
<path d="M13.6512 65.4463L5.40444 65.4463L0.86084 74.5177L5.40444 83.5892L13.6512 83.5892L13.6512 65.4463Z" fill="#A3A0FB"/>
<path d="M5.7124 83.0889L13.1509 83.0889L13.1509 65.9463L5.7124 65.9463L1.41943 74.5176L5.7124 83.0889Z" stroke="white"/>
<path d="M83.7393 135.535L83.7393 143.781L74.6678 148.325L65.5964 143.781L65.5964 135.535L83.7393 135.535Z" fill="#A3A0FB"/>
<path d="M66.0967 143.473L66.0967 136.035L83.2393 136.035L83.2393 143.473L74.668 147.766L66.0967 143.473Z" stroke="white"/>
<path d="M83.7393 13.5011L83.7393 5.2543L74.6678 0.710693L65.5964 5.2543L65.5964 13.5011L83.7393 13.5011Z" fill="#A3A0FB"/>
<path d="M66.0967 5.56226L66.0967 13.0007L83.2393 13.0007V5.56226L74.668 1.26929L66.0967 5.56226Z" stroke="white"/>
<path d="M143.432 9.21582C143.432 11.2169 141.81 12.8397 139.809 12.8398C137.807 12.8398 136.185 11.217 136.185 9.21582C136.185 7.21485 137.808 5.59277 139.809 5.59277C141.809 5.59296 143.431 7.21496 143.432 9.21582Z" fill="#616161" stroke="white"/>
<path d="M13.1514 9.21582C13.1514 11.2169 11.5293 12.8397 9.52832 12.8398C7.52719 12.8398 5.9043 11.217 5.9043 9.21582C5.9045 7.21485 7.52731 5.59277 9.52832 5.59277C11.5292 5.59296 13.1512 7.21496 13.1514 9.21582Z" fill="#616161" stroke="white"/>
<path d="M143.432 139.819C143.432 141.82 141.81 143.443 139.809 143.443C137.807 143.443 136.185 141.82 136.185 139.819C136.185 137.818 137.808 136.196 139.809 136.196C141.809 136.196 143.431 137.818 143.432 139.819Z" fill="#616161" stroke="white"/>
<path d="M13.1514 139.819C13.1514 141.82 11.5293 143.443 9.52832 143.443C7.52719 143.443 5.9043 141.82 5.9043 139.819C5.9045 137.818 7.52731 136.196 9.52832 136.196C11.5292 136.196 13.1512 137.818 13.1514 139.819Z" fill="#616161" stroke="white"/>
</svg>
