<svg width="16" height="16" viewBox="0 0 16 16" fill="none" xmlns="http://www.w3.org/2000/svg">
<g clip-path="url(#clip0_3436_49386)">
<path d="M1 12.5C1.27614 12.5 1.5 12.7239 1.5 13V14C1.5 14.2761 1.72386 14.5 2 14.5H3C3.27614 14.5 3.5 14.7239 3.5 15C3.5 15.2761 3.27614 15.5 3 15.5H2C1.17157 15.5 0.5 14.8284 0.5 14V13C0.5 12.7239 0.723858 12.5 1 12.5Z" fill="white"/>
<path d="M7 14.5C7.27614 14.5 7.5 14.7239 7.5 15C7.5 15.2761 7.27614 15.5 7 15.5H5C4.72386 15.5 4.5 15.2761 4.5 15C4.5 14.7239 4.72386 14.5 5 14.5H7Z" fill="white"/>
<path d="M11 14.5C11.2761 14.5 11.5 14.7239 11.5 15C11.5 15.2761 11.2761 15.5 11 15.5H9C8.72386 15.5 8.5 15.2761 8.5 15C8.5 14.7239 8.72386 14.5 9 14.5H11Z" fill="white"/>
<path d="M15 12.5C15.2761 12.5 15.5 12.7239 15.5 13V14C15.5 14.8284 14.8284 15.5 14 15.5H13C12.7239 15.5 12.5 15.2761 12.5 15C12.5 14.7239 12.7239 14.5 13 14.5H14C14.2761 14.5 14.5 14.2761 14.5 14V13C14.5 12.7239 14.7239 12.5 15 12.5Z" fill="white"/>
<path d="M4.20801 10.5293C4.37402 10.5286 4.53969 10.5602 4.69336 10.623C4.84691 10.6859 4.98662 10.7797 5.10449 10.8965C5.59576 11.3881 5.59204 12.189 5.0957 12.6855C4.97896 12.8034 4.83946 12.8976 4.68652 12.9619C4.53348 13.0262 4.36813 13.0587 4.20215 13.0596C4.03636 13.0603 3.87225 13.0285 3.71875 12.9658C3.56498 12.903 3.4237 12.8112 3.30566 12.6943C2.8145 12.2028 2.81895 11.4014 3.31445 10.9053C3.43119 10.7874 3.5707 10.6932 3.72363 10.6289C3.87674 10.5646 4.04195 10.5301 4.20801 10.5293Z" fill="white"/>
<path d="M4.22461 8.00098C4.72102 7.99768 5.21356 8.09289 5.67285 8.28125C6.13217 8.46973 6.55026 8.74761 6.90137 9.09863C7.25246 9.44973 7.53021 9.86781 7.71875 10.3271C7.90729 10.7867 8.00335 11.2806 8 11.7773L6.73535 11.7832C6.73765 11.4521 6.67343 11.1237 6.54785 10.8174C6.42218 10.511 6.23708 10.2322 6.00293 9.99805C5.76876 9.7639 5.48997 9.57781 5.18359 9.45215C4.87737 9.32667 4.5487 9.26332 4.21777 9.26562L4.22461 8.00098Z" fill="white"/>
<path d="M4.2373 5.4707C5.06509 5.46484 5.88641 5.62348 6.65234 5.9375C7.41834 6.25162 8.11477 6.71537 8.7002 7.30078C9.28555 7.8862 9.74841 8.58267 10.0625 9.34863C10.3765 10.1145 10.5361 10.935 10.5303 11.7627L9.26465 11.7695C9.26929 11.1073 9.14284 10.4496 8.8916 9.83691C8.6403 9.22424 8.26903 8.66747 7.80078 8.19922C7.33257 7.73105 6.77567 7.36065 6.16309 7.10938C5.55047 6.85817 4.89354 6.73075 4.23145 6.73535L4.2373 5.4707Z" fill="white"/>
<path d="M4.25 2.94043C5.40897 2.93228 6.55851 3.15502 7.63086 3.59473C8.70323 4.03452 9.67748 4.68337 10.4971 5.50293C11.3166 6.32243 11.9655 7.2969 12.4053 8.36914C12.8449 9.44144 13.0677 10.5911 13.0596 11.75L11.7949 11.7568C11.8019 10.7633 11.6113 9.77766 11.2344 8.8584C10.8574 7.93918 10.3012 7.1039 9.59863 6.40137C8.89609 5.69886 8.06083 5.14259 7.1416 4.76562C6.22237 4.3887 5.23665 4.19807 4.24316 4.20508L4.25 2.94043Z" fill="white"/>
<path d="M1 8.5C1.27614 8.5 1.5 8.72386 1.5 9V11C1.5 11.2761 1.27614 11.5 1 11.5C0.723858 11.5 0.5 11.2761 0.5 11V9C0.5 8.72386 0.723858 8.5 1 8.5Z" fill="white"/>
<path d="M15 8.5C15.2761 8.5 15.5 8.72386 15.5 9V11C15.5 11.2761 15.2761 11.5 15 11.5C14.7239 11.5 14.5 11.2761 14.5 11V9C14.5 8.72386 14.7239 8.5 15 8.5Z" fill="white"/>
<path d="M1 4.5C1.27614 4.5 1.5 4.72386 1.5 5V7C1.5 7.27614 1.27614 7.5 1 7.5C0.723858 7.5 0.5 7.27614 0.5 7V5C0.5 4.72386 0.723858 4.5 1 4.5Z" fill="white"/>
<path d="M15 4.5C15.2761 4.5 15.5 4.72386 15.5 5V7C15.5 7.27614 15.2761 7.5 15 7.5C14.7239 7.5 14.5 7.27614 14.5 7V5C14.5 4.72386 14.7239 4.5 15 4.5Z" fill="white"/>
<path d="M3 0.5C3.27614 0.5 3.5 0.723858 3.5 1C3.5 1.27614 3.27614 1.5 3 1.5H2C1.72386 1.5 1.5 1.72386 1.5 2V3C1.5 3.27614 1.27614 3.5 1 3.5C0.723858 3.5 0.5 3.27614 0.5 3V2C0.5 1.17157 1.17157 0.5 2 0.5H3Z" fill="white"/>
<path d="M14 0.5C14.8284 0.5 15.5 1.17157 15.5 2V3C15.5 3.27614 15.2761 3.5 15 3.5C14.7239 3.5 14.5 3.27614 14.5 3V2C14.5 1.72386 14.2761 1.5 14 1.5H13C12.7239 1.5 12.5 1.27614 12.5 1C12.5 0.723858 12.7239 0.5 13 0.5H14Z" fill="white"/>
<path d="M7 0.5C7.27614 0.5 7.5 0.723858 7.5 1C7.5 1.27614 7.27614 1.5 7 1.5H5C4.72386 1.5 4.5 1.27614 4.5 1C4.5 0.723858 4.72386 0.5 5 0.5H7Z" fill="white"/>
<path d="M11 0.5C11.2761 0.5 11.5 0.723858 11.5 1C11.5 1.27614 11.2761 1.5 11 1.5H9C8.72386 1.5 8.5 1.27614 8.5 1C8.5 0.723858 8.72386 0.5 9 0.5H11Z" fill="white"/>
</g>
<defs>
<clipPath id="clip0_3436_49386">
<rect width="16" height="16" fill="white"/>
</clipPath>
</defs>
</svg>
