<svg width="56" height="80" viewBox="0 0 56 80" fill="none" xmlns="http://www.w3.org/2000/svg">
<path fill-rule="evenodd" clip-rule="evenodd" d="M0.583252 8.66665C0.583252 6.58912 1.40855 4.59668 2.87758 3.12764C4.34662 1.65861 6.33906 0.833313 8.41658 0.833313H47.5833C49.6608 0.833313 51.6532 1.65861 53.1223 3.12764C54.5913 4.59668 55.4166 6.58912 55.4166 8.66665V15.9516C55.4162 19.1756 54.6199 22.3496 53.0983 25.192C51.5767 28.0343 49.3769 30.457 46.6942 32.245L35.0617 40L46.6942 47.755C49.3769 49.543 51.5767 51.9657 53.0983 54.808C54.6199 57.6503 55.4162 60.8243 55.4166 64.0483V71.3333C55.4166 73.4108 54.5913 75.4033 53.1223 76.8723C51.6532 78.3414 49.6608 79.1666 47.5833 79.1666H8.41658C6.33906 79.1666 4.34662 78.3414 2.87758 76.8723C1.40855 75.4033 0.583252 73.4108 0.583252 71.3333V64.0483C0.5832 60.8247 1.37893 57.6509 2.89983 54.8086C4.42073 51.9663 6.61975 49.5434 9.30175 47.755L20.9421 40L9.30959 32.245C6.62614 30.4574 4.42558 28.0349 2.90328 25.1926C1.38099 22.3502 0.584059 19.176 0.583252 15.9516V8.66665ZM27.9999 35.2921L42.3506 25.7237C43.9595 24.6512 45.2789 23.1982 46.1917 21.4935C47.1045 19.7889 47.5825 17.8853 47.5833 15.9516V8.66665H8.41658V15.9516C8.41737 17.8853 8.89536 19.7889 9.80814 21.4935C10.7209 23.1982 12.0403 24.6512 13.6493 25.7237L27.9999 35.2921ZM27.9999 44.7078L13.6493 54.2762C12.0403 55.3488 10.7209 56.8018 9.80814 58.5064C8.89536 60.2111 8.41737 62.1147 8.41658 64.0483V71.3333H47.5833V64.0483C47.5825 62.1147 47.1045 60.2111 46.1917 58.5064C45.2789 56.8018 43.9595 55.3488 42.3506 54.2762L27.9999 44.7078Z" fill="white"/>
<path d="M14.0586 21.1002L41.0812 21.1002L35.4978 25.9436C33.861 27.3634 31.7671 28.145 29.6003 28.145H25.6971C23.5726 28.145 21.5166 27.3935 19.8929 26.0234L14.0586 21.1002Z" fill="white"/>
</svg>
